<?xml version="1.0" standalone="no"?><!-- Generator: Gravit.io --><svg xmlns="http://www.w3.org/2000/svg" xmlns:xlink="http://www.w3.org/1999/xlink" style="isolation:isolate" viewBox="0 0 1280 960" width="1280" height="960"><g id="null"><rect x="163" y="158" width="110" height="555" transform="matrix(1,0,0,1,0,0)" fill="rgb(255,197,109)"/><rect x="875" y="158" width="79" height="555" transform="matrix(1,0,0,1,0,0)" fill="rgb(57,145,134)"/><rect x="1015" y="159.283" width="110" height="555" transform="matrix(1,0,0,1,0,0)" fill="rgb(106,154,232)"/><rect x="721" y="153.283" width="110" height="555" transform="matrix(0.987,0.162,-0.162,0.987,79.764,-119.676)" fill="rgb(106,217,217)"/><rect x="394" y="158" width="110" height="555" transform="matrix(0.916,0.402,-0.402,0.916,212.785,-143.692)" fill="rgb(255,111,111)"/><rect x="542.645" y="178.688" width="71.224" height="555" transform="matrix(0.856,0.517,-0.517,0.856,319.346,-233.344)" fill="rgb(104,255,112)"/></g><path d=" M 161.5 156.5 L 274.5 156.5 L 274.5 714.5 L 161.5 714.5 L 161.5 156.5 Z  M 164.5 159.5 L 271.5 159.5 L 271.5 711.5 L 164.5 711.5 L 164.5 159.5 Z " fill-rule="evenodd" fill="rgb(62,62,62)"/><path d=" M 873.5 156.5 L 955.5 156.5 L 955.5 714.5 L 873.5 714.5 L 873.5 156.5 Z  M 876.5 159.5 L 952.5 159.5 L 952.5 711.5 L 876.5 711.5 L 876.5 159.5 Z " fill-rule="evenodd" fill="rgb(62,62,62)"/><path d=" M 1013.5 157.8 L 1126.5 157.8 L 1126.5 715.8 L 1013.5 715.8 L 1013.5 157.8 Z  M 1016.5 160.8 L 1123.5 160.8 L 1123.5 712.8 L 1016.5 712.8 L 1016.5 160.8 Z " fill-rule="evenodd" fill="rgb(62,62,62)"/><path d=" M 765.3 146.3 L 876.8 164.6 L 786.7 715.2 L 675.2 697 L 765.3 146.3 Z  M 767.8 149.8 L 873.4 167 L 784.2 711.8 L 678.6 694.5 L 767.8 149.8 Z " fill-rule="evenodd" fill="rgb(62,62,62)"/><path d=" M 509.3 157.3 L 612.8 202.7 L 388.7 713.7 L 285.2 668.3 L 509.3 157.3 Z  M 510.9 161.3 L 608.9 204.2 L 387.1 709.7 L 289.1 666.8 L 510.9 161.3 Z " fill-rule="evenodd" fill="rgb(62,62,62)"/><path d=" M 690.8 198.2 L 754.3 236.6 L 465.7 714.2 L 402.2 675.8 L 690.8 198.2 Z  M 691.8 202.3 L 750.2 237.6 L 464.7 710 L 406.3 674.7 L 691.8 202.3 Z " fill-rule="evenodd" fill="rgb(62,62,62)"/><rect x="0.5" y="712.5" width="1279" height="37" transform="matrix(1,0,0,1,0,0)" fill="rgb(62,62,62)"/></svg>