<?xml version="1.0" standalone="no"?><!-- Generator: Gravit.io --><svg xmlns="http://www.w3.org/2000/svg" xmlns:xlink="http://www.w3.org/1999/xlink" style="isolation:isolate" viewBox="0 0 1280 960" width="1280" height="960"><rect x="25.927" y="632.215" width="1206.283" height="21.785" transform="matrix(1,0,0,1,0,0)" fill="rgb(62,62,62)"/><path d=" M 760.865 308.26 L 618.519 632.731 L 45.689 381.429 L 77.788 308.26 L 760.865 308.26 L 760.865 308.26 Z " fill="rgb(255,111,111)"/><path d=" M 1254.073 306 L 1056.643 632.645 L 710.016 423.137 L 780.815 306 L 1254.073 306 L 1254.073 306 Z " fill="rgb(104,255,112)"/><path d=" M 762.6 307.1 L 619.1 634.2 L 44.2 382 L 77.1 307.1 L 762.6 307.1 Z  M 759.1 309.4 L 617.9 631.2 L 47.2 380.8 L 78.5 309.4 L 759.1 309.4 Z " fill-rule="evenodd" fill="rgb(62,62,62)"/><g transform="matrix(1.13,0,0,1.13,657,553.709)"><text transform="matrix(1,0,0,1,0,53.442)" style="font-family:&quot;Open Sans&quot;;font-weight:400;font-size:50px;font-style:normal;fill:#3e3e3e;stroke:none;">θ</text></g><path d=" M 1256.1 304.9 L 1057 634.2 L 708.5 423.5 L 780.2 304.9 L 1256.1 304.9 Z  M 1252.1 307.1 L 1056.3 631.1 L 711.6 422.8 L 781.5 307.1 L 1252.1 307.1 Z " fill-rule="evenodd" fill="rgb(62,62,62)"/><g transform="matrix(1.13,0,0,1.13,1104.429,553.709)"><text transform="matrix(1,0,0,1,0,53.442)" style="font-family:&quot;Open Sans&quot;;font-weight:400;font-size:50px;font-style:normal;fill:#3e3e3e;stroke:none;">α</text></g><path d=" M 637.6 595.6 L 635.1 594.4 L 637.5 589.3 L 640.1 590.6 C 656.5 598.6 667 615.4 667 633.7 C 667 633.7 667 633.7 667 633.7 L 667 634.9 L 667 637.8 L 661.3 637.7 L 661.4 634.9 L 661.4 633.7 C 661.4 617.5 652.1 602.7 637.6 595.6 Z " fill="rgb(62,62,62)"/><path d=" M 747.1 448.5 L 749.2 446.5 L 753 450.6 L 751 452.6 C 742.1 460.9 730.4 465.5 718.2 465.5 C 710.8 465.5 703.5 463.8 696.8 460.5 L 694.3 459.2 L 696.8 454.2 L 699.3 455.4 C 705.2 458.3 711.7 459.9 718.2 459.9 C 728.9 459.9 739.3 455.8 747.1 448.5 Z " fill="rgb(62,62,62)"/><path d=" M 1082.8 595.6 L 1080.2 594.4 L 1082.7 589.3 L 1085.2 590.6 C 1101.7 598.6 1112.2 615.4 1112.2 633.7 C 1112.2 633.7 1112.2 633.7 1112.2 633.7 L 1112.2 634.9 L 1112.2 637.8 L 1106.5 637.7 L 1106.5 634.9 L 1106.6 633.7 C 1106.5 617.5 1097.3 602.7 1082.8 595.6 Z " fill="rgb(62,62,62)"/><g transform="matrix(1.13,0,0,1.13,863.766,450.521)"><text transform="matrix(1,0,0,1,0,53.442)" style="font-family:&quot;Open Sans&quot;;font-weight:400;font-size:50px;font-style:normal;fill:#3e3e3e;stroke:none;">λ</text></g><g transform="matrix(1.13,0,0,1.13,819,663.905)"><text transform="matrix(1,0,0,1,0,53.442)" style="font-family:&quot;Open Sans&quot;;font-weight:400;font-size:50px;font-style:normal;fill:#3e3e3e;stroke:none;">d</text></g><g transform="matrix(1.13,0,0,1.13,710.016,446.5)"><text transform="matrix(1,0,0,1,0,53.442)" style="font-family:&quot;Open Sans&quot;;font-weight:400;font-size:50px;font-style:normal;fill:#3e3e3e;stroke:none;">ε</text></g><path d=" M 610 633 C 610 628.033 614.033 624 619 624 C 623.967 624 628 628.033 628 633 C 628 637.967 623.967 642 619 642 C 614.033 642 610 637.967 610 633 Z " fill="rgb(242,131,46)"/><path d=" M 1048 633 C 1048 628.033 1052.033 624 1057 624 C 1061.967 624 1066 628.033 1066 633 C 1066 637.967 1061.967 642 1057 642 C 1052.033 642 1048 637.967 1048 633 Z " fill="rgb(242,131,46)"/></svg>