<?xml version="1.0" standalone="no"?><!-- Generator: Gravit.io --><svg xmlns="http://www.w3.org/2000/svg" xmlns:xlink="http://www.w3.org/1999/xlink" style="isolation:isolate" viewBox="0 0 1281.3024051650204 814.833690141664" width="1281.3024051650204" height="814.833690141664"><rect x="1.936351436698942" y="14.914718534562269" width="1277.429702291622" height="786.1105860256134" transform="matrix(0.9999970445990107,-0.002431212299280681,0.0024312122992806813,0.9999970445990107,-0.989968328613827,1.55876479824326)" fill="none"/><rect x="1.936351436698942" y="14.914718534562269" width="1277.429702291622" height="786.1105860256134" transform="matrix(0.9999970445990107,-0.002431212299280681,0.0024312122992806813,0.9999970445990107,-0.989968328613827,1.55876479824326)" fill="rgb(255,255,255)"/><path d=" M 2.893839957872234 802.5769943260129 L 1280.3197669324884 799.471291522335 M 2.7027197853382123 723.966168050652 L 1280.1286467599546 720.8604652469741 M 2.511599612804191 645.355341775291 L 1279.9375265874205 642.2496389716131 M 2.3204794402701694 566.74451549993 L 1279.7464064148865 563.6388126962521 M 2.1293592677361475 488.133689224569 L 1279.5552862423524 485.0279864208911 M 1.938239095202126 409.52286294920793 L 1279.3641660698183 406.41716014553015 M 1.7471189226681045 330.91203667384696 L 1279.1730458972843 327.80633387016917 M 1.5559987501340828 252.301210398486 L 1278.9819257247505 249.19550759480816 M 1.3601005732867109 171.72511346624097 L 1278.786027547903 168.61941066256313 M 1.1689804007526892 93.11428719087998 L 1278.5949073753688 90.00858438720212 M 0.9826382325320182 16.468731572403016 L 1278.4085652071483 13.363028768725165 M 42.25332202709654 16.368393481822654 L 44.16452375243675 802.4766562354325 M 126.75996027310961 16.162939296348583 L 128.67116199844983 802.2712020499584 M 213.2318691760067 15.952707106561157 L 215.14307090134693 802.0609698601711 M 297.7385074220197 15.747252921087084 L 299.64970914735994 801.855515674697 M 382.2451456680328 15.54179873561301 L 384.15634739337304 801.6500614892229 M 468.7170545709299 15.331566545825588 L 470.62825629627014 801.4398292994355 M 553.2236928169431 15.126112360351515 L 555.1348945422833 801.2343751139614 M 637.7303310629561 14.920658174877442 L 639.6415327882963 801.0289209284873 M 724.2022399658532 14.710425985090017 L 726.1134416911934 800.8186887387 M 808.7088782118662 14.504971799615944 L 810.6200799372065 800.6132345532259 M 893.2155164578793 14.299517614141871 L 895.1267181832195 800.4077803677518 M 979.6874253607764 14.089285424354447 L 981.5986270861166 800.1975481779643 M 1064.1940636067895 13.883831238880374 L 1066.1052653321296 799.9920939924903 M 1148.7007018528025 13.678377053406301 L 1150.6119035781426 799.7866398070162 M 1235.1726107556997 13.468144863618878 L 1237.0838124810398 799.5764076172288" fill-rule="evenodd" fill="none" vector-effect="non-scaling-stroke" stroke-width="1.965276465064034" stroke="rgb(208,208,208)" stroke-linejoin="miter" stroke-linecap="butt" stroke-miterlimit="4"/><line x1="639.6956017198402" y1="14.91588017056409" x2="641.6068034451804" y2="801.024142924174" vector-effect="non-scaling-stroke" stroke-width="1.965276465064034" stroke="rgb(0,0,0)" stroke-linejoin="miter" stroke-linecap="butt" stroke-miterlimit="4"/><path d=" M 628.8325441754341 801.0551999522108 L 654.3810627149265 800.9930858961372 M 628.6414240029001 722.4443736768499 L 654.1899425423925 722.3822596207763 M 628.4503038303661 643.8335474014889 L 653.9988223698585 643.7714333454153 M 628.2591836578321 565.2227211261279 L 653.8077021973245 565.1606070700543 M 628.068063485298 486.6118948507668 L 653.6165820247904 486.54978079469333 M 627.876943312764 408.00106857540584 L 653.4254618522564 407.93895451933224 M 627.68582314023 329.39024230004486 L 653.2343416797224 329.32812824397126 M 627.494702967696 250.77941602468385 L 653.0432215071884 250.71730196861031 M 627.3035827951619 172.16858974932285 L 652.8521013346543 172.1064756932493 M 627.112462622628 93.55776347396186 L 652.6609811621204 93.4956494178883 M 626.9213424500939 14.94693719860087 L 652.4698609895863 14.884823142527312" fill-rule="evenodd" fill="none" vector-effect="non-scaling-stroke" stroke-width="1.965276465064034" stroke="rgb(0,0,0)" stroke-linejoin="miter" stroke-linecap="butt" stroke-miterlimit="4"/><line x1="1.938239095202126" y1="409.52286294920793" x2="1279.3641660698183" y2="406.41716014553015" vector-effect="non-scaling-stroke" stroke-width="1.965276465064034" stroke="rgb(0,0,0)" stroke-linejoin="miter" stroke-linecap="butt" stroke-miterlimit="4"/><path d=" M 44.49459720184216 396.6450643259915 L 44.55671125791572 422.1935828654838 M 129.64977476462698 396.438033399094 L 129.71188882070052 421.98655193858633 M 214.80495232741177 396.23100247219656 L 214.8670663834853 421.77952101168887 M 299.97978259676535 396.023923765256 L 300.04189665283894 421.5724423047483 M 385.13496015955013 395.8168928383584 L 385.19707421562373 421.3654113778507 M 470.290137722335 395.60986191146094 L 470.3522517784086 421.15838045095325 M 555.4649679916887 395.40278320452035 L 555.5270820477622 420.95130174401265 M 640.6201455544735 395.1957522776229 L 640.682259610547 420.7442708171152 M 725.7753231172583 394.9887213507254 L 725.8374371733318 420.53723989021773 M 810.950153386612 394.78164264378483 L 811.0122674426855 420.33016118327714 M 896.1053309493967 394.57461171688726 L 896.1674450054702 420.12313025637957 M 981.2605085121814 394.3675807899898 L 981.3226225682549 419.9160993294821 M 1066.4353387815352 394.1605020830492 L 1066.4974528376088 419.7090206225415 M 1151.59051634432 393.95347115615175 L 1151.6526304003935 419.50198969564406 M 1236.7456939071049 393.7464402292543 L 1236.8078079631784 419.2949587687466" fill-rule="evenodd" fill="none" vector-effect="non-scaling-stroke" stroke-width="1.965276465064034" stroke="rgb(0,0,0)" stroke-linejoin="miter" stroke-linecap="butt" stroke-miterlimit="4"/><path d=" M 640.6491480406555 407.1249451649089 L 640.6481924397929 406.73189103353207 L 640.6650739038599 405.59198627249623 L 640.6818120277976 404.3931233917539 L 640.6981201313471 403.01738615189186 L 640.7534947478186 401.5432898190994 L 640.8087260241606 400.01023536660045 L 640.8834188868991 398.3985223077831 L 640.977621116077 396.72780334921606 L 641.0717755652117 395.03743168408005 L 641.2051398673979 393.30765904572024 L 641.3581568761527 391.5778386273172 L 641.5110783248215 389.8087127957765 L 641.7032574065847 388.0198386975808 L 641.8954364883481 386.23096459938495 L 642.1268732032058 384.42234223453397 L 642.3582621380205 382.59406716311423 L 642.6289564859728 380.7656965316082 L 642.8996508339253 378.9373259001022 L 643.2096028149721 377.0892070019411 L 643.519554796019 375.24108810378004 L 643.8687644101603 373.37322093896375 L 644.217974024302 371.5053537741476 L 644.606489051581 369.637391049245 L 645.0146567854289 367.76938054429945 L 645.422824519277 365.90137003935376 L 645.8702498862194 364.01361126775305 L 646.3373279597307 362.1258047161092 L 646.804406033242 360.23799816446535 L 647.3107895198912 358.3500960527351 L 647.8368257131091 356.462146160962 L 648.3824668328525 354.55449578257674 L 648.9478084392082 352.6664503307171 L 649.5327549720894 350.7587043922457 L 650.1374019915826 348.8705633802998 L 650.7616539376015 346.96272188174214 L 651.4055585901893 345.0548326031411 L 652.0691159493459 343.14689554449717 L 652.7523260150714 341.23891070581 L 653.4551410073227 339.3112253805108 L 654.1973091927546 337.4030972016942 L 654.9394773781866 335.4949690228776 L 655.7012504901442 333.56714035744903 L 656.5023767952828 331.65886883850305 L 657.3035031004213 329.7505973195572 L 658.1438870386543 327.82257753395606 L 659.0039236834562 325.8945099683118 L 659.8640081083012 323.98609510923643 L 660.7633501662407 322.0579319835059 L 661.6823449307491 320.12972107773237 L 662.6209924018265 318.2014623919156 L 663.5792925794725 316.27315592605567 L 664.5572454636873 314.3448016801526 L 665.5548510544712 312.41639965420654 L 666.5721093518239 310.4879498482172 L 667.6090203557452 308.5594522621848 L 668.6655840662355 306.6309068961093 L 669.7418004832946 304.7023137499906 L 670.8573223134915 302.7736250437856 L 671.9728441436882 300.84493633758075 L 673.1276713870228 298.9161520712895 L 674.2824508503141 296.9677150984294 L 675.4765835067864 295.038835272052 L 676.6707161632585 293.10995544567436 L 677.9041542328683 291.1809800592107 L 679.1571972290039 289.2323041861349 L 680.4299407117514 287.30323323958487 L 681.7222891210247 285.35446180642293 L 683.0343380169098 283.4252952997866 L 684.366039619364 281.4960810131072 L 685.7173461483436 279.54716623981585 L 687.0883531639355 277.61785639305015 L 688.4789651060529 275.66884605967243 L 689.908882461308 273.71974016620857 L 691.3388475966062 271.79028697931346 L 692.808070364999 269.8410855257632 L 694.277340913435 267.91153677878185 L 695.7858690949655 265.96223976514545 L 697.2943972764959 264.01294275150894 L 698.8422786512073 262.08320288435505 L 700.4097649524442 260.1337625305892 L 701.99690396025 258.1842743967802 L 703.6037434546679 256.2543911894969 L 705.2301878756114 254.30480749560164 L 706.8762850031238 252.35517602166325 L 708.542034837205 250.4054967676817 L 710.2274851578982 248.47542244022588 L 711.952193111686 246.52559984611494 L 713.6769010654737 244.57577725200403 L 715.4212617258302 242.62590687784993 L 717.2049277993244 240.67594094360962 L 718.9886416528618 238.74562771593813 L 720.8116131394937 236.79556622161152 L 722.6542373326945 234.8454569472418 L 724.516514232464 232.89529989282892 L 726.3787911322337 230.94514283841607 L 728.280373445141 228.99489022391694 L 730.2016084646172 227.04458982937464 L 732.162148897231 225.0941938747461 L 734.1226893298448 223.14379792011758 L 736.1028824690275 221.1933541854459 L 738.1027283147788 219.2428626707311 L 740.1419273537113 217.31192830249887 L 742.1810786126003 215.36134122769784 L 744.2398825780583 213.4107063728536 L 746.337991956654 211.45997595792312 L 748.4557540418186 209.50919776294953 L 750.57346834694 207.5387668614071 L 752.7305358452421 205.58789310634722 L 754.9072560501131 203.6369715712442 L 757.1036289615531 201.68600225609808 L 759.3196545795619 199.73498516090882 L 761.5553329041394 197.7839202856764 L 763.8106639352858 195.83280763040085 L 766.10530037957 193.88159941503906 L 768.399936823854 191.93039119967727 L 770.7142259747069 189.97913520427232 L 773.0678205386976 188.0277836487811 L 775.4214151026882 186.0764320932899 L 777.8143150798164 184.12498497771244 L 780.2071672769016 182.15388515556612 L 782.6393726671677 180.2023424799024 L 785.0912307640024 178.25075202419552 L 787.5627415674061 176.2991137884455 L 790.0539050773785 174.34742777265237 L 792.5647212939199 172.39569397681606 L 795.095142436987 170.42425969436783 L 797.645264066666 168.47243033844532 L 800.2346911094826 166.5205054224365 L 802.8241181522994 164.56858050642768 L 805.4331979016848 162.61660781037574 L 808.0815352841649 160.64488684766872 L 810.7299204466882 158.6928185915305 L 813.4176110223492 156.740654775306 L 816.1249543045789 154.7884431790384 L 818.8519502933774 152.8361838027277 L 821.5788985021329 150.86427171984812 L 824.3451999040692 148.91191678345106 L 827.1311540125741 146.95951406701093 L 829.9367608276481 145.0070635705277 L 832.7816252758166 143.03486480738928 L 835.6265375040283 141.08231875081975 L 838.4911024388088 139.12972491420706 L 841.3949727867268 137.1770355175081 L 844.2987953546019 135.20469341424032 L 847.2419711156576 133.2519084574551 L 850.1851468767135 131.2991235006699 L 853.1675802708638 129.32659027722957 L 856.1697141516262 127.37366198031498 L 859.1718480323885 125.42073368340037 L 862.2132395462454 123.44805711983065 L 865.2743315467142 121.49498548278665 L 868.355076253752 119.54186606569951 L 871.4751263739274 117.58865108852609 L 874.5951287140596 115.61578340478384 L 877.734831540804 113.66252064756729 L 880.9138397806857 111.70916233026446 L 884.0928002405245 109.73615130639283 L 887.3111138935441 107.78269742900375 L 890.5293797665206 105.80959084504582 L 893.7869988326779 103.85604140757049 L 897.064270605404 101.902444190052 L 900.3414945980868 99.92919426596468 L 903.6580717839507 97.97550148835994 L 906.9943016763833 96.02176093071206 L 910.3501364953416 94.04831988645219 L 913.7453245074807 92.09443598867492 L 917.14051251962 90.14055209089763 L 920.5553054582848 88.16696770650839 L 923.9897988835615 86.21298824864483 L 927.4635499419329 84.23926052412618 L 930.9373487803475 82.28518550617636 L 934.4504530318997 80.33101492814026 L 937.9831622099775 78.35714386349223 L 941.5159191680987 76.40292550541301 L 945.0879337593142 74.42895888067869 L 948.6796488371417 72.47459718247006 L 952.290968841495 70.50053499764948 L 955.9219893324602 68.54607773935459 L 959.5726625299943 66.59157270101659 L 963.2625933606229 64.61731939602346 L 966.9525719712946 62.66271879759917 L 970.6621555084922 60.68841771256292 L 974.4110922388703 58.73367377400923 L 978.1599811892055 56.75927712888671 L 981.9482233327215 54.80443763024675 L 985.7561181828063 52.84955035156367 L 989.563965252848 50.87501036631174 L 993.4111655160704 48.92002752754239 L 997.2779707058186 46.94534420216107 L 1001.1644763821787 44.99026580330545 L 1005.0705869850646 43.01548691783786 L 1008.9963980745624 41.06031295889598 L 1012.9222091640602 39.105138999954086 L 1016.8480680336012 37.16961774758104 L 1020.7739269031422 35.23409649520799 L 1024.6998335527262 33.31822794940379 L 1028.6257402023102 31.402359403599583 L 1032.5516468518945 29.48649085779538 L 1036.4776012815219 27.590275018560014 L 1040.403603491192 25.713711885893492 L 1044.3296057008624 23.837148753226966 L 1048.255655690576 21.980238327129282 L 1052.1817056802893 20.123327901031598 L 1056.107755670003 18.266417474933913 L 1060.0338534397595 16.42915975540507 L 1063.9599512095162 14.591902035876226 L 1067.886096759316 12.77429702291622" fill="none" vector-effect="non-scaling-stroke" stroke-width="4" stroke="rgb(247,30,30)" stroke-linejoin="miter" stroke-linecap="butt" stroke-miterlimit="4"/><path d=" M 215.79161021811865 802.0593931187477 L 215.79161021811865 802.0593931187477 L 217.92897722980888 800.0889144371622 L 220.0466915349303 798.1184835356197 L 222.16440584005167 796.1480526340772 L 224.30177285174193 794.1775739524916 L 226.4194871568633 792.2071430509493 L 228.5372014619847 790.2367121494068 L 230.67456847367495 788.2662334678212 L 232.79228277879633 786.2958025662788 L 234.90999708391772 784.3253716647363 L 237.04736409560797 782.3548929831508 L 239.16507840072936 780.3844620816084 L 241.28279270585077 778.4140311800659 L 243.420159717541 776.4435524984802 L 245.53787402266238 774.4731215969377 L 247.6555883277838 772.5026906953955 L 249.79295533947402 770.5322120138098 L 251.9106696445954 768.5617811122673 L 254.0283839497168 766.591350210725 L 256.165750961407 764.6208715291393 L 258.2834652665284 762.6504406275968 L 260.40117957164983 760.6800097260544 L 262.53854658334 758.7095310444689 L 264.6562608884615 756.7391001429264 L 266.7739751935829 754.7686692413839 L 268.91134220527306 752.7981905597984 L 271.02905651039447 750.827759658256 L 273.14677081551594 748.8573287567135 L 275.28413782720605 746.886850075128 L 277.4018521323275 744.9164191735855 L 279.51956643744893 742.945988272043 L 281.6569334491391 740.9755095904575 L 283.7746477542605 739.0050786889151 L 285.892362059382 737.0346477873726 L 288.0297290710721 735.064169105787 L 290.14744337619356 733.0937382042446 L 292.265157681315 731.1233073027022 L 294.4025246930052 729.1528286211166 L 296.52023899812656 727.1823977195742 L 298.637953303248 725.2119668180317 L 300.77532031493826 723.241488136446 L 302.8930346200596 721.2710572349037 L 305.0107489251811 719.3006263333613 L 307.14811593687125 717.3301476517756 L 309.26583024199266 715.3597167502331 L 311.38354454711407 713.3892858486907 L 313.5209115588043 711.4188071671052 L 315.63862586392565 709.4483762655627 L 317.7563401690471 707.4779453640203 L 319.8937071807373 705.5074666824347 L 322.01142148585876 703.5370357808922 L 324.1291357909801 701.5666048793498 L 326.26650280267035 699.5961261977643 L 328.38421710779176 697.6256952962218 L 330.50193141291317 695.6552643946793 L 332.63929842460334 693.6847857130938 L 334.7570127297248 691.7143548115514 L 336.87472703484616 689.7439239100089 L 339.0120940465364 687.7734452284233 L 341.1298083516578 685.8030143268809 L 343.2475226567792 683.8325834253384 L 345.3848896684694 681.8621047437529 L 347.50260397359085 679.8916738422105 L 349.6203182787122 677.921242940668 L 351.75768529040243 675.9507642590823 L 353.87539959552385 673.98033335754 L 355.9931139006453 672.0099024559975 L 358.13048091233543 670.039423774412 L 360.2481952174569 668.0689928728694 L 362.3659095225783 666.0985619713271 L 364.5032765342685 664.1280832897414 L 366.6209908393899 662.1576523881989 L 368.73870514451136 660.1872214866567 L 370.87607215620153 658.216742805071 L 372.99378646132294 656.2463119035285 L 375.1115007664444 654.2758810019861 L 377.2488677781345 652.3054023204005 L 379.366582083256 650.3349714188581 L 381.4842963883774 648.3645405173156 L 383.62166340006763 646.3940618357301 L 385.739377705189 644.4236309341876 L 387.85709201031045 642.4532000326451 L 389.9944590220006 640.4827213510597 L 392.11217332712204 638.5122904495172 L 394.22988763224345 636.5418595479747 L 396.3672546439337 634.5713808663891 L 398.48496894905503 632.6009499648467 L 400.6026832541765 630.6305190633043 L 402.74005026586667 628.6600403817187 L 404.8577645709881 626.6896094801763 L 406.9754788761095 624.7191785786338 L 409.1128458877997 622.7486998970481 L 411.2305601929211 620.7782689955059 L 413.34827449804254 618.8078380939634 L 415.4856415097327 616.8373594123777 L 417.6033558148542 614.8669285108352 L 419.72107011997554 612.8964976092929 L 421.85843713166577 610.9260189277073 L 423.9761514367872 608.9555880261648 L 426.0938657419086 606.9851571246224 L 428.23123275359876 605.0146784430368 L 430.3489470587202 603.0442475414943 L 432.4666613638416 601.073816639952 L 434.6040283755318 599.1033379583664 L 436.7217426806532 597.1329070568239 L 438.83945698577463 595.1624761552814 L 440.97682399746486 593.1919974736959 L 443.0945383025863 591.2215665721535 L 445.21225260770774 589.251135670611 L 447.34961961939786 587.2806569890255 L 449.4673339245193 585.310226087483 L 451.58504822964073 583.3397951859405 L 453.7224152413309 581.3693165043549 L 455.8401295464523 579.3988856028126 L 457.9578438515738 577.4284547012701 L 460.0952108632639 575.4579760196845 L 462.21292516838537 573.4875451181421 L 464.3306394735068 571.5171142165996 L 466.46800648519695 569.546635535014 L 468.58572079031836 567.5762046334717 L 470.70343509543983 565.6057737319292 L 472.84080210713 563.6352950503435 L 474.9585164122514 561.664864148801 L 477.0762307173728 559.6944332472588 L 479.21359772906305 557.7239545656731 L 481.3313120341844 555.7535236641306 L 483.4490263393059 553.7830927625882 L 485.58639335099605 551.8126140810026 L 487.70410765611746 549.8421831794602 L 489.82182196123887 547.8717522779178 L 491.9591889729291 545.9012735963322 L 494.07690327805045 543.9308426947897 L 496.1946175831719 541.9604117932472 L 498.3319845948621 539.9899331116618 L 500.4496988999835 538.0195022101193 L 502.5674132051049 536.0490713085768 L 504.70478021679514 534.0785926269913 L 506.8224945219166 532.1081617254488 L 508.9402088270379 530.1377308239064 L 511.07757583872825 528.1672521423209 L 513.1952901438497 526.1968212407784 L 515.313004448971 524.2263903392359 L 517.4503714606614 522.2559116576504 L 519.5680857657827 520.2854807561079 L 521.6858000709041 518.3150498545655 L 523.8231670825943 516.3445711729798 L 525.9408813877158 514.3741402714373 L 528.0585956928371 512.403709369895 L 530.1959627045273 510.4332306883093 L 532.3136770096487 508.46279978676694 L 534.4313913147702 506.49236888522455 L 536.5687583264604 504.5218902036389 L 538.6864726315818 502.55145930209653 L 540.8041869367031 500.58102840055403 L 542.9415539483934 498.6105497189684 L 545.0592682535148 496.640118817426 L 547.1769825586362 494.6696879158835 L 549.3143495703264 492.699209234298 L 551.4320638754479 490.7287783327555 L 553.5497781805692 488.7583474312131 L 555.6871451922594 486.7878687496276 L 557.8048594973808 484.8174378480851 L 559.9225738025023 482.8470069465427 L 562.0599408141925 480.8765282649571 L 564.1776551193138 478.9060973634146 L 566.2953694244352 476.9356664618722 L 568.4327364361255 474.96518778028656 L 570.5504507412469 472.99475687874417 L 572.6681650463682 471.02432597720167 L 574.8055320580585 469.05384729561615 L 576.9232463631799 467.08341639407365 L 579.0409606683013 465.11298549253127 L 581.1783276799915 463.14250681094563 L 583.296041985113 461.17207590940325 L 585.4137562902343 459.20164500786075 L 587.5511233019246 457.23116632627523 L 589.6688376070459 455.26073542473273 L 591.7865519121674 453.29030452319034 L 593.9239189238576 451.3198258416047 L 596.041633228979 449.3493949400623 L 598.1593475341003 447.3789640385198 L 600.2967145457907 445.4084853569343 L 602.414428850912 443.4380544553918 L 604.5321431560334 441.4676235538494 L 606.6695101677236 439.4971448722638 L 608.7872244728451 437.5267139707214 L 610.9049387779664 435.5562830691789 L 613.0423057896568 433.5858043875934 L 615.160020094778 431.6153734860509 L 617.2777343998995 429.6449425845085 L 619.4151014115898 427.67446390292287 L 621.5328157167111 425.7040330013805 L 623.6505300218324 423.733602099838 L 625.7878970335229 421.76312341825246 L 627.9056113386441 419.79269251670996 L 630.0233256437655 417.82226161516746 L 632.1606926554558 415.85178293358194 L 634.2784069605772 413.88135203203944 L 636.3961212656985 411.91092113049706 L 638.5334882773889 409.94044244891154 L 640.6512025825102 407.97001154736904 L 642.7689168876316 405.99958064582665 L 644.9062838993219 404.029101964241 L 647.0239982044433 402.05867106269864 L 649.1417125095646 400.08824016115614 L 651.279079521255 398.1177614795705 L 653.3967938263763 396.1473305780281 L 655.5145081314976 394.1768996764856 L 657.651875143188 392.2064209949001 L 659.7695894483094 390.2359900933577 L 661.8873037534306 388.2655591918152 L 664.024670765121 386.2950805102297 L 666.1423850702424 384.3246496086872 L 668.2600993753638 382.3542187071448 L 670.397466387054 380.3837400255592 L 672.5151806921754 378.4133091240167 L 674.6328949972968 376.4428782224743 L 676.7702620089871 374.47239954088866 L 678.8879763141084 372.5019686393463 L 681.0056906192298 370.5315377378039 L 683.1430576309201 368.56105905621826 L 685.2607719360415 366.59062815467587 L 687.3784862411628 364.62019725313337 L 689.515853252853 362.64971857154774 L 691.6335675579745 360.67928767000535 L 693.7512818630959 358.70885676846285 L 695.8886488747861 356.73837808687733 L 698.0063631799075 354.76794718533483 L 700.1240774850289 352.79751628379245 L 702.2614444967192 350.8270376022068 L 704.3791588018405 348.85660670066443 L 706.4968731069619 346.88617579912204 L 708.6342401186522 344.9156971175364 L 710.7519544237736 342.9452662159939 L 712.8696687288949 340.9748353144515 L 715.0070357405851 339.0043566328659 L 717.1247500457066 337.0339257313235 L 719.242464350828 335.063494829781 L 721.3798313625182 333.0930161481955 L 723.4975456676397 331.122585246653 L 725.615259972761 329.1521543451106 L 727.7526269844512 327.18167566352497 L 729.8703412895726 325.2112447619826 L 731.9880555946941 323.2408138604401 L 734.1254226063843 321.27033517885457 L 736.2431369115056 319.29990427731207 L 738.360851216627 317.3294733757697 L 740.4982182283173 315.35899469418405 L 742.6159325334387 313.38856379264166 L 744.73364683856 311.41813289109916 L 746.8710138502503 309.44765420951364 L 748.9887281553717 307.47722330797114 L 751.1064424604931 305.50679240642876 L 753.2438094721833 303.5363137248431 L 755.3615237773047 301.56588282330074 L 757.4792380824261 299.59545192175824 L 759.6166050941164 297.6249732401726 L 761.7343193992377 295.6545423386302 L 763.8520337043591 293.68411143708784 L 765.9894007160494 291.7136327555022 L 768.1071150211708 289.7432018539598 L 770.2248293262921 287.7727709524173 L 772.3621963379824 285.8022922708318 L 774.4799106431038 283.8318613692893 L 776.5976249482252 281.8614304677469 L 778.7349919599154 279.8909517861613 L 780.8527062650368 277.9205208846188 L 782.9704205701582 275.9500899830764 L 785.1077875818485 273.9796113014909 L 787.2255018869698 272.0091803999484 L 789.3432161920913 270.038749498406 L 791.4805832037816 268.06827081682036 L 793.5982975089029 266.0978399152779 L 795.7160118140242 264.1274090137355 L 797.8533788257147 262.1569303321499 L 799.9710931308359 260.18649943060745 L 802.0888074359573 258.216068529065 L 804.2261744476476 256.24558984747944 L 806.343888752769 254.275158945937 L 808.4616030578903 252.30472804439455 L 810.5989700695807 250.334249362809 L 812.7166843747019 248.36381846126653 L 814.8343986798234 246.3933875597241 L 816.9717656915137 244.42290887813851 L 819.089479996635 242.45247797659607 L 821.2071943017563 240.4820470750536 L 823.3445613134468 238.51156839346805 L 825.4622756185681 236.5411374919256 L 827.5799899236894 234.57070659038317 L 829.7173569353797 232.6002279087976 L 831.8350712405012 230.62979700725512 L 833.9527855456224 228.6593661057127 L 836.0901525573128 226.68888742412713 L 838.2078668624341 224.7184565225847 L 840.3255811675555 222.74802562104222 L 842.4629481792458 220.77754693945664 L 844.5806624843672 218.8071160379142 L 846.6983767894884 216.83668513637178 L 848.8357438011789 214.8662064547862 L 850.9534581063002 212.89577555324374 L 853.0711724114216 210.9253446517013 L 855.2085394231118 208.95486597011572 L 857.3262537282333 206.9844350685733 L 859.4439680333546 205.01400416703086 L 861.5813350450449 203.04352548544526 L 863.6990493501663 201.07309458390282 L 865.8167636552877 199.10266368236037 L 867.9541306669779 197.13218500077483 L 870.0718449720993 195.16175409923235 L 872.1895592772207 193.1913231976899 L 874.326926288911 191.22084451610434 L 876.4446405940323 189.2504136145619 L 878.5623548991537 187.27998271301948 L 880.699721910844 185.30950403143387 L 882.8174362159654 183.33907312989143 L 884.9351505210867 181.368642228349 L 887.0725175327769 179.3981635467634 L 889.1902318378984 177.42773264522094 L 891.3079461430198 175.45730174367853 L 893.44531315471 173.48682306209295 L 895.5630274598313 171.5163921605505 L 897.6807417649528 169.54596125900807 L 899.818108776643 167.57548257742246 L 901.9358230817644 165.60505167588005 L 904.0535373868858 163.6346207743376 L 906.1909043985761 161.66414209275203 L 908.3086187036974 159.6937111912096 L 910.4263330088188 157.72328028966712 L 912.563700020509 155.75280160808154 L 914.6814143256305 153.78237070653913 L 916.7991286307519 151.81193980499668 L 918.9364956424421 149.84146112341108 L 921.0542099475634 147.87103022186864 L 923.1719242526849 145.9005993203262 L 925.3092912643751 143.93012063874065 L 927.4270055694965 141.95968973719818 L 929.544719874618 139.98925883565573 L 931.6820868863082 138.01878015407016 L 933.7998011914295 136.04834925252771 L 935.9175154965509 134.07791835098527 L 938.0548825082412 132.1074396693997 L 940.1725968133626 130.13700876785725 L 942.2903111184839 128.1665778663148 L 944.4276781301742 126.19609918472925 L 946.5453924352956 124.22566828318679 L 948.663106740417 122.25523738164435 L 950.8004737521072 120.28475870005877 L 952.9181880572286 118.31432779851633 L 955.03590236235 116.34389689697389 L 957.1732693740403 114.37341821538831 L 959.2909836791616 112.40298731384587 L 961.408697984283 110.43255641230343 L 963.5460649959733 108.46207773071785 L 965.6637793010947 106.4916468291754 L 967.781493606216 104.52121592763297 L 969.9188606179063 102.55073724604738 L 972.0365749230277 100.58030634450495 L 974.1542892281491 98.6098754429625 L 976.2916562398394 96.63939676137691 L 978.4093705449607 94.66896585983449 L 980.5270848500821 92.69853495829203 L 982.6644518617725 90.72805627670645 L 984.7821661668937 88.75762537516401 L 986.8998804720151 86.78719447362157 L 989.0372474837055 84.81671579203599 L 991.1549617888268 82.84628489049355 L 993.2726760939481 80.8758539889511 L 995.4100431056385 78.90537530736553 L 997.5277574107598 76.93494440582309 L 999.6454717158812 74.96451350428065 L 1001.7828387275715 72.99403482269507 L 1003.900553032693 71.02360392115261 L 1006.0182673378142 69.05317301961017 L 1008.1556343495045 67.0826943380246 L 1010.2733486546259 65.11226343648215 L 1012.3910629597474 63.14183253493972 L 1014.5284299714375 61.17135385335414 L 1016.646144276559 59.2009229518117 L 1018.7638585816803 57.230492050269255 L 1020.9012255933706 55.26001336868367 L 1023.018939898492 53.28958246714123 L 1025.1366542036135 51.31915156559879 L 1027.2740212153035 49.34867288401321 L 1029.3917355204248 47.37824198247077 L 1031.5094498255464 45.407811080928326 L 1033.6468168372367 43.43733239934275 L 1035.764531142358 41.46690149780031 L 1037.8822454474796 39.49647059625786 L 1040.0196124591694 37.52599191467228 L 1042.137326764291 35.55556101312985 L 1044.2550410694125 33.5851301115874 L 1046.3924080811025 31.61465143000182 L 1048.510122386224 29.64422052845938 L 1050.6278366913457 27.673789626916935 L 1052.7652037030355 25.703310945331356 L 1054.882918008157 23.732880043788914 L 1057.0006323132784 21.762449142246467 L 1059.1379993249686 19.79197046066089 L 1061.2557136300902 17.82153955911845 L 1063.3734279352116 15.851108657576006 L 1065.5107949469018 13.88062997599043" fill="none" vector-effect="non-scaling-stroke" stroke-width="4" stroke="rgb(30,53,230)" stroke-linejoin="miter" stroke-linecap="butt" stroke-miterlimit="4"/></svg>