<?xml version="1.0" standalone="no"?><!-- Generator: Gravit.io --><svg xmlns="http://www.w3.org/2000/svg" xmlns:xlink="http://www.w3.org/1999/xlink" style="isolation:isolate" width="1024" height="774.3213905600524"><defs><clipPath id="_clipPath_loR09mhf0GagDqsbE8jxVCn9gpbnCl3Z"><rect width="1024" height="768"/></clipPath></defs><g transform="translate(0,0)" clip-path="url(#_clipPath_loR09mhf0GagDqsbE8jxVCn9gpbnCl3Z)"><polygon points="320.8069144798958,91.80871862275939,702.5972779925571,91.4647289863449,893.7903635126613,421.93288789019755,703.1930855201044,752.7450364304649,321.40272200744323,753.0890260668799,130.20963648733863,422.62086716302707" fill="none"/><g style="isolation: isolate;"><polygon points="320.8069144798958,91.80871862275939,702.5972779925571,91.4647289863449,893.7903635126613,421.93288789019755,703.1930855201044,752.7450364304649,321.40272200744323,753.0890260668799,130.20963648733863,422.62086716302707" fill="none" vector-effect="non-scaling-stroke" stroke-width="5" stroke="rgb(38,38,38)" stroke-linejoin="miter" stroke-linecap="square" stroke-miterlimit="3"/></g><path d=" M 505.0000267648211 422.25752018238495 C 505.0107103738475 418.3941298142917 508.15596697613415 415.26622068240704 512.0193573442274 415.2769042914334 C 515.8827477123206 415.2875879004598 519.0106568442053 418.4328445027465 518.9999732351789 422.2962348708397 C 518.9892896261525 426.15962523893296 515.8440330238659 429.28753437081764 511.9806426557726 429.27685076179125 C 508.1172522876794 429.26616715276487 504.9893431557947 426.1209105504782 505.0000267648211 422.25752018238495 Z " fill="rgb(87,150,244)"/><path d=" M 380.892578125 35.0634765625 L 374.359375 35.0634765625 L 374.359375 52.83203125 L 369.96484375 52.83203125 L 369.96484375 35.0634765625 L 363.51953125 35.0634765625 L 363.51953125 31.50390625 L 380.892578125 31.50390625 L 380.892578125 35.0634765625 Z  M 387.25 38.7109375 Q 388.9345703125 36.689453125 391.4833984375 36.689453125 Q 396.6396484375 36.689453125 396.712890625 42.6806640625 L 396.712890625 52.83203125 L 392.4794921875 52.83203125 L 392.4794921875 42.7978515625 Q 392.4794921875 41.435546875 391.8935546875 40.78369140625 Q 391.3076171875 40.1318359375 389.9453125 40.1318359375 Q 388.0849609375 40.1318359375 387.25 41.5673828125 L 387.25 52.83203125 L 383.0166015625 52.83203125 L 383.0166015625 30.33203125 L 387.25 30.33203125 L 387.25 38.7109375 Z  M 407.201171875 53.125 Q 403.71484375 53.125 401.52490234375 50.986328125 Q 399.3349609375 48.84765625 399.3349609375 45.2880859375 L 399.3349609375 44.8779296875 Q 399.3349609375 42.490234375 400.2578125 40.60791015625 Q 401.1806640625 38.7255859375 402.87255859375 37.70751953125 Q 404.564453125 36.689453125 406.732421875 36.689453125 Q 409.984375 36.689453125 411.85205078125 38.740234375 Q 413.7197265625 40.791015625 413.7197265625 44.5556640625 L 413.7197265625 46.2841796875 L 403.626953125 46.2841796875 Q 403.83203125 47.8369140625 404.86474609375 48.7744140625 Q 405.8974609375 49.7119140625 407.4794921875 49.7119140625 Q 409.92578125 49.7119140625 411.302734375 47.939453125 L 413.3828125 50.2685546875 Q 412.4306640625 51.6162109375 410.8046875 52.37060546875 Q 409.1787109375 53.125 407.201171875 53.125 Z  M 406.7177734375 40.1171875 Q 405.4580078125 40.1171875 404.67431640625 40.966796875 Q 403.890625 41.81640625 403.6708984375 43.3984375 L 409.5595703125 43.3984375 L 409.5595703125 43.0615234375 Q 409.5302734375 41.6552734375 408.7978515625 40.88623046875 Q 408.0654296875 40.1171875 406.7177734375 40.1171875 Z  M 437.8603515625 45.0537109375 Q 437.8603515625 48.7158203125 436.19775390625 50.92041015625 Q 434.53515625 53.125 431.7080078125 53.125 Q 429.3056640625 53.125 427.826171875 51.455078125 L 427.826171875 58.92578125 L 423.5927734375 58.92578125 L 423.5927734375 36.982421875 L 427.5185546875 36.982421875 L 427.6650390625 38.53515625 Q 429.203125 36.689453125 431.6787109375 36.689453125 Q 434.6083984375 36.689453125 436.234375 38.857421875 Q 437.8603515625 41.025390625 437.8603515625 44.833984375 L 437.8603515625 45.0537109375 Z  M 433.626953125 44.74609375 Q 433.626953125 42.5341796875 432.84326171875 41.3330078125 Q 432.0595703125 40.1318359375 430.5654296875 40.1318359375 Q 428.5732421875 40.1318359375 427.826171875 41.6552734375 L 427.826171875 48.14453125 Q 428.6025390625 49.7119140625 430.5947265625 49.7119140625 Q 433.626953125 49.7119140625 433.626953125 44.74609375 Z  M 439.8232421875 44.7607421875 Q 439.8232421875 42.40234375 440.7314453125 40.556640625 Q 441.6396484375 38.7109375 443.34619140625 37.7001953125 Q 445.052734375 36.689453125 447.30859375 36.689453125 Q 450.5166015625 36.689453125 452.54541015625 38.65234375 Q 454.57421875 40.615234375 454.80859375 43.984375 L 454.837890625 45.068359375 Q 454.837890625 48.7158203125 452.8017578125 50.92041015625 Q 450.765625 53.125 447.337890625 53.125 Q 443.91015625 53.125 441.86669921875 50.927734375 Q 439.8232421875 48.73046875 439.8232421875 44.951171875 L 439.8232421875 44.7607421875 Z  M 444.056640625 45.068359375 Q 444.056640625 47.32421875 444.90625 48.51806640625 Q 445.755859375 49.7119140625 447.337890625 49.7119140625 Q 448.8759765625 49.7119140625 449.740234375 48.53271484375 Q 450.6044921875 47.353515625 450.6044921875 44.7607421875 Q 450.6044921875 42.548828125 449.740234375 41.3330078125 Q 448.8759765625 40.1171875 447.30859375 40.1171875 Q 445.755859375 40.1171875 444.90625 41.32568359375 Q 444.056640625 42.5341796875 444.056640625 45.068359375 Z  M 461.9130859375 52.83203125 L 457.6650390625 52.83203125 L 457.6650390625 30.33203125 L 461.9130859375 30.33203125 L 461.9130859375 52.83203125 Z  M 471.3173828125 46.8408203125 L 474.2470703125 36.982421875 L 478.7880859375 36.982421875 L 472.416015625 55.29296875 L 472.064453125 56.1279296875 Q 470.6435546875 59.2333984375 467.376953125 59.2333984375 Q 466.4541015625 59.2333984375 465.501953125 58.955078125 L 465.501953125 55.7470703125 L 466.146484375 55.76171875 Q 467.34765625 55.76171875 467.94091796875 55.3955078125 Q 468.5341796875 55.029296875 468.87109375 54.1796875 L 469.369140625 52.8759765625 L 463.8173828125 36.982421875 L 468.373046875 36.982421875 L 471.3173828125 46.8408203125 Z  M 479.8427734375 44.7900390625 Q 479.8427734375 41.142578125 481.57861328125 38.916015625 Q 483.314453125 36.689453125 486.2587890625 36.689453125 Q 488.8662109375 36.689453125 490.31640625 38.4765625 L 490.4921875 36.982421875 L 494.330078125 36.982421875 L 494.330078125 52.3046875 Q 494.330078125 54.384765625 493.38525390625 55.9228515625 Q 492.4404296875 57.4609375 490.7265625 58.2666015625 Q 489.0126953125 59.072265625 486.712890625 59.072265625 Q 484.9697265625 59.072265625 483.314453125 58.37646484375 Q 481.6591796875 57.6806640625 480.8095703125 56.58203125 L 482.6845703125 54.00390625 Q 484.2666015625 55.7763671875 486.5224609375 55.7763671875 Q 488.20703125 55.7763671875 489.14453125 54.87548828125 Q 490.08203125 53.974609375 490.08203125 52.3193359375 L 490.08203125 51.4697265625 Q 488.6171875 53.125 486.2294921875 53.125 Q 483.373046875 53.125 481.60791015625 50.89111328125 Q 479.8427734375 48.6572265625 479.8427734375 44.9658203125 L 479.8427734375 44.7900390625 Z  M 484.076171875 45.09765625 Q 484.076171875 47.2509765625 484.9404296875 48.47412109375 Q 485.8046875 49.697265625 487.3134765625 49.697265625 Q 489.2470703125 49.697265625 490.08203125 48.2470703125 L 490.08203125 41.58203125 Q 489.232421875 40.1318359375 487.3427734375 40.1318359375 Q 485.8193359375 40.1318359375 484.94775390625 41.376953125 Q 484.076171875 42.6220703125 484.076171875 45.09765625 Z  M 496.9228515625 44.7607421875 Q 496.9228515625 42.40234375 497.8310546875 40.556640625 Q 498.7392578125 38.7109375 500.44580078125 37.7001953125 Q 502.15234375 36.689453125 504.408203125 36.689453125 Q 507.6162109375 36.689453125 509.64501953125 38.65234375 Q 511.673828125 40.615234375 511.908203125 43.984375 L 511.9375 45.068359375 Q 511.9375 48.7158203125 509.9013671875 50.92041015625 Q 507.865234375 53.125 504.4375 53.125 Q 501.009765625 53.125 498.96630859375 50.927734375 Q 496.9228515625 48.73046875 496.9228515625 44.951171875 L 496.9228515625 44.7607421875 Z  M 501.15625 45.068359375 Q 501.15625 47.32421875 502.005859375 48.51806640625 Q 502.85546875 49.7119140625 504.4375 49.7119140625 Q 505.9755859375 49.7119140625 506.83984375 48.53271484375 Q 507.7041015625 47.353515625 507.7041015625 44.7607421875 Q 507.7041015625 42.548828125 506.83984375 41.3330078125 Q 505.9755859375 40.1171875 504.408203125 40.1171875 Q 502.85546875 40.1171875 502.005859375 41.32568359375 Q 501.15625 42.5341796875 501.15625 45.068359375 Z  M 518.44140625 36.982421875 L 518.5732421875 38.8134765625 Q 520.2724609375 36.689453125 523.12890625 36.689453125 Q 525.6484375 36.689453125 526.87890625 38.1689453125 Q 528.109375 39.6484375 528.138671875 42.5927734375 L 528.138671875 52.83203125 L 523.9052734375 52.83203125 L 523.9052734375 42.6953125 Q 523.9052734375 41.34765625 523.3193359375 40.73974609375 Q 522.7333984375 40.1318359375 521.37109375 40.1318359375 Q 519.583984375 40.1318359375 518.6904296875 41.6552734375 L 518.6904296875 52.83203125 L 514.45703125 52.83203125 L 514.45703125 36.982421875 L 518.44140625 36.982421875 Z  M 548.001953125 52.83203125 Q 547.708984375 52.2607421875 547.5771484375 51.4111328125 Q 546.0390625 53.125 543.578125 53.125 Q 541.2490234375 53.125 539.71826171875 51.77734375 Q 538.1875 50.4296875 538.1875 48.37890625 Q 538.1875 45.859375 540.05517578125 44.51171875 Q 541.9228515625 43.1640625 545.453125 43.1494140625 L 547.4013671875 43.1494140625 L 547.4013671875 42.2412109375 Q 547.4013671875 41.142578125 546.83740234375 40.4833984375 Q 546.2734375 39.82421875 545.0576171875 39.82421875 Q 543.98828125 39.82421875 543.38037109375 40.3369140625 Q 542.7724609375 40.849609375 542.7724609375 41.7431640625 L 538.5390625 41.7431640625 Q 538.5390625 40.3662109375 539.388671875 39.1943359375 Q 540.23828125 38.0224609375 541.791015625 37.35595703125 Q 543.34375 36.689453125 545.27734375 36.689453125 Q 548.20703125 36.689453125 549.92822265625 38.16162109375 Q 551.6494140625 39.6337890625 551.6494140625 42.2998046875 L 551.6494140625 49.169921875 Q 551.6640625 51.42578125 552.279296875 52.5830078125 L 552.279296875 52.83203125 L 548.001953125 52.83203125 Z  M 544.5009765625 49.8876953125 Q 545.4384765625 49.8876953125 546.2294921875 49.47021484375 Q 547.0205078125 49.052734375 547.4013671875 48.349609375 L 547.4013671875 45.625 L 545.8193359375 45.625 Q 542.640625 45.625 542.435546875 47.822265625 L 542.4208984375 48.0712890625 Q 542.4208984375 48.8623046875 542.9775390625 49.375 Q 543.5341796875 49.8876953125 544.5009765625 49.8876953125 Z  M 559.9697265625 33.0859375 L 559.9697265625 36.982421875 L 562.6796875 36.982421875 L 562.6796875 40.087890625 L 559.9697265625 40.087890625 L 559.9697265625 47.998046875 Q 559.9697265625 48.876953125 560.306640625 49.2578125 Q 560.6435546875 49.638671875 561.595703125 49.638671875 Q 562.298828125 49.638671875 562.8408203125 49.5361328125 L 562.8408203125 52.744140625 Q 561.595703125 53.125 560.27734375 53.125 Q 555.82421875 53.125 555.736328125 48.6279296875 L 555.736328125 40.087890625 L 553.421875 40.087890625 L 553.421875 36.982421875 L 555.736328125 36.982421875 L 555.736328125 33.0859375 L 559.9697265625 33.0859375 Z  M 576.9765625 52.83203125 L 572.728515625 52.83203125 L 572.728515625 36.982421875 L 576.9765625 36.982421875 L 576.9765625 52.83203125 Z  M 572.4794921875 32.880859375 Q 572.4794921875 31.9287109375 573.11669921875 31.3134765625 Q 573.75390625 30.6982421875 574.8525390625 30.6982421875 Q 575.9365234375 30.6982421875 576.5810546875 31.3134765625 Q 577.2255859375 31.9287109375 577.2255859375 32.880859375 Q 577.2255859375 33.84765625 576.57373046875 34.462890625 Q 575.921875 35.078125 574.8525390625 35.078125 Q 573.783203125 35.078125 573.13134765625 34.462890625 Q 572.4794921875 33.84765625 572.4794921875 32.880859375 Z  M 584.359375 36.982421875 L 584.4912109375 38.8134765625 Q 586.1904296875 36.689453125 589.046875 36.689453125 Q 591.56640625 36.689453125 592.796875 38.1689453125 Q 594.02734375 39.6484375 594.056640625 42.5927734375 L 594.056640625 52.83203125 L 589.8232421875 52.83203125 L 589.8232421875 42.6953125 Q 589.8232421875 41.34765625 589.2373046875 40.73974609375 Q 588.6513671875 40.1318359375 587.2890625 40.1318359375 Q 585.501953125 40.1318359375 584.6083984375 41.6552734375 L 584.6083984375 52.83203125 L 580.375 52.83203125 L 580.375 36.982421875 L 584.359375 36.982421875 Z  M 596.60546875 44.7900390625 Q 596.60546875 41.083984375 598.26806640625 38.88671875 Q 599.9306640625 36.689453125 602.81640625 36.689453125 Q 605.130859375 36.689453125 606.6396484375 38.41796875 L 606.6396484375 30.33203125 L 610.8876953125 30.33203125 L 610.8876953125 52.83203125 L 607.064453125 52.83203125 L 606.859375 51.1474609375 Q 605.27734375 53.125 602.787109375 53.125 Q 599.9892578125 53.125 598.29736328125 50.92041015625 Q 596.60546875 48.7158203125 596.60546875 44.7900390625 Z  M 600.8388671875 45.09765625 Q 600.8388671875 47.32421875 601.615234375 48.5107421875 Q 602.3916015625 49.697265625 603.87109375 49.697265625 Q 605.833984375 49.697265625 606.6396484375 48.0419921875 L 606.6396484375 41.787109375 Q 605.8486328125 40.1318359375 603.900390625 40.1318359375 Q 600.8388671875 40.1318359375 600.8388671875 45.09765625 Z  M 621.4638671875 53.125 Q 617.9775390625 53.125 615.78759765625 50.986328125 Q 613.59765625 48.84765625 613.59765625 45.2880859375 L 613.59765625 44.8779296875 Q 613.59765625 42.490234375 614.5205078125 40.60791015625 Q 615.443359375 38.7255859375 617.13525390625 37.70751953125 Q 618.8271484375 36.689453125 620.9951171875 36.689453125 Q 624.2470703125 36.689453125 626.11474609375 38.740234375 Q 627.982421875 40.791015625 627.982421875 44.5556640625 L 627.982421875 46.2841796875 L 617.8896484375 46.2841796875 Q 618.0947265625 47.8369140625 619.12744140625 48.7744140625 Q 620.16015625 49.7119140625 621.7421875 49.7119140625 Q 624.1884765625 49.7119140625 625.5654296875 47.939453125 L 627.6455078125 50.2685546875 Q 626.693359375 51.6162109375 625.0673828125 52.37060546875 Q 623.44140625 53.125 621.4638671875 53.125 Z  M 620.98046875 40.1171875 Q 619.720703125 40.1171875 618.93701171875 40.966796875 Q 618.1533203125 41.81640625 617.93359375 43.3984375 L 623.822265625 43.3984375 L 623.822265625 43.0615234375 Q 623.79296875 41.6552734375 623.060546875 40.88623046875 Q 622.328125 40.1171875 620.98046875 40.1171875 Z  M 636.419921875 41.7138671875 L 639.0859375 36.982421875 L 643.6123046875 36.982421875 L 639.1005859375 44.74609375 L 643.802734375 52.83203125 L 639.26171875 52.83203125 L 636.4345703125 47.8515625 L 633.6220703125 52.83203125 L 629.06640625 52.83203125 L 633.7685546875 44.74609375 L 629.271484375 36.982421875 L 633.8125 36.982421875 L 636.419921875 41.7138671875 Z  M 655.4189453125 52.83203125 L 651.947265625 52.83203125 L 654.701171875 36.982421875 L 658.1728515625 36.982421875 L 655.4189453125 52.83203125 Z  M 655.19921875 32.9248046875 Q 655.19921875 32.119140625 655.7265625 31.5478515625 Q 656.25390625 30.9765625 657.1474609375 30.947265625 Q 657.9970703125 30.91796875 658.56103515625 31.46728515625 Q 659.125 32.0166015625 659.125 32.8076171875 Q 659.125 33.642578125 658.57568359375 34.1845703125 Q 658.0263671875 34.7265625 657.1767578125 34.755859375 Q 656.341796875 34.78515625 655.7705078125 34.25048828125 Q 655.19921875 33.7158203125 655.19921875 32.9248046875 Z " fill-rule="evenodd" fill="rgb(0,0,0)"/><path d=" M 506.201171875 404.7900390625 L 502.3291015625 404.7900390625 L 502.3291015625 396.5 Q 502.3291015625 394.9638671875 501.783203125 394.19580078125 Q 501.2373046875 393.427734375 500.0439453125 393.427734375 Q 498.4189453125 393.427734375 497.6953125 394.51318359375 Q 496.9716796875 395.5986328125 496.9716796875 398.1123046875 L 496.9716796875 404.7900390625 L 493.099609375 404.7900390625 L 493.099609375 390.5966796875 L 496.0576171875 390.5966796875 L 496.578125 392.412109375 L 496.7939453125 392.412109375 Q 497.44140625 391.3837890625 498.57763671875 390.85693359375 Q 499.7138671875 390.330078125 501.1611328125 390.330078125 Q 503.63671875 390.330078125 504.9189453125 391.66943359375 Q 506.201171875 393.0087890625 506.201171875 395.53515625 L 506.201171875 404.7900390625 Z  M 514.1865234375 397.0205078125 L 509.2734375 397.0205078125 L 509.2734375 394.240234375 L 514.1865234375 394.240234375 L 514.1865234375 389.2890625 L 516.966796875 389.2890625 L 516.966796875 394.240234375 L 521.8798828125 394.240234375 L 521.8798828125 397.0205078125 L 516.966796875 397.0205078125 L 516.966796875 401.908203125 L 514.1865234375 401.908203125 L 514.1865234375 397.0205078125 Z  M 524.86328125 386.927734375 Q 524.86328125 385.0361328125 526.970703125 385.0361328125 Q 529.078125 385.0361328125 529.078125 386.927734375 Q 529.078125 387.8291015625 528.55126953125 388.33056640625 Q 528.0244140625 388.83203125 526.970703125 388.83203125 Q 524.86328125 388.83203125 524.86328125 386.927734375 Z  M 528.900390625 404.7900390625 L 525.0283203125 404.7900390625 L 525.0283203125 390.5966796875 L 528.900390625 390.5966796875 L 528.900390625 404.7900390625 Z " fill-rule="evenodd" fill="rgb(0,0,0)"/><path d=" M 720.24267578125 73.12505738182756 Q 720.24267578125 78.73540894432756 718.404296875 81.43072144432756 Q 716.56591796875 84.12603394432756 712.74267578125 84.12603394432756 Q 709.03662109375 84.12603394432756 707.154296875 81.34283081932756 Q 705.27197265625 78.55962769432756 705.27197265625 73.12505738182756 Q 705.27197265625 67.45611206932756 707.10302734375 64.76812378807756 Q 708.93408203125 62.08013550682756 712.74267578125 62.08013550682756 Q 716.44873046875 62.08013550682756 718.345703125 64.89263550682756 Q 720.24267578125 67.70513550682756 720.24267578125 73.12505738182756 Z  M 709.76904296875 73.12505738182756 Q 709.76904296875 77.06548706932756 710.4501953125 78.77203003807756 Q 711.13134765625 80.47857300682756 712.74267578125 80.47857300682756 Q 714.32470703125 80.47857300682756 715.02783203125 78.75005738182756 Q 715.73095703125 77.02154175682756 715.73095703125 73.12505738182756 Q 715.73095703125 69.18462769432756 715.0205078125 67.46343628807756 Q 714.31005859375 65.74224488182756 712.74267578125 65.74224488182756 Q 711.14599609375 65.74224488182756 710.45751953125 67.46343628807756 Q 709.76904296875 69.18462769432756 709.76904296875 73.12505738182756 Z " fill-rule="evenodd" fill="rgb(232,108,92)"/><path d=" M 741.10986328125 757.6007007011551 L 726.13916015625 757.6007007011551 L 726.13916015625 754.4512866386551 L 731.51513671875 749.0167163261551 Q 733.90283203125 746.5704272636551 734.63525390625 745.6256030449051 Q 735.36767578125 744.6807788261551 735.68994140625 743.8751147636551 Q 736.01220703125 743.0694507011551 736.01220703125 742.2051928886551 Q 736.01220703125 740.9161303886551 735.3017578125 740.2862475761551 Q 734.59130859375 739.6563647636551 733.40478515625 739.6563647636551 Q 732.15966796875 739.6563647636551 730.98779296875 740.2276538261551 Q 729.81591796875 740.7989428886551 728.54150390625 741.8536303886551 L 726.08056640625 738.9385913261551 Q 727.66259765625 737.5909350761551 728.70263671875 737.0342944511551 Q 729.74267578125 736.4776538261551 730.97314453125 736.1773608574051 Q 732.20361328125 735.8770678886551 733.72705078125 735.8770678886551 Q 735.73388671875 735.8770678886551 737.27197265625 736.6094897636551 Q 738.81005859375 737.3419116386551 739.65966796875 738.6602710136551 Q 740.50927734375 739.9786303886551 740.50927734375 741.6778491386551 Q 740.50927734375 743.1573413261551 739.9892578125 744.4537280449051 Q 739.46923828125 745.7501147636551 738.3779296875 747.1124194511551 Q 737.28662109375 748.4747241386551 734.53271484375 750.9942553886551 L 731.77880859375 753.5870288261551 L 731.77880859375 753.7921069511551 L 741.10986328125 753.7921069511551 L 741.10986328125 757.6007007011551 Z " fill="rgb(232,108,92)"/><path d=" M 116.55289820608863 428.67146615843996 L 113.97477320608863 428.67146615843996 L 113.97477320608863 433.10994272093996 L 109.55094508108863 433.10994272093996 L 109.55094508108863 428.67146615843996 L 100.41032008108863 428.67146615843996 L 100.41032008108863 425.52205209593996 L 109.79996851858863 411.69392709593996 L 113.97477320608863 411.69392709593996 L 113.97477320608863 425.15584115843996 L 116.55289820608863 425.15584115843996 L 116.55289820608863 428.67146615843996 Z  M 109.55094508108863 425.15584115843996 L 109.55094508108863 421.52302865843996 Q 109.55094508108863 420.61482553343996 109.62418726858863 418.88630990843996 Q 109.69742945608863 417.15779428343996 109.74137476858863 416.87947397093996 L 109.62418726858863 416.87947397093996 Q 109.08219508108863 418.08064584593996 108.32047633108863 419.22322397093996 L 104.39469508108863 425.15584115843996 L 109.55094508108863 425.15584115843996 Z " fill-rule="evenodd" fill="rgb(232,108,92)"/><path d=" M 309.68212890625 70.15142456932756 Q 312.78759765625 70.15142456932756 314.6259765625 71.89458863182756 Q 316.46435546875 73.63775269432756 316.46435546875 76.66997925682756 Q 316.46435546875 80.25884644432756 314.25244140625 82.19244019432756 Q 312.04052734375 84.12603394432756 307.92431640625 84.12603394432756 Q 304.35009765625 84.12603394432756 302.15283203125 82.96880738182756 L 302.15283203125 79.05767456932756 Q 303.31005859375 79.67290894432756 304.84814453125 80.06109253807756 Q 306.38623046875 80.44927613182756 307.76318359375 80.44927613182756 Q 311.90869140625 80.44927613182756 311.90869140625 77.05083863182756 Q 311.90869140625 73.81353394432756 307.61669921875 73.81353394432756 Q 306.84033203125 73.81353394432756 305.90283203125 73.96734253807756 Q 304.96533203125 74.12115113182756 304.37939453125 74.29693238182756 L 302.57763671875 73.33013550682756 L 303.38330078125 62.41704956932756 L 314.99951171875 62.41704956932756 L 314.99951171875 66.25494019432756 L 307.35302734375 66.25494019432756 L 306.95751953125 70.45904175682756 L 307.47021484375 70.35650269432756 Q 308.36376953125 70.15142456932756 309.68212890625 70.15142456932756 Z " fill="rgb(232,108,92)"/><path d=" M 295.27490234375 747.2961146987075 Q 295.27490234375 749.3029506362075 294.05908203125 750.7092006362075 Q 292.84326171875 752.1154506362075 290.64599609375 752.6427943862075 L 290.64599609375 752.7306850112075 Q 293.23876953125 753.0529506362075 294.57177734375 754.3053920424575 Q 295.90478515625 755.5578334487075 295.90478515625 757.6818568862075 Q 295.90478515625 760.7726771987075 293.66357421875 762.4938686049575 Q 291.42236328125 764.2150600112075 287.26220703125 764.2150600112075 Q 283.77587890625 764.2150600112075 281.08056640625 763.0578334487075 L 281.08056640625 759.2052943862075 Q 282.32568359375 759.8351771987075 283.81982421875 760.2306850112075 Q 285.31396484375 760.6261928237075 286.77880859375 760.6261928237075 Q 289.02001953125 760.6261928237075 290.08935546875 759.8644740737075 Q 291.15869140625 759.1027553237075 291.15869140625 757.4181850112075 Q 291.15869140625 755.9093959487075 289.92822265625 755.2795131362075 Q 288.69775390625 754.6496303237075 286.00244140625 754.6496303237075 L 284.37646484375 754.6496303237075 L 284.37646484375 751.1779506362075 L 286.03173828125 751.1779506362075 Q 288.52197265625 751.1779506362075 289.671875 750.5260951674575 Q 290.82177734375 749.8742396987075 290.82177734375 748.2922084487075 Q 290.82177734375 745.8605678237075 287.77490234375 745.8605678237075 Q 286.72021484375 745.8605678237075 285.62890625 746.2121303237075 Q 284.53759765625 746.5636928237075 283.20458984375 747.4279506362075 L 281.10986328125 744.3078334487075 Q 284.03955078125 742.1984584487075 288.09716796875 742.1984584487075 Q 291.42236328125 742.1984584487075 293.3486328125 743.5461146987075 Q 295.27490234375 744.8937709487075 295.27490234375 747.2961146987075 Z " fill="rgb(232,108,92)"/><path d=" M 917.3709299189113 433.10994272093996 L 912.8445627314113 433.10994272093996 L 912.8445627314113 420.71736459593996 L 912.8885080439113 418.68123178343996 L 912.9617502314113 416.45466928343996 Q 911.8338205439113 417.58259897093996 911.3943674189113 417.93416147093996 L 908.9334299189113 419.91170053343996 L 906.7508127314113 417.18709115843996 L 913.6502267939113 411.69392709593996 L 917.3709299189113 411.69392709593996 L 917.3709299189113 433.10994272093996 Z " fill="rgb(232,108,92)"/></g></svg>