<?xml version="1.0" standalone="no"?><!-- Generator: Gravit.io --><svg xmlns="http://www.w3.org/2000/svg" xmlns:xlink="http://www.w3.org/1999/xlink" style="isolation:isolate" width="1024" height="768"><defs><clipPath id="_clipPath_JfSRhKTMdGGioAR5lptA255fKALGdROY"><rect width="1024" height="768"/></clipPath></defs><g transform="translate(0,0)" clip-path="url(#_clipPath_JfSRhKTMdGGioAR5lptA255fKALGdROY)"><polygon points="138.9999999999999,153.88595389930381,376.99999999999983,153.88595389930367,496,359.9999999999999,377.00000000000034,566.1140461006964,139.00000000000017,566.1140461006967,20,360.0000000000003" fill="none"/><g style="isolation: isolate;"><polygon points="138.9999999999999,153.88595389930381,376.99999999999983,153.88595389930367,496,359.9999999999999,377.00000000000034,566.1140461006964,139.00000000000017,566.1140461006967,20,360.0000000000003" fill="none" vector-effect="non-scaling-stroke" stroke-width="5" stroke="rgb(38,38,38)" stroke-linejoin="miter" stroke-linecap="square" stroke-miterlimit="3"/></g><polygon points="648.9999999999999,153.88595389930381,886.9999999999998,153.88595389930367,1006,359.9999999999999,887.0000000000003,566.1140461006964,649.0000000000002,566.1140461006967,530,360.0000000000003" fill="none"/><g style="isolation: isolate;"><polygon points="648.9999999999999,153.88595389930381,886.9999999999998,153.88595389930367,1006,359.9999999999999,887.0000000000003,566.1140461006964,649.0000000000002,566.1140461006967,530,360.0000000000003" fill="none" vector-effect="non-scaling-stroke" stroke-width="5" stroke="rgb(38,38,38)" stroke-linejoin="miter" stroke-linecap="square" stroke-miterlimit="3"/></g><line x1="768" y1="360.00000000000017" x2="887.0000000000005" y2="153.88595389930384"/><g style="isolation: isolate;"><line x1="768" y1="360.00000000000017" x2="887.0000000000005" y2="153.88595389930384" fill="none" vector-effect="non-scaling-stroke" stroke-width="3" stroke="rgb(38,38,38)" stroke-linejoin="miter" stroke-linecap="square" stroke-miterlimit="3"/></g><line x1="768" y1="359.9999999999999" x2="1006" y2="359.99999999999983"/><g style="isolation: isolate;"><line x1="768" y1="359.9999999999999" x2="1006" y2="359.99999999999983" fill="none" vector-effect="non-scaling-stroke" stroke-width="3" stroke="rgb(38,38,38)" stroke-linejoin="miter" stroke-linecap="square" stroke-miterlimit="3"/></g><line x1="768.0000000000002" y1="359.99999999999983" x2="887.0000000000002" y2="566.1140461006967"/><g style="isolation: isolate;"><line x1="768.0000000000002" y1="359.99999999999983" x2="887.0000000000002" y2="566.1140461006967" fill="none" vector-effect="non-scaling-stroke" stroke-width="3" stroke="rgb(38,38,38)" stroke-linejoin="miter" stroke-linecap="square" stroke-miterlimit="3"/></g><line x1="768.0000000000002" y1="360.0000000000003" x2="649.0000000000002" y2="566.1140461006962"/><g style="isolation: isolate;"><line x1="768.0000000000002" y1="360.0000000000003" x2="649.0000000000002" y2="566.1140461006962" fill="none" vector-effect="non-scaling-stroke" stroke-width="3" stroke="rgb(38,38,38)" stroke-linejoin="miter" stroke-linecap="square" stroke-miterlimit="3"/></g><line x1="768" y1="359.99999999999983" x2="530" y2="359.9999999999998"/><g style="isolation: isolate;"><line x1="768" y1="359.99999999999983" x2="530" y2="359.9999999999998" fill="none" vector-effect="non-scaling-stroke" stroke-width="3" stroke="rgb(38,38,38)" stroke-linejoin="miter" stroke-linecap="square" stroke-miterlimit="3"/></g><line x1="768" y1="359.9999999999998" x2="649.0000000000001" y2="153.88595389930381"/><g style="isolation: isolate;"><line x1="768" y1="359.9999999999998" x2="649.0000000000001" y2="153.88595389930381" fill="none" vector-effect="non-scaling-stroke" stroke-width="3" stroke="rgb(38,38,38)" stroke-linejoin="miter" stroke-linecap="square" stroke-miterlimit="3"/></g><path d=" M 761.0000000000005 360.0000000000003 C 761.0000000000005 356.1365948600004 764.1365948600004 353.0000000000005 768.0000000000002 353.0000000000005 C 771.86340514 353.0000000000005 775 356.1365948600004 775 360.0000000000003 C 775 363.86340514000017 771.86340514 367.00000000000006 768.0000000000002 367.00000000000006 C 764.1365948600004 367.00000000000006 761.0000000000005 363.86340514000017 761.0000000000005 360.0000000000003 Z " fill="rgb(87,150,244)"/></g></svg>