<?xml version="1.0" encoding="UTF-8" standalone="no"?>
<!-- Created with Inkscape (http://www.inkscape.org/) -->

<svg
   xmlns:dc="http://purl.org/dc/elements/1.1/"
   xmlns:cc="http://creativecommons.org/ns#"
   xmlns:rdf="http://www.w3.org/1999/02/22-rdf-syntax-ns#"
   xmlns:svg="http://www.w3.org/2000/svg"
   xmlns="http://www.w3.org/2000/svg"
   xmlns:sodipodi="http://sodipodi.sourceforge.net/DTD/sodipodi-0.dtd"
   xmlns:inkscape="http://www.inkscape.org/namespaces/inkscape"
   width="1024mm"
   height="720mm"
   viewBox="0 0 1024 720"
   version="1.1"
   id="svg8"
   inkscape:version="0.92.1 r"
   sodipodi:docname="example_13b.svg">
  <defs
     id="defs2" />
  <sodipodi:namedview
     id="base"
     pagecolor="#ffffff"
     bordercolor="#666666"
     borderopacity="1.0"
     inkscape:pageopacity="0.0"
     inkscape:pageshadow="2"
     inkscape:zoom="0.175"
     inkscape:cx="1996.3538"
     inkscape:cy="1410.6252"
     inkscape:document-units="mm"
     inkscape:current-layer="layer1"
     showgrid="false"
     inkscape:snap-object-midpoints="true"
     inkscape:snap-to-guides="false"
     inkscape:snap-page="true"
     inkscape:window-width="1024"
     inkscape:window-height="746"
     inkscape:window-x="0"
     inkscape:window-y="0"
     inkscape:window-maximized="1">
    <inkscape:grid
       type="xygrid"
       id="grid12" />
  </sodipodi:namedview>
  <metadata
     id="metadata5">
    <rdf:RDF>
      <cc:Work
         rdf:about="">
        <dc:format>image/svg+xml</dc:format>
        <dc:type
           rdf:resource="http://purl.org/dc/dcmitype/StillImage" />
        <dc:title></dc:title>
      </cc:Work>
    </rdf:RDF>
  </metadata>
  <g
     inkscape:label="Layer 1"
     inkscape:groupmode="layer"
     id="layer1"
     transform="translate(0,423)">
    <path
       style="opacity:0.93399999;fill:#000000;fill-opacity:0.00492614;fill-rule:evenodd;stroke:#0f0f0f;stroke-width:5;stroke-linecap:butt;stroke-linejoin:round;stroke-miterlimit:4;stroke-dasharray:none;stroke-dashoffset:22.67716599;stroke-opacity:1;paint-order:normal"
       d="M 753.23395,-63.000023 A 241.23395,241.23395 0 0 1 512,178.23392 241.23395,241.23395 0 0 1 270.76605,-63.000023 241.23395,241.23395 0 0 1 512,-304.23397 241.23395,241.23395 0 0 1 753.23395,-63.000023 Z"
       id="path10" />
    <path
       style="fill:none;stroke:#0f0f0f;stroke-width:4.26499987;stroke-linecap:butt;stroke-linejoin:miter;stroke-miterlimit:4;stroke-dasharray:none;stroke-opacity:1"
       d="M 511.99999,-304.73812 V -63.000037 H 751.41666"
       id="path828"
       inkscape:connector-curvature="0"
       sodipodi:nodetypes="ccc" />
    <path
       style="fill:none;stroke:#0f0f0f;stroke-width:3;stroke-linecap:butt;stroke-linejoin:miter;stroke-miterlimit:4;stroke-dasharray:none;stroke-opacity:1"
       d="m 511.99999,-63.000037 171.23635,-167.494593 0,167.74982"
       id="path830"
       inkscape:connector-curvature="0"
       sodipodi:nodetypes="ccc" />
    <g
       aria-label="Z"
       transform="matrix(0.50894404,0,0,0.50894404,-645.9599,-636.24861)"
       style="font-style:normal;font-weight:normal;font-size:40px;line-height:25px;font-family:sans-serif;letter-spacing:0px;word-spacing:0px;fill:#000000;fill-opacity:1;stroke:none"
       id="flowRoot832">
      <path
         d="m 2631.1055,977.34766 h 14.3359 v 4.70703 h -21.6601 v -3.4375 l 14.0625,-20.25391 h -14.043 v -4.74609 h 21.3281 v 3.35937 z"
         style="font-style:normal;font-variant:normal;font-weight:bold;font-stretch:normal;font-size:40px;font-family:Roboto;-inkscape-font-specification:'Roboto, Bold';font-variant-ligatures:normal;font-variant-caps:normal;font-variant-numeric:normal;font-feature-settings:normal;text-align:start;writing-mode:lr-tb;text-anchor:start"
         id="path882" />
    </g>
    <g
       aria-label="θ"
       transform="matrix(0.50894404,0,0,0.50894404,-794.02722,-569.43123)"
       style="font-style:normal;font-variant:normal;font-weight:normal;font-stretch:normal;font-size:39.9999733px;line-height:25px;font-family:sans-serif;-inkscape-font-specification:'sans-serif, Normal';font-variant-ligatures:normal;font-variant-caps:normal;font-variant-numeric:normal;font-feature-settings:normal;text-align:start;letter-spacing:0px;word-spacing:0px;writing-mode:lr-tb;text-anchor:start;fill:#000000;fill-opacity:1;stroke:none"
       id="flowRoot846">
      <path
         d="m 2642.707,969.55469 q 0,6.26953 -2.3047,9.58984 -2.3047,3.30078 -6.6601,3.30078 -4.2774,0 -6.6016,-3.24219 -2.3242,-3.24219 -2.4023,-9.25781 v -4.0039 q 0,-6.1914 2.3047,-9.45312 2.3047,-3.26171 6.6601,-3.26171 4.336,0 6.6211,3.16406 2.3047,3.16406 2.3828,9.16015 z m -14.3554,-3.14453 h 10.7226 v -1.07422 q 0,-4.43359 -1.3672,-6.77734 -1.3476,-2.36328 -4.0039,-2.36328 -2.6172,0 -3.9844,2.36328 -1.3671,2.34375 -1.3671,6.77734 z m 10.7226,2.96875 h -10.7226 v 0.76172 q 0,4.47265 1.4257,6.91405 1.4258,2.44141 3.9649,2.44141 2.539,0 3.9062,-2.34375 1.3867,-2.34375 1.4258,-6.77734 z"
         style=""
         id="path885" />
    </g>
    <path
       style="opacity:0.93399999;fill:#000000;fill-opacity:0.00492614;fill-rule:evenodd;stroke:#0f0f0f;stroke-width:3;stroke-linecap:butt;stroke-linejoin:round;stroke-miterlimit:4;stroke-dasharray:none;stroke-dashoffset:22.67716599;stroke-opacity:1;paint-order:normal"
       d="m 529.33341,-80.078519 a 24.333563,24.333563 0 0 1 6.97277,18.231941"
       id="path850" />
    <g
       aria-label="0.5"
       transform="matrix(0.50894404,0,0,0.50894404,-760.8858,-656.5611)"
       style="font-style:normal;font-variant:normal;font-weight:normal;font-stretch:normal;font-size:39.9999733px;line-height:25px;font-family:sans-serif;-inkscape-font-specification:'sans-serif, Normal';font-variant-ligatures:normal;font-variant-caps:normal;font-variant-numeric:normal;font-feature-settings:normal;text-align:start;letter-spacing:0px;word-spacing:0px;writing-mode:lr-tb;text-anchor:start;fill:#000000;fill-opacity:1;stroke:none"
       id="flowRoot858">
      <path
         d="m 2642.5508,969.92578 q 0,6.34765 -2.168,9.43359 -2.168,3.08594 -6.7773,3.08594 -4.5508,0 -6.7383,-3.00781 -2.1875,-3.02735 -2.2656,-9.02344 v -4.82421 q 0,-6.26953 2.1679,-9.3164 2.168,-3.04687 6.7969,-3.04687 4.5898,0 6.7578,2.94921 2.168,2.92969 2.2266,9.0625 z m -3.6133,-4.9414 q 0,-4.58984 -1.2891,-6.67968 -1.289,-2.10938 -4.082,-2.10938 -2.7734,0 -4.043,2.08985 -1.2695,2.08984 -1.3086,6.42577 v 5.78125 q 0,4.60937 1.3282,6.8164 1.3476,2.1875 4.0625,2.1875 2.6757,0 3.9648,-2.07031 1.3086,-2.07031 1.3672,-6.52344 z"
         style=""
         id="path889" />
      <path
         d="m 2647.668,980.16015 q 0,-0.9375 0.5468,-1.5625 0.5664,-0.625 1.6797,-0.625 1.1133,0 1.6797,0.625 0.5859,0.625 0.5859,1.5625 0,0.89844 -0.5859,1.50391 -0.5664,0.60546 -1.6797,0.60546 -1.1133,0 -1.6797,-0.60546 -0.5468,-0.60547 -0.5468,-1.50391 z"
         style=""
         id="path891" />
      <path
         d="m 2659.4258,967.79688 1.4453,-14.17968 h 14.5703 v 3.33984 h -11.5039 l -0.8594,7.7539 q 2.0898,-1.23047 4.7461,-1.23047 3.8867,0 6.1719,2.57813 2.2851,2.55859 2.2851,6.93359 0,4.39453 -2.3828,6.93359 -2.3633,2.51953 -6.6211,2.51953 -3.7695,0 -6.1523,-2.08985 -2.3828,-2.08984 -2.7149,-5.78124 h 3.418 q 0.332,2.4414 1.7383,3.6914 1.4062,1.23047 3.7109,1.23047 2.5195,0 3.9453,-1.71875 1.4453,-1.71875 1.4453,-4.74609 0,-2.85156 -1.5625,-4.57031 -1.5429,-1.73828 -4.1211,-1.73828 -2.3632,0 -3.7109,1.03516 l -0.957,0.78124 z"
         style=""
         id="path893" />
    </g>
  </g>
</svg>
