<?xml version="1.0" encoding="UTF-8" standalone="no"?>
<!-- Created with Inkscape (http://www.inkscape.org/) -->

<svg
   xmlns:osb="http://www.openswatchbook.org/uri/2009/osb"
   xmlns:dc="http://purl.org/dc/elements/1.1/"
   xmlns:cc="http://creativecommons.org/ns#"
   xmlns:rdf="http://www.w3.org/1999/02/22-rdf-syntax-ns#"
   xmlns:svg="http://www.w3.org/2000/svg"
   xmlns="http://www.w3.org/2000/svg"
   xmlns:sodipodi="http://sodipodi.sourceforge.net/DTD/sodipodi-0.dtd"
   xmlns:inkscape="http://www.inkscape.org/namespaces/inkscape"
   width="1024mm"
   height="768mm"
   viewBox="0 0 1024 768"
   version="1.1"
   id="svg8"
   inkscape:version="0.92.1 r"
   sodipodi:docname="line2.svg">
  <defs
     id="defs2">
    <marker
       inkscape:isstock="true"
       style="overflow:visible;"
       id="marker15293"
       refX="0.0"
       refY="0.0"
       orient="auto"
       inkscape:stockid="Arrow1Send">
      <path
         transform="scale(0.2) rotate(180) translate(6,0)"
         style="fill-rule:evenodd;stroke:#fd7a48;stroke-width:1pt;stroke-opacity:1;fill:#fd7a48;fill-opacity:1"
         d="M 0.0,0.0 L 5.0,-5.0 L -12.5,0.0 L 5.0,5.0 L 0.0,0.0 z "
         id="path15291" />
    </marker>
    <marker
       inkscape:stockid="Arrow2Send"
       orient="auto"
       refY="0.0"
       refX="0.0"
       id="marker14773"
       style="overflow:visible;"
       inkscape:isstock="true">
      <path
         id="path14771"
         style="fill-rule:evenodd;stroke-width:0.625;stroke-linejoin:round;stroke:#fd7a48;stroke-opacity:1;fill:#fd7a48;fill-opacity:1"
         d="M 8.7185878,4.0337352 L -2.2072895,0.016013256 L 8.7185884,-4.0017078 C 6.9730900,-1.6296469 6.9831476,1.6157441 8.7185878,4.0337352 z "
         transform="scale(0.3) rotate(180) translate(-2.3,0)" />
    </marker>
    <marker
       inkscape:stockid="Arrow2Send"
       orient="auto"
       refY="0.0"
       refX="0.0"
       id="Arrow2Send"
       style="overflow:visible;"
       inkscape:isstock="true">
      <path
         id="path4520"
         style="fill-rule:evenodd;stroke-width:0.625;stroke-linejoin:round;stroke:#fd7a48;stroke-opacity:1;fill:#fd7a48;fill-opacity:1"
         d="M 8.7185878,4.0337352 L -2.2072895,0.016013256 L 8.7185884,-4.0017078 C 6.9730900,-1.6296469 6.9831476,1.6157441 8.7185878,4.0337352 z "
         transform="scale(0.3) rotate(180) translate(-2.3,0)" />
    </marker>
    <marker
       inkscape:stockid="Arrow1Send"
       orient="auto"
       refY="0.0"
       refX="0.0"
       id="Arrow1Send"
       style="overflow:visible;"
       inkscape:isstock="true"
       inkscape:collect="always">
      <path
         id="path4502"
         d="M 0.0,0.0 L 5.0,-5.0 L -12.5,0.0 L 5.0,5.0 L 0.0,0.0 z "
         style="fill-rule:evenodd;stroke:#fd7a48;stroke-width:1pt;stroke-opacity:1;fill:#fd7a48;fill-opacity:1"
         transform="scale(0.2) rotate(180) translate(6,0)" />
    </marker>
    <marker
       inkscape:stockid="Arrow2Mend"
       orient="auto"
       refY="0.0"
       refX="0.0"
       id="marker13037"
       style="overflow:visible;"
       inkscape:isstock="true">
      <path
         id="path13035"
         style="fill-rule:evenodd;stroke-width:0.625;stroke-linejoin:round;stroke:#73acce;stroke-opacity:1;fill:#73acce;fill-opacity:1"
         d="M 8.7185878,4.0337352 L -2.2072895,0.016013256 L 8.7185884,-4.0017078 C 6.9730900,-1.6296469 6.9831476,1.6157441 8.7185878,4.0337352 z "
         transform="scale(0.6) rotate(180) translate(0,0)" />
    </marker>
    <marker
       inkscape:stockid="Arrow1Lend"
       orient="auto"
       refY="0.0"
       refX="0.0"
       id="marker12913"
       style="overflow:visible;"
       inkscape:isstock="true">
      <path
         id="path12911"
         d="M 0.0,0.0 L 5.0,-5.0 L -12.5,0.0 L 5.0,5.0 L 0.0,0.0 z "
         style="fill-rule:evenodd;stroke:#73acce;stroke-width:1pt;stroke-opacity:1;fill:none;fill-opacity:1"
         transform="scale(0.8) rotate(180) translate(12.5,0)" />
    </marker>
    <marker
       inkscape:isstock="true"
       style="overflow:visible"
       id="marker12795"
       refX="0.0"
       refY="0.0"
       orient="auto"
       inkscape:stockid="DotS">
      <path
         transform="scale(0.2) translate(7.4, 1)"
         style="fill-rule:evenodd;stroke:#000000;stroke-width:1pt;stroke-opacity:1;fill:#000000;fill-opacity:1"
         d="M -2.5,-1.0 C -2.5,1.7600000 -4.7400000,4.0 -7.5,4.0 C -10.260000,4.0 -12.5,1.7600000 -12.5,-1.0 C -12.5,-3.7600000 -10.260000,-6.0 -7.5,-6.0 C -4.7400000,-6.0 -2.5,-3.7600000 -2.5,-1.0 z "
         id="path12793" />
    </marker>
    <marker
       inkscape:stockid="Arrow2Mend"
       orient="auto"
       refY="0.0"
       refX="0.0"
       id="marker7899"
       style="overflow:visible;"
       inkscape:isstock="true">
      <path
         id="path7897"
         style="fill-rule:evenodd;stroke-width:0.625;stroke-linejoin:round;stroke:#000000;stroke-opacity:1;fill:#000000;fill-opacity:1"
         d="M 8.7185878,4.0337352 L -2.2072895,0.016013256 L 8.7185884,-4.0017078 C 6.9730900,-1.6296469 6.9831476,1.6157441 8.7185878,4.0337352 z "
         transform="scale(0.6) rotate(180) translate(0,0)" />
    </marker>
    <marker
       inkscape:stockid="Arrow1Lend"
       orient="auto"
       refY="0.0"
       refX="0.0"
       id="marker7793"
       style="overflow:visible;"
       inkscape:isstock="true">
      <path
         id="path7791"
         d="M 0.0,0.0 L 5.0,-5.0 L -12.5,0.0 L 5.0,5.0 L 0.0,0.0 z "
         style="fill-rule:evenodd;stroke:#fd7a48;stroke-width:1pt;stroke-opacity:1;fill:none;fill-opacity:1"
         transform="scale(0.8) rotate(180) translate(12.5,0)" />
    </marker>
    <marker
       inkscape:isstock="true"
       style="overflow:visible"
       id="marker7693"
       refX="0.0"
       refY="0.0"
       orient="auto"
       inkscape:stockid="DotS">
      <path
         transform="scale(0.2) translate(7.4, 1)"
         style="fill-rule:evenodd;stroke:#fd7a48;stroke-width:1pt;stroke-opacity:1;fill:#fd7a48;fill-opacity:1"
         d="M -2.5,-1.0 C -2.5,1.7600000 -4.7400000,4.0 -7.5,4.0 C -10.260000,4.0 -12.5,1.7600000 -12.5,-1.0 C -12.5,-3.7600000 -10.260000,-6.0 -7.5,-6.0 C -4.7400000,-6.0 -2.5,-3.7600000 -2.5,-1.0 z "
         id="path7691" />
    </marker>
    <linearGradient
       id="linearGradient6473"
       osb:paint="solid">
      <stop
         style="stop-color:#73acce;stop-opacity:1;"
         offset="0"
         id="stop6471" />
    </linearGradient>
    <marker
       inkscape:stockid="Arrow1Mend"
       orient="auto"
       refY="0.0"
       refX="0.0"
       id="Arrow1Mend"
       style="overflow:visible;"
       inkscape:isstock="true">
      <path
         id="path4496"
         d="M 0.0,0.0 L 5.0,-5.0 L -12.5,0.0 L 5.0,5.0 L 0.0,0.0 z "
         style="fill-rule:evenodd;stroke:none;stroke-width:1pt;stroke-opacity:1;fill:none;fill-opacity:1"
         transform="scale(0.4) rotate(180) translate(10,0)" />
    </marker>
    <marker
       inkscape:stockid="Arrow1Lend"
       orient="auto"
       refY="0.0"
       refX="0.0"
       id="marker6299"
       style="overflow:visible;"
       inkscape:isstock="true">
      <path
         id="path6297"
         d="M 0.0,0.0 L 5.0,-5.0 L -12.5,0.0 L 5.0,5.0 L 0.0,0.0 z "
         style="fill-rule:evenodd;stroke:#73acce;stroke-width:1pt;stroke-opacity:1;fill:#73acce;fill-opacity:1"
         transform="scale(0.8) rotate(180) translate(12.5,0)" />
    </marker>
    <marker
       inkscape:stockid="Arrow1Lend"
       orient="auto"
       refY="0.0"
       refX="0.0"
       id="Arrow1Lend"
       style="overflow:visible;"
       inkscape:isstock="true">
      <path
         id="path4490"
         d="M 0.0,0.0 L 5.0,-5.0 L -12.5,0.0 L 5.0,5.0 L 0.0,0.0 z "
         style="fill-rule:evenodd;stroke:#73acce;stroke-width:1pt;stroke-opacity:1;fill:#73acce;fill-opacity:1"
         transform="scale(0.8) rotate(180) translate(12.5,0)" />
    </marker>
    <marker
       inkscape:isstock="true"
       style="overflow:visible"
       id="marker5095"
       refX="0.0"
       refY="0.0"
       orient="auto"
       inkscape:stockid="DotS">
      <path
         transform="scale(0.2) translate(7.4, 1)"
         style="fill-rule:evenodd;stroke:#73acce;stroke-width:1pt;stroke-opacity:1;fill:#73acce;fill-opacity:1"
         d="M -2.5,-1.0 C -2.5,1.7600000 -4.7400000,4.0 -7.5,4.0 C -10.260000,4.0 -12.5,1.7600000 -12.5,-1.0 C -12.5,-3.7600000 -10.260000,-6.0 -7.5,-6.0 C -4.7400000,-6.0 -2.5,-3.7600000 -2.5,-1.0 z "
         id="path5093" />
    </marker>
    <marker
       inkscape:isstock="true"
       style="overflow:visible"
       id="marker5061"
       refX="0.0"
       refY="0.0"
       orient="auto"
       inkscape:stockid="DotS">
      <path
         transform="scale(0.2) translate(7.4, 1)"
         style="fill-rule:evenodd;stroke:#73acce;stroke-width:1pt;stroke-opacity:1;fill:none;fill-opacity:1"
         d="M -2.5,-1.0 C -2.5,1.7600000 -4.7400000,4.0 -7.5,4.0 C -10.260000,4.0 -12.5,1.7600000 -12.5,-1.0 C -12.5,-3.7600000 -10.260000,-6.0 -7.5,-6.0 C -4.7400000,-6.0 -2.5,-3.7600000 -2.5,-1.0 z "
         id="path5059" />
    </marker>
    <marker
       inkscape:stockid="DiamondS"
       orient="auto"
       refY="0.0"
       refX="0.0"
       id="DiamondS"
       style="overflow:visible"
       inkscape:isstock="true">
      <path
         id="path4572"
         d="M 0,-7.0710768 L -7.0710894,0 L 0,7.0710589 L 7.0710462,0 L 0,-7.0710768 z "
         style="fill-rule:evenodd;stroke:#73acce;stroke-width:1pt;stroke-opacity:1;fill:#73acce;fill-opacity:1"
         transform="scale(0.2)" />
    </marker>
    <marker
       inkscape:stockid="DotM"
       orient="auto"
       refY="0.0"
       refX="0.0"
       id="DotM"
       style="overflow:visible"
       inkscape:isstock="true">
      <path
         id="path4551"
         d="M -2.5,-1.0 C -2.5,1.7600000 -4.7400000,4.0 -7.5,4.0 C -10.260000,4.0 -12.5,1.7600000 -12.5,-1.0 C -12.5,-3.7600000 -10.260000,-6.0 -7.5,-6.0 C -4.7400000,-6.0 -2.5,-3.7600000 -2.5,-1.0 z "
         style="fill-rule:evenodd;stroke:#73acce;stroke-width:1pt;stroke-opacity:1;fill:#73acce;fill-opacity:1"
         transform="scale(0.4) translate(7.4, 1)" />
    </marker>
  </defs>
  <sodipodi:namedview
     id="base"
     pagecolor="#ffffff"
     bordercolor="#666666"
     borderopacity="1.0"
     inkscape:pageopacity="0.0"
     inkscape:pageshadow="2"
     inkscape:zoom="0.12374369"
     inkscape:cx="1719.7662"
     inkscape:cy="1490.076"
     inkscape:document-units="mm"
     inkscape:current-layer="layer1"
     showgrid="false"
     inkscape:window-width="1024"
     inkscape:window-height="746"
     inkscape:window-x="0"
     inkscape:window-y="0"
     inkscape:window-maximized="1" />
  <metadata
     id="metadata5">
    <rdf:RDF>
      <cc:Work
         rdf:about="">
        <dc:format>image/svg+xml</dc:format>
        <dc:type
           rdf:resource="http://purl.org/dc/dcmitype/StillImage" />
        <dc:title></dc:title>
      </cc:Work>
    </rdf:RDF>
  </metadata>
  <g
     inkscape:label="Layer 1"
     inkscape:groupmode="layer"
     id="layer1"
     transform="translate(0,471)">
    <g
       id="g15012"
       transform="translate(-508.88118)">
      <path
         style="color:#000000;font-style:normal;font-variant:normal;font-weight:normal;font-stretch:normal;font-size:medium;line-height:normal;font-family:sans-serif;font-variant-ligatures:normal;font-variant-position:normal;font-variant-caps:normal;font-variant-numeric:normal;font-variant-alternates:normal;font-feature-settings:normal;text-indent:0;text-align:start;text-decoration:none;text-decoration-line:none;text-decoration-style:solid;text-decoration-color:#000000;letter-spacing:normal;word-spacing:normal;text-transform:none;writing-mode:lr-tb;direction:ltr;text-orientation:mixed;dominant-baseline:auto;baseline-shift:baseline;text-anchor:start;white-space:normal;shape-padding:0;clip-rule:nonzero;display:inline;overflow:visible;visibility:visible;opacity:1;isolation:auto;mix-blend-mode:normal;color-interpolation:sRGB;color-interpolation-filters:linearRGB;solid-color:#000000;solid-opacity:1;vector-effect:none;fill:#73acce;fill-opacity:1;fill-rule:nonzero;stroke:none;stroke-width:4;stroke-linecap:butt;stroke-linejoin:miter;stroke-miterlimit:3.79999995;stroke-dasharray:none;stroke-dashoffset:0;stroke-opacity:1;color-rendering:auto;image-rendering:auto;shape-rendering:auto;text-rendering:auto;enable-background:accumulate"
         d="m 886.44531,-327.39844 -247.31445,428.36328 3.46289,2 247.31445,-428.36328 z"
         id="path6831"
         inkscape:connector-curvature="0" />
      <path
         style="fill:#73acce;fill-opacity:1;fill-rule:evenodd;stroke:#73acce;stroke-width:0.80000004pt;stroke-opacity:1"
         d="m 642.82195,98.56948 c 1.91218,1.104 2.5681,3.55192 1.4641,5.4641 -1.104,1.91219 -3.55192,2.5681 -5.4641,1.4641 -1.91218,-1.104 -2.5681,-3.55191 -1.4641,-5.4641 1.104,-1.912182 3.55192,-2.5681 5.4641,-1.4641 z"
         id="path15018"
         inkscape:connector-curvature="0" />
      <path
         id="path15020"
         style="fill:#73acce;fill-opacity:1;fill-rule:evenodd;stroke:#73acce;stroke-width:1.5;stroke-linejoin:round;stroke-opacity:1"
         d="m 869.33077,-313.11726 21.46173,-17.88774 -4.76037,27.53028 c -2.83564,-6.47443 -9.59313,-10.34799 -16.70136,-9.64254 z"
         inkscape:connector-curvature="0" />
    </g>
    <g
       aria-label="A"
       transform="matrix(1.1480413,0,0,1.1480413,-1164.7712,-844.76048)"
       style="font-style:normal;font-weight:normal;font-size:40px;line-height:25px;font-family:sans-serif;letter-spacing:0px;word-spacing:0px;fill:#000000;fill-opacity:1;stroke:none"
       id="flowRoot6839">
      <path
         d="m 1352.4063,436.82031 h -11.9141 l -2.6758,7.42188 h -3.8672 l 10.8594,-28.4375 h 3.2812 l 10.879,28.4375 h -3.8477 z m -10.7813,-3.08594 h 9.668 l -4.8438,-13.30078 z"
         id="path15161"
         inkscape:connector-curvature="0" />
    </g>
    <g
       aria-label="B"
       transform="matrix(1.1480413,0,0,1.1480413,-1416.0045,-363.67534)"
       style="font-style:normal;font-variant:normal;font-weight:normal;font-stretch:normal;font-size:39.99950409px;line-height:25px;font-family:sans-serif;-inkscape-font-specification:'sans-serif, Normal';font-variant-ligatures:normal;font-variant-caps:normal;font-variant-numeric:normal;font-feature-settings:normal;text-align:start;letter-spacing:0px;word-spacing:0px;writing-mode:lr-tb;text-anchor:start;fill:#000000;fill-opacity:1;stroke:none"
       id="flowRoot6847">
      <path
         d="m 1336.7031,444.24206 v -28.43714 h 9.2967 q 4.6289,0 6.9531,1.91403 2.3437,1.91404 2.3437,5.664 0,1.99216 -1.1328,3.53511 -1.1328,1.52342 -3.0859,2.36325 2.3047,0.64452 3.6328,2.46091 1.3476,1.79685 1.3476,4.29682 0,3.82808 -2.4804,6.01555 -2.4805,2.18747 -7.0117,2.18747 z m 3.7499,-13.30061 v 10.23425 h 6.1914 q 2.6171,0 4.121,-1.34764 1.5234,-1.36717 1.5234,-3.74996 0,-5.13665 -5.5858,-5.13665 z m 0,-3.00778 h 5.664 q 2.4609,0 3.9258,-1.23045 1.4843,-1.23046 1.4843,-3.3398 0,-2.34372 -1.3672,-3.3984 -1.3671,-1.0742 -4.1601,-1.0742 h -5.5468 z"
         id="path15164"
         inkscape:connector-curvature="0" />
    </g>
    <path
       style="color:#000000;font-style:normal;font-variant:normal;font-weight:normal;font-stretch:normal;font-size:medium;line-height:normal;font-family:sans-serif;font-variant-ligatures:normal;font-variant-position:normal;font-variant-caps:normal;font-variant-numeric:normal;font-variant-alternates:normal;font-feature-settings:normal;text-indent:0;text-align:start;text-decoration:none;text-decoration-line:none;text-decoration-style:solid;text-decoration-color:#000000;letter-spacing:normal;word-spacing:normal;text-transform:none;writing-mode:lr-tb;direction:ltr;text-orientation:mixed;dominant-baseline:auto;baseline-shift:baseline;text-anchor:start;white-space:normal;shape-padding:0;clip-rule:nonzero;display:inline;overflow:visible;visibility:visible;opacity:1;isolation:auto;mix-blend-mode:normal;color-interpolation:sRGB;color-interpolation-filters:linearRGB;solid-color:#000000;solid-opacity:1;vector-effect:none;fill:#000000;fill-opacity:1;fill-rule:nonzero;stroke:none;stroke-width:7;stroke-linecap:butt;stroke-linejoin:miter;stroke-miterlimit:5.5999999;stroke-dasharray:7.00000019, 56.00000156;stroke-dashoffset:0;stroke-opacity:1;color-rendering:auto;image-rendering:auto;shape-rendering:auto;text-rendering:auto;enable-background:accumulate"
       d="m 347.57585,-278.64844 6.06445,3.4961 3.4961,-6.06641 -6.06446,-3.49414 z m -31.46289,54.58203 6.06641,3.49414 3.49414,-6.06445 -6.06446,-3.49414 z m -31.46094,54.58203 6.06446,3.49415 3.49609,-6.06446 -6.06445,-3.49609 z m -31.46093,54.58008 6.06445,3.4961 3.49609,-6.06446 -6.06445,-3.49609 z m -31.46094,54.582034 6.06445,3.496094 3.4961,-6.064453 -6.06641,-3.496094 z m -31.46289,54.5820316 6.06445,3.4960938 3.49609,-6.0644532 -6.06445,-3.4960942 z m -31.46094,54.5820314 6.06445,3.496094 3.4961,-6.064453 -6.06446,-3.496094 z m -31.46094,54.582033 6.06446,3.49609 3.49609,-6.06445 -6.06445,-3.496095 z"
       id="path12791"
       inkscape:connector-curvature="0" />
    <g
       id="g15024"
       transform="translate(-508.88118)">
      <path
         style="color:#000000;font-style:normal;font-variant:normal;font-weight:normal;font-stretch:normal;font-size:medium;line-height:normal;font-family:sans-serif;font-variant-ligatures:normal;font-variant-position:normal;font-variant-caps:normal;font-variant-numeric:normal;font-variant-alternates:normal;font-feature-settings:normal;text-indent:0;text-align:start;text-decoration:none;text-decoration-line:none;text-decoration-style:solid;text-decoration-color:#000000;letter-spacing:normal;word-spacing:normal;text-transform:none;writing-mode:lr-tb;direction:ltr;text-orientation:mixed;dominant-baseline:auto;baseline-shift:baseline;text-anchor:start;white-space:normal;shape-padding:0;clip-rule:nonzero;display:inline;overflow:visible;visibility:visible;opacity:1;isolation:auto;mix-blend-mode:normal;color-interpolation:sRGB;color-interpolation-filters:linearRGB;solid-color:#000000;solid-opacity:1;vector-effect:none;fill:#fd7a48;fill-opacity:1;fill-rule:nonzero;stroke:none;stroke-width:4;stroke-linecap:butt;stroke-linejoin:miter;stroke-miterlimit:3.79999995;stroke-dasharray:none;stroke-dashoffset:0;stroke-opacity:1;color-rendering:auto;image-rendering:auto;shape-rendering:auto;text-rendering:auto;enable-background:accumulate"
         d="m 670.45898,46.837891 -31.32812,54.124999 3.46289,2.00391 31.32617,-54.125003 z"
         id="path7689"
         inkscape:connector-curvature="0" />
      <path
         id="path15030"
         d="m 642.82569,98.571642 c 1.91097,1.106105 2.56419,3.554748 1.45808,5.465708 -1.10611,1.91097 -3.55474,2.56419 -5.46571,1.45808 -1.91097,-1.1061 -2.56419,-3.55474 -1.45808,-5.46571 1.1061,-1.910964 3.55474,-2.564184 5.46571,-1.458078 z"
         style="fill:#fd7a48;fill-opacity:1;fill-rule:evenodd;stroke:#fd7a48;stroke-width:0.80000004pt;stroke-opacity:1"
         inkscape:connector-curvature="0" />
      <path
         style="fill:#fd7a48;fill-opacity:1;fill-rule:evenodd;stroke:#fd7a48;stroke-width:0.80000004pt;stroke-opacity:1"
         d="m 669.7853,51.994791 1.45808,5.465711 3.55146,-14.120452 -10.47525,10.112822 z"
         id="path15032"
         inkscape:connector-curvature="0" />
    </g>
    <g
       transform="translate(-260.85506)"
       id="g15199">
      <path
         inkscape:connector-curvature="0"
         id="path15193"
         d="m 886.44531,-327.39844 -247.31445,428.36328 3.46289,2 247.31445,-428.36328 z"
         style="color:#000000;font-style:normal;font-variant:normal;font-weight:normal;font-stretch:normal;font-size:medium;line-height:normal;font-family:sans-serif;font-variant-ligatures:normal;font-variant-position:normal;font-variant-caps:normal;font-variant-numeric:normal;font-variant-alternates:normal;font-feature-settings:normal;text-indent:0;text-align:start;text-decoration:none;text-decoration-line:none;text-decoration-style:solid;text-decoration-color:#000000;letter-spacing:normal;word-spacing:normal;text-transform:none;writing-mode:lr-tb;direction:ltr;text-orientation:mixed;dominant-baseline:auto;baseline-shift:baseline;text-anchor:start;white-space:normal;shape-padding:0;clip-rule:nonzero;display:inline;overflow:visible;visibility:visible;opacity:1;isolation:auto;mix-blend-mode:normal;color-interpolation:sRGB;color-interpolation-filters:linearRGB;solid-color:#000000;solid-opacity:1;vector-effect:none;fill:#73acce;fill-opacity:1;fill-rule:nonzero;stroke:none;stroke-width:4;stroke-linecap:butt;stroke-linejoin:miter;stroke-miterlimit:3.79999995;stroke-dasharray:none;stroke-dashoffset:0;stroke-opacity:1;color-rendering:auto;image-rendering:auto;shape-rendering:auto;text-rendering:auto;enable-background:accumulate" />
      <path
         inkscape:connector-curvature="0"
         id="path15195"
         d="m 642.82195,98.56948 c 1.91218,1.104 2.5681,3.55192 1.4641,5.4641 -1.104,1.91219 -3.55192,2.5681 -5.4641,1.4641 -1.91218,-1.104 -2.5681,-3.55191 -1.4641,-5.4641 1.104,-1.912182 3.55192,-2.5681 5.4641,-1.4641 z"
         style="fill:#73acce;fill-opacity:1;fill-rule:evenodd;stroke:#73acce;stroke-width:0.80000004pt;stroke-opacity:1" />
      <path
         inkscape:connector-curvature="0"
         d="m 869.33077,-313.11726 21.46173,-17.88774 -4.76037,27.53028 c -2.83564,-6.47443 -9.59313,-10.34799 -16.70136,-9.64254 z"
         style="fill:#73acce;fill-opacity:1;fill-rule:evenodd;stroke:#73acce;stroke-width:1.5;stroke-linejoin:round;stroke-opacity:1"
         id="path15197" />
    </g>
    <g
       id="g15203"
       style="font-style:normal;font-weight:normal;font-size:40px;line-height:25px;font-family:sans-serif;letter-spacing:0px;word-spacing:0px;fill:#000000;fill-opacity:1;stroke:none"
       transform="matrix(1.1480413,0,0,1.1480413,-916.74506,-844.76048)"
       aria-label="A">
      <path
         inkscape:connector-curvature="0"
         id="path15201"
         d="m 1352.4063,436.82031 h -11.9141 l -2.6758,7.42188 h -3.8672 l 10.8594,-28.4375 h 3.2812 l 10.879,28.4375 h -3.8477 z m -10.7813,-3.08594 h 9.668 l -4.8438,-13.30078 z" />
    </g>
    <g
       id="g15207"
       style="font-style:normal;font-variant:normal;font-weight:normal;font-stretch:normal;font-size:39.99950409px;line-height:25px;font-family:sans-serif;-inkscape-font-specification:'sans-serif, Normal';font-variant-ligatures:normal;font-variant-caps:normal;font-variant-numeric:normal;font-feature-settings:normal;text-align:start;letter-spacing:0px;word-spacing:0px;writing-mode:lr-tb;text-anchor:start;fill:#000000;fill-opacity:1;stroke:none"
       transform="matrix(1.1480413,0,0,1.1480413,-1167.9784,-363.67534)"
       aria-label="B">
      <path
         inkscape:connector-curvature="0"
         id="path15205"
         d="m 1336.7031,444.24206 v -28.43714 h 9.2967 q 4.6289,0 6.9531,1.91403 2.3437,1.91404 2.3437,5.664 0,1.99216 -1.1328,3.53511 -1.1328,1.52342 -3.0859,2.36325 2.3047,0.64452 3.6328,2.46091 1.3476,1.79685 1.3476,4.29682 0,3.82808 -2.4804,6.01555 -2.4805,2.18747 -7.0117,2.18747 z m 3.7499,-13.30061 v 10.23425 h 6.1914 q 2.6171,0 4.121,-1.34764 1.5234,-1.36717 1.5234,-3.74996 0,-5.13665 -5.5858,-5.13665 z m 0,-3.00778 h 5.664 q 2.4609,0 3.9258,-1.23045 1.4843,-1.23046 1.4843,-3.3398 0,-2.34372 -1.3672,-3.3984 -1.3671,-1.0742 -4.1601,-1.0742 h -5.5468 z" />
    </g>
    <path
       inkscape:connector-curvature="0"
       id="path15209"
       d="m 595.60197,-278.64844 6.06445,3.4961 3.4961,-6.06641 -6.06446,-3.49414 z m -31.46289,54.58203 6.06641,3.49414 3.49414,-6.06445 -6.06446,-3.49414 z m -31.46094,54.58203 6.06446,3.49415 3.49609,-6.06446 -6.06445,-3.49609 z m -31.46093,54.58008 6.06445,3.4961 3.49609,-6.06446 -6.06445,-3.49609 z m -31.46094,54.582034 6.06445,3.496094 3.4961,-6.064453 -6.06641,-3.496094 z m -31.46289,54.5820316 6.06445,3.4960938 3.49609,-6.0644532 -6.06445,-3.4960942 z m -31.46094,54.5820314 6.06445,3.496094 3.4961,-6.064453 -6.06446,-3.496094 z m -31.46094,54.582033 6.06446,3.49609 3.49609,-6.06445 -6.06445,-3.496095 z"
       style="color:#000000;font-style:normal;font-variant:normal;font-weight:normal;font-stretch:normal;font-size:medium;line-height:normal;font-family:sans-serif;font-variant-ligatures:normal;font-variant-position:normal;font-variant-caps:normal;font-variant-numeric:normal;font-variant-alternates:normal;font-feature-settings:normal;text-indent:0;text-align:start;text-decoration:none;text-decoration-line:none;text-decoration-style:solid;text-decoration-color:#000000;letter-spacing:normal;word-spacing:normal;text-transform:none;writing-mode:lr-tb;direction:ltr;text-orientation:mixed;dominant-baseline:auto;baseline-shift:baseline;text-anchor:start;white-space:normal;shape-padding:0;clip-rule:nonzero;display:inline;overflow:visible;visibility:visible;opacity:1;isolation:auto;mix-blend-mode:normal;color-interpolation:sRGB;color-interpolation-filters:linearRGB;solid-color:#000000;solid-opacity:1;vector-effect:none;fill:#000000;fill-opacity:1;fill-rule:nonzero;stroke:none;stroke-width:7;stroke-linecap:butt;stroke-linejoin:miter;stroke-miterlimit:5.5999999;stroke-dasharray:7.00000019, 56.00000156;stroke-dashoffset:0;stroke-opacity:1;color-rendering:auto;image-rendering:auto;shape-rendering:auto;text-rendering:auto;enable-background:accumulate" />
    <g
       id="g15225"
       transform="translate(-6.4144721)">
      <path
         style="color:#000000;font-style:normal;font-variant:normal;font-weight:normal;font-stretch:normal;font-size:medium;line-height:normal;font-family:sans-serif;font-variant-ligatures:normal;font-variant-position:normal;font-variant-caps:normal;font-variant-numeric:normal;font-variant-alternates:normal;font-feature-settings:normal;text-indent:0;text-align:start;text-decoration:none;text-decoration-line:none;text-decoration-style:solid;text-decoration-color:#000000;letter-spacing:normal;word-spacing:normal;text-transform:none;writing-mode:lr-tb;direction:ltr;text-orientation:mixed;dominant-baseline:auto;baseline-shift:baseline;text-anchor:start;white-space:normal;shape-padding:0;clip-rule:nonzero;display:inline;overflow:visible;visibility:visible;opacity:1;isolation:auto;mix-blend-mode:normal;color-interpolation:sRGB;color-interpolation-filters:linearRGB;solid-color:#000000;solid-opacity:1;vector-effect:none;fill:#73acce;fill-opacity:1;fill-rule:nonzero;stroke:none;stroke-width:4;stroke-linecap:butt;stroke-linejoin:miter;stroke-miterlimit:3.79999995;stroke-dasharray:none;stroke-dashoffset:0;stroke-opacity:1;color-rendering:auto;image-rendering:auto;shape-rendering:auto;text-rendering:auto;enable-background:accumulate"
         d="m 886.44531,-327.39844 -247.31445,428.36328 3.46289,2 247.31445,-428.36328 z"
         id="path15219"
         inkscape:connector-curvature="0" />
      <path
         style="fill:#73acce;fill-opacity:1;fill-rule:evenodd;stroke:#73acce;stroke-width:0.80000004pt;stroke-opacity:1"
         d="m 642.82195,98.56948 c 1.91218,1.104 2.5681,3.55192 1.4641,5.4641 -1.104,1.91219 -3.55192,2.5681 -5.4641,1.4641 -1.91218,-1.104 -2.5681,-3.55191 -1.4641,-5.4641 1.104,-1.912182 3.55192,-2.5681 5.4641,-1.4641 z"
         id="path15221"
         inkscape:connector-curvature="0" />
      <path
         id="path15223"
         style="fill:#73acce;fill-opacity:1;fill-rule:evenodd;stroke:#73acce;stroke-width:1.5;stroke-linejoin:round;stroke-opacity:1"
         d="m 869.33077,-313.11726 21.46173,-17.88774 -4.76037,27.53028 c -2.83564,-6.47443 -9.59313,-10.34799 -16.70136,-9.64254 z"
         inkscape:connector-curvature="0" />
    </g>
    <g
       aria-label="A"
       transform="matrix(1.1480413,0,0,1.1480413,-662.30447,-844.76048)"
       style="font-style:normal;font-weight:normal;font-size:40px;line-height:25px;font-family:sans-serif;letter-spacing:0px;word-spacing:0px;fill:#000000;fill-opacity:1;stroke:none"
       id="g15229">
      <path
         d="m 1352.4063,436.82031 h -11.9141 l -2.6758,7.42188 h -3.8672 l 10.8594,-28.4375 h 3.2812 l 10.879,28.4375 h -3.8477 z m -10.7813,-3.08594 h 9.668 l -4.8438,-13.30078 z"
         id="path15227"
         inkscape:connector-curvature="0" />
    </g>
    <g
       aria-label="B"
       transform="matrix(1.1480413,0,0,1.1480413,-913.53779,-363.67534)"
       style="font-style:normal;font-variant:normal;font-weight:normal;font-stretch:normal;font-size:39.99950409px;line-height:25px;font-family:sans-serif;-inkscape-font-specification:'sans-serif, Normal';font-variant-ligatures:normal;font-variant-caps:normal;font-variant-numeric:normal;font-feature-settings:normal;text-align:start;letter-spacing:0px;word-spacing:0px;writing-mode:lr-tb;text-anchor:start;fill:#000000;fill-opacity:1;stroke:none"
       id="g15233">
      <path
         d="m 1336.7031,444.24206 v -28.43714 h 9.2967 q 4.6289,0 6.9531,1.91403 2.3437,1.91404 2.3437,5.664 0,1.99216 -1.1328,3.53511 -1.1328,1.52342 -3.0859,2.36325 2.3047,0.64452 3.6328,2.46091 1.3476,1.79685 1.3476,4.29682 0,3.82808 -2.4804,6.01555 -2.4805,2.18747 -7.0117,2.18747 z m 3.7499,-13.30061 v 10.23425 h 6.1914 q 2.6171,0 4.121,-1.34764 1.5234,-1.36717 1.5234,-3.74996 0,-5.13665 -5.5858,-5.13665 z m 0,-3.00778 h 5.664 q 2.4609,0 3.9258,-1.23045 1.4843,-1.23046 1.4843,-3.3398 0,-2.34372 -1.3672,-3.3984 -1.3671,-1.0742 -4.1601,-1.0742 h -5.5468 z"
         id="path15231"
         inkscape:connector-curvature="0" />
    </g>
    <path
       style="color:#000000;font-style:normal;font-variant:normal;font-weight:normal;font-stretch:normal;font-size:medium;line-height:normal;font-family:sans-serif;font-variant-ligatures:normal;font-variant-position:normal;font-variant-caps:normal;font-variant-numeric:normal;font-variant-alternates:normal;font-feature-settings:normal;text-indent:0;text-align:start;text-decoration:none;text-decoration-line:none;text-decoration-style:solid;text-decoration-color:#000000;letter-spacing:normal;word-spacing:normal;text-transform:none;writing-mode:lr-tb;direction:ltr;text-orientation:mixed;dominant-baseline:auto;baseline-shift:baseline;text-anchor:start;white-space:normal;shape-padding:0;clip-rule:nonzero;display:inline;overflow:visible;visibility:visible;opacity:1;isolation:auto;mix-blend-mode:normal;color-interpolation:sRGB;color-interpolation-filters:linearRGB;solid-color:#000000;solid-opacity:1;vector-effect:none;fill:#000000;fill-opacity:1;fill-rule:nonzero;stroke:none;stroke-width:7;stroke-linecap:butt;stroke-linejoin:miter;stroke-miterlimit:5.5999999;stroke-dasharray:7.00000019, 56.00000156;stroke-dashoffset:0;stroke-opacity:1;color-rendering:auto;image-rendering:auto;shape-rendering:auto;text-rendering:auto;enable-background:accumulate"
       d="m 850.04256,-278.64844 6.06445,3.4961 3.4961,-6.06641 -6.06446,-3.49414 z m -31.46289,54.58203 6.06641,3.49414 3.49414,-6.06445 -6.06446,-3.49414 z m -31.46094,54.58203 6.06446,3.49415 3.49609,-6.06446 -6.06445,-3.49609 z m -31.46093,54.58008 6.06445,3.4961 3.49609,-6.06446 -6.06445,-3.49609 z m -31.46094,54.582034 6.06445,3.496094 3.4961,-6.064453 -6.06641,-3.496094 z m -31.46289,54.5820316 6.06445,3.4960938 3.49609,-6.0644532 -6.06445,-3.4960942 z m -31.46094,54.5820314 6.06445,3.496094 3.4961,-6.064453 -6.06446,-3.496094 z m -31.46094,54.582033 6.06446,3.49609 3.49609,-6.06445 -6.06445,-3.496095 z"
       id="path15235"
       inkscape:connector-curvature="0" />
    <path
       style="fill:none;stroke:#fd7a48;stroke-width:4;stroke-linecap:butt;stroke-linejoin:miter;stroke-miterlimit:4;stroke-dasharray:none;stroke-opacity:1;marker-end:url(#Arrow1Send)"
       d="M 379.91552,102.16052 442.92061,-6.9674852"
       id="path15245"
       inkscape:connector-curvature="0" />
    <path
       inkscape:connector-curvature="0"
       id="path15289"
       d="M 634.34549,102.16052 729.9304,-63.410342"
       style="fill:none;stroke:#fd7a48;stroke-width:4;stroke-linecap:butt;stroke-linejoin:miter;stroke-miterlimit:4;stroke-dasharray:none;stroke-opacity:1;marker-end:url(#marker15293)"
       sodipodi:nodetypes="cc" />
  </g>
</svg>
