<?xml version="1.0" standalone="no"?><!-- Generator: Gravit.io --><svg xmlns="http://www.w3.org/2000/svg" xmlns:xlink="http://www.w3.org/1999/xlink" style="isolation:isolate" viewBox="-71 0 1351 960" width="1351" height="960"><rect x="347" y="144" width="586" height="672" transform="matrix(1,0,0,1,0,0)" fill="none" vector-effect="non-scaling-stroke" stroke-width="5" stroke="rgb(0,0,0)" stroke-linejoin="miter" stroke-linecap="square" stroke-miterlimit="3"/><line x1="347" y1="816" x2="917" y2="163" vector-effect="non-scaling-stroke" stroke-width="4" stroke="rgb(0,0,0)" stroke-linejoin="miter" stroke-linecap="butt" stroke-miterlimit="3"/><path d=" M 333 816 C 333 808.273 339.273 802 347 802 C 354.727 802 361 808.273 361 816 C 361 823.727 354.727 830 347 830 C 339.273 830 333 823.727 333 816 Z " fill="rgb(255,111,0)"/><path d=" M 649.039 403.013 L 650.913 404.638 L 649.521 406.869 L 667.652 414.163 L 669.771 415.147 L 669.848 415.059 L 668.573 413.1 L 658.757 396.187 L 656.786 397.865 L 654.912 396.24 L 660.785 389.466 L 662.659 391.091 L 661.398 393.023 L 674.529 417.024 L 672.367 419.517 L 646.747 409.919 L 645.027 411.426 L 643.153 409.801 L 649.039 403.013 Z  M 690.615 399.098 L 690.615 399.098 L 690.615 399.098 Q 687.724 402.432 683.795 402.477 L 683.795 402.477 L 683.795 402.477 Q 679.866 402.521 676.324 399.45 L 676.324 399.45 L 675.675 398.887 L 675.675 398.887 Q 672.266 395.932 671.76 391.939 L 671.76 391.939 L 671.76 391.939 Q 671.254 387.946 673.66 385.171 L 673.66 385.171 L 673.66 385.171 Q 676.449 381.954 679.837 381.983 L 679.837 381.983 L 679.837 381.983 Q 683.224 382.012 686.47 384.827 L 686.47 384.827 L 688.285 386.401 L 679.303 396.76 L 679.339 396.868 L 679.339 396.868 Q 681.679 398.82 684.134 398.984 L 684.134 398.984 L 684.134 398.984 Q 686.59 399.149 688.343 397.127 L 688.343 397.127 L 688.343 397.127 Q 689.622 395.651 690.168 394.173 L 690.168 394.173 L 690.168 394.173 Q 690.713 392.694 690.679 391.242 L 690.679 391.242 L 693.553 391.744 L 693.553 391.744 Q 693.637 393.316 692.984 395.218 L 692.984 395.218 L 692.984 395.218 Q 692.33 397.12 690.615 399.098 Z  M 675.947 387.155 L 675.947 387.155 L 675.947 387.155 Q 674.68 388.615 675.017 390.717 L 675.017 390.717 L 675.017 390.717 Q 675.353 392.818 677.008 394.666 L 677.008 394.666 L 677.107 394.701 L 683.492 387.337 L 683.109 387.005 L 683.109 387.005 Q 681.397 385.52 679.452 385.437 L 679.452 385.437 L 679.452 385.437 Q 677.508 385.354 675.947 387.155 Z  M 702.328 380.998 L 702.328 380.998 L 702.328 380.998 Q 703.582 379.552 703.642 377.679 L 703.642 377.679 L 703.642 377.679 Q 703.703 375.805 702.404 374.679 L 702.404 374.679 L 704.669 372.067 L 704.783 372.114 L 704.783 372.114 Q 706.913 373.832 706.857 377.131 L 706.857 377.131 L 706.857 377.131 Q 706.801 380.43 704.6 382.969 L 704.6 382.969 L 704.6 382.969 Q 701.581 386.451 697.715 386.318 L 697.715 386.318 L 697.715 386.318 Q 693.85 386.185 690.411 383.203 L 690.411 383.203 L 689.792 382.666 L 689.792 382.666 Q 686.383 379.71 685.702 375.889 L 685.702 375.889 L 685.702 375.889 Q 685.022 372.068 688.029 368.6 L 688.029 368.6 L 688.029 368.6 Q 689.692 366.681 691.651 365.704 L 691.651 365.704 L 691.651 365.704 Q 693.61 364.727 695.587 364.683 L 695.587 364.683 L 699.243 367.621 L 697.234 369.938 L 694.176 368.397 L 694.176 368.397 Q 693.226 368.479 692.212 369.022 L 692.212 369.022 L 692.212 369.022 Q 691.199 369.565 690.316 370.583 L 690.316 370.583 L 690.316 370.583 Q 688.333 372.87 689.127 375.278 L 689.127 375.278 L 689.127 375.278 Q 689.922 377.686 692.312 379.759 L 692.312 379.759 L 692.932 380.296 L 692.932 380.296 Q 695.382 382.42 697.857 382.86 L 697.857 382.86 L 697.857 382.86 Q 700.332 383.3 702.328 380.998 Z  M 694.261 354.227 L 696.781 351.32 L 700.633 354.66 L 703.256 351.635 L 705.41 353.503 L 702.787 356.528 L 712.482 364.934 L 712.482 364.934 Q 713.604 365.907 714.464 365.839 L 714.464 365.839 L 714.464 365.839 Q 715.325 365.77 715.99 365.003 L 715.99 365.003 L 715.99 365.003 Q 716.323 364.619 716.672 364.082 L 716.672 364.082 L 716.672 364.082 Q 717.022 363.545 717.229 363.156 L 717.229 363.156 L 719.567 364.485 L 719.567 364.485 Q 719.474 365.129 718.953 366.073 L 718.953 366.073 L 718.953 366.073 Q 718.432 367.017 717.741 367.814 L 717.741 367.814 L 717.741 367.814 Q 716.205 369.584 714.227 369.704 L 714.227 369.704 L 714.227 369.704 Q 712.249 369.825 709.962 367.841 L 709.962 367.841 L 700.267 359.435 L 698.079 361.958 L 695.924 360.09 L 698.112 357.567 L 694.261 354.227 Z  M 714.001 355.73 L 713.676 355.448 L 713.676 355.448 Q 710.134 352.377 709.503 348.469 L 709.503 348.469 L 709.503 348.469 Q 708.872 344.561 711.725 341.271 L 711.725 341.271 L 711.725 341.271 Q 714.591 337.965 718.548 338.023 L 718.548 338.023 L 718.548 338.023 Q 722.505 338.08 726.062 341.164 L 726.062 341.164 L 726.386 341.445 L 726.386 341.445 Q 729.957 344.542 730.567 348.43 L 730.567 348.43 L 730.567 348.43 Q 731.176 352.319 728.322 355.61 L 728.322 355.61 L 728.322 355.61 Q 725.444 358.93 721.5 358.872 L 721.5 358.872 L 721.5 358.872 Q 717.557 358.813 714.001 355.73 L 714.001 355.73 Z  M 716.197 352.541 L 716.521 352.823 L 716.521 352.823 Q 719.059 355.023 721.64 355.386 L 721.64 355.386 L 721.64 355.386 Q 724.22 355.75 726.05 353.64 L 726.05 353.64 L 726.05 353.64 Q 727.841 351.574 727.123 349.063 L 727.123 349.063 L 727.123 349.063 Q 726.404 346.553 723.866 344.352 L 723.866 344.352 L 723.541 344.071 L 723.541 344.071 Q 721.032 341.896 718.431 341.527 L 718.431 341.527 L 718.431 341.527 Q 715.829 341.158 714.012 343.254 L 714.012 343.254 L 714.012 343.254 Q 712.196 345.349 712.942 347.858 L 712.942 347.858 L 712.942 347.858 Q 713.688 350.366 716.197 352.541 L 716.197 352.541 Z  M 724.902 331.291 L 722.403 333.338 L 720.529 331.713 L 724.867 326.711 L 727.426 328.439 L 727.426 328.439 Q 726.79 326.699 726.96 325.101 L 726.96 325.101 L 726.96 325.101 Q 727.13 323.504 728.244 322.22 L 728.244 322.22 L 728.244 322.22 Q 728.538 321.88 728.903 321.564 L 728.903 321.564 L 728.903 321.564 Q 729.268 321.247 729.494 321.106 L 729.494 321.106 L 731.861 323.831 L 730.34 325.407 L 730.34 325.407 Q 729.342 326.558 729.202 327.808 L 729.202 327.808 L 729.202 327.808 Q 729.063 329.057 729.666 330.329 L 729.666 330.329 L 738.829 338.275 L 741.328 336.228 L 743.187 337.84 L 736.496 345.558 L 734.636 343.945 L 736.309 341.182 L 724.902 331.291 Z  M 503.021 571.415 L 508.741 564.818 L 508.741 564.818 Q 512.387 560.613 517.197 560.298 L 517.197 560.298 L 517.197 560.298 Q 522.007 559.983 526.109 563.54 L 526.109 563.54 L 529.046 566.087 L 529.046 566.087 Q 533.163 569.656 533.518 574.449 L 533.518 574.449 L 533.518 574.449 Q 533.873 579.242 530.226 583.448 L 530.226 583.448 L 522.421 592.45 L 520.562 590.837 L 522.234 588.074 L 505.309 573.398 L 502.81 575.445 L 500.936 573.82 L 503.021 571.415 Z  M 511.028 566.802 L 507.829 570.491 L 524.755 585.167 L 527.954 581.478 L 527.954 581.478 Q 530.538 578.497 530.066 575.076 L 530.066 575.076 L 530.066 575.076 Q 529.594 571.655 526.525 568.994 L 526.525 568.994 L 523.559 566.422 L 523.559 566.422 Q 520.519 563.786 517.066 563.803 L 517.066 563.803 L 517.066 563.803 Q 513.613 563.821 511.028 566.802 L 511.028 566.802 Z  M 540.808 571.244 L 538.948 569.632 L 540.621 566.869 L 529.214 556.978 L 526.715 559.025 L 524.841 557.4 L 529.447 552.088 L 543.142 563.962 L 545.64 561.914 L 547.5 563.527 L 540.808 571.244 Z  M 522.394 545.972 L 525.36 548.543 L 522.839 551.451 L 519.873 548.879 L 522.394 545.972 Z  M 548.92 561.889 L 547.061 560.277 L 548.733 557.513 L 537.326 547.622 L 534.827 549.669 L 532.953 548.044 L 537.304 543.027 L 539.551 544.639 L 539.551 544.639 Q 539.08 542.887 539.509 541.139 L 539.509 541.139 L 539.509 541.139 Q 539.939 539.392 541.32 537.798 L 541.32 537.798 L 541.32 537.798 Q 542.702 536.205 544.432 535.701 L 544.432 535.701 L 544.432 535.701 Q 546.161 535.197 548.136 535.901 L 548.136 535.901 L 548.136 535.901 Q 547.431 533.971 547.709 532.041 L 547.709 532.041 L 547.709 532.041 Q 547.987 530.11 549.42 528.457 L 549.42 528.457 L 549.42 528.457 Q 551.544 526.008 554.447 526.043 L 554.447 526.043 L 554.447 526.043 Q 557.35 526.079 560.715 528.996 L 560.715 528.996 L 567.99 535.304 L 570.488 533.257 L 572.348 534.869 L 565.643 542.602 L 563.784 540.99 L 565.456 538.226 L 558.152 531.893 L 558.152 531.893 Q 555.791 529.845 554.106 529.806 L 554.106 529.806 L 554.106 529.806 Q 552.42 529.767 551.039 531.361 L 551.039 531.361 L 551.039 531.361 Q 549.721 532.88 549.991 534.73 L 549.991 534.73 L 549.991 534.73 Q 550.261 536.58 551.756 538.135 L 551.756 538.135 L 559.622 544.955 L 562.12 542.908 L 563.98 544.52 L 557.288 552.238 L 555.429 550.626 L 557.101 547.862 L 549.796 541.529 L 549.796 541.529 Q 547.553 539.584 545.79 539.515 L 545.79 539.515 L 545.79 539.515 Q 544.027 539.447 542.658 541.026 L 542.658 541.026 L 542.658 541.026 Q 541.506 542.354 541.31 543.683 L 541.31 543.683 L 541.31 543.683 Q 541.114 545.013 541.706 546.327 L 541.706 546.327 L 551.254 554.606 L 553.752 552.559 L 555.612 554.171 L 548.92 561.889 Z  M 580.808 525.738 L 580.808 525.738 L 580.808 525.738 Q 577.916 529.073 573.987 529.118 L 573.987 529.118 L 573.987 529.118 Q 570.058 529.162 566.517 526.091 L 566.517 526.091 L 565.867 525.528 L 565.867 525.528 Q 562.459 522.572 561.953 518.579 L 561.953 518.579 L 561.953 518.579 Q 561.447 514.586 563.853 511.812 L 563.853 511.812 L 563.853 511.812 Q 566.642 508.595 570.029 508.624 L 570.029 508.624 L 570.029 508.624 Q 573.416 508.653 576.663 511.468 L 576.663 511.468 L 578.478 513.042 L 569.496 523.401 L 569.531 523.509 L 569.531 523.509 Q 571.872 525.461 574.327 525.625 L 574.327 525.625 L 574.327 525.625 Q 576.783 525.789 578.535 523.768 L 578.535 523.768 L 578.535 523.768 Q 579.815 522.292 580.36 520.813 L 580.36 520.813 L 580.36 520.813 Q 580.906 519.335 580.872 517.883 L 580.872 517.883 L 583.746 518.385 L 583.746 518.385 Q 583.83 519.957 583.176 521.859 L 583.176 521.859 L 583.176 521.859 Q 582.523 523.761 580.808 525.738 Z  M 566.14 513.795 L 566.14 513.795 L 566.14 513.795 Q 564.873 515.256 565.21 517.358 L 565.21 517.358 L 565.21 517.358 Q 565.546 519.459 567.201 521.307 L 567.201 521.307 L 567.3 521.342 L 573.685 513.978 L 573.301 513.645 L 573.301 513.645 Q 571.589 512.161 569.645 512.078 L 569.645 512.078 L 569.645 512.078 Q 567.701 511.995 566.14 513.795 Z  M 587.894 516.94 L 586.034 515.328 L 587.707 512.564 L 576.3 502.674 L 573.801 504.721 L 571.927 503.096 L 576.265 498.094 L 578.82 499.947 L 578.82 499.947 Q 578.241 498.05 578.583 496.239 L 578.583 496.239 L 578.583 496.239 Q 578.925 494.429 580.256 492.894 L 580.256 492.894 L 580.256 492.894 Q 582.495 490.312 585.236 490.207 L 585.236 490.207 L 585.236 490.207 Q 587.977 490.101 591.135 492.84 L 591.135 492.84 L 598.941 499.608 L 601.44 497.561 L 603.299 499.173 L 596.607 506.891 L 594.748 505.279 L 596.42 502.515 L 588.673 495.798 L 588.673 495.798 Q 586.563 493.968 584.955 494.034 L 584.955 494.034 L 584.955 494.034 Q 583.346 494.1 581.862 495.812 L 581.862 495.812 L 581.862 495.812 Q 580.774 497.066 580.541 498.557 L 580.541 498.557 L 580.541 498.557 Q 580.308 500.049 580.857 501.533 L 580.857 501.533 L 590.227 509.657 L 592.726 507.61 L 594.585 509.223 L 587.894 516.94 Z  M 601.119 472.44 L 604.774 475.351 L 602.88 477.535 L 600.552 476.344 L 600.552 476.344 Q 599.59 476.44 598.59 476.982 L 598.59 476.982 L 598.59 476.982 Q 597.59 477.524 596.707 478.542 L 596.707 478.542 L 596.707 478.542 Q 595.364 480.091 595.39 481.432 L 595.39 481.432 L 595.39 481.432 Q 595.416 482.774 596.375 483.605 L 596.375 483.605 L 596.375 483.605 Q 597.32 484.424 598.442 484.234 L 598.442 484.234 L 598.442 484.234 Q 599.563 484.043 601.757 482.378 L 601.757 482.378 L 601.757 482.378 Q 605.029 479.915 607.423 479.406 L 607.423 479.406 L 607.423 479.406 Q 609.817 478.896 611.691 480.521 L 611.691 480.521 L 611.691 480.521 Q 613.816 482.364 613.638 485.222 L 613.638 485.222 L 613.638 485.222 Q 613.461 488.08 611.056 490.854 L 611.056 490.854 L 611.056 490.854 Q 609.482 492.669 607.807 493.75 L 607.807 493.75 L 607.807 493.75 Q 606.133 494.832 604.351 495.277 L 604.351 495.277 L 600.693 492.131 L 602.587 489.947 L 605.2 491.257 L 605.2 491.257 Q 606.092 491.152 607.047 490.468 L 607.047 490.468 L 607.047 490.468 Q 608.003 489.783 608.783 488.883 L 608.783 488.883 L 608.783 488.883 Q 610.127 487.334 610.261 485.912 L 610.261 485.912 L 610.261 485.912 Q 610.395 484.49 609.377 483.607 L 609.377 483.607 L 609.377 483.607 Q 608.417 482.776 607.164 482.969 L 607.164 482.969 L 607.164 482.969 Q 605.911 483.162 603.688 484.802 L 603.688 484.802 L 603.688 484.802 Q 600.533 487.158 598.161 487.687 L 598.161 487.687 L 598.161 487.687 Q 595.79 488.216 593.931 486.604 L 593.931 486.604 L 593.931 486.604 Q 591.983 484.915 592.05 482.065 L 592.05 482.065 L 592.05 482.065 Q 592.117 479.215 594.42 476.559 L 594.42 476.559 L 594.42 476.559 Q 595.994 474.744 597.72 473.707 L 597.72 473.707 L 597.72 473.707 Q 599.446 472.67 601.119 472.44 L 601.119 472.44 Z  M 618.487 481.657 L 616.627 480.045 L 618.3 477.282 L 606.893 467.391 L 604.394 469.438 L 602.52 467.813 L 607.126 462.501 L 620.82 474.375 L 623.319 472.327 L 625.179 473.94 L 618.487 481.657 Z  M 600.073 456.385 L 603.039 458.956 L 600.518 461.864 L 597.552 459.292 L 600.073 456.385 Z  M 619.304 464.943 L 618.98 464.661 L 618.98 464.661 Q 615.438 461.591 614.807 457.683 L 614.807 457.683 L 614.807 457.683 Q 614.176 453.775 617.029 450.484 L 617.029 450.484 L 617.029 450.484 Q 619.895 447.178 623.852 447.236 L 623.852 447.236 L 623.852 447.236 Q 627.809 447.293 631.365 450.377 L 631.365 450.377 L 631.69 450.658 L 631.69 450.658 Q 635.261 453.755 635.87 457.644 L 635.87 457.644 L 635.87 457.644 Q 636.479 461.532 633.626 464.823 L 633.626 464.823 L 633.626 464.823 Q 630.747 468.143 626.804 468.085 L 626.804 468.085 L 626.804 468.085 Q 622.861 468.026 619.304 464.943 L 619.304 464.943 Z  M 621.5 461.754 L 621.825 462.036 L 621.825 462.036 Q 624.363 464.237 626.943 464.6 L 626.943 464.6 L 626.943 464.6 Q 629.524 464.963 631.354 462.853 L 631.354 462.853 L 631.354 462.853 Q 633.145 460.787 632.426 458.277 L 632.426 458.277 L 632.426 458.277 Q 631.707 455.766 629.169 453.566 L 629.169 453.566 L 628.845 453.284 L 628.845 453.284 Q 626.336 451.109 623.735 450.74 L 623.735 450.74 L 623.735 450.74 Q 621.133 450.372 619.316 452.467 L 619.316 452.467 L 619.316 452.467 Q 617.499 454.562 618.245 457.071 L 618.245 457.071 L 618.245 457.071 Q 618.992 459.579 621.5 461.754 L 621.5 461.754 Z  M 641.428 455.199 L 639.569 453.587 L 641.241 450.823 L 629.835 440.932 L 627.336 442.98 L 625.462 441.355 L 629.799 436.352 L 632.354 438.206 L 632.354 438.206 Q 631.776 436.308 632.118 434.498 L 632.118 434.498 L 632.118 434.498 Q 632.46 432.687 633.79 431.153 L 633.79 431.153 L 633.79 431.153 Q 636.03 428.57 638.77 428.465 L 638.77 428.465 L 638.77 428.465 Q 641.511 428.36 644.669 431.098 L 644.669 431.098 L 652.475 437.867 L 654.974 435.82 L 656.834 437.432 L 650.142 445.15 L 648.282 443.537 L 649.955 440.774 L 642.208 434.056 L 642.208 434.056 Q 640.097 432.227 638.489 432.293 L 638.489 432.293 L 638.489 432.293 Q 636.881 432.359 635.397 434.071 L 635.397 434.071 L 635.397 434.071 Q 634.309 435.325 634.076 436.816 L 634.076 436.816 L 634.076 436.816 Q 633.843 438.307 634.392 439.791 L 634.392 439.791 L 643.762 447.916 L 646.261 445.869 L 648.12 447.481 L 641.428 455.199 Z " fill-rule="evenodd" fill="rgb(0,0,0)"/><path d=" M 234.184 843.477 L 244.066 843.477 L 244.066 843.477 Q 248.617 843.477 251.146 845.82 L 251.146 845.82 L 251.146 845.82 Q 253.676 848.164 253.676 851.992 L 253.676 851.992 L 253.676 851.992 Q 253.676 855.859 251.146 858.184 L 251.146 858.184 L 251.146 858.184 Q 248.617 860.508 244.066 860.508 L 244.066 860.508 L 238.031 860.508 L 238.031 868.906 L 241.215 869.453 L 241.215 871.914 L 231 871.914 L 231 869.453 L 234.184 868.906 L 234.184 846.504 L 231 845.957 L 231 843.477 L 234.184 843.477 Z  M 238.031 846.504 L 238.031 857.5 L 244.066 857.5 L 244.066 857.5 Q 246.957 857.5 248.393 855.947 L 248.393 855.947 L 248.393 855.947 Q 249.828 854.395 249.828 852.031 L 249.828 852.031 L 249.828 852.031 Q 249.828 849.668 248.393 848.086 L 248.393 848.086 L 248.393 848.086 Q 246.957 846.504 244.066 846.504 L 244.066 846.504 L 238.031 846.504 Z  M 256.781 861.582 L 256.781 861.152 L 256.781 861.152 Q 256.781 856.465 259.32 853.428 L 259.32 853.428 L 259.32 853.428 Q 261.859 850.391 266.215 850.391 L 266.215 850.391 L 266.215 850.391 Q 270.59 850.391 273.139 853.418 L 273.139 853.418 L 273.139 853.418 Q 275.688 856.445 275.688 861.152 L 275.688 861.152 L 275.688 861.582 L 275.688 861.582 Q 275.688 866.309 273.148 869.316 L 273.148 869.316 L 273.148 869.316 Q 270.609 872.324 266.254 872.324 L 266.254 872.324 L 266.254 872.324 Q 261.859 872.324 259.32 869.307 L 259.32 869.307 L 259.32 869.307 Q 256.781 866.289 256.781 861.582 L 256.781 861.582 Z  M 260.629 861.152 L 260.629 861.582 L 260.629 861.582 Q 260.629 864.941 262.045 867.129 L 262.045 867.129 L 262.045 867.129 Q 263.461 869.316 266.254 869.316 L 266.254 869.316 L 266.254 869.316 Q 268.988 869.316 270.414 867.129 L 270.414 867.129 L 270.414 867.129 Q 271.84 864.941 271.84 861.582 L 271.84 861.582 L 271.84 861.152 L 271.84 861.152 Q 271.84 857.832 270.414 855.625 L 270.414 855.625 L 270.414 855.625 Q 268.988 853.418 266.215 853.418 L 266.215 853.418 L 266.215 853.418 Q 263.441 853.418 262.035 855.625 L 262.035 855.625 L 262.035 855.625 Q 260.629 857.832 260.629 861.152 L 260.629 861.152 Z  M 279.203 871.914 L 279.203 869.453 L 282.387 868.906 L 282.387 853.809 L 279.203 853.262 L 279.203 850.781 L 286.234 850.781 L 286.234 868.906 L 289.418 869.453 L 289.418 871.914 L 279.203 871.914 Z  M 286.234 841.445 L 286.234 845.371 L 282.387 845.371 L 282.387 841.445 L 286.234 841.445 Z  M 291.781 871.914 L 291.781 869.453 L 294.965 868.906 L 294.965 853.809 L 291.781 853.262 L 291.781 850.781 L 298.402 850.781 L 298.676 853.926 L 298.676 853.926 Q 299.73 852.246 301.322 851.318 L 301.322 851.318 L 301.322 851.318 Q 302.914 850.391 304.945 850.391 L 304.945 850.391 L 304.945 850.391 Q 308.363 850.391 310.238 852.393 L 310.238 852.393 L 310.238 852.393 Q 312.113 854.395 312.113 858.574 L 312.113 858.574 L 312.113 868.906 L 315.297 869.453 L 315.297 871.914 L 305.082 871.914 L 305.082 869.453 L 308.266 868.906 L 308.266 858.652 L 308.266 858.652 Q 308.266 855.859 307.162 854.688 L 307.162 854.688 L 307.162 854.688 Q 306.059 853.516 303.793 853.516 L 303.793 853.516 L 303.793 853.516 Q 302.133 853.516 300.854 854.316 L 300.854 854.316 L 300.854 854.316 Q 299.574 855.117 298.813 856.504 L 298.813 856.504 L 298.813 868.906 L 301.996 869.453 L 301.996 871.914 L 291.781 871.914 Z  M 320.961 845.684 L 324.809 845.684 L 324.809 850.781 L 328.813 850.781 L 328.813 853.633 L 324.809 853.633 L 324.809 866.465 L 324.809 866.465 Q 324.809 867.949 325.424 868.555 L 325.424 868.555 L 325.424 868.555 Q 326.039 869.16 327.055 869.16 L 327.055 869.16 L 327.055 869.16 Q 327.563 869.16 328.197 869.072 L 328.197 869.072 L 328.197 869.072 Q 328.832 868.984 329.262 868.887 L 329.262 868.887 L 329.789 871.523 L 329.789 871.523 Q 329.242 871.875 328.188 872.1 L 328.188 872.1 L 328.188 872.1 Q 327.133 872.324 326.078 872.324 L 326.078 872.324 L 326.078 872.324 Q 323.734 872.324 322.348 870.908 L 322.348 870.908 L 322.348 870.908 Q 320.961 869.492 320.961 866.465 L 320.961 866.465 L 320.961 853.633 L 317.621 853.633 L 317.621 850.781 L 320.961 850.781 L 320.961 845.684 Z  M 66.879 843.477 L 76.762 843.477 L 76.762 843.477 Q 81.313 843.477 83.842 845.82 L 83.842 845.82 L 83.842 845.82 Q 86.371 848.164 86.371 851.992 L 86.371 851.992 L 86.371 851.992 Q 86.371 855.859 83.842 858.184 L 83.842 858.184 L 83.842 858.184 Q 81.313 860.508 76.762 860.508 L 76.762 860.508 L 70.727 860.508 L 70.727 868.906 L 73.91 869.453 L 73.91 871.914 L 63.695 871.914 L 63.695 869.453 L 66.879 868.906 L 66.879 846.504 L 63.695 845.957 L 63.695 843.477 L 66.879 843.477 Z  M 70.727 846.504 L 70.727 857.5 L 76.762 857.5 L 76.762 857.5 Q 79.652 857.5 81.088 855.947 L 81.088 855.947 L 81.088 855.947 Q 82.523 854.395 82.523 852.031 L 82.523 852.031 L 82.523 852.031 Q 82.523 849.668 81.088 848.086 L 81.088 848.086 L 81.088 848.086 Q 79.652 846.504 76.762 846.504 L 76.762 846.504 L 70.727 846.504 Z  M 89.477 861.582 L 89.477 861.152 L 89.477 861.152 Q 89.477 856.465 92.016 853.428 L 92.016 853.428 L 92.016 853.428 Q 94.555 850.391 98.91 850.391 L 98.91 850.391 L 98.91 850.391 Q 103.285 850.391 105.834 853.418 L 105.834 853.418 L 105.834 853.418 Q 108.383 856.445 108.383 861.152 L 108.383 861.152 L 108.383 861.582 L 108.383 861.582 Q 108.383 866.309 105.844 869.316 L 105.844 869.316 L 105.844 869.316 Q 103.305 872.324 98.949 872.324 L 98.949 872.324 L 98.949 872.324 Q 94.555 872.324 92.016 869.307 L 92.016 869.307 L 92.016 869.307 Q 89.477 866.289 89.477 861.582 L 89.477 861.582 Z  M 93.324 861.152 L 93.324 861.582 L 93.324 861.582 Q 93.324 864.941 94.74 867.129 L 94.74 867.129 L 94.74 867.129 Q 96.156 869.316 98.949 869.316 L 98.949 869.316 L 98.949 869.316 Q 101.684 869.316 103.109 867.129 L 103.109 867.129 L 103.109 867.129 Q 104.535 864.941 104.535 861.582 L 104.535 861.582 L 104.535 861.152 L 104.535 861.152 Q 104.535 857.832 103.109 855.625 L 103.109 855.625 L 103.109 855.625 Q 101.684 853.418 98.91 853.418 L 98.91 853.418 L 98.91 853.418 Q 96.137 853.418 94.73 855.625 L 94.73 855.625 L 94.73 855.625 Q 93.324 857.832 93.324 861.152 L 93.324 861.152 Z  M 127.875 852.754 L 128.07 857.422 L 125.18 857.422 L 124.555 854.883 L 124.555 854.883 Q 123.852 854.219 122.787 853.818 L 122.787 853.818 L 122.787 853.818 Q 121.723 853.418 120.375 853.418 L 120.375 853.418 L 120.375 853.418 Q 118.324 853.418 117.328 854.316 L 117.328 854.316 L 117.328 854.316 Q 116.332 855.215 116.332 856.484 L 116.332 856.484 L 116.332 856.484 Q 116.332 857.734 117.211 858.457 L 117.211 858.457 L 117.211 858.457 Q 118.09 859.18 120.785 859.746 L 120.785 859.746 L 120.785 859.746 Q 124.789 860.605 126.742 862.08 L 126.742 862.08 L 126.742 862.08 Q 128.695 863.555 128.695 866.035 L 128.695 866.035 L 128.695 866.035 Q 128.695 868.848 126.42 870.586 L 126.42 870.586 L 126.42 870.586 Q 124.145 872.324 120.473 872.324 L 120.473 872.324 L 120.473 872.324 Q 118.07 872.324 116.156 871.768 L 116.156 871.768 L 116.156 871.768 Q 114.242 871.211 112.738 870.156 L 112.738 870.156 L 112.719 865.332 L 115.609 865.332 L 116.332 868.164 L 116.332 868.164 Q 116.996 868.77 118.139 869.043 L 118.139 869.043 L 118.139 869.043 Q 119.281 869.316 120.473 869.316 L 120.473 869.316 L 120.473 869.316 Q 122.523 869.316 123.686 868.486 L 123.686 868.486 L 123.686 868.486 Q 124.848 867.656 124.848 866.309 L 124.848 866.309 L 124.848 866.309 Q 124.848 865.039 123.881 864.219 L 123.881 864.219 L 123.881 864.219 Q 122.914 863.398 120.219 862.793 L 120.219 862.793 L 120.219 862.793 Q 116.371 861.953 114.418 860.508 L 114.418 860.508 L 114.418 860.508 Q 112.465 859.063 112.465 856.602 L 112.465 856.602 L 112.465 856.602 Q 112.465 854.023 114.662 852.207 L 114.662 852.207 L 114.662 852.207 Q 116.859 850.391 120.375 850.391 L 120.375 850.391 L 120.375 850.391 Q 122.777 850.391 124.691 851.016 L 124.691 851.016 L 124.691 851.016 Q 126.605 851.641 127.875 852.754 L 127.875 852.754 Z  M 132.289 871.914 L 132.289 869.453 L 135.473 868.906 L 135.473 853.809 L 132.289 853.262 L 132.289 850.781 L 139.32 850.781 L 139.32 868.906 L 142.504 869.453 L 142.504 871.914 L 132.289 871.914 Z  M 139.32 841.445 L 139.32 845.371 L 135.473 845.371 L 135.473 841.445 L 139.32 841.445 Z  M 148.305 845.684 L 152.152 845.684 L 152.152 850.781 L 156.156 850.781 L 156.156 853.633 L 152.152 853.633 L 152.152 866.465 L 152.152 866.465 Q 152.152 867.949 152.768 868.555 L 152.768 868.555 L 152.768 868.555 Q 153.383 869.16 154.398 869.16 L 154.398 869.16 L 154.398 869.16 Q 154.906 869.16 155.541 869.072 L 155.541 869.072 L 155.541 869.072 Q 156.176 868.984 156.605 868.887 L 156.605 868.887 L 157.133 871.523 L 157.133 871.523 Q 156.586 871.875 155.531 872.1 L 155.531 872.1 L 155.531 872.1 Q 154.477 872.324 153.422 872.324 L 153.422 872.324 L 153.422 872.324 Q 151.078 872.324 149.691 870.908 L 149.691 870.908 L 149.691 870.908 Q 148.305 869.492 148.305 866.465 L 148.305 866.465 L 148.305 853.633 L 144.965 853.633 L 144.965 850.781 L 148.305 850.781 L 148.305 845.684 Z  M 160.082 871.914 L 160.082 869.453 L 163.266 868.906 L 163.266 853.809 L 160.082 853.262 L 160.082 850.781 L 167.113 850.781 L 167.113 868.906 L 170.297 869.453 L 170.297 871.914 L 160.082 871.914 Z  M 167.113 841.445 L 167.113 845.371 L 163.266 845.371 L 163.266 841.445 L 167.113 841.445 Z  M 173.246 861.582 L 173.246 861.152 L 173.246 861.152 Q 173.246 856.465 175.785 853.428 L 175.785 853.428 L 175.785 853.428 Q 178.324 850.391 182.68 850.391 L 182.68 850.391 L 182.68 850.391 Q 187.055 850.391 189.604 853.418 L 189.604 853.418 L 189.604 853.418 Q 192.152 856.445 192.152 861.152 L 192.152 861.152 L 192.152 861.582 L 192.152 861.582 Q 192.152 866.309 189.613 869.316 L 189.613 869.316 L 189.613 869.316 Q 187.074 872.324 182.719 872.324 L 182.719 872.324 L 182.719 872.324 Q 178.324 872.324 175.785 869.307 L 175.785 869.307 L 175.785 869.307 Q 173.246 866.289 173.246 861.582 L 173.246 861.582 Z  M 177.094 861.152 L 177.094 861.582 L 177.094 861.582 Q 177.094 864.941 178.51 867.129 L 178.51 867.129 L 178.51 867.129 Q 179.926 869.316 182.719 869.316 L 182.719 869.316 L 182.719 869.316 Q 185.453 869.316 186.879 867.129 L 186.879 867.129 L 186.879 867.129 Q 188.305 864.941 188.305 861.582 L 188.305 861.582 L 188.305 861.152 L 188.305 861.152 Q 188.305 857.832 186.879 855.625 L 186.879 855.625 L 186.879 855.625 Q 185.453 853.418 182.68 853.418 L 182.68 853.418 L 182.68 853.418 Q 179.906 853.418 178.5 855.625 L 178.5 855.625 L 178.5 855.625 Q 177.094 857.832 177.094 861.152 L 177.094 861.152 Z  M 195.102 871.914 L 195.102 869.453 L 198.285 868.906 L 198.285 853.809 L 195.102 853.262 L 195.102 850.781 L 201.723 850.781 L 201.996 853.926 L 201.996 853.926 Q 203.051 852.246 204.643 851.318 L 204.643 851.318 L 204.643 851.318 Q 206.234 850.391 208.266 850.391 L 208.266 850.391 L 208.266 850.391 Q 211.684 850.391 213.559 852.393 L 213.559 852.393 L 213.559 852.393 Q 215.434 854.395 215.434 858.574 L 215.434 858.574 L 215.434 868.906 L 218.617 869.453 L 218.617 871.914 L 208.402 871.914 L 208.402 869.453 L 211.586 868.906 L 211.586 858.652 L 211.586 858.652 Q 211.586 855.859 210.482 854.688 L 210.482 854.688 L 210.482 854.688 Q 209.379 853.516 207.113 853.516 L 207.113 853.516 L 207.113 853.516 Q 205.453 853.516 204.174 854.316 L 204.174 854.316 L 204.174 854.316 Q 202.895 855.117 202.133 856.504 L 202.133 856.504 L 202.133 868.906 L 205.316 869.453 L 205.316 871.914 L 195.102 871.914 Z " fill-rule="evenodd" fill="rgb(0,0,0)"/><g id="null"><line x1="931.792" y1="832.125" x2="365" y2="832.125" vector-effect="non-scaling-stroke" stroke-width="3.708" stroke="rgb(242,47,47)" stroke-linejoin="miter" stroke-linecap="butt" stroke-miterlimit="10"/><path d=" M 919.566 821 L 930.691 832.125 L 919.566 843.25" fill="none" vector-effect="non-scaling-stroke" stroke-width="3.708" stroke="rgb(242,47,47)" stroke-linejoin="miter" stroke-linecap="butt" stroke-miterlimit="10"/></g><g id="null"><line x1="328.125" y1="149" x2="328.125" y2="799.792" vector-effect="non-scaling-stroke" stroke-width="3.708" stroke="rgb(28,213,43)" stroke-linejoin="miter" stroke-linecap="butt" stroke-miterlimit="10"/><path d=" M 317 158.226 L 328.125 147.101 L 339.25 158.226" fill="none" vector-effect="non-scaling-stroke" stroke-width="3.708" stroke="rgb(28,213,43)" stroke-linejoin="miter" stroke-linecap="butt" stroke-miterlimit="10"/><path d=" M 902 163.073 L 917.696 162 L 918.77 177.696" fill="none" vector-effect="non-scaling-stroke" stroke-width="3.708" stroke="rgb(28,28,28)" stroke-linejoin="miter" stroke-linecap="butt" stroke-miterlimit="10"/></g></svg>