<?xml version="1.0" encoding="UTF-8" standalone="no"?>
<!-- Created with Inkscape (http://www.inkscape.org/) -->

<svg
   xmlns:dc="http://purl.org/dc/elements/1.1/"
   xmlns:cc="http://creativecommons.org/ns#"
   xmlns:rdf="http://www.w3.org/1999/02/22-rdf-syntax-ns#"
   xmlns:svg="http://www.w3.org/2000/svg"
   xmlns="http://www.w3.org/2000/svg"
   xmlns:sodipodi="http://sodipodi.sourceforge.net/DTD/sodipodi-0.dtd"
   xmlns:inkscape="http://www.inkscape.org/namespaces/inkscape"
   width="764.37122"
   height="800"
   viewBox="0 0 716.59805 750.00003"
   id="svg2"
   version="1.1"
   inkscape:version="0.92.0 r"
   sodipodi:docname="Home.svg">
  <defs
     id="defs4" />
  <sodipodi:namedview
     id="base"
     pagecolor="#ffffff"
     bordercolor="#666666"
     borderopacity="1.0"
     inkscape:pageopacity="0.0"
     inkscape:pageshadow="2"
     inkscape:zoom="0.47823276"
     inkscape:cx="-92.270966"
     inkscape:cy="337.01523"
     inkscape:document-units="px"
     inkscape:current-layer="layer1"
     showgrid="false"
     units="px"
     inkscape:snap-page="true"
     inkscape:snap-bbox="true"
     inkscape:bbox-paths="true"
     inkscape:bbox-nodes="true"
     inkscape:snap-bbox-edge-midpoints="true"
     inkscape:snap-bbox-midpoints="true"
     inkscape:object-paths="true"
     inkscape:snap-intersection-paths="true"
     inkscape:object-nodes="true"
     inkscape:snap-smooth-nodes="true"
     inkscape:snap-midpoints="true"
     inkscape:snap-object-midpoints="true"
     showguides="true"
     inkscape:guide-bbox="true"
     inkscape:window-width="1024"
     inkscape:window-height="739"
     inkscape:window-x="0"
     inkscape:window-y="0"
     inkscape:window-maximized="0">
    <sodipodi:guide
       position="-2.1179698,-12.342168"
       orientation="0,1"
       id="guide4211"
       inkscape:locked="false" />
  </sodipodi:namedview>
  <metadata
     id="metadata7">
    <rdf:RDF>
      <cc:Work
         rdf:about="">
        <dc:format>image/svg+xml</dc:format>
        <dc:type
           rdf:resource="http://purl.org/dc/dcmitype/StillImage" />
        <dc:title />
      </cc:Work>
    </rdf:RDF>
  </metadata>
  <g
     inkscape:label="Ebene 1"
     inkscape:groupmode="layer"
     id="layer1"
     transform="translate(-14.620412,-288.22557)">
    <rect
       style="opacity:1;fill:#ffffff;fill-opacity:0;stroke:none;stroke-width:1.5;stroke-linecap:round;stroke-linejoin:round;stroke-miterlimit:4;stroke-dasharray:none;stroke-dashoffset:0;stroke-opacity:1"
       id="rect4135"
       width="50"
       height="50"
       x="0"
       y="1002.3622" />
    <path
       style="opacity:1;fill:#ffffff;fill-opacity:1;stroke:none;stroke-width:662.77600098;stroke-linecap:square;stroke-linejoin:miter;stroke-miterlimit:4;stroke-dasharray:none;stroke-dashoffset:0;stroke-opacity:1"
       d="m 372.91944,288.22557 c -9.1956,0 -18.38851,3.52445 -25.43472,10.56989 L 25.194761,621.08753 c -7.046137,7.04545 -10.574349,16.23801 -10.574349,25.43058 0,9.19601 0.609271,13.81128 10.574349,13.81128 h 83.857249 v 339.57257 c 0,21.22954 17.09495,38.32364 38.32771,38.32364 H 264.7563 c 17.44202,0 31.48507,-14.0391 31.48507,-31.4819 V 885.27969 c 0,-20.43214 16.44955,-36.88417 36.88165,-36.88417 h 79.59284 c 20.4321,0 36.88165,16.45203 36.88165,36.88417 v 121.46401 c 0,17.4428 14.04305,31.4819 31.48507,31.4819 h 117.37658 c 21.23276,0 38.32772,-17.0941 38.32772,-38.32364 V 660.32939 h 83.85724 c 9.96487,0 10.57435,-4.61527 10.57435,-13.81128 0,-9.19257 -3.52821,-18.38513 -10.57435,-25.43058 L 398.35416,298.79546 c -7.04621,-7.04544 -16.23912,-10.56989 -25.43472,-10.56989 z"
       id="rect4138"
       inkscape:connector-curvature="0"
       sodipodi:nodetypes="ssssscsssssssssssscsssss" />
  </g>
</svg>
