<?xml version="1.0" encoding="UTF-8" standalone="no"?>
<!-- Generator: Adobe Illustrator 20.1.0, SVG Export Plug-In . SVG Version: 6.00 Build 0)  -->

<svg
   xmlns:dc="http://purl.org/dc/elements/1.1/"
   xmlns:cc="http://creativecommons.org/ns#"
   xmlns:rdf="http://www.w3.org/1999/02/22-rdf-syntax-ns#"
   xmlns:svg="http://www.w3.org/2000/svg"
   xmlns="http://www.w3.org/2000/svg"
   xmlns:sodipodi="http://sodipodi.sourceforge.net/DTD/sodipodi-0.dtd"
   xmlns:inkscape="http://www.inkscape.org/namespaces/inkscape"
   version="1.1"
   id="Layer_1"
   x="0px"
   y="0px"
   viewBox="0 0 1010.9091 800"
   xml:space="preserve"
   sodipodi:docname="Posts.svg"
   width="1010.9091"
   height="800"
   inkscape:version="0.92.0 r"><metadata
     id="metadata83"><rdf:RDF><cc:Work
         rdf:about=""><dc:format>image/svg+xml</dc:format><dc:type
           rdf:resource="http://purl.org/dc/dcmitype/StillImage" /></cc:Work></rdf:RDF></metadata><defs
     id="defs81" /><sodipodi:namedview
     pagecolor="#ffffff"
     bordercolor="#666666"
     borderopacity="1"
     objecttolerance="10"
     gridtolerance="10"
     guidetolerance="10"
     inkscape:pageopacity="0"
     inkscape:pageshadow="2"
     inkscape:window-width="1024"
     inkscape:window-height="740"
     id="namedview79"
     showgrid="false"
     inkscape:zoom="0.40114712"
     inkscape:cx="0.30610068"
     inkscape:cy="362.46284"
     inkscape:window-x="0"
     inkscape:window-y="0"
     inkscape:window-maximized="1"
     inkscape:current-layer="Layer_1" /><style
     type="text/css"
     id="style2">
	.st0{display:none;}
	.st1{display:inline;fill:#472F92;}
	.st2{display:inline;fill:#FFFFFF;}
	.st3{fill:#FFFFFF;}
	.st4{fill:#472F92;}
</style><g
     class="st0"
     id="g12"
     style="display:none"
     transform="translate(-110.12776,869.92437)"><path
       class="st1"
       d="m 36.6,1.6 9.3,9.5 h -7 C 37.7,11.1 36.7,10.2 36.7,9 V 9 1.6 Z M 46.1,14 v 31.6 c 0,2.8 -2.3,5.1 -5.1,5.1 H 11 C 8.2,50.7 5.9,48.4 5.9,45.6 V 6.3 C 5.9,3.5 8.2,1.2 11,1.2 h 22.5 v 8.6 c 0,2.3 1.9,4.2 4.2,4.2 z m -23,-6.7 c -3.2,-0.6 -5.9,2.1 -5.3,5.3 0.3,1.8 1.8,3.2 3.5,3.6 3.2,0.6 5.9,-2.1 5.3,-5.3 C 26.2,9.1 24.8,7.7 23.1,7.3 Z m 2,10.3 c -0.8,0.5 -1.8,0.8 -2.9,0.8 -1.1,0 -2.1,-0.3 -2.9,-0.8 -5.3,3.4 -4.1,9.7 -4.1,9.7 0,0 2.9,2.3 7,2.4 4.1,0 7,-2.4 7,-2.4 0,0 1.2,-6.3 -4.1,-9.7 z"
       id="path4"
       inkscape:connector-curvature="0"
       style="display:inline;fill:#472f92" /><path
       class="st2"
       d="M 38.9,43.9 H 13.3 c -0.5,0 -1,-0.5 -1,-1 0,-0.6 0.4,-1 1,-1 h 25.6 c 0.5,0 1,0.5 1,1 0,0.6 -0.4,1 -1,1 z"
       id="path6"
       inkscape:connector-curvature="0"
       style="display:inline;fill:#ffffff" /><path
       class="st2"
       d="M 38.9,39.3 H 13.3 c -0.5,0 -1,-0.5 -1,-1 0,-0.6 0.4,-1 1,-1 h 25.6 c 0.5,0 1,0.5 1,1 0,0.6 -0.4,1 -1,1 z"
       id="path8"
       inkscape:connector-curvature="0"
       style="display:inline;fill:#ffffff" /><path
       class="st2"
       d="M 38.9,34.6 H 13.3 c -0.5,0 -1,-0.5 -1,-1 0,-0.6 0.4,-1 1,-1 h 25.6 c 0.5,0 1,0.5 1,1 0,0.6 -0.4,1 -1,1 z"
       id="path10"
       inkscape:connector-curvature="0"
       style="display:inline;fill:#ffffff" /></g><g
     id="g38"
     transform="matrix(36.363636,0,0,36.363636,-436.36363,-774.54545)"><path
       class="st4"
       d="M 38.7,43.3 H 13 c -0.5,0 -1,-0.5 -1,-1 0,-0.6 0.4,-1 1,-1 h 25.6 c 0.5,0 1,0.5 1,1 0.1,0.5 -0.4,1 -0.9,1 z"
       id="path16"
       inkscape:connector-curvature="0"
       style="fill:#ffffff;fill-opacity:1" /><path
       class="st4"
       d="M 38.7,38.2 H 13.1 c -0.5,0 -1,-0.5 -1,-1 0,-0.6 0.4,-1 1,-1 h 25.6 c 0.5,0 1,0.5 1,1 0,0.5 -0.5,1 -1,1 z"
       id="path18"
       inkscape:connector-curvature="0"
       style="fill:#ffffff;fill-opacity:1" /><path
       class="st4"
       d="M 21.7,33.4 H 13 c -0.5,0 -1,-0.5 -1,-1 0,-0.6 0.4,-1 1,-1 h 8.6 c 0.5,0 1,0.5 1,1 0.1,0.5 -0.4,1 -0.9,1 z"
       id="path20"
       inkscape:connector-curvature="0"
       style="fill:#ffffff;fill-opacity:1" /><path
       class="st4"
       d="M 21.7,28.5 H 13 c -0.5,0 -1,-0.5 -1,-1 0,-0.6 0.4,-1 1,-1 h 8.6 c 0.5,0 1,0.5 1,1 0.1,0.5 -0.4,1 -0.9,1 z"
       id="path22"
       inkscape:connector-curvature="0"
       style="fill:#ffffff;fill-opacity:1" /><path
       class="st4"
       d="m 21.7,23.5 h -8.6 c -0.5,0 -1,-0.5 -1,-1 0,-0.6 0.4,-1 1,-1 h 8.6 c 0.5,0 1,0.5 1,1 0,0.5 -0.5,1 -1,1 z"
       id="path24"
       inkscape:connector-curvature="0"
       style="fill:#ffffff;fill-opacity:1" /><path
       class="st4"
       d="m 39.8,22.2 v 10.2 c 0,0.5 -0.4,0.9 -0.9,0.9 h -13 C 25.4,33.3 25,32.9 25,32.4 V 22.2 c 0,-0.5 0.4,-0.9 0.9,-0.9 h 13 c 0.5,0 0.9,0.4 0.9,0.9 z"
       id="path26"
       inkscape:connector-curvature="0"
       style="fill:#ffffff;fill-opacity:1" /><g
       id="g36" /></g><g
     class="st0"
     id="g46"
     style="display:none"
     transform="translate(-110.12776,869.92437)"><path
       class="st1"
       d="M 47.4,6.6 H 8.7 v 0 c -2.2,0.1 -4,2 -4,4.3 v 2.5 H 4.6 c -2.4,0 -4.3,1.9 -4.3,4.3 v 23.5 c 0,2.4 1.9,4.3 4.3,4.3 v 0 h 24.2 18.5 c 2.4,0 4.3,-1.9 4.3,-4.3 V 10.9 C 51.7,8.5 49.8,6.6 47.4,6.6 Z M 4.7,41.4 c 0,0 0,0 0,0 v 2.3 c -0.4,0 -0.9,-0.2 -1.2,-0.4 0,0 0,0 0,0 0,0 0,0 0,0.1 -0.4,-0.2 -0.8,-0.6 -1,-1 C 2.2,41.9 1.9,41.3 1.9,40.7 V 18 c 0,-1.6 1.2,-2.9 2.8,-3 z m 42,-18.5 v 12.8 c 0,0.6 -0.5,1 -1,1 H 30.3 c -0.6,0 -1,-0.5 -1,-1 V 22.9 c 0,-0.6 0.5,-1 1,-1 h 15.4 c 0.6,0 1,0.4 1,1 z m -6.3,-8.2 c -1.1,-0.3 -2.6,-0.8 -2.6,-2.1 0,-1.8 1.6,-2.6 3.2,-2.6 1.5,0 2.7,0.8 2.7,2.4 h -1.6 c -0.1,-0.8 -0.5,-1.2 -1.3,-1.2 -0.6,0 -1.2,0.3 -1.2,1 0,0.8 0.8,0.9 1.4,1.1 1.2,0.3 2.9,0.6 2.9,2.2 0,1.9 -1.7,2.6 -3.4,2.6 -1.8,0 -3,-0.7 -3,-2.7 h 1.7 c -0.1,0.9 0.4,1.4 1.3,1.4 0.7,0 1.6,-0.2 1.6,-1 C 42.2,15 41,14.9 40.4,14.7 Z M 20.3,10.2 h 5.2 v 1.3 H 22 v 1.8 h 3.3 v 1.3 H 22 v 2.1 h 3.7 V 18 h -5.3 z m -8.8,0 H 14 l 3,6.1 v 0 -6.1 h 1.6 V 18 h -2.4 l -3.1,-6.5 v 0 6.4 H 11.5 Z M 25.9,41 H 10.5 c -0.6,0 -1,-0.5 -1,-1 0,-0.6 0.5,-1 1,-1 h 15.4 c 0.6,0 1,0.5 1,1 0,0.6 -0.4,1 -1,1 z m 0,-4.3 H 10.5 c -0.6,0 -1,-0.5 -1,-1 0,-0.6 0.5,-1 1,-1 h 15.4 c 0.6,0 1,0.5 1,1 0,0.6 -0.4,1 -1,1 z m 0,-4.2 H 10.5 c -0.6,0 -1,-0.5 -1,-1 0,-0.6 0.5,-1 1,-1 h 15.4 c 0.6,0 1,0.5 1,1 0,0.5 -0.4,1 -1,1 z m 0,-4.3 H 10.5 c -0.6,0 -1,-0.5 -1,-1 0,-0.6 0.5,-1 1,-1 h 15.4 c 0.6,0 1,0.5 1,1 0,0.5 -0.4,1 -1,1 z m 0,-4.3 H 10.5 c -0.6,0 -1,-0.5 -1,-1 0,-0.6 0.5,-1 1,-1 h 15.4 c 0.6,0 1,0.5 1,1 0,0.5 -0.4,1 -1,1 z m 2.5,-6 -1.9,-7.8 h 1.7 l 1.2,5.9 v 0 l 1.5,-5.9 h 1.9 l 1.4,5.9 v 0 l 1.3,-5.9 h 1.6 l -2,7.8 H 33.2 L 31.9,12 v 0 l -1.5,5.9 z M 45.7,41 H 30.3 c -0.6,0 -1,-0.5 -1,-1 0,-0.6 0.5,-1 1,-1 h 15.4 c 0.6,0 1,0.5 1,1 0,0.6 -0.4,1 -1,1 z"
       id="path40"
       inkscape:connector-curvature="0"
       style="display:inline;fill:#472f92" /><circle
       class="st1"
       cx="38"
       cy="26.5"
       r="2"
       id="circle42"
       style="display:inline;fill:#472f92" /><path
       class="st1"
       d="m 38,34.2 c 1.8,0 3.1,-1.1 3.1,-1.1 0,0 0.6,-2.8 -1.8,-4.3 -0.3,0.2 -0.8,0.3 -1.3,0.3 -0.5,0 -0.9,-0.1 -1.3,-0.3 -2.4,1.5 -1.8,4.3 -1.8,4.3 0,0 1.3,1 3.1,1.1 z"
       id="path44"
       inkscape:connector-curvature="0"
       style="display:inline;fill:#472f92" /></g><g
     class="st0"
     id="g54"
     style="display:none"
     transform="translate(-110.12776,869.92437)"><path
       class="st1"
       d="M 46.7,41.1 V 10.9 c 0,-2.2 -1.8,-4 -4,-4 H 9.3 c -2.2,0 -4,1.8 -4,4 v 30.3 c 0,2.2 1.8,4 4,4 h 33.3 c 2.3,-0.1 4.1,-1.9 4.1,-4.1 z"
       id="path48"
       inkscape:connector-curvature="0"
       style="display:inline;fill:#472f92" /><circle
       class="st2"
       cx="26"
       cy="26"
       r="13"
       id="circle50"
       style="display:inline;fill:#ffffff" /><path
       class="st1"
       d="m 20.9,20.5 c 0,-1.5 1,-2.1 2.2,-1.4 l 10.3,5.8 c 1.2,0.7 1.2,1.8 0,2.5 l -10.3,5.8 c -1.2,0.7 -2.2,0 -2.2,-1.4 z"
       id="path52"
       inkscape:connector-curvature="0"
       style="display:inline;fill:#472f92" /></g><g
     class="st0"
     id="g64"
     style="display:none"
     transform="translate(-110.12776,869.92437)"><path
       class="st1"
       d="m 17.7,23.8 h -3.8 c -1.2,0 -2.1,1 -2.1,2.1 v 13 h 8.1 V 26 c 0,-1.2 -1,-2.2 -2.2,-2.2 z"
       id="path56"
       inkscape:connector-curvature="0"
       style="display:inline;fill:#472f92" /><path
       class="st1"
       d="m 30,14.8 h -3.8 c -1.2,0 -2.1,1 -2.1,2.1 v 22 h 8.1 v -22 c 0,-1.2 -1,-2.1 -2.2,-2.1 z"
       id="path58"
       inkscape:connector-curvature="0"
       style="display:inline;fill:#472f92" /><path
       class="st1"
       d="m 42.3,5.7 h -3.8 c -1.2,0 -2.1,0.9 -2.1,2.1 v 31.1 h 8.1 V 7.9 C 44.4,6.7 43.5,5.7 42.3,5.7 Z"
       id="path60"
       inkscape:connector-curvature="0"
       style="display:inline;fill:#472f92" /><path
       class="st1"
       d="M 46.6,43.1 H 7.6 V 6.8 C 7.6,5.7 6.7,4.7 5.5,4.7 4.4,4.7 3.4,5.6 3.4,6.8 v 38.4 c 0,1.1 0.9,2.1 2.1,2.1 h 41.1 c 1.2,0 2.1,-0.9 2.1,-2.1 -0.1,-1.2 -1,-2.1 -2.1,-2.1 z"
       id="path62"
       inkscape:connector-curvature="0"
       style="display:inline;fill:#472f92" /></g><g
     class="st0"
     id="g76"
     style="display:none"
     transform="translate(-110.12776,869.92437)"><path
       class="st1"
       d="m 36.6,1.6 9.3,9.5 h -7 C 37.7,11.1 36.7,10.2 36.7,9 V 9 1.6 Z M 46.1,14 v 31.6 c 0,2.8 -2.3,5.1 -5.1,5.1 H 11 C 8.2,50.7 5.9,48.4 5.9,45.6 V 6.3 C 5.9,3.5 8.2,1.2 11,1.2 h 22.5 v 8.6 c 0,2.3 1.9,4.2 4.2,4.2 z m -31.7,2.1 c 2,2.4 3.9,4.7 5.9,7.1 0.1,0.2 0.3,0.2 0.5,0.2 0.2,0 0.3,-0.1 0.5,-0.2 2,-2.4 3.9,-4.7 5.9,-7.1 0.4,-0.4 0.1,-1.2 -0.5,-1.2 -0.8,0 -1.2,0 -2,0 0,-3.6 0,-3.3 0,-6.9 0,-0.4 -0.3,-0.7 -0.7,-0.7 -1.8,0 -4.5,0 -6.4,0 C 17.3,7.4 17,7.7 17,8 c 0,3.6 0,3.3 0,6.9 -0.8,0 -1.2,0 -2.1,0 -0.6,0 -0.8,0.8 -0.5,1.2 z"
       id="path66"
       inkscape:connector-curvature="0"
       style="display:inline;fill:#472f92" /><path
       class="st2"
       d="M 38.6,43.5 H 13 c -0.5,0 -1,-0.5 -1,-1 0,-0.6 0.4,-1 1,-1 h 25.6 c 0.5,0 1,0.5 1,1 0,0.5 -0.4,1 -1,1 z"
       id="path68"
       inkscape:connector-curvature="0"
       style="display:inline;fill:#ffffff" /><path
       class="st2"
       d="M 38.6,38.9 H 13 c -0.5,0 -1,-0.5 -1,-1 0,-0.6 0.4,-1 1,-1 h 25.6 c 0.5,0 1,0.5 1,1 0,0.5 -0.4,1 -1,1 z"
       id="path70"
       inkscape:connector-curvature="0"
       style="display:inline;fill:#ffffff" /><path
       class="st2"
       d="M 38.6,34.2 H 13 c -0.5,0 -1,-0.5 -1,-1 0,-0.6 0.4,-1 1,-1 h 25.6 c 0.5,0 1,0.5 1,1 0,0.5 -0.4,1 -1,1 z"
       id="path72"
       inkscape:connector-curvature="0"
       style="display:inline;fill:#ffffff" /><path
       class="st2"
       d="M 38.6,29.3 H 13 c -0.5,0 -1,-0.5 -1,-1 0,-0.6 0.4,-1 1,-1 h 25.6 c 0.5,0 1,0.5 1,1 0,0.6 -0.4,1 -1,1 z"
       id="path74"
       inkscape:connector-curvature="0"
       style="display:inline;fill:#ffffff" /></g></svg>