<?xml version="1.0" standalone="no"?><!-- Generator: Gravit.io --><svg xmlns="http://www.w3.org/2000/svg" xmlns:xlink="http://www.w3.org/1999/xlink" style="isolation:isolate" viewBox="0 0 1280 960" width="1280" height="960"><path d=" M 308 480 C 308 392 343 307.5 405.2 245.2 C 467.5 183 552 148 640 148 C 728 148 812.5 183 874.8 245.2 C 937 307.5 972 392 972 480 C 972 568 937 652.5 874.8 714.8 C 812.5 777 728 812 640 812 C 552 812 467.5 777 405.2 714.8 C 343 652.5 308 568 308 480 Z  M 358 480 C 358 405.2 387.7 333.5 440.6 280.6 C 493.5 227.7 565.2 198 640 198 C 714.8 198 786.5 227.7 839.4 280.6 C 892.3 333.5 922 405.2 922 480 C 922 554.8 892.3 626.5 839.4 679.4 C 786.5 732.3 714.8 762 640 762 C 565.2 762 493.5 732.3 440.6 679.4 C 387.7 626.5 358 554.8 358 480 Z " fill-rule="evenodd" fill="rgb(36,36,36)"/><g id="null"><path d=" M 640 480 L 680 930 L 600 930 L 640 480 L 640 480 Z " fill="rgb(255,255,255)"/><path d=" M 640 480 L 680 30 L 600 30 L 640 480 L 640 480 Z " fill="rgb(255,255,255)"/><path d=" M 640 480 L 986.482 769.914 L 929.914 826.482 L 640 480 L 640 480 Z " fill="rgb(255,255,255)"/><path d=" M 640 480 L 350.086 133.518 L 293.518 190.086 L 640 480 L 640 480 Z " fill="rgb(255,255,255)"/><path d=" M 640 480 L 1090 440 L 1090 520 L 640 480 L 640 480 Z " fill="rgb(255,255,255)"/><path d=" M 640 480 L 190 440 L 190 520 L 640 480 L 640 480 Z " fill="rgb(255,255,255)"/><path d=" M 640 480 L 350.086 826.482 L 293.518 769.914 L 640 480 L 640 480 Z " fill="rgb(255,255,255)"/><path d=" M 640 480 L 986.482 190.086 L 929.914 133.518 L 640 480 L 640 480 Z " fill="rgb(255,255,255)"/></g><path d=" M 624.92 280.975 L 624.92 277.653 L 627.979 277.046 L 636.39 266.552 L 628.242 256.401 L 625.184 255.794 L 625.184 252.446 L 636.363 252.446 L 636.363 255.794 L 633.779 256.111 L 639.105 262.966 L 644.458 256.084 L 641.9 255.794 L 641.9 252.446 L 653.159 252.446 L 653.159 255.794 L 650.101 256.401 L 641.953 266.552 L 650.338 277.046 L 653.423 277.653 L 653.423 280.975 L 642.243 280.975 L 642.243 277.653 L 644.774 277.363 L 639.185 270.191 L 633.595 277.363 L 636.152 277.653 L 636.152 280.975 L 624.92 280.975 Z " fill="rgb(36,36,36)"/><path d=" M 710.391 319.314 L 710.391 322.104 L 708.26 322.434 L 699.207 346.736 L 699.207 346.736 Q 698.306 349.131 696.615 350.91 L 696.615 350.91 L 696.615 350.91 Q 694.923 352.69 692.066 352.69 L 692.066 352.69 L 692.066 352.69 Q 691.561 352.69 690.748 352.569 L 690.748 352.569 L 690.748 352.569 Q 689.935 352.448 689.495 352.339 L 689.495 352.339 L 689.935 348.933 L 689.935 348.933 Q 689.803 348.911 690.715 348.977 L 690.715 348.977 L 690.715 348.977 Q 691.627 349.043 691.868 349.043 L 691.868 349.043 L 691.868 349.043 Q 693.253 349.043 694.11 347.845 L 694.11 347.845 L 694.11 347.845 Q 694.967 346.648 695.604 345.088 L 695.604 345.088 L 696.637 342.627 L 688.792 322.456 L 686.617 322.104 L 686.617 319.314 L 696.219 319.314 L 696.219 322.104 L 693.538 322.544 L 697.647 334.277 L 698.438 337.309 L 698.57 337.309 L 703.514 322.544 L 700.811 322.104 L 700.811 319.314 L 710.391 319.314 Z " fill="rgb(36,36,36)"/><path d=" M 610 150 L 639 480 L 670 150" fill="none" vector-effect="non-scaling-stroke" stroke-width="5" stroke="rgb(36,36,36)" stroke-linejoin="miter" stroke-linecap="butt" stroke-miterlimit="3"/><path d=" M 630.226 370.429 C 633.447 370.145 636.706 370 640 370 C 642.863 370 645.701 370.11 648.509 370.325" fill="none" vector-effect="non-scaling-stroke" stroke-width="5" stroke="rgb(36,36,36)" stroke-linejoin="miter" stroke-linecap="square" stroke-miterlimit="3"/><path d=" M 650.969 357.78 C 676.997 358.006 700.879 367.291 719.614 382.633" fill="none" vector-effect="non-scaling-stroke" stroke-width="5" stroke="rgb(36,36,36)" stroke-linejoin="miter" stroke-linecap="square" stroke-miterlimit="3"/><line x1="640" y1="480" x2="852.715" y2="228.45" vector-effect="non-scaling-stroke" stroke-width="5" stroke="rgb(36,36,36)" stroke-linejoin="miter" stroke-linecap="square" stroke-miterlimit="3"/></svg>