<?xml version="1.0" standalone="no"?><!-- Generator: Gravit.io --><svg xmlns="http://www.w3.org/2000/svg" xmlns:xlink="http://www.w3.org/1999/xlink" style="isolation:isolate" viewBox="0 0 1280 960" width="1280" height="960"><rect x="59.83050847457639" y="339.99999999999994" width="80" height="80" transform="matrix(1,0,0,1,0,0)" fill="rgb(234,72,72)"/><rect x="139.8305084745764" y="260" width="80" height="80" transform="matrix(1,0,0,1,0,0)" fill="rgb(234,72,72)"/><rect x="219.8305084745764" y="180" width="80" height="80" transform="matrix(1,0,0,1,0,0)" fill="rgb(234,72,72)"/><rect x="299.8305084745764" y="100.00000000000011" width="80" height="80" transform="matrix(1,0,0,1,0,0)" fill="rgb(234,72,72)"/><rect x="59.83050847457639" y="839.9999999999999" width="20" height="20" transform="matrix(1,0,0,1,0,0)" fill="rgb(234,72,72)"/><rect x="79.83050847457639" y="819.9999999999999" width="20" height="20" transform="matrix(1,0,0,1,0,0)" fill="rgb(234,72,72)"/><rect x="99.83050847457639" y="799.9999999999999" width="20" height="20" transform="matrix(1,0,0,1,0,0)" fill="rgb(234,72,72)"/><rect x="119.83050847457639" y="779.9999999999999" width="20" height="20" transform="matrix(1,0,0,1,0,0)" fill="rgb(234,72,72)"/><rect x="139.8305084745764" y="759.9999999999999" width="20" height="20" transform="matrix(1,0,0,1,0,0)" fill="rgb(234,72,72)"/><rect x="159.8305084745764" y="739.9999999999999" width="20" height="20" transform="matrix(1,0,0,1,0,0)" fill="rgb(234,72,72)"/><rect x="179.8305084745764" y="719.9999999999999" width="20" height="20" transform="matrix(1,0,0,1,0,0)" fill="rgb(234,72,72)"/><rect x="199.8305084745764" y="699.9999999999999" width="20" height="20" transform="matrix(1,0,0,1,0,0)" fill="rgb(234,72,72)"/><rect x="219.8305084745764" y="679.9999999999999" width="20" height="20" transform="matrix(1,0,0,1,0,0)" fill="rgb(234,72,72)"/><rect x="239.8305084745764" y="659.9999999999999" width="20" height="20" transform="matrix(1,0,0,1,0,0)" fill="rgb(234,72,72)"/><rect x="259.8305084745764" y="639.9999999999999" width="20" height="20" transform="matrix(1,0,0,1,0,0)" fill="rgb(234,72,72)"/><rect x="279.8305084745764" y="619.9999999999999" width="20" height="20" transform="matrix(1,0,0,1,0,0)" fill="rgb(234,72,72)"/><rect x="299.8305084745764" y="599.9999999999999" width="20" height="20" transform="matrix(1,0,0,1,0,0)" fill="rgb(234,72,72)"/><rect x="319.8305084745764" y="579.9999999999999" width="20" height="20" transform="matrix(1,0,0,1,0,0)" fill="rgb(234,72,72)"/><rect x="339.8305084745764" y="559.9999999999999" width="20" height="20" transform="matrix(1,0,0,1,0,0)" fill="rgb(234,72,72)"/><rect x="359.8305084745764" y="540" width="20" height="20" transform="matrix(1,0,0,1,0,0)" fill="rgb(234,72,72)"/><rect x="459.8305084745764" y="360.00000000000006" width="60" height="60" transform="matrix(1,0,0,1,0,0)" fill="rgb(234,72,72)"/><rect x="519.8305084745764" y="300.0000000000001" width="60" height="60" transform="matrix(1,0,0,1,0,0)" fill="rgb(234,72,72)"/><rect x="579.8305084745764" y="240.00000000000017" width="60" height="60" transform="matrix(1,0,0,1,0,0)" fill="rgb(234,72,72)"/><rect x="639.8305084745764" y="180.00000000000023" width="60" height="60" transform="matrix(1,0,0,1,0,0)" fill="rgb(234,72,72)"/><rect x="699.8305084745764" y="120.00000000000028" width="60" height="60" transform="matrix(1,0,0,1,0,0)" fill="rgb(234,72,72)"/><rect x="459.8305084745764" y="849.9999999999998" width="10" height="10" transform="matrix(1,0,0,1,0,0)" fill="rgb(234,72,72)"/><rect x="609.8305084745764" y="699.9999999999998" width="10" height="10" transform="matrix(1,0,0,1,0,0)" fill="rgb(234,72,72)"/><rect x="469.8305084745764" y="839.9999999999998" width="10" height="10" transform="matrix(1,0,0,1,0,0)" fill="rgb(234,72,72)"/><rect x="619.8305084745764" y="689.9999999999998" width="10" height="10" transform="matrix(1,0,0,1,0,0)" fill="rgb(234,72,72)"/><rect x="479.8305084745764" y="829.9999999999998" width="10" height="10" transform="matrix(1,0,0,1,0,0)" fill="rgb(234,72,72)"/><rect x="629.8305084745764" y="679.9999999999998" width="10" height="10" transform="matrix(1,0,0,1,0,0)" fill="rgb(234,72,72)"/><rect x="489.8305084745764" y="819.9999999999998" width="10" height="10" transform="matrix(1,0,0,1,0,0)" fill="rgb(234,72,72)"/><rect x="639.8305084745764" y="669.9999999999998" width="10" height="10" transform="matrix(1,0,0,1,0,0)" fill="rgb(234,72,72)"/><rect x="499.8305084745764" y="809.9999999999998" width="10" height="10" transform="matrix(1,0,0,1,0,0)" fill="rgb(234,72,72)"/><rect x="649.8305084745764" y="659.9999999999998" width="10" height="10" transform="matrix(1,0,0,1,0,0)" fill="rgb(234,72,72)"/><rect x="509.8305084745764" y="799.9999999999998" width="10" height="10" transform="matrix(1,0,0,1,0,0)" fill="rgb(234,72,72)"/><rect x="659.8305084745764" y="649.9999999999998" width="10" height="10" transform="matrix(1,0,0,1,0,0)" fill="rgb(234,72,72)"/><rect x="519.8305084745764" y="789.9999999999998" width="10" height="10" transform="matrix(1,0,0,1,0,0)" fill="rgb(234,72,72)"/><rect x="669.8305084745764" y="639.9999999999998" width="10" height="10" transform="matrix(1,0,0,1,0,0)" fill="rgb(234,72,72)"/><rect x="529.8305084745764" y="779.9999999999998" width="10" height="10" transform="matrix(1,0,0,1,0,0)" fill="rgb(234,72,72)"/><rect x="679.8305084745764" y="629.9999999999998" width="10" height="10" transform="matrix(1,0,0,1,0,0)" fill="rgb(234,72,72)"/><rect x="539.8305084745764" y="769.9999999999998" width="10" height="10" transform="matrix(1,0,0,1,0,0)" fill="rgb(234,72,72)"/><rect x="689.8305084745764" y="619.9999999999998" width="10" height="10" transform="matrix(1,0,0,1,0,0)" fill="rgb(234,72,72)"/><rect x="549.8305084745764" y="759.9999999999998" width="10" height="10" transform="matrix(1,0,0,1,0,0)" fill="rgb(234,72,72)"/><rect x="699.8305084745764" y="609.9999999999998" width="10" height="10" transform="matrix(1,0,0,1,0,0)" fill="rgb(234,72,72)"/><rect x="559.8305084745764" y="749.9999999999998" width="10" height="10" transform="matrix(1,0,0,1,0,0)" fill="rgb(234,72,72)"/><rect x="709.8305084745764" y="599.9999999999998" width="10" height="10" transform="matrix(1,0,0,1,0,0)" fill="rgb(234,72,72)"/><rect x="569.8305084745764" y="739.9999999999998" width="10" height="10" transform="matrix(1,0,0,1,0,0)" fill="rgb(234,72,72)"/><rect x="719.8305084745764" y="589.9999999999998" width="10" height="10" transform="matrix(1,0,0,1,0,0)" fill="rgb(234,72,72)"/><rect x="579.8305084745764" y="729.9999999999998" width="10" height="10" transform="matrix(1,0,0,1,0,0)" fill="rgb(234,72,72)"/><rect x="729.8305084745764" y="579.9999999999998" width="10" height="10" transform="matrix(1,0,0,1,0,0)" fill="rgb(234,72,72)"/><rect x="589.8305084745764" y="719.9999999999998" width="10" height="10" transform="matrix(1,0,0,1,0,0)" fill="rgb(234,72,72)"/><rect x="739.8305084745764" y="569.9999999999998" width="10" height="10" transform="matrix(1,0,0,1,0,0)" fill="rgb(234,72,72)"/><rect x="599.8305084745764" y="709.9999999999998" width="10" height="10" transform="matrix(1,0,0,1,0,0)" fill="rgb(234,72,72)"/><rect x="749.8305084745764" y="559.9999999999998" width="10" height="10" transform="matrix(1,0,0,1,0,0)" fill="rgb(234,72,72)"/><rect x="609.8305084745764" y="699.9999999999998" width="10" height="10" transform="matrix(1,0,0,1,0,0)" fill="rgb(234,72,72)"/><rect x="759.8305084745764" y="549.9999999999998" width="10" height="10" transform="matrix(1,0,0,1,0,0)" fill="rgb(234,72,72)"/><rect x="769.8305084745764" y="540" width="10" height="10" transform="matrix(1,0,0,1,0,0)" fill="rgb(234,72,72)"/><rect x="899.8305084745764" y="380" width="40" height="40" transform="matrix(1,0,0,1,0,0)" fill="rgb(234,72,72)"/><rect x="939.8305084745764" y="340.00000000000006" width="40" height="40" transform="matrix(1,0,0,1,0,0)" fill="rgb(234,72,72)"/><rect x="979.8305084745764" y="300.0000000000001" width="40" height="40" transform="matrix(1,0,0,1,0,0)" fill="rgb(234,72,72)"/><rect x="1019.8305084745764" y="260.00000000000017" width="40" height="40" transform="matrix(1,0,0,1,0,0)" fill="rgb(234,72,72)"/><rect x="1059.8305084745764" y="220.00000000000023" width="40" height="40" transform="matrix(1,0,0,1,0,0)" fill="rgb(234,72,72)"/><rect x="1099.8305084745764" y="180.00000000000028" width="40" height="40" transform="matrix(1,0,0,1,0,0)" fill="rgb(234,72,72)"/><rect x="1139.8305084745764" y="140.0000000000003" width="40" height="40" transform="matrix(1,0,0,1,0,0)" fill="rgb(234,72,72)"/><rect x="1179.8305084745764" y="100.00000000000034" width="40" height="40" transform="matrix(1,0,0,1,0,0)" fill="rgb(234,72,72)"/><rect x="899.8305084745765" y="854.9152542372879" width="5.084745762711918" height="5.084745762711918" transform="matrix(1,0,0,1,0,0)" fill="rgb(234,72,72)"/><rect x="1052.2033898305085" y="702.5423728813557" width="5.084745762711918" height="5.084745762711918" transform="matrix(1,0,0,1,0,0)" fill="rgb(234,72,72)"/><rect x="976.1016949152544" y="778.64406779661" width="5.084745762711918" height="5.084745762711918" transform="matrix(1,0,0,1,0,0)" fill="rgb(234,72,72)"/><rect x="1128.4745762711864" y="626.2711864406776" width="5.084745762711918" height="5.084745762711918" transform="matrix(1,0,0,1,0,0)" fill="rgb(234,72,72)"/><rect x="904.9152542372882" y="849.8305084745762" width="5.084745762711918" height="5.084745762711918" transform="matrix(1,0,0,1,0,0)" fill="rgb(234,72,72)"/><rect x="1057.2881355932202" y="697.4576271186438" width="5.084745762711918" height="5.084745762711918" transform="matrix(1,0,0,1,0,0)" fill="rgb(234,72,72)"/><rect x="981.1864406779663" y="773.5593220338981" width="5.084745762711918" height="5.084745762711918" transform="matrix(1,0,0,1,0,0)" fill="rgb(234,72,72)"/><rect x="1133.5593220338983" y="621.1864406779657" width="5.084745762711918" height="5.084745762711918" transform="matrix(1,0,0,1,0,0)" fill="rgb(234,72,72)"/><rect x="910.0000000000001" y="844.7457627118642" width="5.084745762711918" height="5.084745762711918" transform="matrix(1,0,0,1,0,0)" fill="rgb(234,72,72)"/><rect x="1062.3728813559323" y="692.3728813559319" width="5.084745762711918" height="5.084745762711918" transform="matrix(1,0,0,1,0,0)" fill="rgb(234,72,72)"/><rect x="986.2711864406782" y="768.4745762711862" width="5.084745762711918" height="5.084745762711918" transform="matrix(1,0,0,1,0,0)" fill="rgb(234,72,72)"/><rect x="1138.6440677966102" y="616.101694915254" width="5.084745762711918" height="5.084745762711918" transform="matrix(1,0,0,1,0,0)" fill="rgb(234,72,72)"/><rect x="915.084745762712" y="839.6610169491523" width="5.084745762711918" height="5.084745762711918" transform="matrix(1,0,0,1,0,0)" fill="rgb(234,72,72)"/><rect x="1067.4576271186443" y="687.28813559322" width="5.084745762711918" height="5.084745762711918" transform="matrix(1,0,0,1,0,0)" fill="rgb(234,72,72)"/><rect x="991.3559322033899" y="763.3898305084745" width="5.084745762711918" height="5.084745762711918" transform="matrix(1,0,0,1,0,0)" fill="rgb(234,72,72)"/><rect x="1143.7288135593221" y="611.0169491525421" width="5.084745762711918" height="5.084745762711918" transform="matrix(1,0,0,1,0,0)" fill="rgb(234,72,72)"/><rect x="920.1694915254238" y="834.5762711864404" width="5.084745762711918" height="5.084745762711918" transform="matrix(1,0,0,1,0,0)" fill="rgb(234,72,72)"/><rect x="1072.542372881356" y="682.2033898305083" width="5.084745762711918" height="5.084745762711918" transform="matrix(1,0,0,1,0,0)" fill="rgb(234,72,72)"/><rect x="996.4406779661018" y="758.3050847457625" width="5.084745762711918" height="5.084745762711918" transform="matrix(1,0,0,1,0,0)" fill="rgb(234,72,72)"/><rect x="1148.8135593220338" y="605.9322033898302" width="5.084745762711918" height="5.084745762711918" transform="matrix(1,0,0,1,0,0)" fill="rgb(234,72,72)"/><rect x="925.2542372881358" y="829.4915254237285" width="5.084745762711918" height="5.084745762711918" transform="matrix(1,0,0,1,0,0)" fill="rgb(234,72,72)"/><rect x="1077.6271186440677" y="677.1186440677964" width="5.084745762711918" height="5.084745762711918" transform="matrix(1,0,0,1,0,0)" fill="rgb(234,72,72)"/><rect x="1001.5254237288137" y="753.2203389830506" width="5.084745762711918" height="5.084745762711918" transform="matrix(1,0,0,1,0,0)" fill="rgb(234,72,72)"/><rect x="1153.8983050847457" y="600.8474576271183" width="5.084745762711918" height="5.084745762711918" transform="matrix(1,0,0,1,0,0)" fill="rgb(234,72,72)"/><rect x="930.3389830508477" y="824.4067796610166" width="5.084745762711918" height="5.084745762711918" transform="matrix(1,0,0,1,0,0)" fill="rgb(234,72,72)"/><rect x="1082.7118644067796" y="672.0338983050844" width="5.084745762711918" height="5.084745762711918" transform="matrix(1,0,0,1,0,0)" fill="rgb(234,72,72)"/><rect x="1006.6101694915255" y="748.1355932203387" width="5.084745762711918" height="5.084745762711918" transform="matrix(1,0,0,1,0,0)" fill="rgb(234,72,72)"/><rect x="1158.9830508474577" y="595.7627118644066" width="5.084745762711918" height="5.084745762711918" transform="matrix(1,0,0,1,0,0)" fill="rgb(234,72,72)"/><rect x="935.4237288135594" y="819.3220338983049" width="5.084745762711918" height="5.084745762711918" transform="matrix(1,0,0,1,0,0)" fill="rgb(234,72,72)"/><rect x="1087.7966101694915" y="666.9491525423728" width="5.084745762711918" height="5.084745762711918" transform="matrix(1,0,0,1,0,0)" fill="rgb(234,72,72)"/><rect x="1011.6949152542375" y="743.0508474576268" width="5.084745762711918" height="5.084745762711918" transform="matrix(1,0,0,1,0,0)" fill="rgb(234,72,72)"/><rect x="1164.0677966101696" y="590.6779661016947" width="5.084745762711918" height="5.084745762711918" transform="matrix(1,0,0,1,0,0)" fill="rgb(234,72,72)"/><rect x="940.5084745762713" y="814.237288135593" width="5.084745762711918" height="5.084745762711918" transform="matrix(1,0,0,1,0,0)" fill="rgb(234,72,72)"/><rect x="1092.8813559322034" y="661.8644067796608" width="5.084745762711918" height="5.084745762711918" transform="matrix(1,0,0,1,0,0)" fill="rgb(234,72,72)"/><rect x="1016.7796610169493" y="737.9661016949151" width="5.084745762711918" height="5.084745762711918" transform="matrix(1,0,0,1,0,0)" fill="rgb(234,72,72)"/><rect x="1169.1525423728815" y="585.5932203389827" width="5.084745762711918" height="5.084745762711918" transform="matrix(1,0,0,1,0,0)" fill="rgb(234,72,72)"/><rect x="945.5932203389832" y="809.152542372881" width="5.084745762711918" height="5.084745762711918" transform="matrix(1,0,0,1,0,0)" fill="rgb(234,72,72)"/><rect x="1097.9661016949153" y="656.7796610169489" width="5.084745762711918" height="5.084745762711918" transform="matrix(1,0,0,1,0,0)" fill="rgb(234,72,72)"/><rect x="1021.8644067796611" y="732.8813559322032" width="5.084745762711918" height="5.084745762711918" transform="matrix(1,0,0,1,0,0)" fill="rgb(234,72,72)"/><rect x="1174.2372881355932" y="580.508474576271" width="5.084745762711918" height="5.084745762711918" transform="matrix(1,0,0,1,0,0)" fill="rgb(234,72,72)"/><rect x="950.677966101695" y="804.0677966101694" width="5.084745762711918" height="5.084745762711918" transform="matrix(1,0,0,1,0,0)" fill="rgb(234,72,72)"/><rect x="1103.0508474576272" y="651.694915254237" width="5.084745762711918" height="5.084745762711918" transform="matrix(1,0,0,1,0,0)" fill="rgb(234,72,72)"/><rect x="1026.949152542373" y="727.7966101694913" width="5.084745762711918" height="5.084745762711918" transform="matrix(1,0,0,1,0,0)" fill="rgb(234,72,72)"/><rect x="1179.322033898305" y="575.4237288135589" width="5.084745762711918" height="5.084745762711918" transform="matrix(1,0,0,1,0,0)" fill="rgb(234,72,72)"/><rect x="955.7627118644069" y="798.9830508474572" width="5.084745762711918" height="5.084745762711918" transform="matrix(1,0,0,1,0,0)" fill="rgb(234,72,72)"/><rect x="1108.135593220339" y="646.6101694915251" width="5.084745762711918" height="5.084745762711918" transform="matrix(1,0,0,1,0,0)" fill="rgb(234,72,72)"/><rect x="1032.033898305085" y="722.7118644067793" width="5.084745762711918" height="5.084745762711918" transform="matrix(1,0,0,1,0,0)" fill="rgb(234,72,72)"/><rect x="1184.4067796610168" y="570.3389830508472" width="5.084745762711918" height="5.084745762711918" transform="matrix(1,0,0,1,0,0)" fill="rgb(234,72,72)"/><rect x="960.8474576271187" y="793.8983050847455" width="5.084745762711918" height="5.084745762711918" transform="matrix(1,0,0,1,0,0)" fill="rgb(234,72,72)"/><rect x="1113.2203389830509" y="641.5254237288134" width="5.084745762711918" height="5.084745762711918" transform="matrix(1,0,0,1,0,0)" fill="rgb(234,72,72)"/><rect x="1037.1186440677968" y="717.6271186440674" width="5.084745762711918" height="5.084745762711918" transform="matrix(1,0,0,1,0,0)" fill="rgb(234,72,72)"/><rect x="1189.491525423729" y="565.2542372881353" width="5.084745762711918" height="5.084745762711918" transform="matrix(1,0,0,1,0,0)" fill="rgb(234,72,72)"/><rect x="965.9322033898305" y="788.8135593220338" width="5.084745762711918" height="5.084745762711918" transform="matrix(1,0,0,1,0,0)" fill="rgb(234,72,72)"/><rect x="1118.3050847457625" y="636.4406779661015" width="5.084745762711918" height="5.084745762711918" transform="matrix(1,0,0,1,0,0)" fill="rgb(234,72,72)"/><rect x="1042.2033898305087" y="712.5423728813555" width="5.084745762711918" height="5.084745762711918" transform="matrix(1,0,0,1,0,0)" fill="rgb(234,72,72)"/><rect x="1194.5762711864409" y="560.1694915254236" width="5.084745762711918" height="5.084745762711918" transform="matrix(1,0,0,1,0,0)" fill="rgb(234,72,72)"/><rect x="971.0169491525426" y="783.7288135593217" width="5.084745762711918" height="5.084745762711918" transform="matrix(1,0,0,1,0,0)" fill="rgb(234,72,72)"/><rect x="1123.3898305084747" y="631.3559322033896" width="5.084745762711918" height="5.084745762711918" transform="matrix(1,0,0,1,0,0)" fill="rgb(234,72,72)"/><rect x="1047.2881355932204" y="707.4576271186438" width="5.084745762711918" height="5.084745762711918" transform="matrix(1,0,0,1,0,0)" fill="rgb(234,72,72)"/><rect x="1199.6610169491526" y="555.0847457627118" width="5.084745762711918" height="5.084745762711918" transform="matrix(1,0,0,1,0,0)" fill="rgb(234,72,72)"/><rect x="976.1016949152544" y="778.64406779661" width="5.084745762711918" height="5.084745762711918" transform="matrix(1,0,0,1,0,0)" fill="rgb(234,72,72)"/><rect x="1128.4745762711864" y="626.2711864406776" width="5.084745762711918" height="5.084745762711918" transform="matrix(1,0,0,1,0,0)" fill="rgb(234,72,72)"/><rect x="1052.3728813559323" y="702.3728813559319" width="5.084745762711918" height="5.084745762711918" transform="matrix(1,0,0,1,0,0)" fill="rgb(234,72,72)"/><rect x="1204.7457627118645" y="549.9999999999999" width="5.084745762711918" height="5.084745762711918" transform="matrix(1,0,0,1,0,0)" fill="rgb(234,72,72)"/><rect x="1209.8305084745764" y="544.9152542372883" width="5.084745762711918" height="5.084745762711918" transform="matrix(1,0,0,1,0,0)" fill="rgb(234,72,72)"/><rect x="1214.915254237288" y="539.8305084745766" width="5.084745762711918" height="5.084745762711918" transform="matrix(1,0,0,1,0,0)" fill="rgb(234,72,72)"/></svg>