<?xml version="1.0" standalone="no"?><!-- Generator: Gravit.io --><svg xmlns="http://www.w3.org/2000/svg" xmlns:xlink="http://www.w3.org/1999/xlink" style="isolation:isolate" viewBox="0 0 1280 500" width="1280" height="500"><g id="null"><path d=" M 1020.881 262.803 L 989.358 262.803 L 984.788 275.4 L 984.788 275.4 Q 984.26 276.807 983.967 278.184 L 983.967 278.184 L 983.967 278.184 Q 983.674 279.561 983.674 280.557 L 983.674 280.557 L 983.674 280.557 Q 983.674 283.604 985.637 285.01 L 985.637 285.01 L 985.637 285.01 Q 987.6 286.416 991.643 286.416 L 991.643 286.416 L 994.397 286.416 L 994.397 291.455 L 965.1 291.455 L 965.1 286.416 L 967.385 286.416 L 967.385 286.416 Q 969.143 286.416 970.374 286.035 L 970.374 286.035 L 970.374 286.035 Q 971.604 285.654 972.6 284.6 L 972.6 284.6 L 972.6 284.6 Q 973.596 283.545 974.504 281.729 L 974.504 281.729 L 974.504 281.729 Q 975.413 279.912 976.526 277.041 L 976.526 277.041 L 1003.127 205.791 L 1012.502 205.791 L 1039.631 280.029 L 1039.631 280.029 Q 1040.334 281.904 1041.067 283.135 L 1041.067 283.135 L 1041.067 283.135 Q 1041.799 284.365 1042.795 285.098 L 1042.795 285.098 L 1042.795 285.098 Q 1043.792 285.83 1045.081 286.123 L 1045.081 286.123 L 1045.081 286.123 Q 1046.37 286.416 1048.127 286.416 L 1048.127 286.416 L 1049.709 286.416 L 1049.709 291.455 L 1016.721 291.455 L 1016.721 286.416 L 1019.475 286.416 L 1019.475 286.416 Q 1026.682 286.416 1026.682 280.674 L 1026.682 280.674 L 1026.682 280.674 Q 1026.682 279.678 1026.418 278.623 L 1026.418 278.623 L 1026.418 278.623 Q 1026.155 277.568 1025.686 276.221 L 1025.686 276.221 L 1020.881 262.803 Z  M 1018.713 256.768 L 1011.272 235.791 L 1011.272 235.791 Q 1009.397 230.459 1007.844 225.801 L 1007.844 225.801 L 1007.844 225.801 Q 1006.292 221.143 1005.295 216.807 L 1005.295 216.807 L 1005.295 216.807 Q 1004.885 218.975 1004.329 220.996 L 1004.329 220.996 L 1004.329 220.996 Q 1003.772 223.018 1003.127 225.127 L 1003.127 225.127 L 1003.127 225.127 Q 1002.483 227.236 1001.663 229.551 L 1001.663 229.551 L 1001.663 229.551 Q 1000.842 231.865 999.788 234.678 L 999.788 234.678 L 991.643 256.768 L 1018.713 256.768 Z  M 1088.323 286.416 L 1088.323 291.455 L 1053.694 291.455 L 1053.694 286.416 L 1054.045 286.416 L 1054.045 286.416 Q 1056.096 286.416 1057.883 286.123 L 1057.883 286.123 L 1057.883 286.123 Q 1059.67 285.83 1060.989 284.922 L 1060.989 284.922 L 1060.989 284.922 Q 1062.307 284.014 1063.098 282.314 L 1063.098 282.314 L 1063.098 282.314 Q 1063.889 280.615 1063.889 277.803 L 1063.889 277.803 L 1063.889 240.361 L 1063.889 240.361 Q 1063.889 237.725 1063.098 236.113 L 1063.098 236.113 L 1063.098 236.113 Q 1062.307 234.502 1060.959 233.623 L 1060.959 233.623 L 1060.959 233.623 Q 1059.612 232.744 1057.825 232.451 L 1057.825 232.451 L 1057.825 232.451 Q 1056.038 232.158 1054.045 232.158 L 1054.045 232.158 L 1053.694 232.158 L 1053.694 227.119 L 1072.151 227.119 L 1074.436 239.014 L 1075.022 239.014 L 1075.022 239.014 Q 1076.194 236.318 1077.424 233.945 L 1077.424 233.945 L 1077.424 233.945 Q 1078.655 231.572 1080.442 229.785 L 1080.442 229.785 L 1080.442 229.785 Q 1082.229 227.998 1084.866 226.973 L 1084.866 226.973 L 1084.866 226.973 Q 1087.502 225.947 1091.487 225.947 L 1091.487 225.947 L 1091.487 225.947 Q 1098.049 225.947 1101.243 228.232 L 1101.243 228.232 L 1101.243 228.232 Q 1104.436 230.518 1104.436 234.678 L 1104.436 234.678 L 1104.436 234.678 Q 1104.436 236.553 1103.821 238.135 L 1103.821 238.135 L 1103.821 238.135 Q 1103.206 239.717 1101.858 240.859 L 1101.858 240.859 L 1101.858 240.859 Q 1100.51 242.002 1098.401 242.617 L 1098.401 242.617 L 1098.401 242.617 Q 1096.292 243.232 1093.245 243.232 L 1093.245 243.232 L 1093.245 243.232 Q 1093.245 238.252 1091.838 236.055 L 1091.838 236.055 L 1091.838 236.055 Q 1090.432 233.857 1086.917 233.857 L 1086.917 233.857 L 1086.917 233.857 Q 1084.69 233.857 1082.932 235.117 L 1082.932 235.117 L 1082.932 235.117 Q 1081.174 236.377 1079.856 238.457 L 1079.856 238.457 L 1079.856 238.457 Q 1078.538 240.537 1077.629 243.232 L 1077.629 243.232 L 1077.629 243.232 Q 1076.721 245.928 1076.165 248.77 L 1076.165 248.77 L 1076.165 248.77 Q 1075.608 251.611 1075.374 254.424 L 1075.374 254.424 L 1075.374 254.424 Q 1075.139 257.236 1075.139 259.521 L 1075.139 259.521 L 1075.139 278.389 L 1075.139 278.389 Q 1075.139 281.025 1075.93 282.637 L 1075.93 282.637 L 1075.93 282.637 Q 1076.721 284.248 1078.069 285.068 L 1078.069 285.068 L 1078.069 285.068 Q 1079.417 285.889 1081.204 286.152 L 1081.204 286.152 L 1081.204 286.152 Q 1082.991 286.416 1084.983 286.416 L 1084.983 286.416 L 1088.323 286.416 Z  M 1138.069 286.299 L 1138.069 286.299 L 1138.069 286.299 Q 1140.237 286.299 1142.053 286.064 L 1142.053 286.064 L 1142.053 286.064 Q 1143.87 285.83 1145.745 285.479 L 1145.745 285.479 L 1145.745 290.752 L 1145.745 290.752 Q 1144.983 291.104 1143.752 291.455 L 1143.752 291.455 L 1143.752 291.455 Q 1142.522 291.807 1141.086 292.07 L 1141.086 292.07 L 1141.086 292.07 Q 1139.651 292.334 1138.069 292.48 L 1138.069 292.48 L 1138.069 292.48 Q 1136.487 292.627 1135.081 292.627 L 1135.081 292.627 L 1135.081 292.627 Q 1130.51 292.627 1127.229 291.66 L 1127.229 291.66 L 1127.229 291.66 Q 1123.948 290.693 1121.838 288.525 L 1121.838 288.525 L 1121.838 288.525 Q 1119.729 286.357 1118.704 282.783 L 1118.704 282.783 L 1118.704 282.783 Q 1117.678 279.209 1117.678 274.053 L 1117.678 274.053 L 1117.678 233.975 L 1108.538 233.975 L 1108.538 229.17 L 1108.538 229.17 Q 1110.706 229.17 1113.313 228.291 L 1113.313 228.291 L 1113.313 228.291 Q 1115.92 227.412 1117.913 225.361 L 1117.913 225.361 L 1117.913 225.361 Q 1119.963 223.135 1121.223 220.059 L 1121.223 220.059 L 1121.223 220.059 Q 1122.483 216.982 1123.42 212.354 L 1123.42 212.354 L 1128.928 212.354 L 1128.928 227.119 L 1144.631 227.119 L 1144.631 233.975 L 1128.928 233.975 L 1128.928 274.404 L 1128.928 274.404 Q 1128.928 280.557 1131.418 283.428 L 1131.418 283.428 L 1131.418 283.428 Q 1133.909 286.299 1138.069 286.299 Z  M 493.069 292.627 L 493.069 292.627 L 493.069 292.627 Q 487.209 292.627 482.727 291.396 L 482.727 291.396 L 482.727 291.396 Q 478.245 290.166 475.227 287.969 L 475.227 287.969 L 475.227 287.969 Q 472.209 285.771 470.686 282.637 L 470.686 282.637 L 470.686 282.637 Q 469.163 279.502 469.163 275.752 L 469.163 275.752 L 469.163 275.752 Q 469.163 272.119 471.418 269.893 L 471.418 269.893 L 471.418 269.893 Q 473.674 267.666 477.834 267.666 L 477.834 267.666 L 477.834 267.666 Q 478.01 271.416 478.977 274.873 L 478.977 274.873 L 478.977 274.873 Q 479.944 278.33 481.877 280.967 L 481.877 280.967 L 481.877 280.967 Q 483.811 283.604 486.799 285.186 L 486.799 285.186 L 486.799 285.186 Q 489.788 286.768 494.006 286.768 L 494.006 286.768 L 494.006 286.768 Q 502.092 286.768 506.633 282.871 L 506.633 282.871 L 506.633 282.871 Q 511.174 278.975 511.174 271.65 L 511.174 271.65 L 511.174 271.65 Q 511.174 268.369 510.237 265.85 L 510.237 265.85 L 510.237 265.85 Q 509.299 263.33 507.131 261.191 L 507.131 261.191 L 507.131 261.191 Q 504.963 259.053 501.418 257.09 L 501.418 257.09 L 501.418 257.09 Q 497.874 255.127 492.6 252.959 L 492.6 252.959 L 492.6 252.959 Q 487.034 250.674 482.874 248.066 L 482.874 248.066 L 482.874 248.066 Q 478.713 245.459 475.959 242.266 L 475.959 242.266 L 475.959 242.266 Q 473.206 239.072 471.858 235.146 L 471.858 235.146 L 471.858 235.146 Q 470.51 231.221 470.51 226.299 L 470.51 226.299 L 470.51 226.299 Q 470.51 221.143 472.473 217.1 L 472.473 217.1 L 472.473 217.1 Q 474.436 213.057 477.952 210.273 L 477.952 210.273 L 477.952 210.273 Q 481.467 207.49 486.272 206.025 L 486.272 206.025 L 486.272 206.025 Q 491.077 204.561 496.76 204.561 L 496.76 204.561 L 496.76 204.561 Q 502.151 204.561 506.311 205.674 L 506.311 205.674 L 506.311 205.674 Q 510.471 206.787 513.342 208.662 L 513.342 208.662 L 513.342 208.662 Q 516.213 210.537 517.708 212.969 L 517.708 212.969 L 517.708 212.969 Q 519.202 215.4 519.202 218.037 L 519.202 218.037 L 519.202 218.037 Q 519.202 221.904 516.653 223.867 L 516.653 223.867 L 516.653 223.867 Q 514.104 225.83 509.768 225.83 L 509.768 225.83 L 509.768 225.83 Q 509.768 223.018 509.094 220.293 L 509.094 220.293 L 509.094 220.293 Q 508.42 217.568 506.838 215.43 L 506.838 215.43 L 506.838 215.43 Q 505.256 213.291 502.678 211.943 L 502.678 211.943 L 502.678 211.943 Q 500.1 210.596 496.292 210.596 L 496.292 210.596 L 496.292 210.596 Q 492.834 210.596 490.11 211.563 L 490.11 211.563 L 490.11 211.563 Q 487.385 212.529 485.51 214.316 L 485.51 214.316 L 485.51 214.316 Q 483.635 216.104 482.639 218.623 L 482.639 218.623 L 482.639 218.623 Q 481.643 221.143 481.643 224.248 L 481.643 224.248 L 481.643 224.248 Q 481.643 227.822 482.581 230.547 L 482.581 230.547 L 482.581 230.547 Q 483.518 233.271 485.715 235.469 L 485.715 235.469 L 485.715 235.469 Q 487.913 237.666 491.487 239.629 L 491.487 239.629 L 491.487 239.629 Q 495.061 241.592 500.276 243.701 L 500.276 243.701 L 500.276 243.701 Q 505.549 245.869 509.68 248.271 L 509.68 248.271 L 509.68 248.271 Q 513.811 250.674 516.682 253.633 L 516.682 253.633 L 516.682 253.633 Q 519.553 256.592 521.077 260.254 L 521.077 260.254 L 521.077 260.254 Q 522.6 263.916 522.6 268.545 L 522.6 268.545 L 522.6 268.545 Q 522.6 274.229 520.52 278.711 L 520.52 278.711 L 520.52 278.711 Q 518.44 283.193 514.573 286.299 L 514.573 286.299 L 514.573 286.299 Q 510.706 289.404 505.256 291.016 L 505.256 291.016 L 505.256 291.016 Q 499.807 292.627 493.069 292.627 Z  M 600.237 315.244 L 600.237 320.283 L 564.319 320.283 L 564.319 315.244 L 568.303 315.244 L 568.303 315.244 Q 570.354 315.244 572.141 314.951 L 572.141 314.951 L 572.141 314.951 Q 573.928 314.658 575.247 313.75 L 575.247 313.75 L 575.247 313.75 Q 576.565 312.842 577.356 311.113 L 577.356 311.113 L 577.356 311.113 Q 578.147 309.385 578.147 306.572 L 578.147 306.572 L 578.147 296.26 L 578.147 296.26 Q 578.147 294.209 578.206 291.543 L 578.206 291.543 L 578.206 291.543 Q 578.264 288.877 578.381 286.416 L 578.381 286.416 L 578.381 286.416 Q 578.499 283.604 578.616 280.674 L 578.616 280.674 L 578.147 280.674 L 578.147 280.674 Q 576.799 283.428 575.071 285.625 L 575.071 285.625 L 575.071 285.625 Q 573.342 287.822 571.116 289.375 L 571.116 289.375 L 571.116 289.375 Q 568.889 290.928 566.077 291.777 L 566.077 291.777 L 566.077 291.777 Q 563.264 292.627 559.749 292.627 L 559.749 292.627 L 559.749 292.627 Q 553.831 292.627 549.26 290.664 L 549.26 290.664 L 549.26 290.664 Q 544.69 288.701 541.584 284.629 L 541.584 284.629 L 541.584 284.629 Q 538.479 280.557 536.897 274.287 L 536.897 274.287 L 536.897 274.287 Q 535.315 268.018 535.315 259.404 L 535.315 259.404 L 535.315 259.404 Q 535.315 250.732 536.897 244.404 L 536.897 244.404 L 536.897 244.404 Q 538.479 238.076 541.584 233.975 L 541.584 233.975 L 541.584 233.975 Q 544.69 229.873 549.26 227.91 L 549.26 227.91 L 549.26 227.91 Q 553.831 225.947 559.749 225.947 L 559.749 225.947 L 559.749 225.947 Q 563.206 225.947 566.018 226.709 L 566.018 226.709 L 566.018 226.709 Q 568.831 227.471 571.086 228.877 L 571.086 228.877 L 571.086 228.877 Q 573.342 230.283 575.1 232.217 L 575.1 232.217 L 575.1 232.217 Q 576.858 234.15 578.147 236.494 L 578.147 236.494 L 578.85 236.494 L 581.018 227.119 L 600.237 227.119 L 600.237 232.158 L 599.241 232.158 L 599.241 232.158 Q 597.249 232.158 595.432 232.451 L 595.432 232.451 L 595.432 232.451 Q 593.616 232.744 592.297 233.652 L 592.297 233.652 L 592.297 233.652 Q 590.979 234.561 590.188 236.289 L 590.188 236.289 L 590.188 236.289 Q 589.397 238.018 589.397 240.83 L 589.397 240.83 L 589.397 307.041 L 589.397 307.041 Q 589.397 309.678 590.188 311.289 L 590.188 311.289 L 590.188 311.289 Q 590.979 312.9 592.327 313.779 L 592.327 313.779 L 592.327 313.779 Q 593.674 314.658 595.461 314.951 L 595.461 314.951 L 595.461 314.951 Q 597.249 315.244 599.241 315.244 L 599.241 315.244 L 600.237 315.244 Z  M 561.799 284.951 L 561.799 284.951 L 561.799 284.951 Q 566.487 284.951 569.622 283.398 L 569.622 283.398 L 569.622 283.398 Q 572.756 281.846 574.661 278.682 L 574.661 278.682 L 574.661 278.682 Q 576.565 275.518 577.356 270.713 L 577.356 270.713 L 577.356 270.713 Q 578.147 265.908 578.147 259.404 L 578.147 259.404 L 578.147 259.404 Q 578.147 253.135 577.356 248.33 L 577.356 248.33 L 577.356 248.33 Q 576.565 243.525 574.661 240.273 L 574.661 240.273 L 574.661 240.273 Q 572.756 237.021 569.592 235.322 L 569.592 235.322 L 569.592 235.322 Q 566.428 233.623 561.682 233.623 L 561.682 233.623 L 561.682 233.623 Q 557.756 233.623 554.944 235.322 L 554.944 235.322 L 554.944 235.322 Q 552.131 237.021 550.344 240.303 L 550.344 240.303 L 550.344 240.303 Q 548.557 243.584 547.737 248.418 L 547.737 248.418 L 547.737 248.418 Q 546.917 253.252 546.917 259.521 L 546.917 259.521 L 546.917 259.521 Q 546.917 272.295 550.374 278.623 L 550.374 278.623 L 550.374 278.623 Q 553.831 284.951 561.799 284.951 Z  M 665.569 227.119 L 665.569 278.389 L 665.569 278.389 Q 665.569 281.025 666.36 282.637 L 666.36 282.637 L 666.36 282.637 Q 667.151 284.248 668.499 285.068 L 668.499 285.068 L 668.499 285.068 Q 669.846 285.889 671.633 286.152 L 671.633 286.152 L 671.633 286.152 Q 673.42 286.416 675.413 286.416 L 675.413 286.416 L 675.764 286.416 L 675.764 291.455 L 656.721 291.455 L 655.139 281.729 L 654.553 281.729 L 654.553 281.729 Q 652.737 285.127 650.54 287.236 L 650.54 287.236 L 650.54 287.236 Q 648.342 289.346 645.881 290.547 L 645.881 290.547 L 645.881 290.547 Q 643.42 291.748 640.725 292.188 L 640.725 292.188 L 640.725 292.188 Q 638.03 292.627 635.1 292.627 L 635.1 292.627 L 635.1 292.627 Q 630.354 292.627 626.663 291.279 L 626.663 291.279 L 626.663 291.279 Q 622.971 289.932 620.452 287.061 L 620.452 287.061 L 620.452 287.061 Q 617.932 284.189 616.614 279.736 L 616.614 279.736 L 616.614 279.736 Q 615.295 275.283 615.295 269.131 L 615.295 269.131 L 615.295 240.361 L 615.295 240.361 Q 615.295 237.725 614.504 236.113 L 614.504 236.113 L 614.504 236.113 Q 613.713 234.502 612.366 233.623 L 612.366 233.623 L 612.366 233.623 Q 611.018 232.744 609.231 232.451 L 609.231 232.451 L 609.231 232.451 Q 607.444 232.158 605.452 232.158 L 605.452 232.158 L 605.1 232.158 L 605.1 227.119 L 626.604 227.119 L 626.604 268.545 L 626.604 268.545 Q 626.604 272.471 627.219 275.518 L 627.219 275.518 L 627.219 275.518 Q 627.834 278.564 629.27 280.674 L 629.27 280.674 L 629.27 280.674 Q 630.706 282.783 633.137 283.867 L 633.137 283.867 L 633.137 283.867 Q 635.569 284.951 639.202 284.951 L 639.202 284.951 L 639.202 284.951 Q 643.186 284.951 646.028 283.545 L 646.028 283.545 L 646.028 283.545 Q 648.87 282.139 650.715 279.59 L 650.715 279.59 L 650.715 279.59 Q 652.561 277.041 653.44 273.467 L 653.44 273.467 L 653.44 273.467 Q 654.319 269.893 654.319 265.557 L 654.319 265.557 L 654.319 240.83 L 654.319 240.83 Q 654.319 238.018 653.528 236.289 L 653.528 236.289 L 653.528 236.289 Q 652.737 234.561 651.418 233.652 L 651.418 233.652 L 651.418 233.652 Q 650.1 232.744 648.313 232.451 L 648.313 232.451 L 648.313 232.451 Q 646.526 232.158 644.475 232.158 L 644.475 232.158 L 644.124 232.158 L 644.124 227.119 L 665.569 227.119 Z  M 681.272 286.416 L 682.854 286.416 L 682.854 286.416 Q 684.846 286.416 686.633 286.152 L 686.633 286.152 L 686.633 286.152 Q 688.42 285.889 689.768 285.068 L 689.768 285.068 L 689.768 285.068 Q 691.116 284.248 691.907 282.637 L 691.907 282.637 L 691.907 282.637 Q 692.698 281.025 692.698 278.389 L 692.698 278.389 L 692.698 240.361 L 692.698 240.361 Q 692.698 237.725 691.907 236.113 L 691.907 236.113 L 691.907 236.113 Q 691.116 234.502 689.768 233.623 L 689.768 233.623 L 689.768 233.623 Q 688.42 232.744 686.633 232.451 L 686.633 232.451 L 686.633 232.451 Q 684.846 232.158 682.854 232.158 L 682.854 232.158 L 682.502 232.158 L 682.502 227.119 L 703.948 227.119 L 703.948 277.803 L 703.948 277.803 Q 703.948 280.615 704.739 282.314 L 704.739 282.314 L 704.739 282.314 Q 705.53 284.014 706.848 284.922 L 706.848 284.922 L 706.848 284.922 Q 708.167 285.83 709.983 286.123 L 709.983 286.123 L 709.983 286.123 Q 711.799 286.416 713.792 286.416 L 713.792 286.416 L 715.374 286.416 L 715.374 291.455 L 681.272 291.455 L 681.272 286.416 Z  M 690.999 207.666 L 690.999 207.666 L 690.999 207.666 Q 690.999 205.557 691.526 204.15 L 691.526 204.15 L 691.526 204.15 Q 692.053 202.744 692.991 201.865 L 692.991 201.865 L 692.991 201.865 Q 693.928 200.986 695.159 200.635 L 695.159 200.635 L 695.159 200.635 Q 696.389 200.283 697.854 200.283 L 697.854 200.283 L 697.854 200.283 Q 699.26 200.283 700.491 200.635 L 700.491 200.635 L 700.491 200.635 Q 701.721 200.986 702.629 201.865 L 702.629 201.865 L 702.629 201.865 Q 703.538 202.744 704.094 204.15 L 704.094 204.15 L 704.094 204.15 Q 704.651 205.557 704.651 207.666 L 704.651 207.666 L 704.651 207.666 Q 704.651 209.775 704.094 211.182 L 704.094 211.182 L 704.094 211.182 Q 703.538 212.588 702.629 213.467 L 702.629 213.467 L 702.629 213.467 Q 701.721 214.346 700.491 214.727 L 700.491 214.727 L 700.491 214.727 Q 699.26 215.107 697.854 215.107 L 697.854 215.107 L 697.854 215.107 Q 696.389 215.107 695.159 214.727 L 695.159 214.727 L 695.159 214.727 Q 693.928 214.346 692.991 213.467 L 692.991 213.467 L 692.991 213.467 Q 692.053 212.588 691.526 211.182 L 691.526 211.182 L 691.526 211.182 Q 690.999 209.775 690.999 207.666 Z  M 755.51 286.416 L 755.51 291.455 L 720.881 291.455 L 720.881 286.416 L 721.233 286.416 L 721.233 286.416 Q 723.284 286.416 725.071 286.123 L 725.071 286.123 L 725.071 286.123 Q 726.858 285.83 728.176 284.922 L 728.176 284.922 L 728.176 284.922 Q 729.495 284.014 730.286 282.314 L 730.286 282.314 L 730.286 282.314 Q 731.077 280.615 731.077 277.803 L 731.077 277.803 L 731.077 240.361 L 731.077 240.361 Q 731.077 237.725 730.286 236.113 L 730.286 236.113 L 730.286 236.113 Q 729.495 234.502 728.147 233.623 L 728.147 233.623 L 728.147 233.623 Q 726.799 232.744 725.012 232.451 L 725.012 232.451 L 725.012 232.451 Q 723.225 232.158 721.233 232.158 L 721.233 232.158 L 720.881 232.158 L 720.881 227.119 L 739.338 227.119 L 741.624 239.014 L 742.209 239.014 L 742.209 239.014 Q 743.381 236.318 744.612 233.945 L 744.612 233.945 L 744.612 233.945 Q 745.842 231.572 747.629 229.785 L 747.629 229.785 L 747.629 229.785 Q 749.417 227.998 752.053 226.973 L 752.053 226.973 L 752.053 226.973 Q 754.69 225.947 758.674 225.947 L 758.674 225.947 L 758.674 225.947 Q 765.237 225.947 768.43 228.232 L 768.43 228.232 L 768.43 228.232 Q 771.624 230.518 771.624 234.678 L 771.624 234.678 L 771.624 234.678 Q 771.624 236.553 771.008 238.135 L 771.008 238.135 L 771.008 238.135 Q 770.393 239.717 769.045 240.859 L 769.045 240.859 L 769.045 240.859 Q 767.698 242.002 765.588 242.617 L 765.588 242.617 L 765.588 242.617 Q 763.479 243.232 760.432 243.232 L 760.432 243.232 L 760.432 243.232 Q 760.432 238.252 759.026 236.055 L 759.026 236.055 L 759.026 236.055 Q 757.62 233.857 754.104 233.857 L 754.104 233.857 L 754.104 233.857 Q 751.877 233.857 750.12 235.117 L 750.12 235.117 L 750.12 235.117 Q 748.362 236.377 747.043 238.457 L 747.043 238.457 L 747.043 238.457 Q 745.725 240.537 744.817 243.232 L 744.817 243.232 L 744.817 243.232 Q 743.909 245.928 743.352 248.77 L 743.352 248.77 L 743.352 248.77 Q 742.795 251.611 742.561 254.424 L 742.561 254.424 L 742.561 254.424 Q 742.327 257.236 742.327 259.521 L 742.327 259.521 L 742.327 278.389 L 742.327 278.389 Q 742.327 281.025 743.118 282.637 L 743.118 282.637 L 743.118 282.637 Q 743.909 284.248 745.256 285.068 L 745.256 285.068 L 745.256 285.068 Q 746.604 285.889 748.391 286.152 L 748.391 286.152 L 748.391 286.152 Q 750.178 286.416 752.17 286.416 L 752.17 286.416 L 755.51 286.416 Z  M 807.424 292.627 L 807.424 292.627 L 807.424 292.627 Q 801.448 292.627 796.409 290.781 L 796.409 290.781 L 796.409 290.781 Q 791.37 288.936 787.737 284.951 L 787.737 284.951 L 787.737 284.951 Q 784.104 280.967 782.083 274.727 L 782.083 274.727 L 782.083 274.727 Q 780.061 268.486 780.061 259.639 L 780.061 259.639 L 780.061 259.639 Q 780.061 250.029 782.083 243.555 L 782.083 243.555 L 782.083 243.555 Q 784.104 237.08 787.708 233.154 L 787.708 233.154 L 787.708 233.154 Q 791.311 229.229 796.204 227.588 L 796.204 227.588 L 796.204 227.588 Q 801.096 225.947 806.78 225.947 L 806.78 225.947 L 806.78 225.947 Q 810.53 225.947 814.251 226.68 L 814.251 226.68 L 814.251 226.68 Q 817.971 227.412 820.959 228.936 L 820.959 228.936 L 820.959 228.936 Q 823.948 230.459 825.823 232.773 L 825.823 232.773 L 825.823 232.773 Q 827.698 235.088 827.698 238.193 L 827.698 238.193 L 827.698 238.193 Q 827.698 242.354 825.002 244.053 L 825.002 244.053 L 825.002 244.053 Q 822.307 245.752 816.975 245.752 L 816.975 245.752 L 816.975 245.752 Q 816.975 242.939 816.506 240.42 L 816.506 240.42 L 816.506 240.42 Q 816.038 237.9 814.895 235.996 L 814.895 235.996 L 814.895 235.996 Q 813.752 234.092 811.79 233.008 L 811.79 233.008 L 811.79 233.008 Q 809.827 231.924 806.78 231.924 L 806.78 231.924 L 806.78 231.924 Q 803.323 231.924 800.54 233.213 L 800.54 233.213 L 800.54 233.213 Q 797.756 234.502 795.764 237.666 L 795.764 237.666 L 795.764 237.666 Q 793.772 240.83 792.717 246.162 L 792.717 246.162 L 792.717 246.162 Q 791.663 251.494 791.663 259.521 L 791.663 259.521 L 791.663 259.521 Q 791.663 272.295 795.911 278.564 L 795.911 278.564 L 795.911 278.564 Q 800.159 284.834 809.827 284.834 L 809.827 284.834 L 809.827 284.834 Q 815.393 284.834 819.553 282.49 L 819.553 282.49 L 819.553 282.49 Q 823.713 280.146 825.764 276.455 L 825.764 276.455 L 825.764 276.455 Q 826.643 277.158 827.229 278.33 L 827.229 278.33 L 827.229 278.33 Q 827.815 279.502 827.815 281.143 L 827.815 281.143 L 827.815 281.143 Q 827.815 283.193 826.526 285.244 L 826.526 285.244 L 826.526 285.244 Q 825.237 287.295 822.688 288.936 L 822.688 288.936 L 822.688 288.936 Q 820.139 290.576 816.331 291.602 L 816.331 291.602 L 816.331 291.602 Q 812.522 292.627 807.424 292.627 Z  M 834.084 286.416 L 835.608 286.416 L 835.608 286.416 Q 837.659 286.416 839.446 286.123 L 839.446 286.123 L 839.446 286.123 Q 841.233 285.83 842.551 284.922 L 842.551 284.922 L 842.551 284.922 Q 843.87 284.014 844.661 282.314 L 844.661 282.314 L 844.661 282.314 Q 845.452 280.615 845.452 277.803 L 845.452 277.803 L 845.452 213.467 L 845.452 213.467 Q 845.452 210.83 844.661 209.219 L 844.661 209.219 L 844.661 209.219 Q 843.87 207.607 842.522 206.729 L 842.522 206.729 L 842.522 206.729 Q 841.174 205.85 839.387 205.586 L 839.387 205.586 L 839.387 205.586 Q 837.6 205.322 835.608 205.322 L 835.608 205.322 L 834.084 205.322 L 834.084 200.283 L 856.76 200.283 L 856.76 277.803 L 856.76 277.803 Q 856.76 280.615 857.522 282.314 L 857.522 282.314 L 857.522 282.314 Q 858.284 284.014 859.631 284.922 L 859.631 284.922 L 859.631 284.922 Q 860.979 285.83 862.766 286.123 L 862.766 286.123 L 862.766 286.123 Q 864.553 286.416 866.604 286.416 L 866.604 286.416 L 868.127 286.416 L 868.127 291.455 L 834.084 291.455 L 834.084 286.416 Z  M 902.698 232.393 L 902.698 232.393 L 902.698 232.393 Q 896.018 232.393 892.415 237.813 L 892.415 237.813 L 892.415 237.813 Q 888.811 243.232 888.167 253.662 L 888.167 253.662 L 915.764 253.662 L 915.764 253.662 Q 915.764 248.916 915.061 244.99 L 915.061 244.99 L 915.061 244.99 Q 914.358 241.064 912.834 238.252 L 912.834 238.252 L 912.834 238.252 Q 911.311 235.439 908.821 233.916 L 908.821 233.916 L 908.821 233.916 Q 906.331 232.393 902.698 232.393 Z  M 904.163 292.627 L 904.163 292.627 L 904.163 292.627 Q 897.659 292.627 892.473 290.43 L 892.473 290.43 L 892.473 290.43 Q 887.288 288.232 883.713 284.014 L 883.713 284.014 L 883.713 284.014 Q 880.139 279.795 878.235 273.672 L 878.235 273.672 L 878.235 273.672 Q 876.331 267.549 876.331 259.756 L 876.331 259.756 L 876.331 259.756 Q 876.331 242.939 883.245 234.443 L 883.245 234.443 L 883.245 234.443 Q 890.159 225.947 902.932 225.947 L 902.932 225.947 L 902.932 225.947 Q 908.733 225.947 913.362 227.764 L 913.362 227.764 L 913.362 227.764 Q 917.991 229.58 921.213 233.184 L 921.213 233.184 L 921.213 233.184 Q 924.436 236.787 926.165 242.148 L 926.165 242.148 L 926.165 242.148 Q 927.893 247.51 927.893 254.6 L 927.893 254.6 L 927.893 260.107 L 887.932 260.107 L 887.932 260.107 Q 888.049 266.67 889.251 271.387 L 889.251 271.387 L 889.251 271.387 Q 890.452 276.104 892.708 279.15 L 892.708 279.15 L 892.708 279.15 Q 894.963 282.197 898.245 283.633 L 898.245 283.633 L 898.245 283.633 Q 901.526 285.068 905.803 285.068 L 905.803 285.068 L 905.803 285.068 Q 908.909 285.068 911.575 284.365 L 911.575 284.365 L 911.575 284.365 Q 914.241 283.662 916.409 282.49 L 916.409 282.49 L 916.409 282.49 Q 918.577 281.318 920.247 279.824 L 920.247 279.824 L 920.247 279.824 Q 921.917 278.33 922.971 276.689 L 922.971 276.689 L 922.971 276.689 Q 923.792 277.041 924.524 278.154 L 924.524 278.154 L 924.524 278.154 Q 925.256 279.268 925.256 280.791 L 925.256 280.791 L 925.256 280.791 Q 925.256 282.607 923.967 284.688 L 923.967 284.688 L 923.967 284.688 Q 922.678 286.768 920.042 288.525 L 920.042 288.525 L 920.042 288.525 Q 917.405 290.283 913.45 291.455 L 913.45 291.455 L 913.45 291.455 Q 909.495 292.627 904.163 292.627 Z " fill-rule="evenodd" fill="rgb(255,255,255)"/><g id="null"><path d=" M 191.141 147.144 L 299.603 147.144 C 311.569 147.144 322.979 151.875 331.397 160.363 C 339.885 168.781 344.616 180.26 344.616 192.157 L 344.616 300.619 C 344.616 312.585 339.885 323.995 331.397 332.483 C 322.979 340.901 311.569 345.632 299.603 345.632 L 191.141 345.632 C 179.174 345.632 167.765 340.901 159.346 332.483 C 150.859 323.995 146.128 312.585 146.128 300.619 L 146.128 192.157 C 146.128 180.26 150.859 168.781 159.346 160.363 C 167.765 151.875 179.174 147.144 191.141 147.144 Z  M 191.141 153.684 L 299.603 153.684 C 309.83 153.684 319.57 157.719 326.805 164.954 C 334.041 172.19 338.076 182 338.076 192.157 L 338.076 300.619 C 338.076 310.846 334.041 320.656 326.805 327.822 C 319.57 335.057 309.83 339.092 299.603 339.092 L 191.141 339.092 C 180.914 339.092 171.174 335.057 163.938 327.822 C 156.703 320.656 152.668 310.846 152.668 300.619 L 152.668 192.157 C 152.668 182 156.703 172.19 163.938 164.954 C 171.174 157.719 180.914 153.684 191.141 153.684 Z " fill-rule="evenodd" fill="rgb(255,255,255)"/><path d="M 207.581 160.906 L 316.045 160.906 C 339.083 160.906 357.788 179.61 357.788 202.649 L 357.788 311.113 C 357.788 334.151 339.083 352.856 316.045 352.856 L 207.581 352.856 C 184.542 352.856 165.838 334.151 165.838 311.113 L 165.838 202.649 C 165.838 179.61 184.542 160.906 207.581 160.906 Z" style="stroke:none;fill:#FFFFFF;stroke-miterlimit:10;"/><path d="M 207.581 160.906 L 316.045 160.906 C 339.083 160.906 357.788 179.61 357.788 202.649 L 357.788 311.113 C 357.788 334.151 339.083 352.856 316.045 352.856 L 207.581 352.856 C 184.542 352.856 165.838 334.151 165.838 311.113 L 165.838 202.649 C 165.838 179.61 184.542 160.906 207.581 160.906 Z" style="fill:none;stroke:#FFFFFF;stroke-width:6.52629366969797;stroke-linejoin:round;stroke-miterlimit:1.414;"/><path d=" M 216.82 282.881 L 232.82 282.881 L 236.82 303.881 L 236.82 303.881 Q 240.42 305.881 246.62 307.381 L 246.62 307.381 L 246.62 307.381 Q 252.82 308.881 258.82 308.881 L 258.82 308.881 L 258.82 308.881 Q 264.82 308.881 270.42 307.381 L 270.42 307.381 L 270.42 307.381 Q 276.02 305.881 280.22 303.081 L 280.22 303.081 L 280.22 303.081 Q 284.42 300.281 286.92 296.381 L 286.92 296.381 L 286.92 296.381 Q 289.42 292.481 289.42 287.481 L 289.42 287.481 L 289.42 287.481 Q 289.42 281.681 286.22 277.781 L 286.22 277.781 L 286.22 277.781 Q 283.02 273.881 277.92 270.981 L 277.92 270.981 L 277.92 270.981 Q 272.82 268.081 266.42 265.881 L 266.42 265.881 L 266.42 265.881 Q 260.02 263.681 253.42 261.281 L 253.42 261.281 L 253.42 261.281 Q 246.42 258.281 239.92 255.181 L 239.92 255.181 L 239.92 255.181 Q 233.42 252.081 228.32 247.581 L 228.32 247.581 L 228.32 247.581 Q 223.22 243.081 220.22 236.681 L 220.22 236.681 L 220.22 236.681 Q 217.22 230.281 217.22 220.881 L 217.22 220.881 L 217.22 220.881 Q 217.22 210.881 221.12 203.481 L 221.12 203.481 L 221.12 203.481 Q 225.02 196.081 231.52 191.281 L 231.52 191.281 L 231.52 191.281 Q 238.02 186.481 246.72 184.181 L 246.72 184.181 L 246.72 184.181 Q 255.42 181.881 265.02 181.881 L 265.02 181.881 L 265.02 181.881 Q 269.42 181.881 274.42 182.481 L 274.42 182.481 L 274.42 182.481 Q 279.42 183.081 284.22 183.981 L 284.22 183.981 L 284.22 183.981 Q 289.02 184.881 293.22 185.981 L 293.22 185.981 L 293.22 185.981 Q 297.42 187.081 300.42 187.881 L 300.42 187.881 L 306.82 189.881 L 305.82 223.881 L 292.82 223.881 L 286.02 202.481 L 286.02 202.481 Q 280.42 200.681 274.92 199.881 L 274.92 199.881 L 274.92 199.881 Q 269.42 199.081 263.62 199.081 L 263.62 199.081 L 263.62 199.081 Q 257.82 199.081 253.12 200.581 L 253.12 200.581 L 253.12 200.581 Q 248.42 202.081 245.12 204.681 L 245.12 204.681 L 245.12 204.681 Q 241.82 207.281 240.02 210.481 L 240.02 210.481 L 240.02 210.481 Q 238.22 213.681 238.22 217.081 L 238.22 217.081 L 238.22 217.081 Q 238.42 225.481 243.82 230.281 L 243.82 230.281 L 243.82 230.281 Q 249.22 235.081 257.22 238.481 L 257.22 238.481 L 257.22 238.481 Q 265.22 241.881 274.52 244.881 L 274.52 244.881 L 274.52 244.881 Q 283.82 247.881 291.72 252.381 L 291.72 252.381 L 291.72 252.381 Q 299.62 256.881 304.92 264.081 L 304.92 264.081 L 304.92 264.081 Q 310.22 271.281 310.22 282.881 L 310.22 282.881 L 310.22 282.881 Q 310.22 293.281 306.22 301.281 L 306.22 301.281 L 306.22 301.281 Q 302.22 309.281 295.22 314.781 L 295.22 314.781 L 295.22 314.781 Q 288.22 320.281 278.62 323.181 L 278.62 323.181 L 278.62 323.181 Q 269.02 326.081 258.02 326.081 L 258.02 326.081 L 258.02 326.081 Q 253.62 326.081 248.52 325.481 L 248.52 325.481 L 248.52 325.481 Q 243.42 324.881 238.52 323.981 L 238.52 323.981 L 238.52 323.981 Q 233.62 323.081 229.42 321.981 L 229.42 321.981 L 229.42 321.981 Q 225.22 320.881 222.42 319.881 L 222.42 319.881 L 216.82 317.881 L 216.82 282.881 Z " fill="rgb(47,47,47)"/></g><rect x="414.019" y="87" width="6" height="326" transform="matrix(1,0,0,1,0,0)" fill="rgb(255,255,255)"/></g></svg>