<?xml version="1.0" encoding="UTF-8" standalone="no"?>
<svg
   xmlns:dc="http://purl.org/dc/elements/1.1/"
   xmlns:cc="http://creativecommons.org/ns#"
   xmlns:rdf="http://www.w3.org/1999/02/22-rdf-syntax-ns#"
   xmlns:svg="http://www.w3.org/2000/svg"
   xmlns="http://www.w3.org/2000/svg"
   xmlns:sodipodi="http://sodipodi.sourceforge.net/DTD/sodipodi-0.dtd"
   xmlns:inkscape="http://www.inkscape.org/namespaces/inkscape"
   id="svg8"
   version="1.1"
   viewBox="0 0 1024 512"
   height="512mm"
   width="1024mm"
   sodipodi:docname="construction_2.svg"
   inkscape:version="0.92.1 r">
  <sodipodi:namedview
     pagecolor="#ffffff"
     bordercolor="#666666"
     borderopacity="1"
     objecttolerance="10"
     gridtolerance="10"
     guidetolerance="10"
     inkscape:pageopacity="0"
     inkscape:pageshadow="2"
     inkscape:window-width="1024"
     inkscape:window-height="768"
     id="namedview4623"
     showgrid="false"
     inkscape:zoom="0.37125408"
     inkscape:cx="2767.5759"
     inkscape:cy="1276.478"
     inkscape:window-x="0"
     inkscape:window-y="0"
     inkscape:window-maximized="1"
     inkscape:current-layer="svg8" />
  <defs
     id="defs2">
    <marker
       style="overflow:visible"
       id="marker6687"
       refX="0"
       refY="0"
       orient="auto">
      <path
         transform="matrix(-0.3,0,0,-0.3,0.69,0)"
         d="M 8.7185878,4.0337352 -2.2072895,0.01601326 8.7185884,-4.0017078 c -1.7454984,2.3720609 -1.7354408,5.6174519 -6e-7,8.035443 z"
         style="fill:#cd5959;fill-opacity:1;fill-rule:evenodd;stroke:#cd5959;stroke-width:0.625;stroke-linejoin:round;stroke-opacity:1"
         id="path6685" />
    </marker>
    <marker
       orient="auto"
       refY="0"
       refX="0"
       id="marker5031"
       style="overflow:visible">
      <path
         id="path5029"
         style="fill:#4f7bc8;fill-opacity:1;fill-rule:evenodd;stroke:#4f7bc8;stroke-width:0.625;stroke-linejoin:round;stroke-opacity:1"
         d="M 8.7185878,4.0337352 -2.2072895,0.01601326 8.7185884,-4.0017078 c -1.7454984,2.3720609 -1.7354408,5.6174519 -6e-7,8.035443 z"
         transform="matrix(-0.3,0,0,-0.3,0.69,0)" />
    </marker>
    <marker
       style="overflow:visible"
       id="Arrow2Send"
       refX="0"
       refY="0"
       orient="auto">
      <path
         transform="matrix(-0.3,0,0,-0.3,0.69,0)"
         d="M 8.7185878,4.0337352 -2.2072895,0.01601326 8.7185884,-4.0017078 c -1.7454984,2.3720609 -1.7354408,5.6174519 -6e-7,8.035443 z"
         style="fill:#68c677;fill-opacity:1;fill-rule:evenodd;stroke:#68c677;stroke-width:0.625;stroke-linejoin:round;stroke-opacity:1"
         id="path4528" />
    </marker>
    <marker
       style="overflow:visible"
       id="EmptyTriangleOutS"
       refX="0"
       refY="0"
       orient="auto">
      <path
         transform="matrix(0.2,0,0,0.2,-0.6,0)"
         style="fill:#ffffff;fill-rule:evenodd;stroke:#66a1c8;stroke-width:1.00000003pt;stroke-opacity:1"
         d="M 5.77,0 -2.88,5 V -5 Z"
         id="path4661" />
    </marker>
    <marker
       style="overflow:visible"
       id="marker4805"
       refX="0"
       refY="0"
       orient="auto">
      <path
         transform="matrix(0.8,0,0,0.8,10,0)"
         style="fill:#66a1c8;fill-opacity:1;fill-rule:evenodd;stroke:#66a1c8;stroke-width:1.00000003pt;stroke-opacity:1"
         d="M 0,0 5,-5 -12.5,0 5,5 Z"
         id="path4803" />
    </marker>
    <marker
       style="overflow:visible"
       id="Arrow1Lend"
       refX="0"
       refY="0"
       orient="auto">
      <path
         transform="matrix(-0.8,0,0,-0.8,-10,0)"
         style="fill:#66a1c8;fill-opacity:1;fill-rule:evenodd;stroke:#66a1c8;stroke-width:1.00000003pt;stroke-opacity:1"
         d="M 0,0 5,-5 -12.5,0 5,5 Z"
         id="path4498" />
    </marker>
    <marker
       style="overflow:visible"
       id="Arrow1Lstart"
       refX="0"
       refY="0"
       orient="auto">
      <path
         transform="matrix(0.8,0,0,0.8,10,0)"
         style="fill:#66a1c8;fill-opacity:1;fill-rule:evenodd;stroke:#66a1c8;stroke-width:1.00000003pt;stroke-opacity:1"
         d="M 0,0 5,-5 -12.5,0 5,5 Z"
         id="path4495" />
    </marker>
  </defs>
  <metadata
     id="metadata5">
    <rdf:RDF>
      <cc:Work
         rdf:about="">
        <dc:format>image/svg+xml</dc:format>
        <dc:type
           rdf:resource="http://purl.org/dc/dcmitype/StillImage" />
        <dc:title />
      </cc:Work>
    </rdf:RDF>
  </metadata>
  <path
     style="fill:none;stroke:#b4b4b4;stroke-width:3;stroke-linecap:butt;stroke-linejoin:miter;stroke-opacity:1;stroke-miterlimit:4;stroke-dasharray:6,6;stroke-dashoffset:6"
     d="M 805.67857,136.06417 V 267.19628"
     id="path4625"
     inkscape:connector-curvature="0" />
  <g
     style="display:inline"
     transform="translate(0,215)"
     id="layer1">
    <path
       d="m 698.77296,28.416228 a 33.761021,33.761021 0 0 1 9.89711,23.865395 l -33.76101,0.016 z"
       id="path11408"
       style="opacity:0.93399999;fill:#505050;fill-opacity:0.00492614;fill-rule:evenodd;stroke:#000000;stroke-width:5;stroke-linecap:butt;stroke-linejoin:round;stroke-miterlimit:4.52499962;stroke-dasharray:none;stroke-dashoffset:0;stroke-opacity:1;paint-order:normal" />
    <path
       id="path4493"
       d="M 674.90907,52.297623 800.41558,-73.208857"
       style="fill:none;stroke:#68c677;stroke-width:5;stroke-linecap:butt;stroke-linejoin:miter;stroke-miterlimit:4.52499962;stroke-dasharray:none;stroke-opacity:1;marker-end:url(#Arrow2Send)" />
    <path
       style="fill:none;stroke:#4f7bc8;stroke-width:5;stroke-linecap:butt;stroke-linejoin:miter;stroke-miterlimit:4.52499962;stroke-dasharray:none;stroke-opacity:1;marker-end:url(#marker5031)"
       d="M 674.90907,52.297623 V -73.208857"
       id="path5027" />
    <path
       id="path6683"
       d="M 674.90907,52.297623 H 800.41558"
       style="fill:none;stroke:#cd5959;stroke-width:5;stroke-linecap:butt;stroke-linejoin:miter;stroke-miterlimit:4.52499962;stroke-dasharray:none;stroke-opacity:1;marker-end:url(#marker6687)" />
    <path
       id="path3686"
       d="M 0,216.86906 H 186.18184 L 418.90911,-15.858204 H 605.09093 L 837.8182,216.86906 H 1024"
       style="fill:none;stroke:#000000;stroke-width:5;stroke-linecap:butt;stroke-linejoin:miter;stroke-miterlimit:4.52499962;stroke-dasharray:none;stroke-opacity:1" />
    <g
       id="flowRoot11123"
       style="font-style:normal;font-variant:normal;font-weight:normal;font-stretch:normal;font-size:93.33333588px;line-height:25px;font-family:'Droid Serif';-inkscape-font-specification:'Droid Serif, Normal';font-variant-ligatures:normal;font-variant-caps:normal;font-variant-numeric:normal;font-feature-settings:normal;text-align:start;letter-spacing:0px;word-spacing:0px;writing-mode:lr-tb;text-anchor:start;fill:#000000;fill-opacity:1;stroke:none"
       transform="matrix(0.26458333,0,0,0.26458333,1.0690781,-195.75659)"
       aria-label="N">
      <path
         id="path11313"
         style=""
         d="m 3111.8346,436.65792 -35,-53.77605 v 43.15756 q 0,2.1875 0.5925,3.50911 0.638,1.32162 1.6406,2.05078 1.0482,0.6836 2.4609,0.91146 1.4128,0.22787 2.9623,0.22787 h 1.2305 v 3.91927 h -23.4245 v -3.91927 h 1.1849 q 1.595,0 2.9622,-0.22787 1.4128,-0.22786 2.4609,-0.91146 1.0482,-0.72916 1.6407,-2.05078 0.5924,-1.32161 0.5924,-3.50911 v -45.75521 q 0,-2.05078 -0.638,-3.28125 -0.5924,-1.27604 -1.6406,-1.95964 -1.0482,-0.68359 -2.461,-0.86588 -1.3671,-0.22787 -2.9166,-0.22787 h -1.1849 v -3.91927 h 17.0898 l 33.405,51.58854 v -41.33463 q 0,-2.05078 -0.6381,-3.28125 -0.5924,-1.27604 -1.6406,-1.95964 -1.0482,-0.68359 -2.4609,-0.86588 -1.3672,-0.22787 -2.9167,-0.22787 h -1.2305 v -3.91927 h 23.4245 v 3.91927 h -1.1849 q -1.595,0 -3.0078,0.22787 -1.3672,0.22786 -2.4153,0.95703 -1.0482,0.68359 -1.6407,2.00521 -0.5924,1.32161 -0.5924,3.50911 v 56.00912 z" />
    </g>
    <g
       id="flowRoot11131"
       style="font-style:normal;font-variant:normal;font-weight:normal;font-stretch:normal;font-size:93.33333588px;line-height:25px;font-family:'Droid Serif';-inkscape-font-specification:'Droid Serif, Normal';font-variant-ligatures:normal;font-variant-caps:normal;font-variant-numeric:normal;font-feature-settings:normal;text-align:start;letter-spacing:0px;word-spacing:0px;writing-mode:lr-tb;text-anchor:start;fill:#000000;fill-opacity:1;stroke:none"
       transform="matrix(0.26458333,0,0,0.26458333,93.009796,-19.893245)"
       aria-label="Nx">
      <path
         id="path11316"
         style=""
         d="m 2776.4635,325.54268 -35,-53.77604 v 43.15755 q 0,2.1875 0.5925,3.50912 0.638,1.32161 1.6406,2.05078 1.0482,0.68359 2.461,0.91146 1.4127,0.22786 2.9622,0.22786 h 1.2305 v 3.91927 h -23.4245 v -3.91927 h 1.1849 q 1.595,0 2.9622,-0.22786 1.4128,-0.22787 2.461,-0.91146 1.0481,-0.72917 1.6406,-2.05078 0.5924,-1.32162 0.5924,-3.50912 v -45.75521 q 0,-2.05078 -0.638,-3.28125 -0.5924,-1.27604 -1.6406,-1.95963 -1.0482,-0.6836 -2.461,-0.86589 -1.3671,-0.22786 -2.9166,-0.22786 h -1.1849 v -3.91927 h 17.0898 l 33.405,51.58854 v -41.33464 q 0,-2.05078 -0.638,-3.28125 -0.5925,-1.27604 -1.6407,-1.95963 -1.0481,-0.6836 -2.4609,-0.86589 -1.3672,-0.22786 -2.9167,-0.22786 h -1.2304 v -3.91927 h 23.4244 v 3.91927 h -1.1849 q -1.595,0 -3.0078,0.22786 -1.3672,0.22787 -2.4153,0.95703 -1.0482,0.6836 -1.6407,2.00521 -0.5924,1.32162 -0.5924,3.50912 v 56.00911 z" />
      <path
         id="path11318"
         style="font-style:normal;font-variant:normal;font-weight:normal;font-stretch:normal;font-size:93.33333588px;font-family:'Droid Serif';-inkscape-font-specification:'Droid Serif, Normal';font-variant-ligatures:normal;font-variant-caps:normal;font-variant-numeric:normal;font-feature-settings:normal;text-align:start;writing-mode:lr-tb;baseline-shift:sub;text-anchor:start"
         d="m 2830.4675,300.82393 q 0,-1.68619 -1.4584,-2.1875 -1.4127,-0.54687 -3.5547,-0.54687 h -0.2734 v -3.91927 h 20.4167 v 3.91927 h -0.8203 q -1.3672,0 -2.5066,0.22786 -1.0937,0.22787 -2.1875,0.86589 -1.0481,0.63802 -2.1875,1.82291 -1.1393,1.1849 -2.552,3.05339 l -9.6159,12.80599 13.7174,18.45703 q 2.0508,2.73438 3.8737,3.8737 1.8685,1.09375 3.6003,1.09375 h 1.2304 v 3.91927 h -24.108 v -3.91927 h 0.4557 q 5.6055,0 5.6055,-3.09896 0,-0.5013 -0.1367,-1.0026 -0.1368,-0.54688 -0.5469,-1.23047 -0.4102,-0.72917 -1.0938,-1.73177 -0.6836,-1.00261 -1.7773,-2.46094 l -6.2435,-8.38542 -6.5169,9.11459 q -0.4102,0.54687 -0.8659,1.27604 -0.4557,0.72917 -0.8203,1.5039 -0.3646,0.77474 -0.5925,1.59506 -0.2278,0.77474 -0.2278,1.5039 0,1.59506 1.3216,2.27865 1.3216,0.63802 4.4661,0.63802 h 0.2735 v 3.91927 h -22.2396 v -3.91927 h 0.8659 q 1.6862,0 2.9622,-0.27344 1.276,-0.27344 2.4154,-0.95703 1.1393,-0.68359 2.2786,-1.82292 1.1393,-1.18489 2.5065,-2.91666 l 11.7578,-15.22136 -11.7578,-16.04166 q -2.0508,-2.41537 -4.0104,-3.69141 -1.9141,-1.27604 -4.0104,-1.27604 h -1.2305 v -3.91927 h 23.6979 v 3.91927 h -0.2734 q -1.5951,0 -2.6432,0.22786 -1.0482,0.18229 -1.6407,0.59245 -0.5924,0.36458 -0.8203,0.86589 -0.2278,0.5013 -0.2278,1.04817 0,0.95703 0.5468,1.91407 0.5925,0.91145 1.6407,2.36979 l 6.1523,8.38541 4.8307,-6.97265 q 1.0482,-1.59505 1.6862,-3.00781 0.6381,-1.41277 0.6381,-2.68881 z" />
    </g>
    <g
       id="flowRoot11141"
       style="font-style:normal;font-variant:normal;font-weight:normal;font-stretch:normal;font-size:93.33333588px;line-height:25px;font-family:'Droid Serif';-inkscape-font-specification:'Droid Serif, Normal';font-variant-ligatures:normal;font-variant-caps:normal;font-variant-numeric:normal;font-feature-settings:normal;text-align:start;letter-spacing:0px;word-spacing:0px;writing-mode:lr-tb;text-anchor:start;fill:#000000;fill-opacity:1;stroke:none"
       transform="matrix(0.26458333,0,0,0.26458333,-43.832202,-237.98518)"
       aria-label="Nz">
      <path
         id="path11308"
         style=""
         d="m 2713.8346,557.87667 -35,-53.77605 v 43.15756 q 0,2.1875 0.5925,3.50911 0.638,1.32162 1.6406,2.05078 1.0482,0.6836 2.4609,0.91146 1.4128,0.22787 2.9623,0.22787 h 1.2305 v 3.91927 h -23.4245 v -3.91927 h 1.1849 q 1.595,0 2.9622,-0.22787 1.4128,-0.22786 2.4609,-0.91146 1.0482,-0.72916 1.6407,-2.05078 0.5924,-1.32161 0.5924,-3.50911 v -45.75521 q 0,-2.05078 -0.638,-3.28125 -0.5924,-1.27604 -1.6406,-1.95964 -1.0482,-0.68359 -2.461,-0.86588 -1.3671,-0.22787 -2.9166,-0.22787 h -1.1849 v -3.91927 h 17.0898 l 33.405,51.58854 v -41.33463 q 0,-2.05078 -0.6381,-3.28125 -0.5924,-1.27604 -1.6406,-1.95964 -1.0482,-0.68359 -2.4609,-0.86588 -1.3672,-0.22787 -2.9167,-0.22787 h -1.2305 v -3.91927 h 23.4245 v 3.91927 h -1.1849 q -1.595,0 -3.0078,0.22787 -1.3672,0.22786 -2.4153,0.95703 -1.0482,0.68359 -1.6407,2.00521 -0.5924,1.32161 -0.5924,3.50911 v 56.00912 z" />
      <path
         id="path11310"
         style="font-style:normal;font-variant:normal;font-weight:normal;font-stretch:normal;font-size:93.33333588px;font-family:'Droid Serif';-inkscape-font-specification:'Droid Serif, Normal';font-variant-ligatures:normal;font-variant-caps:normal;font-variant-numeric:normal;font-feature-settings:normal;text-align:start;writing-mode:lr-tb;baseline-shift:sub;text-anchor:start"
         d="m 2763.737,571.2113 q 1.6406,0 2.6888,-0.63802 1.0937,-0.63802 1.7773,-1.68619 0.7292,-1.04818 1.1394,-2.41537 0.4557,-1.41276 0.7747,-2.91667 l 0.4557,-2.14192 h 3.9193 l -0.4557,15.13021 h -38.099 v -3.73698 l 27.0703,-40.97006 h -14.5833 q -1.8229,0 -3.0078,0.5013 -1.1849,0.45573 -1.9597,1.41277 -0.7291,0.95703 -1.2304,2.36979 -0.4558,1.41276 -0.9571,3.28125 l -0.091,0.36458 h -3.9193 l 0.9115,-13.26172 h 35.7747 v 3.82813 l -27.1614,40.8789 z" />
    </g>
    <g
       id="flowRoot11400"
       style="font-style:normal;font-variant:normal;font-weight:normal;font-stretch:normal;font-size:93.33333588px;line-height:25px;font-family:'Droid Serif';-inkscape-font-specification:'Droid Serif, Normal';font-variant-ligatures:normal;font-variant-caps:normal;font-variant-numeric:normal;font-feature-settings:normal;text-align:start;letter-spacing:0px;word-spacing:0px;writing-mode:lr-tb;text-anchor:start;fill:#000000;fill-opacity:1;stroke:none"
       transform="matrix(0.26458333,0,0,0.26458333,147.06866,-275.12221)"
       aria-label="α">
      <path
         id="path11461"
         style=""
         d="m 2174.4186,1149.2093 v 36.3217 q 0.091,6.3802 3.6459,6.3802 0.8658,0 1.5494,-0.2279 l 1.0482,6.2435 q -2.1875,1.5495 -5.5599,1.5495 -6.6992,0 -8.431,-7.5196 -4.8763,7.5196 -14.401,7.5196 -8.75,0 -13.9453,-6.4258 -5.1953,-6.4714 -5.1953,-17.5912 v -0.6835 q 0,-12.0313 5.1497,-19.2318 5.1497,-7.2461 14.082,-7.2461 9.2513,0 14.1276,7.3372 l 0.7748,-6.4258 z m -32.8581,26.5235 q 0,7.9752 3.3269,12.4414 3.3268,4.4206 9.4791,4.4206 7.8842,0 11.6211,-8.4766 v -20.3255 q -3.8737,-8.5677 -11.5299,-8.5677 -6.1068,0 -9.5248,5.1953 -3.3724,5.1497 -3.3724,15.3125 z" />
    </g>
  </g>
</svg>
