<?xml version="1.0" standalone="no"?><!-- Generator: Gravit.io --><svg xmlns="http://www.w3.org/2000/svg" xmlns:xlink="http://www.w3.org/1999/xlink" style="isolation:isolate" viewBox="0 0 1280 960" width="1280" height="960"><linearGradient id="_lgradient_44" x1="49.999999999999986%" y1="0%" x2="49.99999999999999%" y2="100%"><stop offset="0%" stop-opacity="1" style="stop-color:rgb(227,58,58)"/><stop offset="100%" stop-opacity="1" style="stop-color:rgb(162,39,39)"/></linearGradient><rect x="279.9726829268293" y="77" width="200.0000000000001" height="20" transform="matrix(1,0,0,1,0,0)" fill="url(#_lgradient_44)"/><linearGradient id="_lgradient_45" x1="49.99999999999999%" y1="0%" x2="50%" y2="100%"><stop offset="0%" stop-opacity="1" style="stop-color:rgb(58,109,227)"/><stop offset="99.1304347826087%" stop-opacity="1" style="stop-color:rgb(46,85,176)"/></linearGradient><rect x="759.9726829268293" y="77" width="120" height="20" transform="matrix(1,0,0,1,0,0)" fill="url(#_lgradient_45)"/><line x1="149.9726829268293" y1="108.49999999999994" x2="1129.9726829268293" y2="108.49999999999994" vector-effect="non-scaling-stroke" stroke-width="4" stroke="rgb(19,19,19)" stroke-linejoin="miter" stroke-linecap="square" stroke-miterlimit="3"/><path d=" M 631 108.48878048780489 C 631 104.34941783780489 634.36063735 100.98878048780489 638.5 100.98878048780489 C 642.63936265 100.98878048780489 646 104.34941783780488 646 108.48878048780489 C 646 112.62814313780488 642.63936265 115.98878048780489 638.5 115.98878048780489 C 634.36063735 115.98878048780489 631 112.62814313780488 631 108.48878048780489 Z " fill="rgb(19,19,19)"/><line x1="199.9726829268293" y1="103.26520873258465" x2="199.9726829268293" y2="115.26520873258465" vector-effect="non-scaling-stroke" stroke-width="2" stroke="rgb(0,0,0)" stroke-linejoin="miter" stroke-linecap="square" stroke-miterlimit="3"/><line x1="239.9726829268293" y1="103.26520873258465" x2="239.9726829268293" y2="115.26520873258465" vector-effect="non-scaling-stroke" stroke-width="2" stroke="rgb(0,0,0)" stroke-linejoin="miter" stroke-linecap="square" stroke-miterlimit="3"/><line x1="279.9726829268293" y1="103.26520873258465" x2="279.9726829268293" y2="115.26520873258465" vector-effect="non-scaling-stroke" stroke-width="2" stroke="rgb(0,0,0)" stroke-linejoin="miter" stroke-linecap="square" stroke-miterlimit="3"/><line x1="319.9726829268293" y1="103.26520873258465" x2="319.9726829268293" y2="115.26520873258465" vector-effect="non-scaling-stroke" stroke-width="2" stroke="rgb(0,0,0)" stroke-linejoin="miter" stroke-linecap="square" stroke-miterlimit="3"/><line x1="359.9726829268293" y1="103.26520873258465" x2="359.9726829268293" y2="115.26520873258465" vector-effect="non-scaling-stroke" stroke-width="2" stroke="rgb(0,0,0)" stroke-linejoin="miter" stroke-linecap="square" stroke-miterlimit="3"/><line x1="399.9726829268293" y1="103.26520873258465" x2="399.9726829268293" y2="115.26520873258465" vector-effect="non-scaling-stroke" stroke-width="2" stroke="rgb(0,0,0)" stroke-linejoin="miter" stroke-linecap="square" stroke-miterlimit="3"/><line x1="439.9726829268293" y1="103.26520873258465" x2="439.9726829268293" y2="115.26520873258465" vector-effect="non-scaling-stroke" stroke-width="2" stroke="rgb(0,0,0)" stroke-linejoin="miter" stroke-linecap="square" stroke-miterlimit="3"/><line x1="479.9726829268293" y1="103.26520873258465" x2="479.9726829268293" y2="115.26520873258465" vector-effect="non-scaling-stroke" stroke-width="2" stroke="rgb(0,0,0)" stroke-linejoin="miter" stroke-linecap="square" stroke-miterlimit="3"/><line x1="519.9726829268293" y1="103.26520873258465" x2="519.9726829268293" y2="115.26520873258465" vector-effect="non-scaling-stroke" stroke-width="2" stroke="rgb(0,0,0)" stroke-linejoin="miter" stroke-linecap="square" stroke-miterlimit="3"/><line x1="559.9726829268293" y1="103.26520873258465" x2="559.9726829268293" y2="115.26520873258465" vector-effect="non-scaling-stroke" stroke-width="2" stroke="rgb(0,0,0)" stroke-linejoin="miter" stroke-linecap="square" stroke-miterlimit="3"/><line x1="599.9726829268293" y1="103.26520873258465" x2="599.9726829268293" y2="115.26520873258465" vector-effect="non-scaling-stroke" stroke-width="2" stroke="rgb(0,0,0)" stroke-linejoin="miter" stroke-linecap="square" stroke-miterlimit="3"/><line x1="679.9726829268293" y1="102.49999999999994" x2="679.9726829268293" y2="114.49999999999994" vector-effect="non-scaling-stroke" stroke-width="2" stroke="rgb(0,0,0)" stroke-linejoin="miter" stroke-linecap="square" stroke-miterlimit="3"/><line x1="719.9726829268293" y1="102.49999999999994" x2="719.9726829268293" y2="114.49999999999994" vector-effect="non-scaling-stroke" stroke-width="2" stroke="rgb(0,0,0)" stroke-linejoin="miter" stroke-linecap="square" stroke-miterlimit="3"/><line x1="759.9726829268293" y1="102.49999999999994" x2="759.9726829268293" y2="114.49999999999994" vector-effect="non-scaling-stroke" stroke-width="2" stroke="rgb(0,0,0)" stroke-linejoin="miter" stroke-linecap="square" stroke-miterlimit="3"/><line x1="799.9726829268293" y1="102.49999999999994" x2="799.9726829268293" y2="114.49999999999994" vector-effect="non-scaling-stroke" stroke-width="2" stroke="rgb(0,0,0)" stroke-linejoin="miter" stroke-linecap="square" stroke-miterlimit="3"/><line x1="839.9726829268293" y1="102.49999999999994" x2="839.9726829268293" y2="114.49999999999994" vector-effect="non-scaling-stroke" stroke-width="2" stroke="rgb(0,0,0)" stroke-linejoin="miter" stroke-linecap="square" stroke-miterlimit="3"/><line x1="879.9726829268293" y1="102.49999999999994" x2="879.9726829268293" y2="114.49999999999994" vector-effect="non-scaling-stroke" stroke-width="2" stroke="rgb(0,0,0)" stroke-linejoin="miter" stroke-linecap="square" stroke-miterlimit="3"/><line x1="919.9726829268293" y1="102.49999999999994" x2="919.9726829268293" y2="114.49999999999994" vector-effect="non-scaling-stroke" stroke-width="2" stroke="rgb(0,0,0)" stroke-linejoin="miter" stroke-linecap="square" stroke-miterlimit="3"/><line x1="959.9726829268293" y1="102.49999999999994" x2="959.9726829268293" y2="114.49999999999994" vector-effect="non-scaling-stroke" stroke-width="2" stroke="rgb(0,0,0)" stroke-linejoin="miter" stroke-linecap="square" stroke-miterlimit="3"/><line x1="999.9726829268293" y1="102.49999999999994" x2="999.9726829268293" y2="114.49999999999994" vector-effect="non-scaling-stroke" stroke-width="2" stroke="rgb(0,0,0)" stroke-linejoin="miter" stroke-linecap="square" stroke-miterlimit="3"/><line x1="1039.9726829268293" y1="102.49999999999994" x2="1039.9726829268293" y2="114.49999999999994" vector-effect="non-scaling-stroke" stroke-width="2" stroke="rgb(0,0,0)" stroke-linejoin="miter" stroke-linecap="square" stroke-miterlimit="3"/><line x1="1079.9726829268293" y1="102.49999999999994" x2="1079.9726829268293" y2="114.49999999999994" vector-effect="non-scaling-stroke" stroke-width="2" stroke="rgb(0,0,0)" stroke-linejoin="miter" stroke-linecap="square" stroke-miterlimit="3"/><path d=" M 1130 100.98878048780483 L 1130 117.4173519163761 L 1150 109.20306620209047 L 1130 100.98878048780483 Z " fill="rgb(19,19,19)"/><path d=" M 149.9726829268293 100.27449477351911 L 149.9726829268293 116.70306620209053 L 129.9726829268293 108.48878048780483 L 149.9726829268293 100.27449477351911 Z " fill="rgb(19,19,19)"/><linearGradient id="_lgradient_46" x1="50%" y1="0%" x2="50.000000000000014%" y2="100%"><stop offset="0%" stop-opacity="1" style="stop-color:rgb(227,58,58)"/><stop offset="100%" stop-opacity="1" style="stop-color:rgb(162,39,39)"/></linearGradient><rect x="639.9863414634146" y="231.27823461091742" width="200" height="20" transform="matrix(1,0,0,1,0,0)" fill="url(#_lgradient_46)"/><linearGradient id="_lgradient_47" x1="50%" y1="0%" x2="50.000000000000014%" y2="100%"><stop offset="0%" stop-opacity="1" style="stop-color:rgb(58,109,227)"/><stop offset="99.1304347826087%" stop-opacity="1" style="stop-color:rgb(46,85,176)"/></linearGradient><rect x="760" y="263.2782346109174" width="120" height="20" transform="matrix(1,0,0,1,0,0)" fill="url(#_lgradient_47)"/><line x1="149.9726829268293" y1="299.5037398373982" x2="1129.9726829268293" y2="299.5037398373982" vector-effect="non-scaling-stroke" stroke-width="4" stroke="rgb(19,19,19)" stroke-linejoin="miter" stroke-linecap="square" stroke-miterlimit="3"/><path d=" M 631 299.4925203252031 C 631 295.3531576752031 634.36063735 291.9925203252031 638.5 291.9925203252031 C 642.63936265 291.9925203252031 646 295.3531576752031 646 299.4925203252031 C 646 303.6318829752031 642.63936265 306.9925203252031 638.5 306.9925203252031 C 634.36063735 306.9925203252031 631 303.6318829752031 631 299.4925203252031 Z " fill="rgb(19,19,19)"/><line x1="199.9726829268293" y1="294.2689485699829" x2="199.9726829268293" y2="306.2689485699829" vector-effect="non-scaling-stroke" stroke-width="2" stroke="rgb(0,0,0)" stroke-linejoin="miter" stroke-linecap="square" stroke-miterlimit="3"/><line x1="239.9726829268293" y1="294.2689485699829" x2="239.9726829268293" y2="306.2689485699829" vector-effect="non-scaling-stroke" stroke-width="2" stroke="rgb(0,0,0)" stroke-linejoin="miter" stroke-linecap="square" stroke-miterlimit="3"/><line x1="279.9726829268293" y1="294.2689485699829" x2="279.9726829268293" y2="306.2689485699829" vector-effect="non-scaling-stroke" stroke-width="2" stroke="rgb(0,0,0)" stroke-linejoin="miter" stroke-linecap="square" stroke-miterlimit="3"/><line x1="319.9726829268293" y1="294.2689485699829" x2="319.9726829268293" y2="306.2689485699829" vector-effect="non-scaling-stroke" stroke-width="2" stroke="rgb(0,0,0)" stroke-linejoin="miter" stroke-linecap="square" stroke-miterlimit="3"/><line x1="359.9726829268293" y1="294.2689485699829" x2="359.9726829268293" y2="306.2689485699829" vector-effect="non-scaling-stroke" stroke-width="2" stroke="rgb(0,0,0)" stroke-linejoin="miter" stroke-linecap="square" stroke-miterlimit="3"/><line x1="399.9726829268293" y1="294.2689485699829" x2="399.9726829268293" y2="306.2689485699829" vector-effect="non-scaling-stroke" stroke-width="2" stroke="rgb(0,0,0)" stroke-linejoin="miter" stroke-linecap="square" stroke-miterlimit="3"/><line x1="439.9726829268293" y1="294.2689485699829" x2="439.9726829268293" y2="306.2689485699829" vector-effect="non-scaling-stroke" stroke-width="2" stroke="rgb(0,0,0)" stroke-linejoin="miter" stroke-linecap="square" stroke-miterlimit="3"/><line x1="479.9726829268293" y1="294.2689485699829" x2="479.9726829268293" y2="306.2689485699829" vector-effect="non-scaling-stroke" stroke-width="2" stroke="rgb(0,0,0)" stroke-linejoin="miter" stroke-linecap="square" stroke-miterlimit="3"/><line x1="519.9726829268293" y1="294.2689485699829" x2="519.9726829268293" y2="306.2689485699829" vector-effect="non-scaling-stroke" stroke-width="2" stroke="rgb(0,0,0)" stroke-linejoin="miter" stroke-linecap="square" stroke-miterlimit="3"/><line x1="559.9726829268293" y1="294.2689485699829" x2="559.9726829268293" y2="306.2689485699829" vector-effect="non-scaling-stroke" stroke-width="2" stroke="rgb(0,0,0)" stroke-linejoin="miter" stroke-linecap="square" stroke-miterlimit="3"/><line x1="599.9726829268293" y1="294.2689485699829" x2="599.9726829268293" y2="306.2689485699829" vector-effect="non-scaling-stroke" stroke-width="2" stroke="rgb(0,0,0)" stroke-linejoin="miter" stroke-linecap="square" stroke-miterlimit="3"/><line x1="679.9726829268293" y1="293.5037398373982" x2="679.9726829268293" y2="305.5037398373982" vector-effect="non-scaling-stroke" stroke-width="2" stroke="rgb(0,0,0)" stroke-linejoin="miter" stroke-linecap="square" stroke-miterlimit="3"/><line x1="719.9726829268293" y1="293.5037398373982" x2="719.9726829268293" y2="305.5037398373982" vector-effect="non-scaling-stroke" stroke-width="2" stroke="rgb(0,0,0)" stroke-linejoin="miter" stroke-linecap="square" stroke-miterlimit="3"/><line x1="759.9726829268293" y1="293.5037398373982" x2="759.9726829268293" y2="305.5037398373982" vector-effect="non-scaling-stroke" stroke-width="2" stroke="rgb(0,0,0)" stroke-linejoin="miter" stroke-linecap="square" stroke-miterlimit="3"/><line x1="799.9726829268293" y1="293.5037398373982" x2="799.9726829268293" y2="305.5037398373982" vector-effect="non-scaling-stroke" stroke-width="2" stroke="rgb(0,0,0)" stroke-linejoin="miter" stroke-linecap="square" stroke-miterlimit="3"/><line x1="839.9726829268293" y1="293.5037398373982" x2="839.9726829268293" y2="305.5037398373982" vector-effect="non-scaling-stroke" stroke-width="2" stroke="rgb(0,0,0)" stroke-linejoin="miter" stroke-linecap="square" stroke-miterlimit="3"/><line x1="879.9726829268293" y1="293.5037398373982" x2="879.9726829268293" y2="305.5037398373982" vector-effect="non-scaling-stroke" stroke-width="2" stroke="rgb(0,0,0)" stroke-linejoin="miter" stroke-linecap="square" stroke-miterlimit="3"/><line x1="919.9726829268293" y1="293.5037398373982" x2="919.9726829268293" y2="305.5037398373982" vector-effect="non-scaling-stroke" stroke-width="2" stroke="rgb(0,0,0)" stroke-linejoin="miter" stroke-linecap="square" stroke-miterlimit="3"/><line x1="959.9726829268293" y1="293.5037398373982" x2="959.9726829268293" y2="305.5037398373982" vector-effect="non-scaling-stroke" stroke-width="2" stroke="rgb(0,0,0)" stroke-linejoin="miter" stroke-linecap="square" stroke-miterlimit="3"/><line x1="999.9726829268293" y1="293.5037398373982" x2="999.9726829268293" y2="305.5037398373982" vector-effect="non-scaling-stroke" stroke-width="2" stroke="rgb(0,0,0)" stroke-linejoin="miter" stroke-linecap="square" stroke-miterlimit="3"/><line x1="1039.9726829268293" y1="293.5037398373982" x2="1039.9726829268293" y2="305.5037398373982" vector-effect="non-scaling-stroke" stroke-width="2" stroke="rgb(0,0,0)" stroke-linejoin="miter" stroke-linecap="square" stroke-miterlimit="3"/><line x1="1079.9726829268293" y1="293.5037398373982" x2="1079.9726829268293" y2="305.5037398373982" vector-effect="non-scaling-stroke" stroke-width="2" stroke="rgb(0,0,0)" stroke-linejoin="miter" stroke-linecap="square" stroke-miterlimit="3"/><path d=" M 1130 291.99252032520315 L 1130 308.4210917537745 L 1150 300.2068060394888 L 1130 291.99252032520315 Z " fill="rgb(19,19,19)"/><path d=" M 149.9726829268293 291.2782346109174 L 149.9726829268293 307.7068060394888 L 129.9726829268293 299.49252032520315 L 149.9726829268293 291.2782346109174 Z " fill="rgb(19,19,19)"/><path d=" M 747.140625 348.1219846109174 L 741.41015625 348.1219846109174 L 741.41015625 346.3172971109174 L 747.140625 346.3172971109174 L 747.140625 348.1219846109174 Z  M 754.93359375 352.8680783609174 Q 756.59765625 352.8680783609174 757.564453125 351.5965939859174 Q 758.53125 350.3251096109174 758.56640625 347.5008908609174 L 758.51953125 347.4422971109174 Q 758.05078125 348.2274533609174 757.20703125 348.6493283609174 Q 756.36328125 349.0712033609174 755.30859375 349.0712033609174 Q 752.8125 349.0712033609174 751.37109375 347.5301877359174 Q 749.9296875 345.9891721109174 749.9296875 343.2001096109174 Q 749.9296875 340.5282346109174 751.470703125 338.8231564859174 Q 753.01171875 337.1180783609174 755.21484375 337.1180783609174 Q 757.88671875 337.1180783609174 759.427734375 338.7880002359174 Q 760.96875 340.4579221109174 760.96875 343.7274533609174 L 760.96875 346.8094846109174 Q 760.96875 350.8055783609174 759.322265625 352.7391721109174 Q 757.67578125 354.6727658609174 754.93359375 354.6727658609174 Q 754.04296875 354.6727658609174 753.111328125 354.5028439859174 Q 752.1796875 354.3329221109174 751.44140625 353.9813596109174 L 751.79296875 352.2352658609174 Q 752.5078125 352.5751096109174 753.251953125 352.7215939859174 Q 753.99609375 352.8680783609174 754.93359375 352.8680783609174 Z  M 755.30859375 347.2547971109174 Q 756.5859375 347.2547971109174 757.435546875 346.7040158609174 Q 758.28515625 346.1532346109174 758.66015625 345.2977658609174 L 758.66015625 343.4930783609174 Q 758.66015625 341.2313596109174 757.798828125 340.0829221109174 Q 756.9375 338.9344846109174 755.28515625 338.9344846109174 Q 754.0078125 338.9344846109174 753.123046875 340.1297971109174 Q 752.23828125 341.3251096109174 752.23828125 343.2001096109174 Q 752.23828125 345.0399533609174 753.05859375 346.1473752359174 Q 753.87890625 347.2547971109174 755.30859375 347.2547971109174 Z  M 731.9296875 344.7821408609174 L 722.15625 344.7821408609174 L 722.15625 342.8602658609174 L 731.9296875 342.8602658609174 L 731.9296875 344.7821408609174 Z  M 731.9296875 349.6571408609174 L 722.15625 349.6571408609174 L 722.15625 347.7352658609174 L 731.9296875 347.7352658609174 L 731.9296875 349.6571408609174 Z  M 688.62890625 352.9501096109174 L 690.1640625 352.6922971109174 L 695.015625 345.8251096109174 L 690.28125 339.1102658609174 L 688.74609375 338.8524533609174 L 688.74609375 337.3641721109174 L 694.27734375 337.3641721109174 L 694.27734375 338.8524533609174 L 692.90625 339.0047971109174 L 696.31640625 344.1258908609174 L 699.76171875 339.0047971109174 L 698.390625 338.8524533609174 L 698.390625 337.3641721109174 L 703.95703125 337.3641721109174 L 703.95703125 338.8524533609174 L 702.421875 339.1102658609174 L 697.6875 345.8251096109174 L 702.52734375 352.6922971109174 L 704.07421875 352.9501096109174 L 704.07421875 354.4266721109174 L 698.5546875 354.4266721109174 L 698.5546875 352.9501096109174 L 699.90234375 352.7977658609174 L 696.36328125 347.5477658609174 L 692.8125 352.7977658609174 L 694.18359375 352.9501096109174 L 694.18359375 354.4266721109174 L 688.62890625 354.4266721109174 L 688.62890625 352.9501096109174 Z  M 705.99609375 352.9501096109174 L 708.6328125 352.6219846109174 L 708.6328125 339.8368283609174 L 705.94921875 339.8837033609174 L 705.94921875 338.4422971109174 L 710.94140625 337.3641721109174 L 710.94140625 352.6219846109174 L 713.56640625 352.9501096109174 L 713.56640625 354.4266721109174 L 705.99609375 354.4266721109174 L 705.99609375 352.9501096109174 Z  M 561.62109375 345.7313596109174 L 559.88671875 345.7313596109174 L 559.51171875 344.2079221109174 Q 559.08984375 343.8094846109174 558.451171875 343.5692502359174 Q 557.8125 343.3290158609174 557.00390625 343.3290158609174 Q 555.7734375 343.3290158609174 555.17578125 343.8680783609174 Q 554.578125 344.4071408609174 554.578125 345.1688596109174 Q 554.578125 345.9188596109174 555.10546875 346.3524533609174 Q 555.6328125 346.7860471109174 557.25 347.1258908609174 Q 559.65234375 347.6415158609174 560.82421875 348.5262814859174 Q 561.99609375 349.4110471109174 561.99609375 350.8993283609174 Q 561.99609375 352.5868283609174 560.630859375 353.6297971109174 Q 559.265625 354.6727658609174 557.0625 354.6727658609174 Q 555.62109375 354.6727658609174 554.47265625 354.3387814859174 Q 553.32421875 354.0047971109174 552.421875 353.3719846109174 L 552.41015625 350.4774533609174 L 554.14453125 350.4774533609174 L 554.578125 352.1766721109174 Q 554.9765625 352.5399533609174 555.662109375 352.7040158609174 Q 556.34765625 352.8680783609174 557.0625 352.8680783609174 Q 558.29296875 352.8680783609174 558.990234375 352.3700314859174 Q 559.6875 351.8719846109174 559.6875 351.0633908609174 Q 559.6875 350.3016721109174 559.107421875 349.8094846109174 Q 558.52734375 349.3172971109174 556.91015625 348.9540158609174 Q 554.6015625 348.4501096109174 553.4296875 347.5829221109174 Q 552.2578125 346.7157346109174 552.2578125 345.2391721109174 Q 552.2578125 343.6922971109174 553.576171875 342.6024533609174 Q 554.89453125 341.5126096109174 557.00390625 341.5126096109174 Q 558.4453125 341.5126096109174 559.59375 341.8876096109174 Q 560.7421875 342.2626096109174 561.50390625 342.9305783609174 L 561.62109375 345.7313596109174 Z  M 573.22265625 352.5516721109174 Q 572.625 353.5712033609174 571.681640625 354.1219846109174 Q 570.73828125 354.6727658609174 569.5078125 354.6727658609174 Q 567.4453125 354.6727658609174 566.28515625 353.3485471109174 Q 565.125 352.0243283609174 565.125 349.2235471109174 L 565.125 343.5633908609174 L 563.671875 343.2352658609174 L 563.671875 341.7469846109174 L 565.125 341.7469846109174 L 567.43359375 341.7469846109174 L 567.43359375 349.2469846109174 Q 567.43359375 351.2743283609174 568.03125 352.0360471109174 Q 568.62890625 352.7977658609174 569.89453125 352.7977658609174 Q 571.125 352.7977658609174 571.927734375 352.2997189859174 Q 572.73046875 351.8016721109174 573.140625 350.8876096109174 L 573.140625 343.5633908609174 L 571.44140625 343.2352658609174 L 571.44140625 341.7469846109174 L 573.140625 341.7469846109174 L 575.44921875 341.7469846109174 L 575.44921875 352.6219846109174 L 576.90234375 352.9501096109174 L 576.90234375 354.4266721109174 L 573.375 354.4266721109174 L 573.22265625 352.5516721109174 Z  M 590.33203125 348.5672971109174 Q 590.33203125 351.3094846109174 589.013671875 352.9911252359174 Q 587.6953125 354.6727658609174 585.38671875 354.6727658609174 Q 584.14453125 354.6727658609174 583.23046875 354.1981564859174 Q 582.31640625 353.7235471109174 581.70703125 352.7977658609174 L 581.49609375 354.4266721109174 L 579.50390625 354.4266721109174 L 579.50390625 337.9618283609174 L 577.59375 337.6337033609174 L 577.59375 336.1454221109174 L 581.8125 336.1454221109174 L 581.8125 343.2469846109174 Q 582.41015625 342.4032346109174 583.294921875 341.9579221109174 Q 584.1796875 341.5126096109174 585.36328125 341.5126096109174 Q 587.70703125 341.5126096109174 589.01953125 343.3876096109174 Q 590.33203125 345.2626096109174 590.33203125 348.3212033609174 L 590.33203125 348.5672971109174 Z  M 588.01171875 348.3212033609174 Q 588.01171875 346.1297971109174 587.21484375 344.7587033609174 Q 586.41796875 343.3876096109174 584.77734375 343.3876096109174 Q 583.7109375 343.3876096109174 582.978515625 343.9032346109174 Q 582.24609375 344.4188596109174 581.8125 345.2860471109174 L 581.8125 350.8876096109174 Q 582.24609375 351.7665158609174 582.990234375 352.2821408609174 Q 583.734375 352.7977658609174 584.80078125 352.7977658609174 Q 586.4296875 352.7977658609174 587.220703125 351.6376096109174 Q 588.01171875 350.4774533609174 588.01171875 348.5672971109174 L 588.01171875 348.3212033609174 Z  M 596.66015625 338.6883908609174 L 596.66015625 341.7469846109174 L 599.0625 341.7469846109174 L 599.0625 343.4579221109174 L 596.66015625 343.4579221109174 L 596.66015625 351.1571408609174 Q 596.66015625 352.0477658609174 597.029296875 352.4110471109174 Q 597.3984375 352.7743283609174 598.0078125 352.7743283609174 Q 598.3125 352.7743283609174 598.693359375 352.7215939859174 Q 599.07421875 352.6688596109174 599.33203125 352.6102658609174 L 599.6484375 354.1922971109174 Q 599.3203125 354.4032346109174 598.6875 354.5380002359174 Q 598.0546875 354.6727658609174 597.421875 354.6727658609174 Q 596.015625 354.6727658609174 595.18359375 353.8231564859174 Q 594.3515625 352.9735471109174 594.3515625 351.1571408609174 L 594.3515625 343.4579221109174 L 592.34765625 343.4579221109174 L 592.34765625 341.7469846109174 L 594.3515625 341.7469846109174 L 594.3515625 338.6883908609174 L 596.66015625 338.6883908609174 Z  M 601.41796875 343.2352658609174 L 601.41796875 341.7469846109174 L 605.390625 341.7469846109174 L 605.61328125 343.5868283609174 Q 606.15234375 342.6141721109174 606.943359375 342.0633908609174 Q 607.734375 341.5126096109174 608.75390625 341.5126096109174 Q 609.0234375 341.5126096109174 609.310546875 341.5536252359174 Q 609.59765625 341.5946408609174 609.75 341.6415158609174 L 609.4453125 343.7860471109174 L 608.1328125 343.7157346109174 Q 607.21875 343.7157346109174 606.59765625 344.1434689859174 Q 605.9765625 344.5712033609174 605.63671875 345.3446408609174 L 605.63671875 352.6219846109174 L 607.546875 352.9501096109174 L 607.546875 354.4266721109174 L 601.41796875 354.4266721109174 L 601.41796875 352.9501096109174 L 603.328125 352.6219846109174 L 603.328125 343.5633908609174 L 601.41796875 343.2352658609174 Z  M 619.6171875 354.4266721109174 Q 619.51171875 353.9110471109174 619.453125 353.5008908609174 Q 619.39453125 353.0907346109174 619.37109375 352.6805783609174 Q 618.703125 353.5360471109174 617.701171875 354.1044064859174 Q 616.69921875 354.6727658609174 615.5625 354.6727658609174 Q 613.58203125 354.6727658609174 612.55078125 353.7059689859174 Q 611.51953125 352.7391721109174 611.51953125 350.9813596109174 Q 611.51953125 349.1766721109174 612.978515625 348.1981564859174 Q 614.4375 347.2196408609174 616.98046875 347.2196408609174 L 619.359375 347.2196408609174 L 619.359375 345.7430783609174 Q 619.359375 344.6297971109174 618.65625 343.9794064859174 Q 617.953125 343.3290158609174 616.69921875 343.3290158609174 Q 615.83203125 343.3290158609174 615.169921875 343.5516721109174 Q 614.5078125 343.7743283609174 614.09765625 344.1610471109174 L 613.8515625 345.4969846109174 L 612.0703125 345.4969846109174 L 612.0703125 343.0360471109174 Q 612.9375 342.3446408609174 614.16796875 341.9286252359174 Q 615.3984375 341.5126096109174 616.83984375 341.5126096109174 Q 618.99609375 341.5126096109174 620.33203125 342.6141721109174 Q 621.66796875 343.7157346109174 621.66796875 345.7665158609174 L 621.66796875 351.8719846109174 Q 621.66796875 352.1180783609174 621.673828125 352.3524533609174 Q 621.6796875 352.5868283609174 621.703125 352.8212033609174 L 622.640625 352.9501096109174 L 622.640625 354.4266721109174 L 619.6171875 354.4266721109174 Z  M 615.90234375 352.7391721109174 Q 617.05078125 352.7391721109174 618 352.1883908609174 Q 618.94921875 351.6376096109174 619.359375 350.8641721109174 L 619.359375 348.7782346109174 L 616.8984375 348.7782346109174 Q 615.48046875 348.7782346109174 614.654296875 349.4344846109174 Q 613.828125 350.0907346109174 613.828125 351.0282346109174 Q 613.828125 351.8602658609174 614.34375 352.2997189859174 Q 614.859375 352.7391721109174 615.90234375 352.7391721109174 Z  M 630.2578125 352.8680783609174 Q 631.40625 352.8680783609174 632.279296875 352.1590939859174 Q 633.15234375 351.4501096109174 633.15234375 350.4188596109174 L 635.2265625 350.4188596109174 L 635.25 350.4891721109174 Q 635.30859375 352.1297971109174 633.791015625 353.4012814859174 Q 632.2734375 354.6727658609174 630.2578125 354.6727658609174 Q 627.4921875 354.6727658609174 626.033203125 352.8680783609174 Q 624.57421875 351.0633908609174 624.57421875 348.3329221109174 L 624.57421875 347.8407346109174 Q 624.57421875 345.1337033609174 626.0390625 343.3231564859174 Q 627.50390625 341.5126096109174 630.2578125 341.5126096109174 Q 631.78125 341.5126096109174 632.994140625 342.0165158609174 Q 634.20703125 342.5204221109174 635.00390625 343.3993283609174 L 635.109375 346.2118283609174 L 633.26953125 346.2118283609174 L 632.765625 344.2196408609174 Q 632.35546875 343.8212033609174 631.7109375 343.5751096109174 Q 631.06640625 343.3290158609174 630.2578125 343.3290158609174 Q 628.44140625 343.3290158609174 627.662109375 344.6356564859174 Q 626.8828125 345.9422971109174 626.8828125 347.8407346109174 L 626.8828125 348.3329221109174 Q 626.8828125 350.2782346109174 627.65625 351.5731564859174 Q 628.4296875 352.8680783609174 630.2578125 352.8680783609174 Z  M 641.53125 338.6883908609174 L 641.53125 341.7469846109174 L 643.93359375 341.7469846109174 L 643.93359375 343.4579221109174 L 641.53125 343.4579221109174 L 641.53125 351.1571408609174 Q 641.53125 352.0477658609174 641.900390625 352.4110471109174 Q 642.26953125 352.7743283609174 642.87890625 352.7743283609174 Q 643.18359375 352.7743283609174 643.564453125 352.7215939859174 Q 643.9453125 352.6688596109174 644.203125 352.6102658609174 L 644.51953125 354.1922971109174 Q 644.19140625 354.4032346109174 643.55859375 354.5380002359174 Q 642.92578125 354.6727658609174 642.29296875 354.6727658609174 Q 640.88671875 354.6727658609174 640.0546875 353.8231564859174 Q 639.22265625 352.9735471109174 639.22265625 351.1571408609174 L 639.22265625 343.4579221109174 L 637.21875 343.4579221109174 L 637.21875 341.7469846109174 L 639.22265625 341.7469846109174 L 639.22265625 338.6883908609174 L 641.53125 338.6883908609174 Z  M 646.2890625 352.9501096109174 L 648.19921875 352.6219846109174 L 648.19921875 343.5633908609174 L 646.2890625 343.2352658609174 L 646.2890625 341.7469846109174 L 650.5078125 341.7469846109174 L 650.5078125 352.6219846109174 L 652.41796875 352.9501096109174 L 652.41796875 354.4266721109174 L 646.2890625 354.4266721109174 L 646.2890625 352.9501096109174 Z  M 650.5078125 338.5008908609174 L 648.19921875 338.5008908609174 L 648.19921875 336.1454221109174 L 650.5078125 336.1454221109174 L 650.5078125 338.5008908609174 Z  M 653.8359375 352.9501096109174 L 655.74609375 352.6219846109174 L 655.74609375 343.5633908609174 L 653.8359375 343.2352658609174 L 653.8359375 341.7469846109174 L 657.80859375 341.7469846109174 L 657.97265625 343.6337033609174 Q 658.60546875 342.6258908609174 659.560546875 342.0692502359174 Q 660.515625 341.5126096109174 661.734375 341.5126096109174 Q 663.78515625 341.5126096109174 664.91015625 342.7137814859174 Q 666.03515625 343.9149533609174 666.03515625 346.4227658609174 L 666.03515625 352.6219846109174 L 667.9453125 352.9501096109174 L 667.9453125 354.4266721109174 L 661.81640625 354.4266721109174 L 661.81640625 352.9501096109174 L 663.7265625 352.6219846109174 L 663.7265625 346.4696408609174 Q 663.7265625 344.7938596109174 663.064453125 344.0907346109174 Q 662.40234375 343.3876096109174 661.04296875 343.3876096109174 Q 660.046875 343.3876096109174 659.279296875 343.8680783609174 Q 658.51171875 344.3485471109174 658.0546875 345.1805783609174 L 658.0546875 352.6219846109174 L 659.96484375 352.9501096109174 L 659.96484375 354.4266721109174 L 653.8359375 354.4266721109174 L 653.8359375 352.9501096109174 Z  M 669.6328125 348.3212033609174 Q 669.6328125 345.2626096109174 670.96875 343.3876096109174 Q 672.3046875 341.5126096109174 674.66015625 341.5126096109174 Q 675.85546875 341.5126096109174 676.7578125 341.9813596109174 Q 677.66015625 342.4501096109174 678.26953125 343.3407346109174 L 678.48046875 341.7469846109174 L 680.42578125 341.7469846109174 L 680.42578125 354.2626096109174 Q 680.42578125 356.7235471109174 679.0546875 358.1356564859174 Q 677.68359375 359.5477658609174 675.15234375 359.5477658609174 Q 674.23828125 359.5477658609174 673.171875 359.2958127359174 Q 672.10546875 359.0438596109174 671.296875 358.6102658609174 L 671.89453125 356.8172971109174 Q 672.5390625 357.1571408609174 673.41796875 357.3797971109174 Q 674.296875 357.6024533609174 675.12890625 357.6024533609174 Q 676.67578125 357.6024533609174 677.396484375 356.7352658609174 Q 678.1171875 355.8680783609174 678.1171875 354.2626096109174 L 678.1171875 353.0555783609174 Q 677.49609375 353.8524533609174 676.62890625 354.2626096109174 Q 675.76171875 354.6727658609174 674.63671875 354.6727658609174 Q 672.3046875 354.6727658609174 670.96875 352.9852658609174 Q 669.6328125 351.2977658609174 669.6328125 348.5672971109174 L 669.6328125 348.3212033609174 Z  M 671.94140625 348.5672971109174 Q 671.94140625 350.4774533609174 672.75 351.6376096109174 Q 673.55859375 352.7977658609174 675.2109375 352.7977658609174 Q 676.25390625 352.7977658609174 676.95703125 352.3231564859174 Q 677.66015625 351.8485471109174 678.1171875 350.9813596109174 L 678.1171875 345.1454221109174 Q 677.671875 344.3368283609174 676.95703125 343.8622189859174 Q 676.2421875 343.3876096109174 675.234375 343.3876096109174 Q 673.58203125 343.3876096109174 672.76171875 344.7704221109174 Q 671.94140625 346.1532346109174 671.94140625 348.3212033609174 L 671.94140625 348.5672971109174 Z  M 523.83984375 337.3641721109174 Q 526.51171875 337.3641721109174 528.017578125 338.5184689859174 Q 529.5234375 339.6727658609174 529.5234375 341.9813596109174 Q 529.5234375 343.1180783609174 528.802734375 344.0145627359174 Q 528.08203125 344.9110471109174 526.8984375 345.3446408609174 Q 528.43359375 345.6727658609174 529.32421875 346.8563596109174 Q 530.21484375 348.0399533609174 530.21484375 349.6102658609174 Q 530.21484375 351.9540158609174 528.69140625 353.1903439859174 Q 527.16796875 354.4266721109174 524.56640625 354.4266721109174 L 516.36328125 354.4266721109174 L 516.36328125 352.9501096109174 L 518.2734375 352.6219846109174 L 518.2734375 339.1805783609174 L 516.36328125 338.8524533609174 L 516.36328125 337.3641721109174 L 518.2734375 337.3641721109174 L 523.83984375 337.3641721109174 Z  M 520.58203125 346.4227658609174 L 520.58203125 352.6219846109174 L 524.56640625 352.6219846109174 Q 526.1484375 352.6219846109174 527.021484375 351.8426877359174 Q 527.89453125 351.0633908609174 527.89453125 349.6337033609174 Q 527.89453125 348.1337033609174 527.162109375 347.2782346109174 Q 526.4296875 346.4227658609174 524.91796875 346.4227658609174 L 520.58203125 346.4227658609174 Z  M 520.58203125 344.6180783609174 L 524.4375 344.6180783609174 Q 525.6796875 344.5829221109174 526.447265625 343.8797971109174 Q 527.21484375 343.1766721109174 527.21484375 341.9344846109174 Q 527.21484375 340.5516721109174 526.34765625 339.8661252359174 Q 525.48046875 339.1805783609174 523.83984375 339.1805783609174 L 520.58203125 339.1805783609174 L 520.58203125 344.6180783609174 Z  M 544.3828125 343.2352658609174 L 543.24609375 343.4110471109174 L 538.41796875 356.3719846109174 Q 537.9375 357.6493283609174 537.03515625 358.5985471109174 Q 536.1328125 359.5477658609174 534.609375 359.5477658609174 Q 534.33984375 359.5477658609174 533.90625 359.4833127359174 Q 533.47265625 359.4188596109174 533.23828125 359.3602658609174 L 533.47265625 357.5438596109174 Q 533.40234375 357.5321408609174 533.888671875 357.5672971109174 Q 534.375 357.6024533609174 534.50390625 357.6024533609174 Q 535.2421875 357.6024533609174 535.69921875 356.9637814859174 Q 536.15625 356.3251096109174 536.49609375 355.4930783609174 L 537.046875 354.1805783609174 L 532.86328125 343.4227658609174 L 531.703125 343.2352658609174 L 531.703125 341.7469846109174 L 536.82421875 341.7469846109174 L 536.82421875 343.2352658609174 L 535.39453125 343.4696408609174 L 537.5859375 349.7274533609174 L 538.0078125 351.3446408609174 L 538.078125 351.3446408609174 L 540.71484375 343.4696408609174 L 539.2734375 343.2352658609174 L 539.2734375 341.7469846109174 L 544.3828125 341.7469846109174 L 544.3828125 343.2352658609174 Z " fill-rule="evenodd" fill="rgb(0,0,0)"/><linearGradient id="_lgradient_48" x1="50%" y1="0%" x2="50.000000000000014%" y2="100%"><stop offset="0%" stop-opacity="1" style="stop-color:rgb(227,58,58)"/><stop offset="100%" stop-opacity="1" style="stop-color:rgb(162,39,39)"/></linearGradient><rect x="639.9863414634144" y="483.13911730545874" width="120.0273170731707" height="20" transform="matrix(1,0,0,1,0,0)" fill="url(#_lgradient_48)"/><linearGradient id="_lgradient_49" x1="50%" y1="0%" x2="50.000000000000014%" y2="100%"><stop offset="0%" stop-opacity="1" style="stop-color:rgb(58,109,227)"/><stop offset="99.1304347826087%" stop-opacity="1" style="stop-color:rgb(46,85,176)"/></linearGradient><rect x="759.9726829268292" y="516.6288734030197" width="120" height="20" transform="matrix(1,0,0,1,0,0)" fill="url(#_lgradient_49)"/><line x1="149.97268292682918" y1="551.0901277584204" x2="1129.9726829268293" y2="551.0901277584204" vector-effect="non-scaling-stroke" stroke-width="4" stroke="rgb(19,19,19)" stroke-linejoin="miter" stroke-linecap="square" stroke-miterlimit="3"/><path d=" M 630.9999999999999 551.0789082462254 C 630.9999999999999 546.9395455962255 634.3606373499999 543.5789082462254 638.4999999999999 543.5789082462254 C 642.6393626499998 543.5789082462254 645.9999999999999 546.9395455962255 645.9999999999999 551.0789082462254 C 645.9999999999999 555.2182708962254 642.6393626499998 558.5789082462254 638.4999999999999 558.5789082462254 C 634.3606373499999 558.5789082462254 630.9999999999999 555.2182708962254 630.9999999999999 551.0789082462254 Z " fill="rgb(19,19,19)"/><line x1="199.97268292682918" y1="545.8553364910051" x2="199.97268292682918" y2="557.8553364910051" vector-effect="non-scaling-stroke" stroke-width="2" stroke="rgb(0,0,0)" stroke-linejoin="miter" stroke-linecap="square" stroke-miterlimit="3"/><line x1="239.97268292682918" y1="545.8553364910051" x2="239.97268292682918" y2="557.8553364910051" vector-effect="non-scaling-stroke" stroke-width="2" stroke="rgb(0,0,0)" stroke-linejoin="miter" stroke-linecap="square" stroke-miterlimit="3"/><line x1="279.9726829268292" y1="545.8553364910051" x2="279.9726829268292" y2="557.8553364910051" vector-effect="non-scaling-stroke" stroke-width="2" stroke="rgb(0,0,0)" stroke-linejoin="miter" stroke-linecap="square" stroke-miterlimit="3"/><line x1="319.9726829268292" y1="545.8553364910051" x2="319.9726829268292" y2="557.8553364910051" vector-effect="non-scaling-stroke" stroke-width="2" stroke="rgb(0,0,0)" stroke-linejoin="miter" stroke-linecap="square" stroke-miterlimit="3"/><line x1="359.9726829268292" y1="545.8553364910051" x2="359.9726829268292" y2="557.8553364910051" vector-effect="non-scaling-stroke" stroke-width="2" stroke="rgb(0,0,0)" stroke-linejoin="miter" stroke-linecap="square" stroke-miterlimit="3"/><line x1="399.9726829268292" y1="545.8553364910051" x2="399.9726829268292" y2="557.8553364910051" vector-effect="non-scaling-stroke" stroke-width="2" stroke="rgb(0,0,0)" stroke-linejoin="miter" stroke-linecap="square" stroke-miterlimit="3"/><line x1="439.9726829268292" y1="545.8553364910051" x2="439.9726829268292" y2="557.8553364910051" vector-effect="non-scaling-stroke" stroke-width="2" stroke="rgb(0,0,0)" stroke-linejoin="miter" stroke-linecap="square" stroke-miterlimit="3"/><line x1="479.9726829268292" y1="545.8553364910051" x2="479.9726829268292" y2="557.8553364910051" vector-effect="non-scaling-stroke" stroke-width="2" stroke="rgb(0,0,0)" stroke-linejoin="miter" stroke-linecap="square" stroke-miterlimit="3"/><line x1="519.9726829268292" y1="545.8553364910051" x2="519.9726829268292" y2="557.8553364910051" vector-effect="non-scaling-stroke" stroke-width="2" stroke="rgb(0,0,0)" stroke-linejoin="miter" stroke-linecap="square" stroke-miterlimit="3"/><line x1="559.9726829268292" y1="545.8553364910051" x2="559.9726829268292" y2="557.8553364910051" vector-effect="non-scaling-stroke" stroke-width="2" stroke="rgb(0,0,0)" stroke-linejoin="miter" stroke-linecap="square" stroke-miterlimit="3"/><line x1="599.9726829268292" y1="545.8553364910051" x2="599.9726829268292" y2="557.8553364910051" vector-effect="non-scaling-stroke" stroke-width="2" stroke="rgb(0,0,0)" stroke-linejoin="miter" stroke-linecap="square" stroke-miterlimit="3"/><line x1="679.9726829268292" y1="545.0901277584204" x2="679.9726829268292" y2="557.0901277584204" vector-effect="non-scaling-stroke" stroke-width="2" stroke="rgb(0,0,0)" stroke-linejoin="miter" stroke-linecap="square" stroke-miterlimit="3"/><line x1="719.9726829268292" y1="545.0901277584204" x2="719.9726829268292" y2="557.0901277584204" vector-effect="non-scaling-stroke" stroke-width="2" stroke="rgb(0,0,0)" stroke-linejoin="miter" stroke-linecap="square" stroke-miterlimit="3"/><line x1="759.9726829268292" y1="545.0901277584204" x2="759.9726829268292" y2="557.0901277584204" vector-effect="non-scaling-stroke" stroke-width="2" stroke="rgb(0,0,0)" stroke-linejoin="miter" stroke-linecap="square" stroke-miterlimit="3"/><line x1="799.9726829268292" y1="545.0901277584204" x2="799.9726829268292" y2="557.0901277584204" vector-effect="non-scaling-stroke" stroke-width="2" stroke="rgb(0,0,0)" stroke-linejoin="miter" stroke-linecap="square" stroke-miterlimit="3"/><line x1="839.9726829268292" y1="545.0901277584204" x2="839.9726829268292" y2="557.0901277584204" vector-effect="non-scaling-stroke" stroke-width="2" stroke="rgb(0,0,0)" stroke-linejoin="miter" stroke-linecap="square" stroke-miterlimit="3"/><line x1="879.9726829268292" y1="545.0901277584204" x2="879.9726829268292" y2="557.0901277584204" vector-effect="non-scaling-stroke" stroke-width="2" stroke="rgb(0,0,0)" stroke-linejoin="miter" stroke-linecap="square" stroke-miterlimit="3"/><line x1="919.9726829268292" y1="545.0901277584204" x2="919.9726829268292" y2="557.0901277584204" vector-effect="non-scaling-stroke" stroke-width="2" stroke="rgb(0,0,0)" stroke-linejoin="miter" stroke-linecap="square" stroke-miterlimit="3"/><line x1="959.9726829268292" y1="545.0901277584204" x2="959.9726829268292" y2="557.0901277584204" vector-effect="non-scaling-stroke" stroke-width="2" stroke="rgb(0,0,0)" stroke-linejoin="miter" stroke-linecap="square" stroke-miterlimit="3"/><line x1="999.9726829268292" y1="545.0901277584204" x2="999.9726829268292" y2="557.0901277584204" vector-effect="non-scaling-stroke" stroke-width="2" stroke="rgb(0,0,0)" stroke-linejoin="miter" stroke-linecap="square" stroke-miterlimit="3"/><line x1="1039.9726829268293" y1="545.0901277584204" x2="1039.9726829268293" y2="557.0901277584204" vector-effect="non-scaling-stroke" stroke-width="2" stroke="rgb(0,0,0)" stroke-linejoin="miter" stroke-linecap="square" stroke-miterlimit="3"/><line x1="1079.9726829268293" y1="545.0901277584204" x2="1079.9726829268293" y2="557.0901277584204" vector-effect="non-scaling-stroke" stroke-width="2" stroke="rgb(0,0,0)" stroke-linejoin="miter" stroke-linecap="square" stroke-miterlimit="3"/><path d=" M 1130 543.5789082462254 L 1130 560.0074796747966 L 1149.9999999999998 551.793193960511 L 1130 543.5789082462254 Z " fill="rgb(19,19,19)"/><path d=" M 149.97268292682918 542.8646225319396 L 149.97268292682918 559.2931939605111 L 129.97268292682918 551.0789082462254 L 149.97268292682918 542.8646225319396 Z " fill="rgb(19,19,19)"/><path d=" M 836.3378906249999 601.6898985554587 L 838.3535156249999 601.6898985554587 Q 839.8886718749999 601.6898985554587 840.5273437499999 600.9223204304587 Q 841.1660156249999 600.1547423054587 841.1660156249999 598.7836485554587 Q 841.1660156249999 597.3188048054587 840.4394531249999 596.5570860554587 Q 839.7128906249999 595.7953673054587 838.2949218749999 595.7953673054587 Q 836.9472656249999 595.7953673054587 836.1328124999999 596.5863829304587 Q 835.3183593749999 597.3773985554587 835.3183593749999 598.6898985554587 L 833.1035156249999 598.6898985554587 L 833.0800781249999 598.6195860554587 Q 833.0214843749999 596.6859923054587 834.4804687499999 595.3324766804587 Q 835.9394531249999 593.9789610554587 838.2949218749999 593.9789610554587 Q 840.6621093749999 593.9789610554587 842.0683593749999 595.2387266804587 Q 843.4746093749999 596.4984923054587 843.4746093749999 598.8305235554587 Q 843.4746093749999 599.8852110554587 842.8359374999999 600.9340391804587 Q 842.1972656249999 601.9828673054587 840.9199218749999 602.5336485554587 Q 842.4550781249999 603.0375548054587 843.0937499999999 604.1156798054587 Q 843.7324218749999 605.1938048054587 843.7324218749999 606.5297423054587 Q 843.7324218749999 608.8617735554587 842.2031249999999 610.1977110554587 Q 840.6738281249999 611.5336485554587 838.2949218749999 611.5336485554587 Q 835.9511718749999 611.5336485554587 834.4277343749999 610.2738829304587 Q 832.9042968749999 609.0141173054587 832.9628906249999 606.8578673054587 L 832.9980468749999 606.7875548054587 L 835.2011718749999 606.7875548054587 Q 835.2011718749999 608.1352110554587 836.0273437499999 608.9320860554587 Q 836.8535156249999 609.7289610554587 838.2949218749999 609.7289610554587 Q 839.7597656249999 609.7289610554587 840.5917968749999 608.9320860554587 Q 841.4238281249999 608.1352110554587 841.4238281249999 606.5766173054587 Q 841.4238281249999 604.9945860554587 840.6855468749999 604.2445860554587 Q 839.9472656249999 603.4945860554587 838.3535156249999 603.4945860554587 L 836.3378906249999 603.4945860554587 L 836.3378906249999 601.6898985554587 Z  M 847.0019531249999 612.7523985554587 L 845.0449218749999 612.7523985554587 L 852.1699218749999 594.2250548054587 L 854.1152343749999 594.2250548054587 L 847.0019531249999 612.7523985554587 Z  M 864.2988281249999 597.6000548054587 L 864.0761718749999 596.2758360554587 L 858.9785156249999 596.2758360554587 L 858.4277343749999 601.0688048054587 Q 858.9550781249999 600.6703673054587 859.6171874999999 600.4066954304587 Q 860.2792968749999 600.1430235554587 861.1464843749999 600.1195860554587 Q 863.5019531249999 600.0961485554587 864.8554687499999 601.6547423054587 Q 866.2089843749999 603.2133360554587 866.2089843749999 605.8500548054587 Q 866.2089843749999 608.4164610554587 864.8320312499999 609.9750548054587 Q 863.4550781249999 611.5336485554587 860.8183593749999 611.5336485554587 Q 858.6503906249999 611.5336485554587 857.2148437499999 610.3500548054587 Q 855.7792968749999 609.1664610554587 855.8378906249999 606.8695860554587 L 855.8613281249999 606.7992735554587 L 857.9472656249999 606.7992735554587 Q 857.9472656249999 608.1820860554587 858.7499999999999 608.9555235554587 Q 859.5527343749999 609.7289610554587 860.8183593749999 609.7289610554587 Q 862.2832031249999 609.7289610554587 863.0917968749999 608.6977110554587 Q 863.9003906249999 607.6664610554587 863.9003906249999 605.8734923054587 Q 863.9003906249999 604.2211485554587 863.0859374999999 603.1723204304587 Q 862.2714843749999 602.1234923054587 860.8300781249999 602.1234923054587 Q 859.4707031249999 602.1234923054587 858.8554687499999 602.5336485554587 Q 858.2402343749999 602.9438048054587 857.9589843749999 603.7875548054587 L 856.0371093749999 603.5883360554587 L 857.0214843749999 594.2250548054587 L 866.0332031249999 594.2250548054587 L 866.0332031249999 597.6000548054587 L 864.2988281249999 597.6000548054587 Z  M 824.4082031249999 601.6430235554587 L 814.6347656249999 601.6430235554587 L 814.6347656249999 599.7211485554587 L 824.4082031249999 599.7211485554587 L 824.4082031249999 601.6430235554587 Z  M 824.4082031249999 606.5180235554587 L 814.6347656249999 606.5180235554587 L 814.6347656249999 604.5961485554587 L 824.4082031249999 604.5961485554587 L 824.4082031249999 606.5180235554587 Z  M 623.1269531249999 614.4516173054587 L 621.2871093749999 614.4516173054587 L 621.2871093749999 594.2250548054587 L 623.1269531249999 594.2250548054587 L 623.1269531249999 614.4516173054587 Z  M 626.1503906249999 604.3617735554587 Q 626.1503906249999 599.7445860554587 628.0136718749999 596.4750548054587 Q 629.8769531249999 593.2055235554587 631.9277343749999 592.1156798054587 L 631.9980468749999 592.1273985554587 L 632.4316406249999 593.4867735554587 Q 630.8261718749999 594.7406798054587 629.6425781249999 597.5063048054587 Q 628.4589843749999 600.2719298054587 628.4589843749999 604.3383360554587 L 628.4589843749999 604.4906798054587 Q 628.4589843749999 608.5688048054587 629.6367187499999 611.3285704304587 Q 630.8144531249999 614.0883360554587 632.4316406249999 615.4477110554587 L 631.9980468749999 616.7133360554587 L 631.9277343749999 616.7133360554587 Q 629.8769531249999 615.6234923054587 628.0136718749999 612.3598204304587 Q 626.1503906249999 609.0961485554587 626.1503906249999 604.4672423054587 L 626.1503906249999 604.3617735554587 Z  M 639.0761718749999 595.7133360554587 L 637.2363281249999 595.9359923054587 L 640.8105468749999 602.8969298054587 L 644.3847656249999 595.9359923054587 L 642.5566406249999 595.7133360554587 L 642.5566406249999 594.2250548054587 L 648.4160156249999 594.2250548054587 L 648.4160156249999 595.7133360554587 L 646.9746093749999 595.9359923054587 L 641.9121093749999 605.2875548054587 L 641.9121093749999 609.4828673054587 L 643.8222656249999 609.8109923054587 L 643.8222656249999 611.2875548054587 L 637.7050781249999 611.2875548054587 L 637.7050781249999 609.8109923054587 L 639.6152343749999 609.4828673054587 L 639.6152343749999 605.1117735554587 L 634.6464843749999 595.9359923054587 L 633.2167968749999 595.7133360554587 L 633.2167968749999 594.2250548054587 L 639.0761718749999 594.2250548054587 L 639.0761718749999 595.7133360554587 Z  M 650.3027343749999 611.2875548054587 L 650.3027343749999 609.7055235554587 L 655.8925781249999 603.4945860554587 Q 657.3925781249999 601.8188048054587 657.9257812499999 600.8344298054587 Q 658.4589843749999 599.8500548054587 658.4589843749999 598.8188048054587 Q 658.4589843749999 597.5414610554587 657.7089843749999 596.6684141804587 Q 656.9589843749999 595.7953673054587 655.7285156249999 595.7953673054587 Q 653.9589843749999 595.7953673054587 653.1269531249999 596.6977110554587 Q 652.2949218749999 597.6000548054587 652.2949218749999 599.2523985554587 L 650.0800781249999 599.2523985554587 L 650.0566406249999 599.1820860554587 Q 649.9980468749999 596.9789610554587 651.5156249999999 595.4789610554587 Q 653.0332031249999 593.9789610554587 655.7285156249999 593.9789610554587 Q 658.0371093749999 593.9789610554587 659.4023437499999 595.3207579304587 Q 660.7675781249999 596.6625548054587 660.7675781249999 598.7367735554587 Q 660.7675781249999 600.1313048054587 659.9414062499999 601.5258360554587 Q 659.1152343749999 602.9203673054587 657.6152343749999 604.5375548054587 L 653.1269531249999 609.4242735554587 L 653.1503906249999 609.4828673054587 L 659.2089843749999 609.4828673054587 L 659.3964843749999 607.5258360554587 L 661.3535156249999 607.5258360554587 L 661.3535156249999 611.2875548054587 L 650.3027343749999 611.2875548054587 Z  M 669.9550781249999 604.9828673054587 L 664.2246093749999 604.9828673054587 L 664.2246093749999 603.1781798054587 L 669.9550781249999 603.1781798054587 L 669.9550781249999 604.9828673054587 Z  M 678.2636718749999 595.7133360554587 L 676.4238281249999 595.9359923054587 L 679.9980468749999 602.8969298054587 L 683.5722656249999 595.9359923054587 L 681.7441406249999 595.7133360554587 L 681.7441406249999 594.2250548054587 L 687.6035156249999 594.2250548054587 L 687.6035156249999 595.7133360554587 L 686.1621093749999 595.9359923054587 L 681.0996093749999 605.2875548054587 L 681.0996093749999 609.4828673054587 L 683.0097656249999 609.8109923054587 L 683.0097656249999 611.2875548054587 L 676.8925781249999 611.2875548054587 L 676.8925781249999 609.8109923054587 L 678.8027343749999 609.4828673054587 L 678.8027343749999 605.1117735554587 L 673.8339843749999 595.9359923054587 L 672.4042968749999 595.7133360554587 L 672.4042968749999 594.2250548054587 L 678.2636718749999 594.2250548054587 L 678.2636718749999 595.7133360554587 Z  M 689.7714843749999 609.8109923054587 L 692.4082031249999 609.4828673054587 L 692.4082031249999 596.6977110554587 L 689.7246093749999 596.7445860554587 L 689.7246093749999 595.3031798054587 L 694.7167968749999 594.2250548054587 L 694.7167968749999 609.4828673054587 L 697.3417968749999 609.8109923054587 L 697.3417968749999 611.2875548054587 L 689.7714843749999 611.2875548054587 L 689.7714843749999 609.8109923054587 Z  M 704.6542968749999 604.4672423054587 Q 704.6542968749999 609.0961485554587 702.7851562499999 612.3598204304587 Q 700.9160156249999 615.6234923054587 698.8769531249999 616.7133360554587 L 698.8066406249999 616.7133360554587 L 698.3730468749999 615.4477110554587 Q 699.9550781249999 614.2172423054587 701.1503906249999 611.3988829304587 Q 702.3457031249999 608.5805235554587 702.3457031249999 604.4906798054587 L 702.3457031249999 604.3383360554587 Q 702.3457031249999 600.3188048054587 701.1152343749999 597.4945860554587 Q 699.8847656249999 594.6703673054587 698.3730468749999 593.3813048054587 L 698.8066406249999 592.1156798054587 L 698.8769531249999 592.1156798054587 Q 700.9160156249999 593.2055235554587 702.7851562499999 596.4750548054587 Q 704.6542968749999 599.7445860554587 704.6542968749999 604.3617735554587 L 704.6542968749999 604.4672423054587 Z  M 709.5058593749999 614.4516173054587 L 707.6660156249999 614.4516173054587 L 707.6660156249999 594.2250548054587 L 709.5058593749999 594.2250548054587 L 709.5058593749999 614.4516173054587 Z  M 713.1503906249999 612.7523985554587 L 711.1933593749999 612.7523985554587 L 718.3183593749999 594.2250548054587 L 720.2636718749999 594.2250548054587 L 713.1503906249999 612.7523985554587 Z  M 724.4472656249999 614.4516173054587 L 722.6074218749999 614.4516173054587 L 722.6074218749999 594.2250548054587 L 724.4472656249999 594.2250548054587 L 724.4472656249999 614.4516173054587 Z  M 727.4707031249999 604.3617735554587 Q 727.4707031249999 599.7445860554587 729.3339843749999 596.4750548054587 Q 731.1972656249999 593.2055235554587 733.2480468749999 592.1156798054587 L 733.3183593749999 592.1273985554587 L 733.7519531249999 593.4867735554587 Q 732.1464843749999 594.7406798054587 730.9628906249999 597.5063048054587 Q 729.7792968749999 600.2719298054587 729.7792968749999 604.3383360554587 L 729.7792968749999 604.4906798054587 Q 729.7792968749999 608.5688048054587 730.9570312499999 611.3285704304587 Q 732.1347656249999 614.0883360554587 733.7519531249999 615.4477110554587 L 733.3183593749999 616.7133360554587 L 733.2480468749999 616.7133360554587 Q 731.1972656249999 615.6234923054587 729.3339843749999 612.3598204304587 Q 727.4707031249999 609.0961485554587 727.4707031249999 604.4672423054587 L 727.4707031249999 604.3617735554587 Z  M 734.3964843749999 609.8109923054587 L 735.9316406249999 609.5531798054587 L 740.7832031249999 602.6859923054587 L 736.0488281249999 595.9711485554587 L 734.5136718749999 595.7133360554587 L 734.5136718749999 594.2250548054587 L 740.0449218749999 594.2250548054587 L 740.0449218749999 595.7133360554587 L 738.6738281249999 595.8656798054587 L 742.0839843749999 600.9867735554587 L 745.5292968749999 595.8656798054587 L 744.1582031249999 595.7133360554587 L 744.1582031249999 594.2250548054587 L 749.7246093749999 594.2250548054587 L 749.7246093749999 595.7133360554587 L 748.1894531249999 595.9711485554587 L 743.4550781249999 602.6859923054587 L 748.2949218749999 609.5531798054587 L 749.8417968749999 609.8109923054587 L 749.8417968749999 611.2875548054587 L 744.3222656249999 611.2875548054587 L 744.3222656249999 609.8109923054587 L 745.6699218749999 609.6586485554587 L 742.1308593749999 604.4086485554587 L 738.5800781249999 609.6586485554587 L 739.9511718749999 609.8109923054587 L 739.9511718749999 611.2875548054587 L 734.3964843749999 611.2875548054587 L 734.3964843749999 609.8109923054587 Z  M 751.4824218749999 611.2875548054587 L 751.4824218749999 609.7055235554587 L 757.0722656249999 603.4945860554587 Q 758.5722656249999 601.8188048054587 759.1054687499999 600.8344298054587 Q 759.6386718749999 599.8500548054587 759.6386718749999 598.8188048054587 Q 759.6386718749999 597.5414610554587 758.8886718749999 596.6684141804587 Q 758.1386718749999 595.7953673054587 756.9082031249999 595.7953673054587 Q 755.1386718749999 595.7953673054587 754.3066406249999 596.6977110554587 Q 753.4746093749999 597.6000548054587 753.4746093749999 599.2523985554587 L 751.2597656249999 599.2523985554587 L 751.2363281249999 599.1820860554587 Q 751.1777343749999 596.9789610554587 752.6953124999999 595.4789610554587 Q 754.2128906249999 593.9789610554587 756.9082031249999 593.9789610554587 Q 759.2167968749999 593.9789610554587 760.5820312499999 595.3207579304587 Q 761.9472656249999 596.6625548054587 761.9472656249999 598.7367735554587 Q 761.9472656249999 600.1313048054587 761.1210937499999 601.5258360554587 Q 760.2949218749999 602.9203673054587 758.7949218749999 604.5375548054587 L 754.3066406249999 609.4242735554587 L 754.3300781249999 609.4828673054587 L 760.3886718749999 609.4828673054587 L 760.5761718749999 607.5258360554587 L 762.5332031249999 607.5258360554587 L 762.5332031249999 611.2875548054587 L 751.4824218749999 611.2875548054587 Z  M 771.1347656249999 604.9828673054587 L 765.4042968749999 604.9828673054587 L 765.4042968749999 603.1781798054587 L 771.1347656249999 603.1781798054587 L 771.1347656249999 604.9828673054587 Z  M 773.4433593749999 609.8109923054587 L 774.9785156249999 609.5531798054587 L 779.8300781249999 602.6859923054587 L 775.0957031249999 595.9711485554587 L 773.5605468749999 595.7133360554587 L 773.5605468749999 594.2250548054587 L 779.0917968749999 594.2250548054587 L 779.0917968749999 595.7133360554587 L 777.7207031249999 595.8656798054587 L 781.1308593749999 600.9867735554587 L 784.5761718749999 595.8656798054587 L 783.2050781249999 595.7133360554587 L 783.2050781249999 594.2250548054587 L 788.7714843749999 594.2250548054587 L 788.7714843749999 595.7133360554587 L 787.2363281249999 595.9711485554587 L 782.5019531249999 602.6859923054587 L 787.3417968749999 609.5531798054587 L 788.8886718749999 609.8109923054587 L 788.8886718749999 611.2875548054587 L 783.3691406249999 611.2875548054587 L 783.3691406249999 609.8109923054587 L 784.7167968749999 609.6586485554587 L 781.1777343749999 604.4086485554587 L 777.6269531249999 609.6586485554587 L 778.9980468749999 609.8109923054587 L 778.9980468749999 611.2875548054587 L 773.4433593749999 611.2875548054587 L 773.4433593749999 609.8109923054587 Z  M 790.8105468749999 609.8109923054587 L 793.4472656249999 609.4828673054587 L 793.4472656249999 596.6977110554587 L 790.7636718749999 596.7445860554587 L 790.7636718749999 595.3031798054587 L 795.7558593749999 594.2250548054587 L 795.7558593749999 609.4828673054587 L 798.3808593749999 609.8109923054587 L 798.3808593749999 611.2875548054587 L 790.8105468749999 611.2875548054587 L 790.8105468749999 609.8109923054587 Z  M 805.6933593749999 604.4672423054587 Q 805.6933593749999 609.0961485554587 803.8242187499999 612.3598204304587 Q 801.9550781249999 615.6234923054587 799.9160156249999 616.7133360554587 L 799.8457031249999 616.7133360554587 L 799.4121093749999 615.4477110554587 Q 800.9941406249999 614.2172423054587 802.1894531249999 611.3988829304587 Q 803.3847656249999 608.5805235554587 803.3847656249999 604.4906798054587 L 803.3847656249999 604.3383360554587 Q 803.3847656249999 600.3188048054587 802.1542968749999 597.4945860554587 Q 800.9238281249999 594.6703673054587 799.4121093749999 593.3813048054587 L 799.8457031249999 592.1156798054587 L 799.9160156249999 592.1156798054587 Q 801.9550781249999 593.2055235554587 803.8242187499999 596.4750548054587 Q 805.6933593749999 599.7445860554587 805.6933593749999 604.3617735554587 L 805.6933593749999 604.4672423054587 Z  M 598.6933593749999 605.4281798054587 Q 598.6933593749999 608.1703673054587 597.3749999999999 609.8520079304587 Q 596.0566406249999 611.5336485554587 593.7480468749999 611.5336485554587 Q 592.5058593749999 611.5336485554587 591.5917968749999 611.0590391804587 Q 590.6777343749999 610.5844298054587 590.0683593749999 609.6586485554587 L 589.8574218749999 611.2875548054587 L 587.8652343749999 611.2875548054587 L 587.8652343749999 594.8227110554587 L 585.9550781249999 594.4945860554587 L 585.9550781249999 593.0063048054587 L 590.1738281249999 593.0063048054587 L 590.1738281249999 600.1078673054587 Q 590.7714843749999 599.2641173054587 591.6562499999999 598.8188048054587 Q 592.5410156249999 598.3734923054587 593.7246093749999 598.3734923054587 Q 596.0683593749999 598.3734923054587 597.3808593749999 600.2484923054587 Q 598.6933593749999 602.1234923054587 598.6933593749999 605.1820860554587 L 598.6933593749999 605.4281798054587 Z  M 596.3730468749999 605.1820860554587 Q 596.3730468749999 602.9906798054587 595.5761718749999 601.6195860554587 Q 594.7792968749999 600.2484923054587 593.1386718749999 600.2484923054587 Q 592.0722656249999 600.2484923054587 591.3398437499999 600.7641173054587 Q 590.6074218749999 601.2797423054587 590.1738281249999 602.1469298054587 L 590.1738281249999 607.7484923054587 Q 590.6074218749999 608.6273985554587 591.3515624999999 609.1430235554587 Q 592.0957031249999 609.6586485554587 593.1621093749999 609.6586485554587 Q 594.7910156249999 609.6586485554587 595.5820312499999 608.4984923054587 Q 596.3730468749999 607.3383360554587 596.3730468749999 605.4281798054587 L 596.3730468749999 605.1820860554587 Z  M 613.0371093749999 600.0961485554587 L 611.9003906249999 600.2719298054587 L 607.0722656249999 613.2328673054587 Q 606.5917968749999 614.5102110554587 605.6894531249999 615.4594298054587 Q 604.7871093749999 616.4086485554587 603.2636718749999 616.4086485554587 Q 602.9941406249999 616.4086485554587 602.5605468749999 616.3441954304587 Q 602.1269531249999 616.2797423054587 601.8925781249999 616.2211485554587 L 602.1269531249999 614.4047423054587 Q 602.0566406249999 614.3930235554587 602.5429687499999 614.4281798054587 Q 603.0292968749999 614.4633360554587 603.1582031249999 614.4633360554587 Q 603.8964843749999 614.4633360554587 604.3535156249999 613.8246641804587 Q 604.8105468749999 613.1859923054587 605.1503906249999 612.3539610554587 L 605.7011718749999 611.0414610554587 L 601.5175781249999 600.2836485554587 L 600.3574218749999 600.0961485554587 L 600.3574218749999 598.6078673054587 L 605.4785156249999 598.6078673054587 L 605.4785156249999 600.0961485554587 L 604.0488281249999 600.3305235554587 L 606.2402343749999 606.5883360554587 L 606.6621093749999 608.2055235554587 L 606.7324218749999 608.2055235554587 L 609.3691406249999 600.3305235554587 L 607.9277343749999 600.0961485554587 L 607.9277343749999 598.6078673054587 L 613.0371093749999 598.6078673054587 L 613.0371093749999 600.0961485554587 Z  M 446.5605468749999 609.8109923054587 L 448.4707031249999 609.4828673054587 L 448.4707031249999 600.4242735554587 L 446.5605468749999 600.0961485554587 L 446.5605468749999 598.6078673054587 L 450.5449218749999 598.6078673054587 L 450.6972656249999 600.2602110554587 Q 451.3066406249999 599.3578673054587 452.2675781249999 598.8656798054587 Q 453.2285156249999 598.3734923054587 454.4941406249999 598.3734923054587 Q 455.7597656249999 598.3734923054587 456.6679687499999 598.9594298054587 Q 457.5761718749999 599.5453673054587 458.0332031249999 600.7172423054587 Q 458.6308593749999 599.6391173054587 459.6152343749999 599.0063048054587 Q 460.5996093749999 598.3734923054587 461.9121093749999 598.3734923054587 Q 463.8574218749999 598.3734923054587 464.9824218749999 599.7035704304587 Q 466.1074218749999 601.0336485554587 466.1074218749999 603.7055235554587 L 466.1074218749999 609.4828673054587 L 468.0175781249999 609.8109923054587 L 468.0175781249999 611.2875548054587 L 461.8769531249999 611.2875548054587 L 461.8769531249999 609.8109923054587 L 463.7871093749999 609.4828673054587 L 463.7871093749999 603.6820860554587 Q 463.7871093749999 601.8070860554587 463.1425781249999 601.0277891804587 Q 462.4980468749999 600.2484923054587 461.2324218749999 600.2484923054587 Q 460.0253906249999 600.2484923054587 459.2929687499999 601.0981016804587 Q 458.5605468749999 601.9477110554587 458.4433593749999 603.2367735554587 L 458.4433593749999 609.4828673054587 L 460.3535156249999 609.8109923054587 L 460.3535156249999 611.2875548054587 L 454.2246093749999 611.2875548054587 L 454.2246093749999 609.8109923054587 L 456.1347656249999 609.4828673054587 L 456.1347656249999 603.6820860554587 Q 456.1347656249999 601.9008360554587 455.4726562499999 601.0746641804587 Q 454.8105468749999 600.2484923054587 453.5566406249999 600.2484923054587 Q 452.5019531249999 600.2484923054587 451.8222656249999 600.6820860554587 Q 451.1425781249999 601.1156798054587 450.7792968749999 601.9008360554587 L 450.7792968749999 609.4828673054587 L 452.6894531249999 609.8109923054587 L 452.6894531249999 611.2875548054587 L 446.5605468749999 611.2875548054587 L 446.5605468749999 609.8109923054587 Z  M 478.7636718749999 609.4125548054587 Q 478.1660156249999 610.4320860554587 477.2226562499999 610.9828673054587 Q 476.2792968749999 611.5336485554587 475.0488281249999 611.5336485554587 Q 472.9863281249999 611.5336485554587 471.8261718749999 610.2094298054587 Q 470.6660156249999 608.8852110554587 470.6660156249999 606.0844298054587 L 470.6660156249999 600.4242735554587 L 469.2128906249999 600.0961485554587 L 469.2128906249999 598.6078673054587 L 470.6660156249999 598.6078673054587 L 472.9746093749999 598.6078673054587 L 472.9746093749999 606.1078673054587 Q 472.9746093749999 608.1352110554587 473.5722656249999 608.8969298054587 Q 474.1699218749999 609.6586485554587 475.4355468749999 609.6586485554587 Q 476.6660156249999 609.6586485554587 477.4687499999999 609.1606016804587 Q 478.2714843749999 608.6625548054587 478.6816406249999 607.7484923054587 L 478.6816406249999 600.4242735554587 L 476.9824218749999 600.0961485554587 L 476.9824218749999 598.6078673054587 L 478.6816406249999 598.6078673054587 L 480.9902343749999 598.6078673054587 L 480.9902343749999 609.4828673054587 L 482.4433593749999 609.8109923054587 L 482.4433593749999 611.2875548054587 L 478.9160156249999 611.2875548054587 L 478.7636718749999 609.4125548054587 Z  M 483.9550781249999 594.4945860554587 L 483.9550781249999 593.0063048054587 L 488.1738281249999 593.0063048054587 L 488.1738281249999 609.4828673054587 L 490.0839843749999 609.8109923054587 L 490.0839843749999 611.2875548054587 L 483.9550781249999 611.2875548054587 L 483.9550781249999 609.8109923054587 L 485.8652343749999 609.4828673054587 L 485.8652343749999 594.8227110554587 L 483.9550781249999 594.4945860554587 Z  M 495.8613281249999 595.5492735554587 L 495.8613281249999 598.6078673054587 L 498.2636718749999 598.6078673054587 L 498.2636718749999 600.3188048054587 L 495.8613281249999 600.3188048054587 L 495.8613281249999 608.0180235554587 Q 495.8613281249999 608.9086485554587 496.2304687499999 609.2719298054587 Q 496.5996093749999 609.6352110554587 497.2089843749999 609.6352110554587 Q 497.5136718749999 609.6352110554587 497.8945312499999 609.5824766804587 Q 498.2753906249999 609.5297423054587 498.5332031249999 609.4711485554587 L 498.8496093749999 611.0531798054587 Q 498.5214843749999 611.2641173054587 497.8886718749999 611.3988829304587 Q 497.2558593749999 611.5336485554587 496.6230468749999 611.5336485554587 Q 495.2167968749999 611.5336485554587 494.3847656249999 610.6840391804587 Q 493.5527343749999 609.8344298054587 493.5527343749999 608.0180235554587 L 493.5527343749999 600.3188048054587 L 491.5488281249999 600.3188048054587 L 491.5488281249999 598.6078673054587 L 493.5527343749999 598.6078673054587 L 493.5527343749999 595.5492735554587 L 495.8613281249999 595.5492735554587 Z  M 500.6191406249999 609.8109923054587 L 502.5292968749999 609.4828673054587 L 502.5292968749999 600.4242735554587 L 500.6191406249999 600.0961485554587 L 500.6191406249999 598.6078673054587 L 504.8378906249999 598.6078673054587 L 504.8378906249999 609.4828673054587 L 506.7480468749999 609.8109923054587 L 506.7480468749999 611.2875548054587 L 500.6191406249999 611.2875548054587 L 500.6191406249999 609.8109923054587 Z  M 504.8378906249999 595.3617735554587 L 502.5292968749999 595.3617735554587 L 502.5292968749999 593.0063048054587 L 504.8378906249999 593.0063048054587 L 504.8378906249999 595.3617735554587 Z  M 508.2246093749999 614.6742735554587 L 510.1347656249999 614.3461485554587 L 510.1347656249999 600.4242735554587 L 508.2246093749999 600.0961485554587 L 508.2246093749999 598.6078673054587 L 512.1152343749999 598.6078673054587 L 512.3261718749999 600.1547423054587 Q 512.9589843749999 599.2875548054587 513.8671874999999 598.8305235554587 Q 514.7753906249999 598.3734923054587 515.9707031249999 598.3734923054587 Q 518.3261718749999 598.3734923054587 519.6328124999999 600.2426329304587 Q 520.9394531249999 602.1117735554587 520.9394531249999 605.1820860554587 L 520.9394531249999 605.4281798054587 Q 520.9394531249999 608.1703673054587 519.6269531249999 609.8520079304587 Q 518.3144531249999 611.5336485554587 516.0058593749999 611.5336485554587 Q 514.8339843749999 611.5336485554587 513.9492187499999 611.1410704304587 Q 513.0644531249999 610.7484923054587 512.4433593749999 609.9750548054587 L 512.4433593749999 614.3461485554587 L 514.3535156249999 614.6742735554587 L 514.3535156249999 616.1625548054587 L 508.2246093749999 616.1625548054587 L 508.2246093749999 614.6742735554587 Z  M 518.6191406249999 605.1820860554587 Q 518.6191406249999 603.0141173054587 517.7753906249999 601.6313048054587 Q 516.9316406249999 600.2484923054587 515.2675781249999 600.2484923054587 Q 514.2832031249999 600.2484923054587 513.5800781249999 600.6938048054587 Q 512.8769531249999 601.1391173054587 512.4433593749999 601.9125548054587 L 512.4433593749999 608.0883360554587 Q 512.8769531249999 608.8734923054587 513.5742187499999 609.3012266804587 Q 514.2714843749999 609.7289610554587 515.2910156249999 609.7289610554587 Q 516.9316406249999 609.7289610554587 517.7753906249999 608.5336485554587 Q 518.6191406249999 607.3383360554587 518.6191406249999 605.4281798054587 L 518.6191406249999 605.1820860554587 Z  M 522.7207031249999 594.4945860554587 L 522.7207031249999 593.0063048054587 L 526.9394531249999 593.0063048054587 L 526.9394531249999 609.4828673054587 L 528.8496093749999 609.8109923054587 L 528.8496093749999 611.2875548054587 L 522.7207031249999 611.2875548054587 L 522.7207031249999 609.8109923054587 L 524.6308593749999 609.4828673054587 L 524.6308593749999 594.8227110554587 L 522.7207031249999 594.4945860554587 Z  M 542.6425781249999 600.0961485554587 L 541.5058593749999 600.2719298054587 L 536.6777343749999 613.2328673054587 Q 536.1972656249999 614.5102110554587 535.2949218749999 615.4594298054587 Q 534.3925781249999 616.4086485554587 532.8691406249999 616.4086485554587 Q 532.5996093749999 616.4086485554587 532.1660156249999 616.3441954304587 Q 531.7324218749999 616.2797423054587 531.4980468749999 616.2211485554587 L 531.7324218749999 614.4047423054587 Q 531.6621093749999 614.3930235554587 532.1484374999999 614.4281798054587 Q 532.6347656249999 614.4633360554587 532.7636718749999 614.4633360554587 Q 533.5019531249999 614.4633360554587 533.9589843749999 613.8246641804587 Q 534.4160156249999 613.1859923054587 534.7558593749999 612.3539610554587 L 535.3066406249999 611.0414610554587 L 531.1230468749999 600.2836485554587 L 529.9628906249999 600.0961485554587 L 529.9628906249999 598.6078673054587 L 535.0839843749999 598.6078673054587 L 535.0839843749999 600.0961485554587 L 533.6542968749999 600.3305235554587 L 535.8457031249999 606.5883360554587 L 536.2675781249999 608.2055235554587 L 536.3378906249999 608.2055235554587 L 538.9746093749999 600.3305235554587 L 537.5332031249999 600.0961485554587 L 537.5332031249999 598.6078673054587 L 542.6425781249999 598.6078673054587 L 542.6425781249999 600.0961485554587 Z  M 544.2128906249999 609.8109923054587 L 546.1230468749999 609.4828673054587 L 546.1230468749999 600.4242735554587 L 544.2128906249999 600.0961485554587 L 544.2128906249999 598.6078673054587 L 548.4316406249999 598.6078673054587 L 548.4316406249999 609.4828673054587 L 550.3417968749999 609.8109923054587 L 550.3417968749999 611.2875548054587 L 544.2128906249999 611.2875548054587 L 544.2128906249999 609.8109923054587 Z  M 548.4316406249999 595.3617735554587 L 546.1230468749999 595.3617735554587 L 546.1230468749999 593.0063048054587 L 548.4316406249999 593.0063048054587 L 548.4316406249999 595.3617735554587 Z  M 551.7597656249999 609.8109923054587 L 553.6699218749999 609.4828673054587 L 553.6699218749999 600.4242735554587 L 551.7597656249999 600.0961485554587 L 551.7597656249999 598.6078673054587 L 555.7324218749999 598.6078673054587 L 555.8964843749999 600.4945860554587 Q 556.5292968749999 599.4867735554587 557.4843749999999 598.9301329304587 Q 558.4394531249999 598.3734923054587 559.6582031249999 598.3734923054587 Q 561.7089843749999 598.3734923054587 562.8339843749999 599.5746641804587 Q 563.9589843749999 600.7758360554587 563.9589843749999 603.2836485554587 L 563.9589843749999 609.4828673054587 L 565.8691406249999 609.8109923054587 L 565.8691406249999 611.2875548054587 L 559.7402343749999 611.2875548054587 L 559.7402343749999 609.8109923054587 L 561.6503906249999 609.4828673054587 L 561.6503906249999 603.3305235554587 Q 561.6503906249999 601.6547423054587 560.9882812499999 600.9516173054587 Q 560.3261718749999 600.2484923054587 558.9667968749999 600.2484923054587 Q 557.9707031249999 600.2484923054587 557.2031249999999 600.7289610554587 Q 556.4355468749999 601.2094298054587 555.9785156249999 602.0414610554587 L 555.9785156249999 609.4828673054587 L 557.8886718749999 609.8109923054587 L 557.8886718749999 611.2875548054587 L 551.7597656249999 611.2875548054587 L 551.7597656249999 609.8109923054587 Z  M 567.5566406249999 605.1820860554587 Q 567.5566406249999 602.1234923054587 568.8925781249999 600.2484923054587 Q 570.2285156249999 598.3734923054587 572.5839843749999 598.3734923054587 Q 573.7792968749999 598.3734923054587 574.6816406249999 598.8422423054587 Q 575.5839843749999 599.3109923054587 576.1933593749999 600.2016173054587 L 576.4042968749999 598.6078673054587 L 578.3496093749999 598.6078673054587 L 578.3496093749999 611.1234923054587 Q 578.3496093749999 613.5844298054587 576.9785156249999 614.9965391804587 Q 575.6074218749999 616.4086485554587 573.0761718749999 616.4086485554587 Q 572.1621093749999 616.4086485554587 571.0957031249999 616.1566954304587 Q 570.0292968749999 615.9047423054587 569.2207031249999 615.4711485554587 L 569.8183593749999 613.6781798054587 Q 570.4628906249999 614.0180235554587 571.3417968749999 614.2406798054587 Q 572.2207031249999 614.4633360554587 573.0527343749999 614.4633360554587 Q 574.5996093749999 614.4633360554587 575.3203124999999 613.5961485554587 Q 576.0410156249999 612.7289610554587 576.0410156249999 611.1234923054587 L 576.0410156249999 609.9164610554587 Q 575.4199218749999 610.7133360554587 574.5527343749999 611.1234923054587 Q 573.6855468749999 611.5336485554587 572.5605468749999 611.5336485554587 Q 570.2285156249999 611.5336485554587 568.8925781249999 609.8461485554587 Q 567.5566406249999 608.1586485554587 567.5566406249999 605.4281798054587 L 567.5566406249999 605.1820860554587 Z  M 569.8652343749999 605.4281798054587 Q 569.8652343749999 607.3383360554587 570.6738281249999 608.4984923054587 Q 571.4824218749999 609.6586485554587 573.1347656249999 609.6586485554587 Q 574.1777343749999 609.6586485554587 574.8808593749999 609.1840391804587 Q 575.5839843749999 608.7094298054587 576.0410156249999 607.8422423054587 L 576.0410156249999 602.0063048054587 Q 575.5957031249999 601.1977110554587 574.8808593749999 600.7231016804587 Q 574.1660156249999 600.2484923054587 573.1582031249999 600.2484923054587 Q 571.5058593749999 600.2484923054587 570.6855468749999 601.6313048054587 Q 569.8652343749999 603.0141173054587 569.8652343749999 605.1820860554587 L 569.8652343749999 605.4281798054587 Z  M 418.9394531249999 594.2250548054587 Q 421.6113281249999 594.2250548054587 423.1171874999999 595.3793516804587 Q 424.6230468749999 596.5336485554587 424.6230468749999 598.8422423054587 Q 424.6230468749999 599.9789610554587 423.9023437499999 600.8754454304587 Q 423.1816406249999 601.7719298054587 421.9980468749999 602.2055235554587 Q 423.5332031249999 602.5336485554587 424.4238281249999 603.7172423054587 Q 425.3144531249999 604.9008360554587 425.3144531249999 606.4711485554587 Q 425.3144531249999 608.8148985554587 423.7910156249999 610.0512266804587 Q 422.2675781249999 611.2875548054587 419.6660156249999 611.2875548054587 L 411.4628906249999 611.2875548054587 L 411.4628906249999 609.8109923054587 L 413.3730468749999 609.4828673054587 L 413.3730468749999 596.0414610554587 L 411.4628906249999 595.7133360554587 L 411.4628906249999 594.2250548054587 L 413.3730468749999 594.2250548054587 L 418.9394531249999 594.2250548054587 Z  M 415.6816406249999 603.2836485554587 L 415.6816406249999 609.4828673054587 L 419.6660156249999 609.4828673054587 Q 421.2480468749999 609.4828673054587 422.1210937499999 608.7035704304587 Q 422.9941406249999 607.9242735554587 422.9941406249999 606.4945860554587 Q 422.9941406249999 604.9945860554587 422.2617187499999 604.1391173054587 Q 421.5292968749999 603.2836485554587 420.0175781249999 603.2836485554587 L 415.6816406249999 603.2836485554587 Z  M 415.6816406249999 601.4789610554587 L 419.5371093749999 601.4789610554587 Q 420.7792968749999 601.4438048054587 421.5468749999999 600.7406798054587 Q 422.3144531249999 600.0375548054587 422.3144531249999 598.7953673054587 Q 422.3144531249999 597.4125548054587 421.4472656249999 596.7270079304587 Q 420.5800781249999 596.0414610554587 418.9394531249999 596.0414610554587 L 415.6816406249999 596.0414610554587 L 415.6816406249999 601.4789610554587 Z  M 439.4824218749999 600.0961485554587 L 438.3457031249999 600.2719298054587 L 433.5175781249999 613.2328673054587 Q 433.0371093749999 614.5102110554587 432.1347656249999 615.4594298054587 Q 431.2324218749999 616.4086485554587 429.7089843749999 616.4086485554587 Q 429.4394531249999 616.4086485554587 429.0058593749999 616.3441954304587 Q 428.5722656249999 616.2797423054587 428.3378906249999 616.2211485554587 L 428.5722656249999 614.4047423054587 Q 428.5019531249999 614.3930235554587 428.9882812499999 614.4281798054587 Q 429.4746093749999 614.4633360554587 429.6035156249999 614.4633360554587 Q 430.3417968749999 614.4633360554587 430.7988281249999 613.8246641804587 Q 431.2558593749999 613.1859923054587 431.5957031249999 612.3539610554587 L 432.1464843749999 611.0414610554587 L 427.9628906249999 600.2836485554587 L 426.8027343749999 600.0961485554587 L 426.8027343749999 598.6078673054587 L 431.9238281249999 598.6078673054587 L 431.9238281249999 600.0961485554587 L 430.4941406249999 600.3305235554587 L 432.6855468749999 606.5883360554587 L 433.1074218749999 608.2055235554587 L 433.1777343749999 608.2055235554587 L 435.8144531249999 600.3305235554587 L 434.3730468749999 600.0961485554587 L 434.3730468749999 598.6078673054587 L 439.4824218749999 598.6078673054587 L 439.4824218749999 600.0961485554587 Z " fill-rule="evenodd" fill="rgb(0,0,0)"/><linearGradient id="_lgradient_50" x1="50%" y1="0%" x2="50.000000000000014%" y2="100%"><stop offset="0%" stop-opacity="1" style="stop-color:rgb(227,58,58)"/><stop offset="100%" stop-opacity="1" style="stop-color:rgb(162,39,39)"/></linearGradient><rect x="759.9453658536585" y="740" width="120.0273170731707" height="20" transform="matrix(1,0,0,1,0,0)" fill="url(#_lgradient_50)"/><linearGradient id="_lgradient_51" x1="50%" y1="0%" x2="50.000000000000014%" y2="100%"><stop offset="0%" stop-opacity="1" style="stop-color:rgb(58,109,227)"/><stop offset="99.1304347826087%" stop-opacity="1" style="stop-color:rgb(46,85,176)"/></linearGradient><rect x="759.9726829268293" y="773.489756097561" width="120" height="20" transform="matrix(1,0,0,1,0,0)" fill="url(#_lgradient_51)"/><line x1="149.9726829268293" y1="807.9510104529617" x2="1129.9726829268293" y2="807.9510104529617" vector-effect="non-scaling-stroke" stroke-width="4" stroke="rgb(19,19,19)" stroke-linejoin="miter" stroke-linecap="square" stroke-miterlimit="3"/><path d=" M 631 807.9397909407667 C 631 803.8004282907667 634.36063735 800.4397909407667 638.5 800.4397909407667 C 642.63936265 800.4397909407667 646 803.8004282907667 646 807.9397909407667 C 646 812.0791535907666 642.63936265 815.4397909407667 638.5 815.4397909407667 C 634.36063735 815.4397909407667 631 812.0791535907666 631 807.9397909407667 Z " fill="rgb(19,19,19)"/><line x1="199.9726829268293" y1="802.7162191855464" x2="199.9726829268293" y2="814.7162191855464" vector-effect="non-scaling-stroke" stroke-width="2" stroke="rgb(0,0,0)" stroke-linejoin="miter" stroke-linecap="square" stroke-miterlimit="3"/><line x1="239.9726829268293" y1="802.7162191855464" x2="239.9726829268293" y2="814.7162191855464" vector-effect="non-scaling-stroke" stroke-width="2" stroke="rgb(0,0,0)" stroke-linejoin="miter" stroke-linecap="square" stroke-miterlimit="3"/><line x1="279.9726829268293" y1="802.7162191855464" x2="279.9726829268293" y2="814.7162191855464" vector-effect="non-scaling-stroke" stroke-width="2" stroke="rgb(0,0,0)" stroke-linejoin="miter" stroke-linecap="square" stroke-miterlimit="3"/><line x1="319.9726829268293" y1="802.7162191855464" x2="319.9726829268293" y2="814.7162191855464" vector-effect="non-scaling-stroke" stroke-width="2" stroke="rgb(0,0,0)" stroke-linejoin="miter" stroke-linecap="square" stroke-miterlimit="3"/><line x1="359.9726829268293" y1="802.7162191855464" x2="359.9726829268293" y2="814.7162191855464" vector-effect="non-scaling-stroke" stroke-width="2" stroke="rgb(0,0,0)" stroke-linejoin="miter" stroke-linecap="square" stroke-miterlimit="3"/><line x1="399.9726829268293" y1="802.7162191855464" x2="399.9726829268293" y2="814.7162191855464" vector-effect="non-scaling-stroke" stroke-width="2" stroke="rgb(0,0,0)" stroke-linejoin="miter" stroke-linecap="square" stroke-miterlimit="3"/><line x1="439.9726829268293" y1="802.7162191855464" x2="439.9726829268293" y2="814.7162191855464" vector-effect="non-scaling-stroke" stroke-width="2" stroke="rgb(0,0,0)" stroke-linejoin="miter" stroke-linecap="square" stroke-miterlimit="3"/><line x1="479.9726829268293" y1="802.7162191855464" x2="479.9726829268293" y2="814.7162191855464" vector-effect="non-scaling-stroke" stroke-width="2" stroke="rgb(0,0,0)" stroke-linejoin="miter" stroke-linecap="square" stroke-miterlimit="3"/><line x1="519.9726829268293" y1="802.7162191855464" x2="519.9726829268293" y2="814.7162191855464" vector-effect="non-scaling-stroke" stroke-width="2" stroke="rgb(0,0,0)" stroke-linejoin="miter" stroke-linecap="square" stroke-miterlimit="3"/><line x1="559.9726829268293" y1="802.7162191855464" x2="559.9726829268293" y2="814.7162191855464" vector-effect="non-scaling-stroke" stroke-width="2" stroke="rgb(0,0,0)" stroke-linejoin="miter" stroke-linecap="square" stroke-miterlimit="3"/><line x1="599.9726829268293" y1="802.7162191855464" x2="599.9726829268293" y2="814.7162191855464" vector-effect="non-scaling-stroke" stroke-width="2" stroke="rgb(0,0,0)" stroke-linejoin="miter" stroke-linecap="square" stroke-miterlimit="3"/><line x1="679.9726829268293" y1="801.9510104529617" x2="679.9726829268293" y2="813.9510104529617" vector-effect="non-scaling-stroke" stroke-width="2" stroke="rgb(0,0,0)" stroke-linejoin="miter" stroke-linecap="square" stroke-miterlimit="3"/><line x1="719.9726829268293" y1="801.9510104529617" x2="719.9726829268293" y2="813.9510104529617" vector-effect="non-scaling-stroke" stroke-width="2" stroke="rgb(0,0,0)" stroke-linejoin="miter" stroke-linecap="square" stroke-miterlimit="3"/><line x1="759.9726829268293" y1="801.9510104529617" x2="759.9726829268293" y2="813.9510104529617" vector-effect="non-scaling-stroke" stroke-width="2" stroke="rgb(0,0,0)" stroke-linejoin="miter" stroke-linecap="square" stroke-miterlimit="3"/><line x1="799.9726829268293" y1="801.9510104529617" x2="799.9726829268293" y2="813.9510104529617" vector-effect="non-scaling-stroke" stroke-width="2" stroke="rgb(0,0,0)" stroke-linejoin="miter" stroke-linecap="square" stroke-miterlimit="3"/><line x1="839.9726829268293" y1="801.9510104529617" x2="839.9726829268293" y2="813.9510104529617" vector-effect="non-scaling-stroke" stroke-width="2" stroke="rgb(0,0,0)" stroke-linejoin="miter" stroke-linecap="square" stroke-miterlimit="3"/><line x1="879.9726829268293" y1="801.9510104529617" x2="879.9726829268293" y2="813.9510104529617" vector-effect="non-scaling-stroke" stroke-width="2" stroke="rgb(0,0,0)" stroke-linejoin="miter" stroke-linecap="square" stroke-miterlimit="3"/><line x1="919.9726829268293" y1="801.9510104529617" x2="919.9726829268293" y2="813.9510104529617" vector-effect="non-scaling-stroke" stroke-width="2" stroke="rgb(0,0,0)" stroke-linejoin="miter" stroke-linecap="square" stroke-miterlimit="3"/><line x1="959.9726829268293" y1="801.9510104529617" x2="959.9726829268293" y2="813.9510104529617" vector-effect="non-scaling-stroke" stroke-width="2" stroke="rgb(0,0,0)" stroke-linejoin="miter" stroke-linecap="square" stroke-miterlimit="3"/><line x1="999.9726829268293" y1="801.9510104529617" x2="999.9726829268293" y2="813.9510104529617" vector-effect="non-scaling-stroke" stroke-width="2" stroke="rgb(0,0,0)" stroke-linejoin="miter" stroke-linecap="square" stroke-miterlimit="3"/><line x1="1039.9726829268293" y1="801.9510104529617" x2="1039.9726829268293" y2="813.9510104529617" vector-effect="non-scaling-stroke" stroke-width="2" stroke="rgb(0,0,0)" stroke-linejoin="miter" stroke-linecap="square" stroke-miterlimit="3"/><line x1="1079.9726829268293" y1="801.9510104529617" x2="1079.9726829268293" y2="813.9510104529617" vector-effect="non-scaling-stroke" stroke-width="2" stroke="rgb(0,0,0)" stroke-linejoin="miter" stroke-linecap="square" stroke-miterlimit="3"/><path d=" M 1130 800.4397909407667 L 1130 816.8683623693379 L 1150 808.6540766550522 L 1130 800.4397909407667 Z " fill="rgb(19,19,19)"/><path d=" M 149.9726829268293 799.7255052264809 L 149.9726829268293 816.1540766550523 L 129.9726829268293 807.9397909407667 L 149.9726829268293 799.7255052264809 Z " fill="rgb(19,19,19)"/><path d=" M 722.70703125 858.55078125 L 724.72265625 858.55078125 Q 726.2578125 858.55078125 726.896484375 857.783203125 Q 727.53515625 857.015625 727.53515625 855.64453125 Q 727.53515625 854.1796875 726.80859375 853.41796875 Q 726.08203125 852.65625 724.6640625 852.65625 Q 723.31640625 852.65625 722.501953125 853.447265625 Q 721.6875 854.23828125 721.6875 855.55078125 L 719.47265625 855.55078125 L 719.44921875 855.48046875 Q 719.390625 853.546875 720.849609375 852.193359375 Q 722.30859375 850.83984375 724.6640625 850.83984375 Q 727.03125 850.83984375 728.4375 852.099609375 Q 729.84375 853.359375 729.84375 855.69140625 Q 729.84375 856.74609375 729.205078125 857.794921875 Q 728.56640625 858.84375 727.2890625 859.39453125 Q 728.82421875 859.8984375 729.462890625 860.9765625 Q 730.1015625 862.0546875 730.1015625 863.390625 Q 730.1015625 865.72265625 728.572265625 867.05859375 Q 727.04296875 868.39453125 724.6640625 868.39453125 Q 722.3203125 868.39453125 720.796875 867.134765625 Q 719.2734375 865.875 719.33203125 863.71875 L 719.3671875 863.6484375 L 721.5703125 863.6484375 Q 721.5703125 864.99609375 722.396484375 865.79296875 Q 723.22265625 866.58984375 724.6640625 866.58984375 Q 726.12890625 866.58984375 726.9609375 865.79296875 Q 727.79296875 864.99609375 727.79296875 863.4375 Q 727.79296875 861.85546875 727.0546875 861.10546875 Q 726.31640625 860.35546875 724.72265625 860.35546875 L 722.70703125 860.35546875 L 722.70703125 858.55078125 Z  M 710.77734375 858.50390625 L 701.00390625 858.50390625 L 701.00390625 856.58203125 L 710.77734375 856.58203125 L 710.77734375 858.50390625 Z  M 710.77734375 863.37890625 L 701.00390625 863.37890625 L 701.00390625 861.45703125 L 710.77734375 861.45703125 L 710.77734375 863.37890625 Z  M 673.3359375 852.57421875 L 671.49609375 852.796875 L 675.0703125 859.7578125 L 678.64453125 852.796875 L 676.81640625 852.57421875 L 676.81640625 851.0859375 L 682.67578125 851.0859375 L 682.67578125 852.57421875 L 681.234375 852.796875 L 676.171875 862.1484375 L 676.171875 866.34375 L 678.08203125 866.671875 L 678.08203125 868.1484375 L 671.96484375 868.1484375 L 671.96484375 866.671875 L 673.875 866.34375 L 673.875 861.97265625 L 668.90625 852.796875 L 667.4765625 852.57421875 L 667.4765625 851.0859375 L 673.3359375 851.0859375 L 673.3359375 852.57421875 Z  M 684.84375 866.671875 L 687.48046875 866.34375 L 687.48046875 853.55859375 L 684.796875 853.60546875 L 684.796875 852.1640625 L 689.7890625 851.0859375 L 689.7890625 866.34375 L 692.4140625 866.671875 L 692.4140625 868.1484375 L 684.84375 868.1484375 L 684.84375 866.671875 Z  M 591.24609375 868.1484375 Q 591.140625 867.6328125 591.08203125 867.22265625 Q 591.0234375 866.8125 591 866.40234375 Q 590.33203125 867.2578125 589.330078125 867.826171875 Q 588.328125 868.39453125 587.19140625 868.39453125 Q 585.2109375 868.39453125 584.1796875 867.427734375 Q 583.1484375 866.4609375 583.1484375 864.703125 Q 583.1484375 862.8984375 584.607421875 861.919921875 Q 586.06640625 860.94140625 588.609375 860.94140625 L 590.98828125 860.94140625 L 590.98828125 859.46484375 Q 590.98828125 858.3515625 590.28515625 857.701171875 Q 589.58203125 857.05078125 588.328125 857.05078125 Q 587.4609375 857.05078125 586.798828125 857.2734375 Q 586.13671875 857.49609375 585.7265625 857.8828125 L 585.48046875 859.21875 L 583.69921875 859.21875 L 583.69921875 856.7578125 Q 584.56640625 856.06640625 585.796875 855.650390625 Q 587.02734375 855.234375 588.46875 855.234375 Q 590.625 855.234375 591.9609375 856.3359375 Q 593.296875 857.4375 593.296875 859.48828125 L 593.296875 865.59375 Q 593.296875 865.83984375 593.302734375 866.07421875 Q 593.30859375 866.30859375 593.33203125 866.54296875 L 594.26953125 866.671875 L 594.26953125 868.1484375 L 591.24609375 868.1484375 Z  M 587.53125 866.4609375 Q 588.6796875 866.4609375 589.62890625 865.91015625 Q 590.578125 865.359375 590.98828125 864.5859375 L 590.98828125 862.5 L 588.52734375 862.5 Q 587.109375 862.5 586.283203125 863.15625 Q 585.45703125 863.8125 585.45703125 864.75 Q 585.45703125 865.58203125 585.97265625 866.021484375 Q 586.48828125 866.4609375 587.53125 866.4609375 Z  M 604.734375 866.63671875 Q 604.11328125 867.50390625 603.216796875 867.94921875 Q 602.3203125 868.39453125 601.13671875 868.39453125 Q 598.81640625 868.39453125 597.509765625 866.712890625 Q 596.203125 865.03125 596.203125 862.2890625 L 596.203125 862.04296875 Q 596.203125 858.984375 597.509765625 857.109375 Q 598.81640625 855.234375 601.16015625 855.234375 Q 602.28515625 855.234375 603.146484375 855.650390625 Q 604.0078125 856.06640625 604.6171875 856.8515625 L 604.6171875 851.68359375 L 602.70703125 851.35546875 L 602.70703125 849.8671875 L 604.6171875 849.8671875 L 606.92578125 849.8671875 L 606.92578125 866.34375 L 608.8359375 866.671875 L 608.8359375 868.1484375 L 604.921875 868.1484375 L 604.734375 866.63671875 Z  M 598.51171875 862.2890625 Q 598.51171875 864.19921875 599.296875 865.359375 Q 600.08203125 866.51953125 601.72265625 866.51953125 Q 602.75390625 866.51953125 603.45703125 866.05078125 Q 604.16015625 865.58203125 604.6171875 864.7265625 L 604.6171875 858.84375 Q 604.171875 858.046875 603.45703125 857.578125 Q 602.7421875 857.109375 601.74609375 857.109375 Q 600.09375 857.109375 599.302734375 858.48046875 Q 598.51171875 859.8515625 598.51171875 862.04296875 L 598.51171875 862.2890625 Z  M 619.13671875 866.63671875 Q 618.515625 867.50390625 617.619140625 867.94921875 Q 616.72265625 868.39453125 615.5390625 868.39453125 Q 613.21875 868.39453125 611.912109375 866.712890625 Q 610.60546875 865.03125 610.60546875 862.2890625 L 610.60546875 862.04296875 Q 610.60546875 858.984375 611.912109375 857.109375 Q 613.21875 855.234375 615.5625 855.234375 Q 616.6875 855.234375 617.548828125 855.650390625 Q 618.41015625 856.06640625 619.01953125 856.8515625 L 619.01953125 851.68359375 L 617.109375 851.35546875 L 617.109375 849.8671875 L 619.01953125 849.8671875 L 621.328125 849.8671875 L 621.328125 866.34375 L 623.23828125 866.671875 L 623.23828125 868.1484375 L 619.32421875 868.1484375 L 619.13671875 866.63671875 Z  M 612.9140625 862.2890625 Q 612.9140625 864.19921875 613.69921875 865.359375 Q 614.484375 866.51953125 616.125 866.51953125 Q 617.15625 866.51953125 617.859375 866.05078125 Q 618.5625 865.58203125 619.01953125 864.7265625 L 619.01953125 858.84375 Q 618.57421875 858.046875 617.859375 857.578125 Q 617.14453125 857.109375 616.1484375 857.109375 Q 614.49609375 857.109375 613.705078125 858.48046875 Q 612.9140625 859.8515625 612.9140625 862.04296875 L 612.9140625 862.2890625 Z  M 624.99609375 866.671875 L 626.90625 866.34375 L 626.90625 857.28515625 L 624.99609375 856.95703125 L 624.99609375 855.46875 L 629.21484375 855.46875 L 629.21484375 866.34375 L 631.125 866.671875 L 631.125 868.1484375 L 624.99609375 868.1484375 L 624.99609375 866.671875 Z  M 629.21484375 852.22265625 L 626.90625 852.22265625 L 626.90625 849.8671875 L 629.21484375 849.8671875 L 629.21484375 852.22265625 Z  M 632.54296875 866.671875 L 634.453125 866.34375 L 634.453125 857.28515625 L 632.54296875 856.95703125 L 632.54296875 855.46875 L 636.515625 855.46875 L 636.6796875 857.35546875 Q 637.3125 856.34765625 638.267578125 855.791015625 Q 639.22265625 855.234375 640.44140625 855.234375 Q 642.4921875 855.234375 643.6171875 856.435546875 Q 644.7421875 857.63671875 644.7421875 860.14453125 L 644.7421875 866.34375 L 646.65234375 866.671875 L 646.65234375 868.1484375 L 640.5234375 868.1484375 L 640.5234375 866.671875 L 642.43359375 866.34375 L 642.43359375 860.19140625 Q 642.43359375 858.515625 641.771484375 857.8125 Q 641.109375 857.109375 639.75 857.109375 Q 638.75390625 857.109375 637.986328125 857.58984375 Q 637.21875 858.0703125 636.76171875 858.90234375 L 636.76171875 866.34375 L 638.671875 866.671875 L 638.671875 868.1484375 L 632.54296875 868.1484375 L 632.54296875 866.671875 Z  M 648.33984375 862.04296875 Q 648.33984375 858.984375 649.67578125 857.109375 Q 651.01171875 855.234375 653.3671875 855.234375 Q 654.5625 855.234375 655.46484375 855.703125 Q 656.3671875 856.171875 656.9765625 857.0625 L 657.1875 855.46875 L 659.1328125 855.46875 L 659.1328125 867.984375 Q 659.1328125 870.4453125 657.76171875 871.857421875 Q 656.390625 873.26953125 653.859375 873.26953125 Q 652.9453125 873.26953125 651.87890625 873.017578125 Q 650.8125 872.765625 650.00390625 872.33203125 L 650.6015625 870.5390625 Q 651.24609375 870.87890625 652.125 871.1015625 Q 653.00390625 871.32421875 653.8359375 871.32421875 Q 655.3828125 871.32421875 656.103515625 870.45703125 Q 656.82421875 869.58984375 656.82421875 867.984375 L 656.82421875 866.77734375 Q 656.203125 867.57421875 655.3359375 867.984375 Q 654.46875 868.39453125 653.34375 868.39453125 Q 651.01171875 868.39453125 649.67578125 866.70703125 Q 648.33984375 865.01953125 648.33984375 862.2890625 L 648.33984375 862.04296875 Z  M 650.6484375 862.2890625 Q 650.6484375 864.19921875 651.45703125 865.359375 Q 652.265625 866.51953125 653.91796875 866.51953125 Q 654.9609375 866.51953125 655.6640625 866.044921875 Q 656.3671875 865.5703125 656.82421875 864.703125 L 656.82421875 858.8671875 Q 656.37890625 858.05859375 655.6640625 857.583984375 Q 654.94921875 857.109375 653.94140625 857.109375 Q 652.2890625 857.109375 651.46875 858.4921875 Q 650.6484375 859.875 650.6484375 862.04296875 L 650.6484375 862.2890625 Z  M 554.89453125 851.0859375 Q 557.56640625 851.0859375 559.072265625 852.240234375 Q 560.578125 853.39453125 560.578125 855.703125 Q 560.578125 856.83984375 559.857421875 857.736328125 Q 559.13671875 858.6328125 557.953125 859.06640625 Q 559.48828125 859.39453125 560.37890625 860.578125 Q 561.26953125 861.76171875 561.26953125 863.33203125 Q 561.26953125 865.67578125 559.74609375 866.912109375 Q 558.22265625 868.1484375 555.62109375 868.1484375 L 547.41796875 868.1484375 L 547.41796875 866.671875 L 549.328125 866.34375 L 549.328125 852.90234375 L 547.41796875 852.57421875 L 547.41796875 851.0859375 L 549.328125 851.0859375 L 554.89453125 851.0859375 Z  M 551.63671875 860.14453125 L 551.63671875 866.34375 L 555.62109375 866.34375 Q 557.203125 866.34375 558.076171875 865.564453125 Q 558.94921875 864.78515625 558.94921875 863.35546875 Q 558.94921875 861.85546875 558.216796875 861 Q 557.484375 860.14453125 555.97265625 860.14453125 L 551.63671875 860.14453125 Z  M 551.63671875 858.33984375 L 555.4921875 858.33984375 Q 556.734375 858.3046875 557.501953125 857.6015625 Q 558.26953125 856.8984375 558.26953125 855.65625 Q 558.26953125 854.2734375 557.40234375 853.587890625 Q 556.53515625 852.90234375 554.89453125 852.90234375 L 551.63671875 852.90234375 L 551.63671875 858.33984375 Z  M 575.4375 856.95703125 L 574.30078125 857.1328125 L 569.47265625 870.09375 Q 568.9921875 871.37109375 568.08984375 872.3203125 Q 567.1875 873.26953125 565.6640625 873.26953125 Q 565.39453125 873.26953125 564.9609375 873.205078125 Q 564.52734375 873.140625 564.29296875 873.08203125 L 564.52734375 871.265625 Q 564.45703125 871.25390625 564.943359375 871.2890625 Q 565.4296875 871.32421875 565.55859375 871.32421875 Q 566.296875 871.32421875 566.75390625 870.685546875 Q 567.2109375 870.046875 567.55078125 869.21484375 L 568.1015625 867.90234375 L 563.91796875 857.14453125 L 562.7578125 856.95703125 L 562.7578125 855.46875 L 567.87890625 855.46875 L 567.87890625 856.95703125 L 566.44921875 857.19140625 L 568.640625 863.44921875 L 569.0625 865.06640625 L 569.1328125 865.06640625 L 571.76953125 857.19140625 L 570.328125 856.95703125 L 570.328125 855.46875 L 575.4375 855.46875 L 575.4375 856.95703125 Z " fill-rule="evenodd" fill="rgb(0,0,0)"/></svg>