<?xml version="1.0" standalone="no"?><!-- Generator: Gravit.io --><svg xmlns="http://www.w3.org/2000/svg" xmlns:xlink="http://www.w3.org/1999/xlink" style="isolation:isolate" viewBox="0 0 1280 960" width="1280" height="960"><linearGradient id="_lgradient_30" x1="49.999999999999986%" y1="0%" x2="49.99999999999999%" y2="100%"><stop offset="0%" stop-opacity="1" style="stop-color:rgb(227,58,58)"/><stop offset="100%" stop-opacity="1" style="stop-color:rgb(162,39,39)"/></linearGradient><rect x="279.9726829268293" y="202.00000000000003" width="200.0000000000001" height="20" transform="matrix(1,0,0,1,0,0)" fill="url(#_lgradient_30)"/><linearGradient id="_lgradient_31" x1="50%" y1="0%" x2="50.000000000000014%" y2="100%"><stop offset="0%" stop-opacity="1" style="stop-color:rgb(227,58,58)"/><stop offset="100%" stop-opacity="1" style="stop-color:rgb(162,39,39)"/></linearGradient><rect x="759.9726829268293" y="428" width="200" height="20" transform="matrix(1,0,0,1,0,0)" fill="url(#_lgradient_31)"/><linearGradient id="_lgradient_32" x1="50%" y1="0%" x2="50.000000000000014%" y2="100%"><stop offset="0%" stop-opacity="1" style="stop-color:rgb(227,58,58)"/><stop offset="100%" stop-opacity="1" style="stop-color:rgb(162,39,39)"/></linearGradient><rect x="699.9863414634146" y="691" width="120.0273170731707" height="20" transform="matrix(1,0,0,1,0,0)" fill="url(#_lgradient_32)"/><linearGradient id="_lgradient_33" x1="49.99999999999999%" y1="0%" x2="50%" y2="100%"><stop offset="0%" stop-opacity="1" style="stop-color:rgb(58,109,227)"/><stop offset="99.1304347826087%" stop-opacity="1" style="stop-color:rgb(46,85,176)"/></linearGradient><rect x="759.9726829268293" y="202.00000000000003" width="120" height="20" transform="matrix(1,0,0,1,0,0)" fill="url(#_lgradient_33)"/><linearGradient id="_lgradient_34" x1="50%" y1="0%" x2="50.000000000000014%" y2="100%"><stop offset="0%" stop-opacity="1" style="stop-color:rgb(58,109,227)"/><stop offset="99.1304347826087%" stop-opacity="1" style="stop-color:rgb(46,85,176)"/></linearGradient><rect x="760" y="460" width="120" height="20" transform="matrix(1,0,0,1,0,0)" fill="url(#_lgradient_34)"/><linearGradient id="_lgradient_35" x1="50%" y1="0%" x2="50.000000000000014%" y2="100%"><stop offset="0%" stop-opacity="1" style="stop-color:rgb(58,109,227)"/><stop offset="99.1304347826087%" stop-opacity="1" style="stop-color:rgb(46,85,176)"/></linearGradient><rect x="759.9726829268293" y="724.489756097561" width="120" height="20" transform="matrix(1,0,0,1,0,0)" fill="url(#_lgradient_35)"/><line x1="149.9726829268293" y1="233.49999999999997" x2="1129.9726829268293" y2="233.49999999999997" vector-effect="non-scaling-stroke" stroke-width="4" stroke="rgb(19,19,19)" stroke-linejoin="miter" stroke-linecap="square" stroke-miterlimit="3"/><path d=" M 631 233.4887804878049 C 631 229.34941783780488 634.36063735 225.9887804878049 638.5 225.9887804878049 C 642.63936265 225.9887804878049 646 229.34941783780488 646 233.4887804878049 C 646 237.6281431378049 642.63936265 240.9887804878049 638.5 240.9887804878049 C 634.36063735 240.9887804878049 631 237.6281431378049 631 233.4887804878049 Z " fill="rgb(19,19,19)"/><line x1="199.9726829268293" y1="228.26520873258468" x2="199.9726829268293" y2="240.26520873258468" vector-effect="non-scaling-stroke" stroke-width="2" stroke="rgb(0,0,0)" stroke-linejoin="miter" stroke-linecap="square" stroke-miterlimit="3"/><line x1="239.9726829268293" y1="228.26520873258468" x2="239.9726829268293" y2="240.26520873258468" vector-effect="non-scaling-stroke" stroke-width="2" stroke="rgb(0,0,0)" stroke-linejoin="miter" stroke-linecap="square" stroke-miterlimit="3"/><line x1="279.9726829268293" y1="228.26520873258468" x2="279.9726829268293" y2="240.26520873258468" vector-effect="non-scaling-stroke" stroke-width="2" stroke="rgb(0,0,0)" stroke-linejoin="miter" stroke-linecap="square" stroke-miterlimit="3"/><line x1="319.9726829268293" y1="228.26520873258468" x2="319.9726829268293" y2="240.26520873258468" vector-effect="non-scaling-stroke" stroke-width="2" stroke="rgb(0,0,0)" stroke-linejoin="miter" stroke-linecap="square" stroke-miterlimit="3"/><line x1="359.9726829268293" y1="228.26520873258468" x2="359.9726829268293" y2="240.26520873258468" vector-effect="non-scaling-stroke" stroke-width="2" stroke="rgb(0,0,0)" stroke-linejoin="miter" stroke-linecap="square" stroke-miterlimit="3"/><line x1="399.9726829268293" y1="228.26520873258468" x2="399.9726829268293" y2="240.26520873258468" vector-effect="non-scaling-stroke" stroke-width="2" stroke="rgb(0,0,0)" stroke-linejoin="miter" stroke-linecap="square" stroke-miterlimit="3"/><line x1="439.9726829268293" y1="228.26520873258468" x2="439.9726829268293" y2="240.26520873258468" vector-effect="non-scaling-stroke" stroke-width="2" stroke="rgb(0,0,0)" stroke-linejoin="miter" stroke-linecap="square" stroke-miterlimit="3"/><line x1="479.9726829268293" y1="228.26520873258468" x2="479.9726829268293" y2="240.26520873258468" vector-effect="non-scaling-stroke" stroke-width="2" stroke="rgb(0,0,0)" stroke-linejoin="miter" stroke-linecap="square" stroke-miterlimit="3"/><line x1="519.9726829268293" y1="228.26520873258468" x2="519.9726829268293" y2="240.26520873258468" vector-effect="non-scaling-stroke" stroke-width="2" stroke="rgb(0,0,0)" stroke-linejoin="miter" stroke-linecap="square" stroke-miterlimit="3"/><line x1="559.9726829268293" y1="228.26520873258468" x2="559.9726829268293" y2="240.26520873258468" vector-effect="non-scaling-stroke" stroke-width="2" stroke="rgb(0,0,0)" stroke-linejoin="miter" stroke-linecap="square" stroke-miterlimit="3"/><line x1="599.9726829268293" y1="228.26520873258468" x2="599.9726829268293" y2="240.26520873258468" vector-effect="non-scaling-stroke" stroke-width="2" stroke="rgb(0,0,0)" stroke-linejoin="miter" stroke-linecap="square" stroke-miterlimit="3"/><line x1="679.9726829268293" y1="227.49999999999997" x2="679.9726829268293" y2="239.49999999999997" vector-effect="non-scaling-stroke" stroke-width="2" stroke="rgb(0,0,0)" stroke-linejoin="miter" stroke-linecap="square" stroke-miterlimit="3"/><line x1="719.9726829268293" y1="227.49999999999997" x2="719.9726829268293" y2="239.49999999999997" vector-effect="non-scaling-stroke" stroke-width="2" stroke="rgb(0,0,0)" stroke-linejoin="miter" stroke-linecap="square" stroke-miterlimit="3"/><line x1="759.9726829268293" y1="227.49999999999997" x2="759.9726829268293" y2="239.49999999999997" vector-effect="non-scaling-stroke" stroke-width="2" stroke="rgb(0,0,0)" stroke-linejoin="miter" stroke-linecap="square" stroke-miterlimit="3"/><line x1="799.9726829268293" y1="227.49999999999997" x2="799.9726829268293" y2="239.49999999999997" vector-effect="non-scaling-stroke" stroke-width="2" stroke="rgb(0,0,0)" stroke-linejoin="miter" stroke-linecap="square" stroke-miterlimit="3"/><line x1="839.9726829268293" y1="227.49999999999997" x2="839.9726829268293" y2="239.49999999999997" vector-effect="non-scaling-stroke" stroke-width="2" stroke="rgb(0,0,0)" stroke-linejoin="miter" stroke-linecap="square" stroke-miterlimit="3"/><line x1="879.9726829268293" y1="227.49999999999997" x2="879.9726829268293" y2="239.49999999999997" vector-effect="non-scaling-stroke" stroke-width="2" stroke="rgb(0,0,0)" stroke-linejoin="miter" stroke-linecap="square" stroke-miterlimit="3"/><line x1="919.9726829268293" y1="227.49999999999997" x2="919.9726829268293" y2="239.49999999999997" vector-effect="non-scaling-stroke" stroke-width="2" stroke="rgb(0,0,0)" stroke-linejoin="miter" stroke-linecap="square" stroke-miterlimit="3"/><line x1="959.9726829268293" y1="227.49999999999997" x2="959.9726829268293" y2="239.49999999999997" vector-effect="non-scaling-stroke" stroke-width="2" stroke="rgb(0,0,0)" stroke-linejoin="miter" stroke-linecap="square" stroke-miterlimit="3"/><line x1="999.9726829268293" y1="227.49999999999997" x2="999.9726829268293" y2="239.49999999999997" vector-effect="non-scaling-stroke" stroke-width="2" stroke="rgb(0,0,0)" stroke-linejoin="miter" stroke-linecap="square" stroke-miterlimit="3"/><line x1="1039.9726829268293" y1="227.49999999999997" x2="1039.9726829268293" y2="239.49999999999997" vector-effect="non-scaling-stroke" stroke-width="2" stroke="rgb(0,0,0)" stroke-linejoin="miter" stroke-linecap="square" stroke-miterlimit="3"/><line x1="1079.9726829268293" y1="227.49999999999997" x2="1079.9726829268293" y2="239.49999999999997" vector-effect="non-scaling-stroke" stroke-width="2" stroke="rgb(0,0,0)" stroke-linejoin="miter" stroke-linecap="square" stroke-miterlimit="3"/><path d=" M 1130 225.9887804878049 L 1130 242.41735191637616 L 1150 234.20306620209053 L 1130 225.9887804878049 Z " fill="rgb(19,19,19)"/><path d=" M 149.9726829268293 225.27449477351917 L 149.9726829268293 241.70306620209058 L 129.9726829268293 233.4887804878049 L 149.9726829268293 225.27449477351917 Z " fill="rgb(19,19,19)"/><line x1="149.9726829268293" y1="496.2255052264808" x2="1129.9726829268293" y2="496.2255052264808" vector-effect="non-scaling-stroke" stroke-width="4" stroke="rgb(19,19,19)" stroke-linejoin="miter" stroke-linecap="square" stroke-miterlimit="3"/><path d=" M 631 496.2142857142857 C 631 492.0749230642857 634.36063735 488.7142857142857 638.5 488.7142857142857 C 642.63936265 488.7142857142857 646 492.0749230642857 646 496.2142857142857 C 646 500.35364836428573 642.63936265 503.7142857142857 638.5 503.7142857142857 C 634.36063735 503.7142857142857 631 500.35364836428573 631 496.2142857142857 Z " fill="rgb(19,19,19)"/><line x1="199.9726829268293" y1="490.9907139590655" x2="199.9726829268293" y2="502.9907139590655" vector-effect="non-scaling-stroke" stroke-width="2" stroke="rgb(0,0,0)" stroke-linejoin="miter" stroke-linecap="square" stroke-miterlimit="3"/><line x1="239.9726829268293" y1="490.9907139590655" x2="239.9726829268293" y2="502.9907139590655" vector-effect="non-scaling-stroke" stroke-width="2" stroke="rgb(0,0,0)" stroke-linejoin="miter" stroke-linecap="square" stroke-miterlimit="3"/><line x1="279.9726829268293" y1="490.9907139590655" x2="279.9726829268293" y2="502.9907139590655" vector-effect="non-scaling-stroke" stroke-width="2" stroke="rgb(0,0,0)" stroke-linejoin="miter" stroke-linecap="square" stroke-miterlimit="3"/><line x1="319.9726829268293" y1="490.9907139590655" x2="319.9726829268293" y2="502.9907139590655" vector-effect="non-scaling-stroke" stroke-width="2" stroke="rgb(0,0,0)" stroke-linejoin="miter" stroke-linecap="square" stroke-miterlimit="3"/><line x1="359.9726829268293" y1="490.9907139590655" x2="359.9726829268293" y2="502.9907139590655" vector-effect="non-scaling-stroke" stroke-width="2" stroke="rgb(0,0,0)" stroke-linejoin="miter" stroke-linecap="square" stroke-miterlimit="3"/><line x1="399.9726829268293" y1="490.9907139590655" x2="399.9726829268293" y2="502.9907139590655" vector-effect="non-scaling-stroke" stroke-width="2" stroke="rgb(0,0,0)" stroke-linejoin="miter" stroke-linecap="square" stroke-miterlimit="3"/><line x1="439.9726829268293" y1="490.9907139590655" x2="439.9726829268293" y2="502.9907139590655" vector-effect="non-scaling-stroke" stroke-width="2" stroke="rgb(0,0,0)" stroke-linejoin="miter" stroke-linecap="square" stroke-miterlimit="3"/><line x1="479.9726829268293" y1="490.9907139590655" x2="479.9726829268293" y2="502.9907139590655" vector-effect="non-scaling-stroke" stroke-width="2" stroke="rgb(0,0,0)" stroke-linejoin="miter" stroke-linecap="square" stroke-miterlimit="3"/><line x1="519.9726829268293" y1="490.9907139590655" x2="519.9726829268293" y2="502.9907139590655" vector-effect="non-scaling-stroke" stroke-width="2" stroke="rgb(0,0,0)" stroke-linejoin="miter" stroke-linecap="square" stroke-miterlimit="3"/><line x1="559.9726829268293" y1="490.9907139590655" x2="559.9726829268293" y2="502.9907139590655" vector-effect="non-scaling-stroke" stroke-width="2" stroke="rgb(0,0,0)" stroke-linejoin="miter" stroke-linecap="square" stroke-miterlimit="3"/><line x1="599.9726829268293" y1="490.9907139590655" x2="599.9726829268293" y2="502.9907139590655" vector-effect="non-scaling-stroke" stroke-width="2" stroke="rgb(0,0,0)" stroke-linejoin="miter" stroke-linecap="square" stroke-miterlimit="3"/><line x1="679.9726829268293" y1="490.2255052264808" x2="679.9726829268293" y2="502.2255052264808" vector-effect="non-scaling-stroke" stroke-width="2" stroke="rgb(0,0,0)" stroke-linejoin="miter" stroke-linecap="square" stroke-miterlimit="3"/><line x1="719.9726829268293" y1="490.2255052264808" x2="719.9726829268293" y2="502.2255052264808" vector-effect="non-scaling-stroke" stroke-width="2" stroke="rgb(0,0,0)" stroke-linejoin="miter" stroke-linecap="square" stroke-miterlimit="3"/><line x1="759.9726829268293" y1="490.2255052264808" x2="759.9726829268293" y2="502.2255052264808" vector-effect="non-scaling-stroke" stroke-width="2" stroke="rgb(0,0,0)" stroke-linejoin="miter" stroke-linecap="square" stroke-miterlimit="3"/><line x1="799.9726829268293" y1="490.2255052264808" x2="799.9726829268293" y2="502.2255052264808" vector-effect="non-scaling-stroke" stroke-width="2" stroke="rgb(0,0,0)" stroke-linejoin="miter" stroke-linecap="square" stroke-miterlimit="3"/><line x1="839.9726829268293" y1="490.2255052264808" x2="839.9726829268293" y2="502.2255052264808" vector-effect="non-scaling-stroke" stroke-width="2" stroke="rgb(0,0,0)" stroke-linejoin="miter" stroke-linecap="square" stroke-miterlimit="3"/><line x1="879.9726829268293" y1="490.2255052264808" x2="879.9726829268293" y2="502.2255052264808" vector-effect="non-scaling-stroke" stroke-width="2" stroke="rgb(0,0,0)" stroke-linejoin="miter" stroke-linecap="square" stroke-miterlimit="3"/><line x1="919.9726829268293" y1="490.2255052264808" x2="919.9726829268293" y2="502.2255052264808" vector-effect="non-scaling-stroke" stroke-width="2" stroke="rgb(0,0,0)" stroke-linejoin="miter" stroke-linecap="square" stroke-miterlimit="3"/><line x1="959.9726829268293" y1="490.2255052264808" x2="959.9726829268293" y2="502.2255052264808" vector-effect="non-scaling-stroke" stroke-width="2" stroke="rgb(0,0,0)" stroke-linejoin="miter" stroke-linecap="square" stroke-miterlimit="3"/><line x1="999.9726829268293" y1="490.2255052264808" x2="999.9726829268293" y2="502.2255052264808" vector-effect="non-scaling-stroke" stroke-width="2" stroke="rgb(0,0,0)" stroke-linejoin="miter" stroke-linecap="square" stroke-miterlimit="3"/><line x1="1039.9726829268293" y1="490.2255052264808" x2="1039.9726829268293" y2="502.2255052264808" vector-effect="non-scaling-stroke" stroke-width="2" stroke="rgb(0,0,0)" stroke-linejoin="miter" stroke-linecap="square" stroke-miterlimit="3"/><line x1="1079.9726829268293" y1="490.2255052264808" x2="1079.9726829268293" y2="502.2255052264808" vector-effect="non-scaling-stroke" stroke-width="2" stroke="rgb(0,0,0)" stroke-linejoin="miter" stroke-linecap="square" stroke-miterlimit="3"/><path d=" M 1130 488.7142857142857 L 1130 505.142857142857 L 1150 496.9285714285714 L 1130 488.7142857142857 Z " fill="rgb(19,19,19)"/><path d=" M 149.9726829268293 488 L 149.9726829268293 504.42857142857144 L 129.9726829268293 496.2142857142857 L 149.9726829268293 488 Z " fill="rgb(19,19,19)"/><line x1="149.9726829268293" y1="758.9510104529617" x2="1129.9726829268293" y2="758.9510104529617" vector-effect="non-scaling-stroke" stroke-width="4" stroke="rgb(19,19,19)" stroke-linejoin="miter" stroke-linecap="square" stroke-miterlimit="3"/><path d=" M 631 758.9397909407667 C 631 754.8004282907667 634.36063735 751.4397909407667 638.5 751.4397909407667 C 642.63936265 751.4397909407667 646 754.8004282907667 646 758.9397909407667 C 646 763.0791535907666 642.63936265 766.4397909407667 638.5 766.4397909407667 C 634.36063735 766.4397909407667 631 763.0791535907666 631 758.9397909407667 Z " fill="rgb(19,19,19)"/><line x1="199.9726829268293" y1="753.7162191855464" x2="199.9726829268293" y2="765.7162191855464" vector-effect="non-scaling-stroke" stroke-width="2" stroke="rgb(0,0,0)" stroke-linejoin="miter" stroke-linecap="square" stroke-miterlimit="3"/><line x1="239.9726829268293" y1="753.7162191855464" x2="239.9726829268293" y2="765.7162191855464" vector-effect="non-scaling-stroke" stroke-width="2" stroke="rgb(0,0,0)" stroke-linejoin="miter" stroke-linecap="square" stroke-miterlimit="3"/><line x1="279.9726829268293" y1="753.7162191855464" x2="279.9726829268293" y2="765.7162191855464" vector-effect="non-scaling-stroke" stroke-width="2" stroke="rgb(0,0,0)" stroke-linejoin="miter" stroke-linecap="square" stroke-miterlimit="3"/><line x1="319.9726829268293" y1="753.7162191855464" x2="319.9726829268293" y2="765.7162191855464" vector-effect="non-scaling-stroke" stroke-width="2" stroke="rgb(0,0,0)" stroke-linejoin="miter" stroke-linecap="square" stroke-miterlimit="3"/><line x1="359.9726829268293" y1="753.7162191855464" x2="359.9726829268293" y2="765.7162191855464" vector-effect="non-scaling-stroke" stroke-width="2" stroke="rgb(0,0,0)" stroke-linejoin="miter" stroke-linecap="square" stroke-miterlimit="3"/><line x1="399.9726829268293" y1="753.7162191855464" x2="399.9726829268293" y2="765.7162191855464" vector-effect="non-scaling-stroke" stroke-width="2" stroke="rgb(0,0,0)" stroke-linejoin="miter" stroke-linecap="square" stroke-miterlimit="3"/><line x1="439.9726829268293" y1="753.7162191855464" x2="439.9726829268293" y2="765.7162191855464" vector-effect="non-scaling-stroke" stroke-width="2" stroke="rgb(0,0,0)" stroke-linejoin="miter" stroke-linecap="square" stroke-miterlimit="3"/><line x1="479.9726829268293" y1="753.7162191855464" x2="479.9726829268293" y2="765.7162191855464" vector-effect="non-scaling-stroke" stroke-width="2" stroke="rgb(0,0,0)" stroke-linejoin="miter" stroke-linecap="square" stroke-miterlimit="3"/><line x1="519.9726829268293" y1="753.7162191855464" x2="519.9726829268293" y2="765.7162191855464" vector-effect="non-scaling-stroke" stroke-width="2" stroke="rgb(0,0,0)" stroke-linejoin="miter" stroke-linecap="square" stroke-miterlimit="3"/><line x1="559.9726829268293" y1="753.7162191855464" x2="559.9726829268293" y2="765.7162191855464" vector-effect="non-scaling-stroke" stroke-width="2" stroke="rgb(0,0,0)" stroke-linejoin="miter" stroke-linecap="square" stroke-miterlimit="3"/><line x1="599.9726829268293" y1="753.7162191855464" x2="599.9726829268293" y2="765.7162191855464" vector-effect="non-scaling-stroke" stroke-width="2" stroke="rgb(0,0,0)" stroke-linejoin="miter" stroke-linecap="square" stroke-miterlimit="3"/><line x1="679.9726829268293" y1="752.9510104529617" x2="679.9726829268293" y2="764.9510104529617" vector-effect="non-scaling-stroke" stroke-width="2" stroke="rgb(0,0,0)" stroke-linejoin="miter" stroke-linecap="square" stroke-miterlimit="3"/><line x1="719.9726829268293" y1="752.9510104529617" x2="719.9726829268293" y2="764.9510104529617" vector-effect="non-scaling-stroke" stroke-width="2" stroke="rgb(0,0,0)" stroke-linejoin="miter" stroke-linecap="square" stroke-miterlimit="3"/><line x1="759.9726829268293" y1="752.9510104529617" x2="759.9726829268293" y2="764.9510104529617" vector-effect="non-scaling-stroke" stroke-width="2" stroke="rgb(0,0,0)" stroke-linejoin="miter" stroke-linecap="square" stroke-miterlimit="3"/><line x1="799.9726829268293" y1="752.9510104529617" x2="799.9726829268293" y2="764.9510104529617" vector-effect="non-scaling-stroke" stroke-width="2" stroke="rgb(0,0,0)" stroke-linejoin="miter" stroke-linecap="square" stroke-miterlimit="3"/><line x1="839.9726829268293" y1="752.9510104529617" x2="839.9726829268293" y2="764.9510104529617" vector-effect="non-scaling-stroke" stroke-width="2" stroke="rgb(0,0,0)" stroke-linejoin="miter" stroke-linecap="square" stroke-miterlimit="3"/><line x1="879.9726829268293" y1="752.9510104529617" x2="879.9726829268293" y2="764.9510104529617" vector-effect="non-scaling-stroke" stroke-width="2" stroke="rgb(0,0,0)" stroke-linejoin="miter" stroke-linecap="square" stroke-miterlimit="3"/><line x1="919.9726829268293" y1="752.9510104529617" x2="919.9726829268293" y2="764.9510104529617" vector-effect="non-scaling-stroke" stroke-width="2" stroke="rgb(0,0,0)" stroke-linejoin="miter" stroke-linecap="square" stroke-miterlimit="3"/><line x1="959.9726829268293" y1="752.9510104529617" x2="959.9726829268293" y2="764.9510104529617" vector-effect="non-scaling-stroke" stroke-width="2" stroke="rgb(0,0,0)" stroke-linejoin="miter" stroke-linecap="square" stroke-miterlimit="3"/><line x1="999.9726829268293" y1="752.9510104529617" x2="999.9726829268293" y2="764.9510104529617" vector-effect="non-scaling-stroke" stroke-width="2" stroke="rgb(0,0,0)" stroke-linejoin="miter" stroke-linecap="square" stroke-miterlimit="3"/><line x1="1039.9726829268293" y1="752.9510104529617" x2="1039.9726829268293" y2="764.9510104529617" vector-effect="non-scaling-stroke" stroke-width="2" stroke="rgb(0,0,0)" stroke-linejoin="miter" stroke-linecap="square" stroke-miterlimit="3"/><line x1="1079.9726829268293" y1="752.9510104529617" x2="1079.9726829268293" y2="764.9510104529617" vector-effect="non-scaling-stroke" stroke-width="2" stroke="rgb(0,0,0)" stroke-linejoin="miter" stroke-linecap="square" stroke-miterlimit="3"/><path d=" M 1130 751.4397909407667 L 1130 767.8683623693379 L 1150 759.6540766550522 L 1130 751.4397909407667 Z " fill="rgb(19,19,19)"/><path d=" M 149.9726829268293 750.7255052264809 L 149.9726829268293 767.1540766550523 L 129.9726829268293 758.9397909407667 L 149.9726829268293 750.7255052264809 Z " fill="rgb(19,19,19)"/><path d=" M 783.193359375 549.671875 L 785.830078125 549.34375 L 785.830078125 536.55859375 L 783.146484375 536.60546875 L 783.146484375 535.1640625 L 788.138671875 534.0859375 L 788.138671875 549.34375 L 790.763671875 549.671875 L 790.763671875 551.1484375 L 783.193359375 551.1484375 L 783.193359375 549.671875 Z  M 792.802734375 551.1484375 L 792.802734375 549.56640625 L 798.392578125 543.35546875 Q 799.892578125 541.6796875 800.42578125 540.6953125 Q 800.958984375 539.7109375 800.958984375 538.6796875 Q 800.958984375 537.40234375 800.208984375 536.529296875 Q 799.458984375 535.65625 798.228515625 535.65625 Q 796.458984375 535.65625 795.626953125 536.55859375 Q 794.794921875 537.4609375 794.794921875 539.11328125 L 792.580078125 539.11328125 L 792.556640625 539.04296875 Q 792.498046875 536.83984375 794.015625 535.33984375 Q 795.533203125 533.83984375 798.228515625 533.83984375 Q 800.537109375 533.83984375 801.90234375 535.181640625 Q 803.267578125 536.5234375 803.267578125 538.59765625 Q 803.267578125 539.9921875 802.44140625 541.38671875 Q 801.615234375 542.78125 800.115234375 544.3984375 L 795.626953125 549.28515625 L 795.650390625 549.34375 L 801.708984375 549.34375 L 801.896484375 547.38671875 L 803.853515625 547.38671875 L 803.853515625 551.1484375 L 792.802734375 551.1484375 Z  M 774.099609375 541.50390625 L 764.326171875 541.50390625 L 764.326171875 539.58203125 L 774.099609375 539.58203125 L 774.099609375 541.50390625 Z  M 774.099609375 546.37890625 L 764.326171875 546.37890625 L 764.326171875 544.45703125 L 774.099609375 544.45703125 L 774.099609375 546.37890625 Z  M 700.306640625 541.55078125 L 702.322265625 541.55078125 Q 703.857421875 541.55078125 704.49609375 540.783203125 Q 705.134765625 540.015625 705.134765625 538.64453125 Q 705.134765625 537.1796875 704.408203125 536.41796875 Q 703.681640625 535.65625 702.263671875 535.65625 Q 700.916015625 535.65625 700.1015625 536.447265625 Q 699.287109375 537.23828125 699.287109375 538.55078125 L 697.072265625 538.55078125 L 697.048828125 538.48046875 Q 696.990234375 536.546875 698.44921875 535.193359375 Q 699.908203125 533.83984375 702.263671875 533.83984375 Q 704.630859375 533.83984375 706.037109375 535.099609375 Q 707.443359375 536.359375 707.443359375 538.69140625 Q 707.443359375 539.74609375 706.8046875 540.794921875 Q 706.166015625 541.84375 704.888671875 542.39453125 Q 706.423828125 542.8984375 707.0625 543.9765625 Q 707.701171875 545.0546875 707.701171875 546.390625 Q 707.701171875 548.72265625 706.171875 550.05859375 Q 704.642578125 551.39453125 702.263671875 551.39453125 Q 699.919921875 551.39453125 698.396484375 550.134765625 Q 696.873046875 548.875 696.931640625 546.71875 L 696.966796875 546.6484375 L 699.169921875 546.6484375 Q 699.169921875 547.99609375 699.99609375 548.79296875 Q 700.822265625 549.58984375 702.263671875 549.58984375 Q 703.728515625 549.58984375 704.560546875 548.79296875 Q 705.392578125 547.99609375 705.392578125 546.4375 Q 705.392578125 544.85546875 704.654296875 544.10546875 Q 703.916015625 543.35546875 702.322265625 543.35546875 L 700.306640625 543.35546875 L 700.306640625 541.55078125 Z  M 716.548828125 544.84375 L 710.818359375 544.84375 L 710.818359375 543.0390625 L 716.548828125 543.0390625 L 716.548828125 544.84375 Z  M 719.689453125 544.22265625 Q 719.689453125 539.60546875 721.552734375 536.3359375 Q 723.416015625 533.06640625 725.466796875 531.9765625 L 725.537109375 531.98828125 L 725.970703125 533.34765625 Q 724.365234375 534.6015625 723.181640625 537.3671875 Q 721.998046875 540.1328125 721.998046875 544.19921875 L 721.998046875 544.3515625 Q 721.998046875 548.4296875 723.17578125 551.189453125 Q 724.353515625 553.94921875 725.970703125 555.30859375 L 725.537109375 556.57421875 L 725.466796875 556.57421875 Q 723.416015625 555.484375 721.552734375 552.220703125 Q 719.689453125 548.95703125 719.689453125 544.328125 L 719.689453125 544.22265625 Z  M 733.646484375 544.84375 L 727.916015625 544.84375 L 727.916015625 543.0390625 L 733.646484375 543.0390625 L 733.646484375 544.84375 Z  M 741.439453125 549.58984375 Q 743.103515625 549.58984375 744.0703125 548.318359375 Q 745.037109375 547.046875 745.072265625 544.22265625 L 745.025390625 544.1640625 Q 744.556640625 544.94921875 743.712890625 545.37109375 Q 742.869140625 545.79296875 741.814453125 545.79296875 Q 739.318359375 545.79296875 737.876953125 544.251953125 Q 736.435546875 542.7109375 736.435546875 539.921875 Q 736.435546875 537.25 737.9765625 535.544921875 Q 739.517578125 533.83984375 741.720703125 533.83984375 Q 744.392578125 533.83984375 745.93359375 535.509765625 Q 747.474609375 537.1796875 747.474609375 540.44921875 L 747.474609375 543.53125 Q 747.474609375 547.52734375 745.828125 549.4609375 Q 744.181640625 551.39453125 741.439453125 551.39453125 Q 740.548828125 551.39453125 739.6171875 551.224609375 Q 738.685546875 551.0546875 737.947265625 550.703125 L 738.298828125 548.95703125 Q 739.013671875 549.296875 739.7578125 549.443359375 Q 740.501953125 549.58984375 741.439453125 549.58984375 Z  M 741.814453125 543.9765625 Q 743.091796875 543.9765625 743.94140625 543.42578125 Q 744.791015625 542.875 745.166015625 542.01953125 L 745.166015625 540.21484375 Q 745.166015625 537.953125 744.3046875 536.8046875 Q 743.443359375 535.65625 741.791015625 535.65625 Q 740.513671875 535.65625 739.62890625 536.8515625 Q 738.744140625 538.046875 738.744140625 539.921875 Q 738.744140625 541.76171875 739.564453125 542.869140625 Q 740.384765625 543.9765625 741.814453125 543.9765625 Z  M 755.384765625 544.328125 Q 755.384765625 548.95703125 753.515625 552.220703125 Q 751.646484375 555.484375 749.607421875 556.57421875 L 749.537109375 556.57421875 L 749.103515625 555.30859375 Q 750.685546875 554.078125 751.880859375 551.259765625 Q 753.076171875 548.44140625 753.076171875 544.3515625 L 753.076171875 544.19921875 Q 753.076171875 540.1796875 751.845703125 537.35546875 Q 750.615234375 534.53125 749.103515625 533.2421875 L 749.537109375 531.9765625 L 749.607421875 531.9765625 Q 751.646484375 533.06640625 753.515625 536.3359375 Q 755.384765625 539.60546875 755.384765625 544.22265625 L 755.384765625 544.328125 Z  M 688.376953125 541.50390625 L 678.603515625 541.50390625 L 678.603515625 539.58203125 L 688.376953125 539.58203125 L 688.376953125 541.50390625 Z  M 688.376953125 546.37890625 L 678.603515625 546.37890625 L 678.603515625 544.45703125 L 688.376953125 544.45703125 L 688.376953125 546.37890625 Z  M 594.662109375 544.22265625 Q 594.662109375 539.60546875 596.525390625 536.3359375 Q 598.388671875 533.06640625 600.439453125 531.9765625 L 600.509765625 531.98828125 L 600.943359375 533.34765625 Q 599.337890625 534.6015625 598.154296875 537.3671875 Q 596.970703125 540.1328125 596.970703125 544.19921875 L 596.970703125 544.3515625 Q 596.970703125 548.4296875 598.1484375 551.189453125 Q 599.326171875 553.94921875 600.943359375 555.30859375 L 600.509765625 556.57421875 L 600.439453125 556.57421875 Q 598.388671875 555.484375 596.525390625 552.220703125 Q 594.662109375 548.95703125 594.662109375 544.328125 L 594.662109375 544.22265625 Z  M 607.587890625 535.57421875 L 605.748046875 535.796875 L 609.322265625 542.7578125 L 612.896484375 535.796875 L 611.068359375 535.57421875 L 611.068359375 534.0859375 L 616.927734375 534.0859375 L 616.927734375 535.57421875 L 615.486328125 535.796875 L 610.423828125 545.1484375 L 610.423828125 549.34375 L 612.333984375 549.671875 L 612.333984375 551.1484375 L 606.216796875 551.1484375 L 606.216796875 549.671875 L 608.126953125 549.34375 L 608.126953125 544.97265625 L 603.158203125 535.796875 L 601.728515625 535.57421875 L 601.728515625 534.0859375 L 607.587890625 534.0859375 L 607.587890625 535.57421875 Z  M 619.095703125 549.671875 L 621.732421875 549.34375 L 621.732421875 536.55859375 L 619.048828125 536.60546875 L 619.048828125 535.1640625 L 624.041015625 534.0859375 L 624.041015625 549.34375 L 626.666015625 549.671875 L 626.666015625 551.1484375 L 619.095703125 551.1484375 L 619.095703125 549.671875 Z  M 635.103515625 544.84375 L 629.373046875 544.84375 L 629.373046875 543.0390625 L 635.103515625 543.0390625 L 635.103515625 544.84375 Z  M 637.412109375 549.671875 L 638.947265625 549.4140625 L 643.798828125 542.546875 L 639.064453125 535.83203125 L 637.529296875 535.57421875 L 637.529296875 534.0859375 L 643.060546875 534.0859375 L 643.060546875 535.57421875 L 641.689453125 535.7265625 L 645.099609375 540.84765625 L 648.544921875 535.7265625 L 647.173828125 535.57421875 L 647.173828125 534.0859375 L 652.740234375 534.0859375 L 652.740234375 535.57421875 L 651.205078125 535.83203125 L 646.470703125 542.546875 L 651.310546875 549.4140625 L 652.857421875 549.671875 L 652.857421875 551.1484375 L 647.337890625 551.1484375 L 647.337890625 549.671875 L 648.685546875 549.51953125 L 645.146484375 544.26953125 L 641.595703125 549.51953125 L 642.966796875 549.671875 L 642.966796875 551.1484375 L 637.412109375 551.1484375 L 637.412109375 549.671875 Z  M 654.779296875 549.671875 L 657.416015625 549.34375 L 657.416015625 536.55859375 L 654.732421875 536.60546875 L 654.732421875 535.1640625 L 659.724609375 534.0859375 L 659.724609375 549.34375 L 662.349609375 549.671875 L 662.349609375 551.1484375 L 654.779296875 551.1484375 L 654.779296875 549.671875 Z  M 669.662109375 544.328125 Q 669.662109375 548.95703125 667.79296875 552.220703125 Q 665.923828125 555.484375 663.884765625 556.57421875 L 663.814453125 556.57421875 L 663.380859375 555.30859375 Q 664.962890625 554.078125 666.158203125 551.259765625 Q 667.353515625 548.44140625 667.353515625 544.3515625 L 667.353515625 544.19921875 Q 667.353515625 540.1796875 666.123046875 537.35546875 Q 664.892578125 534.53125 663.380859375 533.2421875 L 663.814453125 531.9765625 L 663.884765625 531.9765625 Q 665.923828125 533.06640625 667.79296875 536.3359375 Q 669.662109375 539.60546875 669.662109375 544.22265625 L 669.662109375 544.328125 Z  M 517.740234375 551.1484375 Q 517.634765625 550.6328125 517.576171875 550.22265625 Q 517.517578125 549.8125 517.494140625 549.40234375 Q 516.826171875 550.2578125 515.82421875 550.826171875 Q 514.822265625 551.39453125 513.685546875 551.39453125 Q 511.705078125 551.39453125 510.673828125 550.427734375 Q 509.642578125 549.4609375 509.642578125 547.703125 Q 509.642578125 545.8984375 511.1015625 544.919921875 Q 512.560546875 543.94140625 515.103515625 543.94140625 L 517.482421875 543.94140625 L 517.482421875 542.46484375 Q 517.482421875 541.3515625 516.779296875 540.701171875 Q 516.076171875 540.05078125 514.822265625 540.05078125 Q 513.955078125 540.05078125 513.29296875 540.2734375 Q 512.630859375 540.49609375 512.220703125 540.8828125 L 511.974609375 542.21875 L 510.193359375 542.21875 L 510.193359375 539.7578125 Q 511.060546875 539.06640625 512.291015625 538.650390625 Q 513.521484375 538.234375 514.962890625 538.234375 Q 517.119140625 538.234375 518.455078125 539.3359375 Q 519.791015625 540.4375 519.791015625 542.48828125 L 519.791015625 548.59375 Q 519.791015625 548.83984375 519.796875 549.07421875 Q 519.802734375 549.30859375 519.826171875 549.54296875 L 520.763671875 549.671875 L 520.763671875 551.1484375 L 517.740234375 551.1484375 Z  M 514.025390625 549.4609375 Q 515.173828125 549.4609375 516.123046875 548.91015625 Q 517.072265625 548.359375 517.482421875 547.5859375 L 517.482421875 545.5 L 515.021484375 545.5 Q 513.603515625 545.5 512.77734375 546.15625 Q 511.951171875 546.8125 511.951171875 547.75 Q 511.951171875 548.58203125 512.466796875 549.021484375 Q 512.982421875 549.4609375 514.025390625 549.4609375 Z  M 531.228515625 549.63671875 Q 530.607421875 550.50390625 529.7109375 550.94921875 Q 528.814453125 551.39453125 527.630859375 551.39453125 Q 525.310546875 551.39453125 524.00390625 549.712890625 Q 522.697265625 548.03125 522.697265625 545.2890625 L 522.697265625 545.04296875 Q 522.697265625 541.984375 524.00390625 540.109375 Q 525.310546875 538.234375 527.654296875 538.234375 Q 528.779296875 538.234375 529.640625 538.650390625 Q 530.501953125 539.06640625 531.111328125 539.8515625 L 531.111328125 534.68359375 L 529.201171875 534.35546875 L 529.201171875 532.8671875 L 531.111328125 532.8671875 L 533.419921875 532.8671875 L 533.419921875 549.34375 L 535.330078125 549.671875 L 535.330078125 551.1484375 L 531.416015625 551.1484375 L 531.228515625 549.63671875 Z  M 525.005859375 545.2890625 Q 525.005859375 547.19921875 525.791015625 548.359375 Q 526.576171875 549.51953125 528.216796875 549.51953125 Q 529.248046875 549.51953125 529.951171875 549.05078125 Q 530.654296875 548.58203125 531.111328125 547.7265625 L 531.111328125 541.84375 Q 530.666015625 541.046875 529.951171875 540.578125 Q 529.236328125 540.109375 528.240234375 540.109375 Q 526.587890625 540.109375 525.796875 541.48046875 Q 525.005859375 542.8515625 525.005859375 545.04296875 L 525.005859375 545.2890625 Z  M 545.630859375 549.63671875 Q 545.009765625 550.50390625 544.11328125 550.94921875 Q 543.216796875 551.39453125 542.033203125 551.39453125 Q 539.712890625 551.39453125 538.40625 549.712890625 Q 537.099609375 548.03125 537.099609375 545.2890625 L 537.099609375 545.04296875 Q 537.099609375 541.984375 538.40625 540.109375 Q 539.712890625 538.234375 542.056640625 538.234375 Q 543.181640625 538.234375 544.04296875 538.650390625 Q 544.904296875 539.06640625 545.513671875 539.8515625 L 545.513671875 534.68359375 L 543.603515625 534.35546875 L 543.603515625 532.8671875 L 545.513671875 532.8671875 L 547.822265625 532.8671875 L 547.822265625 549.34375 L 549.732421875 549.671875 L 549.732421875 551.1484375 L 545.818359375 551.1484375 L 545.630859375 549.63671875 Z  M 539.408203125 545.2890625 Q 539.408203125 547.19921875 540.193359375 548.359375 Q 540.978515625 549.51953125 542.619140625 549.51953125 Q 543.650390625 549.51953125 544.353515625 549.05078125 Q 545.056640625 548.58203125 545.513671875 547.7265625 L 545.513671875 541.84375 Q 545.068359375 541.046875 544.353515625 540.578125 Q 543.638671875 540.109375 542.642578125 540.109375 Q 540.990234375 540.109375 540.19921875 541.48046875 Q 539.408203125 542.8515625 539.408203125 545.04296875 L 539.408203125 545.2890625 Z  M 551.490234375 549.671875 L 553.400390625 549.34375 L 553.400390625 540.28515625 L 551.490234375 539.95703125 L 551.490234375 538.46875 L 555.708984375 538.46875 L 555.708984375 549.34375 L 557.619140625 549.671875 L 557.619140625 551.1484375 L 551.490234375 551.1484375 L 551.490234375 549.671875 Z  M 555.708984375 535.22265625 L 553.400390625 535.22265625 L 553.400390625 532.8671875 L 555.708984375 532.8671875 L 555.708984375 535.22265625 Z  M 559.037109375 549.671875 L 560.947265625 549.34375 L 560.947265625 540.28515625 L 559.037109375 539.95703125 L 559.037109375 538.46875 L 563.009765625 538.46875 L 563.173828125 540.35546875 Q 563.806640625 539.34765625 564.76171875 538.791015625 Q 565.716796875 538.234375 566.935546875 538.234375 Q 568.986328125 538.234375 570.111328125 539.435546875 Q 571.236328125 540.63671875 571.236328125 543.14453125 L 571.236328125 549.34375 L 573.146484375 549.671875 L 573.146484375 551.1484375 L 567.017578125 551.1484375 L 567.017578125 549.671875 L 568.927734375 549.34375 L 568.927734375 543.19140625 Q 568.927734375 541.515625 568.265625 540.8125 Q 567.603515625 540.109375 566.244140625 540.109375 Q 565.248046875 540.109375 564.48046875 540.58984375 Q 563.712890625 541.0703125 563.255859375 541.90234375 L 563.255859375 549.34375 L 565.166015625 549.671875 L 565.166015625 551.1484375 L 559.037109375 551.1484375 L 559.037109375 549.671875 Z  M 574.833984375 545.04296875 Q 574.833984375 541.984375 576.169921875 540.109375 Q 577.505859375 538.234375 579.861328125 538.234375 Q 581.056640625 538.234375 581.958984375 538.703125 Q 582.861328125 539.171875 583.470703125 540.0625 L 583.681640625 538.46875 L 585.626953125 538.46875 L 585.626953125 550.984375 Q 585.626953125 553.4453125 584.255859375 554.857421875 Q 582.884765625 556.26953125 580.353515625 556.26953125 Q 579.439453125 556.26953125 578.373046875 556.017578125 Q 577.306640625 555.765625 576.498046875 555.33203125 L 577.095703125 553.5390625 Q 577.740234375 553.87890625 578.619140625 554.1015625 Q 579.498046875 554.32421875 580.330078125 554.32421875 Q 581.876953125 554.32421875 582.59765625 553.45703125 Q 583.318359375 552.58984375 583.318359375 550.984375 L 583.318359375 549.77734375 Q 582.697265625 550.57421875 581.830078125 550.984375 Q 580.962890625 551.39453125 579.837890625 551.39453125 Q 577.505859375 551.39453125 576.169921875 549.70703125 Q 574.833984375 548.01953125 574.833984375 545.2890625 L 574.833984375 545.04296875 Z  M 577.142578125 545.2890625 Q 577.142578125 547.19921875 577.951171875 548.359375 Q 578.759765625 549.51953125 580.412109375 549.51953125 Q 581.455078125 549.51953125 582.158203125 549.044921875 Q 582.861328125 548.5703125 583.318359375 547.703125 L 583.318359375 541.8671875 Q 582.873046875 541.05859375 582.158203125 540.583984375 Q 581.443359375 540.109375 580.435546875 540.109375 Q 578.783203125 540.109375 577.962890625 541.4921875 Q 577.142578125 542.875 577.142578125 545.04296875 L 577.142578125 545.2890625 Z  M 481.388671875 534.0859375 Q 484.060546875 534.0859375 485.56640625 535.240234375 Q 487.072265625 536.39453125 487.072265625 538.703125 Q 487.072265625 539.83984375 486.3515625 540.736328125 Q 485.630859375 541.6328125 484.447265625 542.06640625 Q 485.982421875 542.39453125 486.873046875 543.578125 Q 487.763671875 544.76171875 487.763671875 546.33203125 Q 487.763671875 548.67578125 486.240234375 549.912109375 Q 484.716796875 551.1484375 482.115234375 551.1484375 L 473.912109375 551.1484375 L 473.912109375 549.671875 L 475.822265625 549.34375 L 475.822265625 535.90234375 L 473.912109375 535.57421875 L 473.912109375 534.0859375 L 475.822265625 534.0859375 L 481.388671875 534.0859375 Z  M 478.130859375 543.14453125 L 478.130859375 549.34375 L 482.115234375 549.34375 Q 483.697265625 549.34375 484.5703125 548.564453125 Q 485.443359375 547.78515625 485.443359375 546.35546875 Q 485.443359375 544.85546875 484.7109375 544 Q 483.978515625 543.14453125 482.466796875 543.14453125 L 478.130859375 543.14453125 Z  M 478.130859375 541.33984375 L 481.986328125 541.33984375 Q 483.228515625 541.3046875 483.99609375 540.6015625 Q 484.763671875 539.8984375 484.763671875 538.65625 Q 484.763671875 537.2734375 483.896484375 536.587890625 Q 483.029296875 535.90234375 481.388671875 535.90234375 L 478.130859375 535.90234375 L 478.130859375 541.33984375 Z  M 501.931640625 539.95703125 L 500.794921875 540.1328125 L 495.966796875 553.09375 Q 495.486328125 554.37109375 494.583984375 555.3203125 Q 493.681640625 556.26953125 492.158203125 556.26953125 Q 491.888671875 556.26953125 491.455078125 556.205078125 Q 491.021484375 556.140625 490.787109375 556.08203125 L 491.021484375 554.265625 Q 490.951171875 554.25390625 491.4375 554.2890625 Q 491.923828125 554.32421875 492.052734375 554.32421875 Q 492.791015625 554.32421875 493.248046875 553.685546875 Q 493.705078125 553.046875 494.044921875 552.21484375 L 494.595703125 550.90234375 L 490.412109375 540.14453125 L 489.251953125 539.95703125 L 489.251953125 538.46875 L 494.373046875 538.46875 L 494.373046875 539.95703125 L 492.943359375 540.19140625 L 495.134765625 546.44921875 L 495.556640625 548.06640625 L 495.626953125 548.06640625 L 498.263671875 540.19140625 L 496.822265625 539.95703125 L 496.822265625 538.46875 L 501.931640625 538.46875 L 501.931640625 539.95703125 Z " fill-rule="evenodd" fill="rgb(0,0,0)"/><path d=" M 838.98046875 809.55078125 L 840.99609375 809.55078125 Q 842.53125 809.55078125 843.169921875 808.783203125 Q 843.80859375 808.015625 843.80859375 806.64453125 Q 843.80859375 805.1796875 843.08203125 804.41796875 Q 842.35546875 803.65625 840.9375 803.65625 Q 839.58984375 803.65625 838.775390625 804.447265625 Q 837.9609375 805.23828125 837.9609375 806.55078125 L 835.74609375 806.55078125 L 835.72265625 806.48046875 Q 835.6640625 804.546875 837.123046875 803.193359375 Q 838.58203125 801.83984375 840.9375 801.83984375 Q 843.3046875 801.83984375 844.7109375 803.099609375 Q 846.1171875 804.359375 846.1171875 806.69140625 Q 846.1171875 807.74609375 845.478515625 808.794921875 Q 844.83984375 809.84375 843.5625 810.39453125 Q 845.09765625 810.8984375 845.736328125 811.9765625 Q 846.375 813.0546875 846.375 814.390625 Q 846.375 816.72265625 844.845703125 818.05859375 Q 843.31640625 819.39453125 840.9375 819.39453125 Q 838.59375 819.39453125 837.0703125 818.134765625 Q 835.546875 816.875 835.60546875 814.71875 L 835.640625 814.6484375 L 837.84375 814.6484375 Q 837.84375 815.99609375 838.669921875 816.79296875 Q 839.49609375 817.58984375 840.9375 817.58984375 Q 842.40234375 817.58984375 843.234375 816.79296875 Q 844.06640625 815.99609375 844.06640625 814.4375 Q 844.06640625 812.85546875 843.328125 812.10546875 Q 842.58984375 811.35546875 840.99609375 811.35546875 L 838.98046875 811.35546875 L 838.98046875 809.55078125 Z  M 849.64453125 820.61328125 L 847.6875 820.61328125 L 854.8125 802.0859375 L 856.7578125 802.0859375 L 849.64453125 820.61328125 Z  M 866.94140625 805.4609375 L 866.71875 804.13671875 L 861.62109375 804.13671875 L 861.0703125 808.9296875 Q 861.59765625 808.53125 862.259765625 808.267578125 Q 862.921875 808.00390625 863.7890625 807.98046875 Q 866.14453125 807.95703125 867.498046875 809.515625 Q 868.8515625 811.07421875 868.8515625 813.7109375 Q 868.8515625 816.27734375 867.474609375 817.8359375 Q 866.09765625 819.39453125 863.4609375 819.39453125 Q 861.29296875 819.39453125 859.857421875 818.2109375 Q 858.421875 817.02734375 858.48046875 814.73046875 L 858.50390625 814.66015625 L 860.58984375 814.66015625 Q 860.58984375 816.04296875 861.392578125 816.81640625 Q 862.1953125 817.58984375 863.4609375 817.58984375 Q 864.92578125 817.58984375 865.734375 816.55859375 Q 866.54296875 815.52734375 866.54296875 813.734375 Q 866.54296875 812.08203125 865.728515625 811.033203125 Q 864.9140625 809.984375 863.47265625 809.984375 Q 862.11328125 809.984375 861.498046875 810.39453125 Q 860.8828125 810.8046875 860.6015625 811.6484375 L 858.6796875 811.44921875 L 859.6640625 802.0859375 L 868.67578125 802.0859375 L 868.67578125 805.4609375 L 866.94140625 805.4609375 Z  M 827.05078125 809.50390625 L 817.27734375 809.50390625 L 817.27734375 807.58203125 L 827.05078125 807.58203125 L 827.05078125 809.50390625 Z  M 827.05078125 814.37890625 L 817.27734375 814.37890625 L 817.27734375 812.45703125 L 827.05078125 812.45703125 L 827.05078125 814.37890625 Z  M 620.484375 822.3125 L 618.64453125 822.3125 L 618.64453125 802.0859375 L 620.484375 802.0859375 L 620.484375 822.3125 Z  M 623.5078125 812.22265625 Q 623.5078125 807.60546875 625.37109375 804.3359375 Q 627.234375 801.06640625 629.28515625 799.9765625 L 629.35546875 799.98828125 L 629.7890625 801.34765625 Q 628.18359375 802.6015625 627 805.3671875 Q 625.81640625 808.1328125 625.81640625 812.19921875 L 625.81640625 812.3515625 Q 625.81640625 816.4296875 626.994140625 819.189453125 Q 628.171875 821.94921875 629.7890625 823.30859375 L 629.35546875 824.57421875 L 629.28515625 824.57421875 Q 627.234375 823.484375 625.37109375 820.220703125 Q 623.5078125 816.95703125 623.5078125 812.328125 L 623.5078125 812.22265625 Z  M 636.43359375 803.57421875 L 634.59375 803.796875 L 638.16796875 810.7578125 L 641.7421875 803.796875 L 639.9140625 803.57421875 L 639.9140625 802.0859375 L 645.7734375 802.0859375 L 645.7734375 803.57421875 L 644.33203125 803.796875 L 639.26953125 813.1484375 L 639.26953125 817.34375 L 641.1796875 817.671875 L 641.1796875 819.1484375 L 635.0625 819.1484375 L 635.0625 817.671875 L 636.97265625 817.34375 L 636.97265625 812.97265625 L 632.00390625 803.796875 L 630.57421875 803.57421875 L 630.57421875 802.0859375 L 636.43359375 802.0859375 L 636.43359375 803.57421875 Z  M 647.66015625 819.1484375 L 647.66015625 817.56640625 L 653.25 811.35546875 Q 654.75 809.6796875 655.283203125 808.6953125 Q 655.81640625 807.7109375 655.81640625 806.6796875 Q 655.81640625 805.40234375 655.06640625 804.529296875 Q 654.31640625 803.65625 653.0859375 803.65625 Q 651.31640625 803.65625 650.484375 804.55859375 Q 649.65234375 805.4609375 649.65234375 807.11328125 L 647.4375 807.11328125 L 647.4140625 807.04296875 Q 647.35546875 804.83984375 648.873046875 803.33984375 Q 650.390625 801.83984375 653.0859375 801.83984375 Q 655.39453125 801.83984375 656.759765625 803.181640625 Q 658.125 804.5234375 658.125 806.59765625 Q 658.125 807.9921875 657.298828125 809.38671875 Q 656.47265625 810.78125 654.97265625 812.3984375 L 650.484375 817.28515625 L 650.5078125 817.34375 L 656.56640625 817.34375 L 656.75390625 815.38671875 L 658.7109375 815.38671875 L 658.7109375 819.1484375 L 647.66015625 819.1484375 Z  M 667.3125 812.84375 L 661.58203125 812.84375 L 661.58203125 811.0390625 L 667.3125 811.0390625 L 667.3125 812.84375 Z  M 675.62109375 803.57421875 L 673.78125 803.796875 L 677.35546875 810.7578125 L 680.9296875 803.796875 L 679.1015625 803.57421875 L 679.1015625 802.0859375 L 684.9609375 802.0859375 L 684.9609375 803.57421875 L 683.51953125 803.796875 L 678.45703125 813.1484375 L 678.45703125 817.34375 L 680.3671875 817.671875 L 680.3671875 819.1484375 L 674.25 819.1484375 L 674.25 817.671875 L 676.16015625 817.34375 L 676.16015625 812.97265625 L 671.19140625 803.796875 L 669.76171875 803.57421875 L 669.76171875 802.0859375 L 675.62109375 802.0859375 L 675.62109375 803.57421875 Z  M 687.12890625 817.671875 L 689.765625 817.34375 L 689.765625 804.55859375 L 687.08203125 804.60546875 L 687.08203125 803.1640625 L 692.07421875 802.0859375 L 692.07421875 817.34375 L 694.69921875 817.671875 L 694.69921875 819.1484375 L 687.12890625 819.1484375 L 687.12890625 817.671875 Z  M 702.01171875 812.328125 Q 702.01171875 816.95703125 700.142578125 820.220703125 Q 698.2734375 823.484375 696.234375 824.57421875 L 696.1640625 824.57421875 L 695.73046875 823.30859375 Q 697.3125 822.078125 698.5078125 819.259765625 Q 699.703125 816.44140625 699.703125 812.3515625 L 699.703125 812.19921875 Q 699.703125 808.1796875 698.47265625 805.35546875 Q 697.2421875 802.53125 695.73046875 801.2421875 L 696.1640625 799.9765625 L 696.234375 799.9765625 Q 698.2734375 801.06640625 700.142578125 804.3359375 Q 702.01171875 807.60546875 702.01171875 812.22265625 L 702.01171875 812.328125 Z  M 706.86328125 822.3125 L 705.0234375 822.3125 L 705.0234375 802.0859375 L 706.86328125 802.0859375 L 706.86328125 822.3125 Z  M 710.5078125 820.61328125 L 708.55078125 820.61328125 L 715.67578125 802.0859375 L 717.62109375 802.0859375 L 710.5078125 820.61328125 Z  M 721.8046875 822.3125 L 719.96484375 822.3125 L 719.96484375 802.0859375 L 721.8046875 802.0859375 L 721.8046875 822.3125 Z  M 724.828125 812.22265625 Q 724.828125 807.60546875 726.69140625 804.3359375 Q 728.5546875 801.06640625 730.60546875 799.9765625 L 730.67578125 799.98828125 L 731.109375 801.34765625 Q 729.50390625 802.6015625 728.3203125 805.3671875 Q 727.13671875 808.1328125 727.13671875 812.19921875 L 727.13671875 812.3515625 Q 727.13671875 816.4296875 728.314453125 819.189453125 Q 729.4921875 821.94921875 731.109375 823.30859375 L 730.67578125 824.57421875 L 730.60546875 824.57421875 Q 728.5546875 823.484375 726.69140625 820.220703125 Q 724.828125 816.95703125 724.828125 812.328125 L 724.828125 812.22265625 Z  M 731.75390625 817.671875 L 733.2890625 817.4140625 L 738.140625 810.546875 L 733.40625 803.83203125 L 731.87109375 803.57421875 L 731.87109375 802.0859375 L 737.40234375 802.0859375 L 737.40234375 803.57421875 L 736.03125 803.7265625 L 739.44140625 808.84765625 L 742.88671875 803.7265625 L 741.515625 803.57421875 L 741.515625 802.0859375 L 747.08203125 802.0859375 L 747.08203125 803.57421875 L 745.546875 803.83203125 L 740.8125 810.546875 L 745.65234375 817.4140625 L 747.19921875 817.671875 L 747.19921875 819.1484375 L 741.6796875 819.1484375 L 741.6796875 817.671875 L 743.02734375 817.51953125 L 739.48828125 812.26953125 L 735.9375 817.51953125 L 737.30859375 817.671875 L 737.30859375 819.1484375 L 731.75390625 819.1484375 L 731.75390625 817.671875 Z  M 748.83984375 819.1484375 L 748.83984375 817.56640625 L 754.4296875 811.35546875 Q 755.9296875 809.6796875 756.462890625 808.6953125 Q 756.99609375 807.7109375 756.99609375 806.6796875 Q 756.99609375 805.40234375 756.24609375 804.529296875 Q 755.49609375 803.65625 754.265625 803.65625 Q 752.49609375 803.65625 751.6640625 804.55859375 Q 750.83203125 805.4609375 750.83203125 807.11328125 L 748.6171875 807.11328125 L 748.59375 807.04296875 Q 748.53515625 804.83984375 750.052734375 803.33984375 Q 751.5703125 801.83984375 754.265625 801.83984375 Q 756.57421875 801.83984375 757.939453125 803.181640625 Q 759.3046875 804.5234375 759.3046875 806.59765625 Q 759.3046875 807.9921875 758.478515625 809.38671875 Q 757.65234375 810.78125 756.15234375 812.3984375 L 751.6640625 817.28515625 L 751.6875 817.34375 L 757.74609375 817.34375 L 757.93359375 815.38671875 L 759.890625 815.38671875 L 759.890625 819.1484375 L 748.83984375 819.1484375 Z  M 768.4921875 812.84375 L 762.76171875 812.84375 L 762.76171875 811.0390625 L 768.4921875 811.0390625 L 768.4921875 812.84375 Z  M 770.80078125 817.671875 L 772.3359375 817.4140625 L 777.1875 810.546875 L 772.453125 803.83203125 L 770.91796875 803.57421875 L 770.91796875 802.0859375 L 776.44921875 802.0859375 L 776.44921875 803.57421875 L 775.078125 803.7265625 L 778.48828125 808.84765625 L 781.93359375 803.7265625 L 780.5625 803.57421875 L 780.5625 802.0859375 L 786.12890625 802.0859375 L 786.12890625 803.57421875 L 784.59375 803.83203125 L 779.859375 810.546875 L 784.69921875 817.4140625 L 786.24609375 817.671875 L 786.24609375 819.1484375 L 780.7265625 819.1484375 L 780.7265625 817.671875 L 782.07421875 817.51953125 L 778.53515625 812.26953125 L 774.984375 817.51953125 L 776.35546875 817.671875 L 776.35546875 819.1484375 L 770.80078125 819.1484375 L 770.80078125 817.671875 Z  M 788.16796875 817.671875 L 790.8046875 817.34375 L 790.8046875 804.55859375 L 788.12109375 804.60546875 L 788.12109375 803.1640625 L 793.11328125 802.0859375 L 793.11328125 817.34375 L 795.73828125 817.671875 L 795.73828125 819.1484375 L 788.16796875 819.1484375 L 788.16796875 817.671875 Z  M 803.05078125 812.328125 Q 803.05078125 816.95703125 801.181640625 820.220703125 Q 799.3125 823.484375 797.2734375 824.57421875 L 797.203125 824.57421875 L 796.76953125 823.30859375 Q 798.3515625 822.078125 799.546875 819.259765625 Q 800.7421875 816.44140625 800.7421875 812.3515625 L 800.7421875 812.19921875 Q 800.7421875 808.1796875 799.51171875 805.35546875 Q 798.28125 802.53125 796.76953125 801.2421875 L 797.203125 799.9765625 L 797.2734375 799.9765625 Q 799.3125 801.06640625 801.181640625 804.3359375 Q 803.05078125 807.60546875 803.05078125 812.22265625 L 803.05078125 812.328125 Z  M 807.90234375 822.3125 L 806.0625 822.3125 L 806.0625 802.0859375 L 807.90234375 802.0859375 L 807.90234375 822.3125 Z  M 596.05078125 813.2890625 Q 596.05078125 816.03125 594.732421875 817.712890625 Q 593.4140625 819.39453125 591.10546875 819.39453125 Q 589.86328125 819.39453125 588.94921875 818.919921875 Q 588.03515625 818.4453125 587.42578125 817.51953125 L 587.21484375 819.1484375 L 585.22265625 819.1484375 L 585.22265625 802.68359375 L 583.3125 802.35546875 L 583.3125 800.8671875 L 587.53125 800.8671875 L 587.53125 807.96875 Q 588.12890625 807.125 589.013671875 806.6796875 Q 589.8984375 806.234375 591.08203125 806.234375 Q 593.42578125 806.234375 594.73828125 808.109375 Q 596.05078125 809.984375 596.05078125 813.04296875 L 596.05078125 813.2890625 Z  M 593.73046875 813.04296875 Q 593.73046875 810.8515625 592.93359375 809.48046875 Q 592.13671875 808.109375 590.49609375 808.109375 Q 589.4296875 808.109375 588.697265625 808.625 Q 587.96484375 809.140625 587.53125 810.0078125 L 587.53125 815.609375 Q 587.96484375 816.48828125 588.708984375 817.00390625 Q 589.453125 817.51953125 590.51953125 817.51953125 Q 592.1484375 817.51953125 592.939453125 816.359375 Q 593.73046875 815.19921875 593.73046875 813.2890625 L 593.73046875 813.04296875 Z  M 610.39453125 807.95703125 L 609.2578125 808.1328125 L 604.4296875 821.09375 Q 603.94921875 822.37109375 603.046875 823.3203125 Q 602.14453125 824.26953125 600.62109375 824.26953125 Q 600.3515625 824.26953125 599.91796875 824.205078125 Q 599.484375 824.140625 599.25 824.08203125 L 599.484375 822.265625 Q 599.4140625 822.25390625 599.900390625 822.2890625 Q 600.38671875 822.32421875 600.515625 822.32421875 Q 601.25390625 822.32421875 601.7109375 821.685546875 Q 602.16796875 821.046875 602.5078125 820.21484375 L 603.05859375 818.90234375 L 598.875 808.14453125 L 597.71484375 807.95703125 L 597.71484375 806.46875 L 602.8359375 806.46875 L 602.8359375 807.95703125 L 601.40625 808.19140625 L 603.59765625 814.44921875 L 604.01953125 816.06640625 L 604.08984375 816.06640625 L 606.7265625 808.19140625 L 605.28515625 807.95703125 L 605.28515625 806.46875 L 610.39453125 806.46875 L 610.39453125 807.95703125 Z  M 443.91796875 817.671875 L 445.828125 817.34375 L 445.828125 808.28515625 L 443.91796875 807.95703125 L 443.91796875 806.46875 L 447.90234375 806.46875 L 448.0546875 808.12109375 Q 448.6640625 807.21875 449.625 806.7265625 Q 450.5859375 806.234375 451.8515625 806.234375 Q 453.1171875 806.234375 454.025390625 806.8203125 Q 454.93359375 807.40625 455.390625 808.578125 Q 455.98828125 807.5 456.97265625 806.8671875 Q 457.95703125 806.234375 459.26953125 806.234375 Q 461.21484375 806.234375 462.33984375 807.564453125 Q 463.46484375 808.89453125 463.46484375 811.56640625 L 463.46484375 817.34375 L 465.375 817.671875 L 465.375 819.1484375 L 459.234375 819.1484375 L 459.234375 817.671875 L 461.14453125 817.34375 L 461.14453125 811.54296875 Q 461.14453125 809.66796875 460.5 808.888671875 Q 459.85546875 808.109375 458.58984375 808.109375 Q 457.3828125 808.109375 456.650390625 808.958984375 Q 455.91796875 809.80859375 455.80078125 811.09765625 L 455.80078125 817.34375 L 457.7109375 817.671875 L 457.7109375 819.1484375 L 451.58203125 819.1484375 L 451.58203125 817.671875 L 453.4921875 817.34375 L 453.4921875 811.54296875 Q 453.4921875 809.76171875 452.830078125 808.935546875 Q 452.16796875 808.109375 450.9140625 808.109375 Q 449.859375 808.109375 449.1796875 808.54296875 Q 448.5 808.9765625 448.13671875 809.76171875 L 448.13671875 817.34375 L 450.046875 817.671875 L 450.046875 819.1484375 L 443.91796875 819.1484375 L 443.91796875 817.671875 Z  M 476.12109375 817.2734375 Q 475.5234375 818.29296875 474.580078125 818.84375 Q 473.63671875 819.39453125 472.40625 819.39453125 Q 470.34375 819.39453125 469.18359375 818.0703125 Q 468.0234375 816.74609375 468.0234375 813.9453125 L 468.0234375 808.28515625 L 466.5703125 807.95703125 L 466.5703125 806.46875 L 468.0234375 806.46875 L 470.33203125 806.46875 L 470.33203125 813.96875 Q 470.33203125 815.99609375 470.9296875 816.7578125 Q 471.52734375 817.51953125 472.79296875 817.51953125 Q 474.0234375 817.51953125 474.826171875 817.021484375 Q 475.62890625 816.5234375 476.0390625 815.609375 L 476.0390625 808.28515625 L 474.33984375 807.95703125 L 474.33984375 806.46875 L 476.0390625 806.46875 L 478.34765625 806.46875 L 478.34765625 817.34375 L 479.80078125 817.671875 L 479.80078125 819.1484375 L 476.2734375 819.1484375 L 476.12109375 817.2734375 Z  M 481.3125 802.35546875 L 481.3125 800.8671875 L 485.53125 800.8671875 L 485.53125 817.34375 L 487.44140625 817.671875 L 487.44140625 819.1484375 L 481.3125 819.1484375 L 481.3125 817.671875 L 483.22265625 817.34375 L 483.22265625 802.68359375 L 481.3125 802.35546875 Z  M 493.21875 803.41015625 L 493.21875 806.46875 L 495.62109375 806.46875 L 495.62109375 808.1796875 L 493.21875 808.1796875 L 493.21875 815.87890625 Q 493.21875 816.76953125 493.587890625 817.1328125 Q 493.95703125 817.49609375 494.56640625 817.49609375 Q 494.87109375 817.49609375 495.251953125 817.443359375 Q 495.6328125 817.390625 495.890625 817.33203125 L 496.20703125 818.9140625 Q 495.87890625 819.125 495.24609375 819.259765625 Q 494.61328125 819.39453125 493.98046875 819.39453125 Q 492.57421875 819.39453125 491.7421875 818.544921875 Q 490.91015625 817.6953125 490.91015625 815.87890625 L 490.91015625 808.1796875 L 488.90625 808.1796875 L 488.90625 806.46875 L 490.91015625 806.46875 L 490.91015625 803.41015625 L 493.21875 803.41015625 Z  M 497.9765625 817.671875 L 499.88671875 817.34375 L 499.88671875 808.28515625 L 497.9765625 807.95703125 L 497.9765625 806.46875 L 502.1953125 806.46875 L 502.1953125 817.34375 L 504.10546875 817.671875 L 504.10546875 819.1484375 L 497.9765625 819.1484375 L 497.9765625 817.671875 Z  M 502.1953125 803.22265625 L 499.88671875 803.22265625 L 499.88671875 800.8671875 L 502.1953125 800.8671875 L 502.1953125 803.22265625 Z  M 505.58203125 822.53515625 L 507.4921875 822.20703125 L 507.4921875 808.28515625 L 505.58203125 807.95703125 L 505.58203125 806.46875 L 509.47265625 806.46875 L 509.68359375 808.015625 Q 510.31640625 807.1484375 511.224609375 806.69140625 Q 512.1328125 806.234375 513.328125 806.234375 Q 515.68359375 806.234375 516.990234375 808.103515625 Q 518.296875 809.97265625 518.296875 813.04296875 L 518.296875 813.2890625 Q 518.296875 816.03125 516.984375 817.712890625 Q 515.671875 819.39453125 513.36328125 819.39453125 Q 512.19140625 819.39453125 511.306640625 819.001953125 Q 510.421875 818.609375 509.80078125 817.8359375 L 509.80078125 822.20703125 L 511.7109375 822.53515625 L 511.7109375 824.0234375 L 505.58203125 824.0234375 L 505.58203125 822.53515625 Z  M 515.9765625 813.04296875 Q 515.9765625 810.875 515.1328125 809.4921875 Q 514.2890625 808.109375 512.625 808.109375 Q 511.640625 808.109375 510.9375 808.5546875 Q 510.234375 809 509.80078125 809.7734375 L 509.80078125 815.94921875 Q 510.234375 816.734375 510.931640625 817.162109375 Q 511.62890625 817.58984375 512.6484375 817.58984375 Q 514.2890625 817.58984375 515.1328125 816.39453125 Q 515.9765625 815.19921875 515.9765625 813.2890625 L 515.9765625 813.04296875 Z  M 520.078125 802.35546875 L 520.078125 800.8671875 L 524.296875 800.8671875 L 524.296875 817.34375 L 526.20703125 817.671875 L 526.20703125 819.1484375 L 520.078125 819.1484375 L 520.078125 817.671875 L 521.98828125 817.34375 L 521.98828125 802.68359375 L 520.078125 802.35546875 Z  M 540 807.95703125 L 538.86328125 808.1328125 L 534.03515625 821.09375 Q 533.5546875 822.37109375 532.65234375 823.3203125 Q 531.75 824.26953125 530.2265625 824.26953125 Q 529.95703125 824.26953125 529.5234375 824.205078125 Q 529.08984375 824.140625 528.85546875 824.08203125 L 529.08984375 822.265625 Q 529.01953125 822.25390625 529.505859375 822.2890625 Q 529.9921875 822.32421875 530.12109375 822.32421875 Q 530.859375 822.32421875 531.31640625 821.685546875 Q 531.7734375 821.046875 532.11328125 820.21484375 L 532.6640625 818.90234375 L 528.48046875 808.14453125 L 527.3203125 807.95703125 L 527.3203125 806.46875 L 532.44140625 806.46875 L 532.44140625 807.95703125 L 531.01171875 808.19140625 L 533.203125 814.44921875 L 533.625 816.06640625 L 533.6953125 816.06640625 L 536.33203125 808.19140625 L 534.890625 807.95703125 L 534.890625 806.46875 L 540 806.46875 L 540 807.95703125 Z  M 541.5703125 817.671875 L 543.48046875 817.34375 L 543.48046875 808.28515625 L 541.5703125 807.95703125 L 541.5703125 806.46875 L 545.7890625 806.46875 L 545.7890625 817.34375 L 547.69921875 817.671875 L 547.69921875 819.1484375 L 541.5703125 819.1484375 L 541.5703125 817.671875 Z  M 545.7890625 803.22265625 L 543.48046875 803.22265625 L 543.48046875 800.8671875 L 545.7890625 800.8671875 L 545.7890625 803.22265625 Z  M 549.1171875 817.671875 L 551.02734375 817.34375 L 551.02734375 808.28515625 L 549.1171875 807.95703125 L 549.1171875 806.46875 L 553.08984375 806.46875 L 553.25390625 808.35546875 Q 553.88671875 807.34765625 554.841796875 806.791015625 Q 555.796875 806.234375 557.015625 806.234375 Q 559.06640625 806.234375 560.19140625 807.435546875 Q 561.31640625 808.63671875 561.31640625 811.14453125 L 561.31640625 817.34375 L 563.2265625 817.671875 L 563.2265625 819.1484375 L 557.09765625 819.1484375 L 557.09765625 817.671875 L 559.0078125 817.34375 L 559.0078125 811.19140625 Q 559.0078125 809.515625 558.345703125 808.8125 Q 557.68359375 808.109375 556.32421875 808.109375 Q 555.328125 808.109375 554.560546875 808.58984375 Q 553.79296875 809.0703125 553.3359375 809.90234375 L 553.3359375 817.34375 L 555.24609375 817.671875 L 555.24609375 819.1484375 L 549.1171875 819.1484375 L 549.1171875 817.671875 Z  M 564.9140625 813.04296875 Q 564.9140625 809.984375 566.25 808.109375 Q 567.5859375 806.234375 569.94140625 806.234375 Q 571.13671875 806.234375 572.0390625 806.703125 Q 572.94140625 807.171875 573.55078125 808.0625 L 573.76171875 806.46875 L 575.70703125 806.46875 L 575.70703125 818.984375 Q 575.70703125 821.4453125 574.3359375 822.857421875 Q 572.96484375 824.26953125 570.43359375 824.26953125 Q 569.51953125 824.26953125 568.453125 824.017578125 Q 567.38671875 823.765625 566.578125 823.33203125 L 567.17578125 821.5390625 Q 567.8203125 821.87890625 568.69921875 822.1015625 Q 569.578125 822.32421875 570.41015625 822.32421875 Q 571.95703125 822.32421875 572.677734375 821.45703125 Q 573.3984375 820.58984375 573.3984375 818.984375 L 573.3984375 817.77734375 Q 572.77734375 818.57421875 571.91015625 818.984375 Q 571.04296875 819.39453125 569.91796875 819.39453125 Q 567.5859375 819.39453125 566.25 817.70703125 Q 564.9140625 816.01953125 564.9140625 813.2890625 L 564.9140625 813.04296875 Z  M 567.22265625 813.2890625 Q 567.22265625 815.19921875 568.03125 816.359375 Q 568.83984375 817.51953125 570.4921875 817.51953125 Q 571.53515625 817.51953125 572.23828125 817.044921875 Q 572.94140625 816.5703125 573.3984375 815.703125 L 573.3984375 809.8671875 Q 572.953125 809.05859375 572.23828125 808.583984375 Q 571.5234375 808.109375 570.515625 808.109375 Q 568.86328125 808.109375 568.04296875 809.4921875 Q 567.22265625 810.875 567.22265625 813.04296875 L 567.22265625 813.2890625 Z  M 416.296875 802.0859375 Q 418.96875 802.0859375 420.474609375 803.240234375 Q 421.98046875 804.39453125 421.98046875 806.703125 Q 421.98046875 807.83984375 421.259765625 808.736328125 Q 420.5390625 809.6328125 419.35546875 810.06640625 Q 420.890625 810.39453125 421.78125 811.578125 Q 422.671875 812.76171875 422.671875 814.33203125 Q 422.671875 816.67578125 421.1484375 817.912109375 Q 419.625 819.1484375 417.0234375 819.1484375 L 408.8203125 819.1484375 L 408.8203125 817.671875 L 410.73046875 817.34375 L 410.73046875 803.90234375 L 408.8203125 803.57421875 L 408.8203125 802.0859375 L 410.73046875 802.0859375 L 416.296875 802.0859375 Z  M 413.0390625 811.14453125 L 413.0390625 817.34375 L 417.0234375 817.34375 Q 418.60546875 817.34375 419.478515625 816.564453125 Q 420.3515625 815.78515625 420.3515625 814.35546875 Q 420.3515625 812.85546875 419.619140625 812 Q 418.88671875 811.14453125 417.375 811.14453125 L 413.0390625 811.14453125 Z  M 413.0390625 809.33984375 L 416.89453125 809.33984375 Q 418.13671875 809.3046875 418.904296875 808.6015625 Q 419.671875 807.8984375 419.671875 806.65625 Q 419.671875 805.2734375 418.8046875 804.587890625 Q 417.9375 803.90234375 416.296875 803.90234375 L 413.0390625 803.90234375 L 413.0390625 809.33984375 Z  M 436.83984375 807.95703125 L 435.703125 808.1328125 L 430.875 821.09375 Q 430.39453125 822.37109375 429.4921875 823.3203125 Q 428.58984375 824.26953125 427.06640625 824.26953125 Q 426.796875 824.26953125 426.36328125 824.205078125 Q 425.9296875 824.140625 425.6953125 824.08203125 L 425.9296875 822.265625 Q 425.859375 822.25390625 426.345703125 822.2890625 Q 426.83203125 822.32421875 426.9609375 822.32421875 Q 427.69921875 822.32421875 428.15625 821.685546875 Q 428.61328125 821.046875 428.953125 820.21484375 L 429.50390625 818.90234375 L 425.3203125 808.14453125 L 424.16015625 807.95703125 L 424.16015625 806.46875 L 429.28125 806.46875 L 429.28125 807.95703125 L 427.8515625 808.19140625 L 430.04296875 814.44921875 L 430.46484375 816.06640625 L 430.53515625 816.06640625 L 433.171875 808.19140625 L 431.73046875 807.95703125 L 431.73046875 806.46875 L 436.83984375 806.46875 L 436.83984375 807.95703125 Z " fill-rule="evenodd" fill="rgb(0,0,0)"/></svg>