<?xml version="1.0" standalone="no"?><!-- Generator: Gravit.io --><svg xmlns="http://www.w3.org/2000/svg" xmlns:xlink="http://www.w3.org/1999/xlink" style="isolation:isolate" viewBox="0 0 1280 960" width="1280" height="960"><path d=" M 881.07421875 68.92578125000051 Q 470.58001760463134 896.0742187500002 53.92578125000006 896.0742187500002" fill="none" vector-effect="non-scaling-stroke" stroke-width="3" stroke="rgb(21,21,21)" stroke-linejoin="miter" stroke-linecap="square" stroke-miterlimit="3"/><path d=" M 136.64062500000017 896.0742187500005 L 136.64062500000014 888.0000000000018 L 53.92578125000017 888.0000000000018" fill="none" vector-effect="non-scaling-stroke" stroke-width="4.962890625000001" stroke="rgb(21,21,21)" stroke-linejoin="miter" stroke-linecap="square" stroke-miterlimit="3"/><path d=" M 219.35546875000017 896.0742187500005 L 219.35546875000017 862.9882812500005 L 53.925781250000156 862.9882812500002" fill="none" vector-effect="non-scaling-stroke" stroke-width="4.962890625000001" stroke="rgb(21,21,21)" stroke-linejoin="miter" stroke-linecap="square" stroke-miterlimit="3"/><path d=" M 302.0703125000002 896.0742187500005 L 302.0703125000002 821.6308593750007 L 53.925781250000156 821.6308593750007" fill="none" vector-effect="non-scaling-stroke" stroke-width="4.962890625000001" stroke="rgb(21,21,21)" stroke-linejoin="miter" stroke-linecap="square" stroke-miterlimit="3"/><path d=" M 384.7851562500002 896.0742187500005 L 384.7851562500002 768.6933593750007 L 53.9257812500001 768.6933593750007" fill="none" vector-effect="non-scaling-stroke" stroke-width="4.962890625000001" stroke="rgb(21,21,21)" stroke-linejoin="miter" stroke-linecap="square" stroke-miterlimit="3"/><path d=" M 467.5000000000002 896.0742187500005 L 467.5000000000002 689.2871093750009 L 53.9257812500001 689.2871093750009" fill="none" vector-effect="non-scaling-stroke" stroke-width="4.962890625000001" stroke="rgb(21,21,21)" stroke-linejoin="miter" stroke-linecap="square" stroke-miterlimit="3"/><path d=" M 550.2148437500002 896.0742187500005 L 550.2148437500002 603.2636718750005 L 53.9257812500001 603.2636718750002" fill="none" vector-effect="non-scaling-stroke" stroke-width="4.962890625000001" stroke="rgb(21,21,21)" stroke-linejoin="miter" stroke-linecap="square" stroke-miterlimit="3"/><path d=" M 632.9296875000002 896.0742187500005 L 632.9296875000003 494.0800781250007 L 53.92578125000006 494.0800781250007" fill="none" vector-effect="non-scaling-stroke" stroke-width="4.962890625000001" stroke="rgb(21,21,21)" stroke-linejoin="miter" stroke-linecap="square" stroke-miterlimit="3"/><path d=" M 715.6445312500002 896.0742187500005 L 715.6445312500001 368.35351562500034 L 53.925781250000156 368.35351562500034" fill="none" vector-effect="non-scaling-stroke" stroke-width="4.962890625000001" stroke="rgb(21,21,21)" stroke-linejoin="miter" stroke-linecap="square" stroke-miterlimit="3"/><path d=" M 798.3593750000002 896.0742187500005 L 798.3593750000001 216.15820312500057 L 53.92578125000006 216.15820312500057" fill="none" vector-effect="non-scaling-stroke" stroke-width="4.962890625000001" stroke="rgb(21,21,21)" stroke-linejoin="miter" stroke-linecap="square" stroke-miterlimit="3"/><path d=" M 881.0742187500002 896.0742187500005 L 881.0742187500002 68.92578125000057 L 53.92578125000017 68.92578125000045" fill="none" vector-effect="non-scaling-stroke" stroke-width="4.962890625000001" stroke="rgb(21,21,21)" stroke-linejoin="miter" stroke-linecap="square" stroke-miterlimit="3"/><path d=" M 53.92578124999993 68.92578124999852 L 53.92578124999993 896.0742187499984 L 881.07421875 896.0742187499984" fill="none" vector-effect="non-scaling-stroke" stroke-width="6.617187500000001" stroke="rgb(21,21,21)" stroke-linejoin="miter" stroke-linecap="square" stroke-miterlimit="3"/><path d=" M 126.71484375000013 896.0742187499984 C 126.71484375000013 890.5960309928892 131.16243724289066 886.1484374999986 136.64062499999994 886.1484374999986 C 142.11881275710923 886.1484374999986 146.56640624999974 890.5960309928892 146.56640624999974 896.0742187499984 C 146.56640624999977 901.5524065071077 142.11881275710923 905.9999999999982 136.64062499999994 905.9999999999982 C 131.16243724289066 905.9999999999982 126.71484375000013 901.5524065071077 126.71484375000013 896.0742187499984 Z " fill="rgb(21,21,21)"/><path d=" M 1049.906388143363 88.77732517459495 C 1044.428210842825 88.76662162323052 1039.9893157651934 84.31034669389975 1040.0000193165579 78.83216939336172 C 1040.0107228679221 73.35399209282369 1044.466997797253 68.91509701519203 1049.945175097791 68.92580056655646 C 1055.4233523983291 68.93650411792089 1059.8622474759607 73.39277904725166 1059.8515439245962 78.87095634778969 C 1059.840840373232 84.34913364832772 1055.384565443901 88.78802872595938 1049.906388143363 88.77732517459495 Z " fill="rgb(21,21,21)"/><path d=" M 209.42968750000014 896.0742187499984 C 209.42968750000014 890.5960309928892 213.87728099289066 886.1484374999986 219.35546874999994 886.1484374999986 C 224.83365650710923 886.1484374999986 229.28124999999974 890.5960309928892 229.28124999999974 896.0742187499984 C 229.28124999999977 901.5524065071077 224.83365650710923 905.9999999999982 219.35546874999994 905.9999999999982 C 213.87728099289066 905.9999999999982 209.42968750000014 901.5524065071077 209.42968750000014 896.0742187499984 Z " fill="rgb(21,21,21)"/><path d=" M 1049.980606522786 180.0077938422445 C 1044.5024292222479 179.99709029088007 1040.0635341446164 175.54081536154928 1040.0742376959809 170.06263806101126 C 1040.0849412473451 164.58446076047323 1044.541216176676 160.14556568284158 1050.019393477214 160.15626923420598 C 1055.4975707777521 160.1669727855704 1059.9364658553836 164.6232477149012 1059.9257623040191 170.10142501543922 C 1059.9150587526549 175.57960231597724 1055.458783823324 180.0184973936089 1049.980606522786 180.0077938422445 Z " fill="rgb(21,21,21)"/><path d=" M 292.14453125000017 896.0742187499986 C 292.14453125000017 890.5960309928894 296.59212474289075 886.1484374999989 302.0703125 886.1484374999989 C 307.54850025710925 886.1484374999989 311.99609374999983 890.5960309928894 311.99609374999983 896.0742187499986 C 311.99609374999983 901.5524065071079 307.54850025710925 905.9999999999984 302.0703125 905.9999999999984 C 296.59212474289075 905.9999999999984 292.14453125000017 901.5524065071079 292.14453125000017 896.0742187499986 Z " fill="rgb(21,21,21)"/><path d=" M 1049.980606522786 271.238262509894 C 1044.5024292222479 271.2275589585296 1040.0635341446164 266.7712840291988 1040.0742376959809 261.29310672866075 C 1040.0849412473451 255.81492942812275 1044.541216176676 251.3760343504911 1050.019393477214 251.3867379018555 C 1055.4975707777521 251.39744145321993 1059.9364658553836 255.85371638255072 1059.9257623040191 261.33189368308877 C 1059.9150587526549 266.81007098362676 1055.458783823324 271.24896606125844 1049.980606522786 271.238262509894 Z " fill="rgb(21,21,21)"/><path d=" M 374.85937500000017 896.0742187499991 C 374.85937500000017 890.5960309928898 379.30696849289075 886.1484374999993 384.78515625 886.1484374999993 C 390.26334400710925 886.1484374999993 394.71093749999983 890.5960309928898 394.71093749999983 896.0742187499991 C 394.71093749999983 901.5524065071083 390.26334400710925 905.9999999999989 384.78515625 905.9999999999989 C 379.30696849289075 905.9999999999989 374.85937500000017 901.5524065071083 374.85937500000017 896.0742187499991 Z " fill="rgb(21,21,21)"/><path d=" M 1048.980606522786 362.4687311775436 C 1043.5024292222479 362.45802762617916 1039.0635341446164 358.00175269684837 1039.0742376959809 352.5235753963103 C 1039.0849412473451 347.0453980957723 1043.541216176676 342.60650301814064 1049.019393477214 342.6172065695051 C 1054.4975707777521 342.6279101208695 1058.9364658553836 347.0841850502003 1058.9257623040191 352.56236235073834 C 1058.9150587526549 358.04053965127633 1054.458783823324 362.479434728908 1048.980606522786 362.4687311775436 Z " fill="rgb(21,21,21)"/><path d=" M 457.57421875000017 896.0742187499993 C 457.57421875000017 890.5960309928901 462.02181224289075 886.1484374999995 467.5 886.1484374999995 C 472.97818775710925 886.1484374999995 477.42578124999983 890.5960309928901 477.42578124999983 896.0742187499993 C 477.42578124999983 901.5524065071086 472.97818775710925 905.9999999999991 467.5 905.9999999999991 C 462.02181224289075 905.9999999999991 457.57421875000017 901.5524065071086 457.57421875000017 896.0742187499993 Z " fill="rgb(21,21,21)"/><path d=" M 1048.980606522786 453.69919984519316 C 1043.5024292222479 453.68849629382873 1039.0635341446164 449.23222136449795 1039.0742376959809 443.7540440639599 C 1039.0849412473451 438.2758667634219 1043.541216176676 433.8369716857902 1049.019393477214 433.84767523715465 C 1054.4975707777521 433.8583787885191 1058.9364658553836 438.31465371784986 1058.9257623040191 443.7928310183879 C 1058.9150587526549 449.2710083189259 1054.458783823324 453.7099033965576 1048.980606522786 453.69919984519316 Z " fill="rgb(21,21,21)"/><path d=" M 540.2890625000002 896.07421875 C 540.2890625000002 890.5960309928907 544.7366559928907 886.1484375000002 550.21484375 886.1484375000002 C 555.6930315071093 886.1484375000002 560.1406249999998 890.5960309928907 560.1406249999998 896.07421875 C 560.1406249999998 901.5524065071093 555.6930315071093 905.9999999999998 550.21484375 905.9999999999998 C 544.7366559928907 905.9999999999998 540.2890625000002 901.5524065071093 540.2890625000002 896.07421875 Z " fill="rgb(21,21,21)"/><path d=" M 1048.980606522786 544.9296685128428 C 1043.5024292222479 544.9189649614783 1039.0635341446164 540.4626900321476 1039.0742376959809 534.9845127316096 C 1039.0849412473451 529.5063354310715 1043.541216176676 525.0674403534399 1049.019393477214 525.0781439048043 C 1054.4975707777521 525.0888474561688 1058.9364658553836 529.5451223854994 1058.9257623040191 535.0232996860375 C 1058.9150587526549 540.5014769865755 1054.458783823324 544.9403720642072 1048.980606522786 544.9296685128428 Z " fill="rgb(21,21,21)"/><path d=" M 623.0039062500002 896.0742187500005 C 623.0039062500002 890.5960309928912 627.4514997428907 886.1484375000007 632.9296875 886.1484375000007 C 638.4078752571093 886.1484375000007 642.8554687499998 890.5960309928912 642.8554687499998 896.0742187500005 C 642.8554687499998 901.5524065071097 638.4078752571093 906.0000000000002 632.9296875 906.0000000000002 C 627.4514997428907 906.0000000000002 623.0039062500002 901.5524065071097 623.0039062500002 896.0742187500005 Z " fill="rgb(21,21,21)"/><path d=" M 1048.980606522786 636.1601371804925 C 1043.5024292222479 636.149433629128 1039.0635341446164 631.6931586997973 1039.0742376959809 626.2149813992593 C 1039.0849412473451 620.7368040987212 1043.541216176676 616.2979090210896 1049.019393477214 616.308612572454 C 1054.4975707777521 616.3193161238185 1058.9364658553836 620.7755910531491 1058.9257623040191 626.2537683536872 C 1058.9150587526549 631.7319456542252 1054.458783823324 636.1708407318569 1048.980606522786 636.1601371804925 Z " fill="rgb(21,21,21)"/><path d=" M 705.7187500000002 896.0742187500011 C 705.7187500000002 890.5960309928919 710.1663434928907 886.1484375000014 715.64453125 886.1484375000014 C 721.1227190071093 886.1484375000014 725.5703124999998 890.5960309928919 725.5703124999998 896.0742187500011 C 725.5703124999998 901.5524065071104 721.1227190071093 906.0000000000009 715.64453125 906.0000000000009 C 710.1663434928907 906.0000000000009 705.7187500000002 901.5524065071104 705.7187500000002 896.0742187500011 Z " fill="rgb(21,21,21)"/><path d=" M 1048.980606522786 727.3906058481422 C 1043.5024292222479 727.3799022967777 1039.0635341446164 722.923627367447 1039.0742376959809 717.445450066909 C 1039.0849412473451 711.9672727663709 1043.541216176676 707.5283776887393 1049.019393477214 707.5390812401037 C 1054.4975707777521 707.5497847914681 1058.9364658553836 712.0060597207988 1058.9257623040191 717.4842370213369 C 1058.9150587526549 722.9624143218749 1054.458783823324 727.4013093995065 1048.980606522786 727.3906058481422 Z " fill="rgb(21,21,21)"/><path d=" M 788.4335937500003 896.0742187500016 C 788.4335937500003 890.5960309928923 792.8811872428909 886.1484375000018 798.3593750000001 886.1484375000018 C 803.8375627571094 886.1484375000018 808.2851562499999 890.5960309928923 808.2851562499999 896.0742187500016 C 808.2851562499999 901.5524065071108 803.8375627571094 906.0000000000014 798.3593750000001 906.0000000000014 C 792.8811872428909 906.0000000000014 788.4335937500003 901.5524065071108 788.4335937500003 896.0742187500016 Z " fill="rgb(21,21,21)"/><path d=" M 1048.980606522786 818.6210745157919 C 1043.5024292222479 818.6103709644274 1039.0635341446164 814.1540960350967 1039.0742376959809 808.6759187345586 C 1039.0849412473451 803.1977414340206 1043.541216176676 798.758846356389 1049.019393477214 798.7695499077533 C 1054.4975707777521 798.7802534591178 1058.9364658553836 803.2365283884485 1058.9257623040191 808.7147056889866 C 1058.9150587526549 814.1928829895246 1054.458783823324 818.6317780671562 1048.980606522786 818.6210745157919 Z " fill="rgb(21,21,21)"/><path d=" M 871.1484375000005 896.0742187500023 C 871.1484375000005 890.596030992893 875.596030992891 886.1484375000025 881.0742187500002 886.1484375000025 C 886.5524065071095 886.1484375000025 891 890.596030992893 891 896.0742187500023 C 891 901.5524065071115 886.5524065071095 906.000000000002 881.0742187500002 906.000000000002 C 875.596030992891 906.000000000002 871.1484375000005 901.5524065071115 871.1484375000005 896.0742187500023 Z " fill="rgb(21,21,21)"/><path d=" M 1049.906388143363 909.8515431834415 C 1044.428210842825 909.8408396320771 1039.9893157651934 905.3845647027464 1040.0000193165579 899.9063874022083 C 1040.0107228679221 894.4282101016703 1044.466997797253 889.9893150240387 1049.945175097791 890.000018575403 C 1055.4233523983291 890.0107221267675 1059.8622474759607 894.4669970560982 1059.8515439245962 899.9451743566362 C 1059.840840373232 905.4233516571743 1055.384565443901 909.8622467348059 1049.906388143363 909.8515431834415 Z " fill="rgb(21,21,21)"/><path d=" M 44.000000000000014 887.9999999999998 C 44.000000000000014 882.5218122428905 48.447593492890555 878.07421875 53.92578124999983 878.07421875 C 59.4039690071091 878.07421875 63.851562499999645 882.5218122428905 63.851562499999645 887.9999999999998 C 63.851562499999645 893.478187757109 59.403969007109104 897.9257812499995 53.92578124999983 897.9257812499995 C 48.44759349289056 897.9257812499995 44.000000000000014 893.478187757109 44.000000000000014 887.9999999999998 Z " fill="rgb(230,80,80)"/><path d=" M 1153.0000000000005 899.9257812499998 C 1153.0000000000005 894.4475934928905 1157.447593492891 890 1162.9257812500002 890 C 1168.4039690071095 890 1172.8515625 894.4475934928905 1172.8515625 899.9257812499998 C 1172.8515625 905.403969007109 1168.4039690071095 909.8515624999995 1162.9257812500002 909.8515624999995 C 1157.447593492891 909.8515624999995 1153.0000000000005 905.403969007109 1153.0000000000005 899.9257812499998 Z " fill="rgb(230,80,80)"/><path d=" M 44.000000000000114 862.9882812499982 C 44.000000000000114 857.5100934928889 48.447593492890654 853.0624999999984 53.92578124999993 853.0624999999984 C 59.4039690071092 853.0624999999984 63.851562499999744 857.5100934928889 63.851562499999744 862.9882812499982 C 63.851562499999744 868.4664690071074 59.403969007109204 872.914062499998 53.92578124999993 872.914062499998 C 48.44759349289066 872.914062499998 44.000000000000114 868.4664690071074 44.000000000000114 862.9882812499982 Z " fill="rgb(230,80,80)"/><path d=" M 1153.0000000000002 872.9140625 C 1153.0000000000002 867.4358747428907 1157.4475934928907 862.9882812500002 1162.92578125 862.9882812500002 C 1168.4039690071093 862.9882812500002 1172.8515624999998 867.4358747428907 1172.8515624999998 872.9140625 C 1172.8515624999998 878.3922502571093 1168.4039690071093 882.8398437499998 1162.92578125 882.8398437499998 C 1157.4475934928907 882.8398437499998 1153.0000000000002 878.3922502571093 1153.0000000000002 872.9140625 Z " fill="rgb(230,80,80)"/><path d=" M 44.000000000000114 821.6308593749986 C 44.000000000000114 816.1526716178894 48.447593492890654 811.7050781249989 53.92578124999993 811.7050781249989 C 59.4039690071092 811.7050781249989 63.851562499999744 816.1526716178894 63.851562499999744 821.6308593749986 C 63.851562499999744 827.1090471321079 59.403969007109204 831.5566406249984 53.92578124999993 831.5566406249984 C 48.44759349289066 831.5566406249984 44.000000000000114 827.1090471321079 44.000000000000114 821.6308593749986 Z " fill="rgb(230,80,80)"/><path d=" M 1153.0000000000002 831.5566406250005 C 1153.0000000000002 826.0784528678912 1157.4475934928907 821.6308593750007 1162.92578125 821.6308593750007 C 1168.4039690071093 821.6308593750007 1172.8515624999998 826.0784528678912 1172.8515624999998 831.5566406250005 C 1172.8515624999998 837.0348283821097 1168.4039690071093 841.4824218750002 1162.92578125 841.4824218750002 C 1157.4475934928907 841.4824218750002 1153.0000000000002 837.0348283821097 1153.0000000000002 831.5566406250005 Z " fill="rgb(230,80,80)"/><path d=" M 44.000000000000014 768.6933593749986 C 44.000000000000014 763.2151716178894 48.447593492890555 758.7675781249989 53.92578124999983 758.7675781249989 C 59.4039690071091 758.7675781249989 63.851562499999645 763.2151716178894 63.851562499999645 768.6933593749986 C 63.851562499999645 774.1715471321079 59.403969007109104 778.6191406249984 53.92578124999983 778.6191406249984 C 48.44759349289056 778.6191406249984 44.000000000000014 774.1715471321079 44.000000000000014 768.6933593749986 Z " fill="rgb(230,80,80)"/><path d=" M 1153 778.6191406250005 C 1153 773.1409528678912 1157.4475934928905 768.6933593750007 1162.9257812499998 768.6933593750007 C 1168.403969007109 768.6933593750007 1172.8515624999995 773.1409528678912 1172.8515624999995 778.6191406250005 C 1172.8515624999995 784.0973283821097 1168.403969007109 788.5449218750002 1162.9257812499998 788.5449218750002 C 1157.4475934928905 788.5449218750002 1153 784.0973283821097 1153 778.6191406250005 Z " fill="rgb(230,80,80)"/><path d=" M 44.000000000000114 689.2871093749989 C 44.000000000000114 683.8089216178896 48.447593492890654 679.3613281249991 53.92578124999993 679.3613281249991 C 59.4039690071092 679.3613281249991 63.851562499999744 683.8089216178896 63.851562499999744 689.2871093749989 C 63.851562499999744 694.7652971321081 59.403969007109204 699.2128906249986 53.92578124999993 699.2128906249986 C 48.44759349289066 699.2128906249986 44.000000000000114 694.7652971321081 44.000000000000114 689.2871093749989 Z " fill="rgb(230,80,80)"/><path d=" M 1153.0000000000002 699.2128906250007 C 1153.0000000000002 693.7347028678914 1157.4475934928907 689.2871093750009 1162.92578125 689.2871093750009 C 1168.4039690071093 689.2871093750009 1172.8515624999998 693.7347028678914 1172.8515624999998 699.2128906250007 C 1172.8515624999998 704.6910783821099 1168.4039690071093 709.1386718750005 1162.92578125 709.1386718750005 C 1157.4475934928907 709.1386718750005 1153.0000000000002 704.6910783821099 1153.0000000000002 699.2128906250007 Z " fill="rgb(230,80,80)"/><path d=" M 44.000000000000114 603.2636718749982 C 44.000000000000114 597.7854841178889 48.447593492890654 593.3378906249984 53.92578124999993 593.3378906249984 C 59.4039690071092 593.3378906249984 63.851562499999744 597.7854841178889 63.851562499999744 603.2636718749982 C 63.851562499999744 608.7418596321074 59.403969007109204 613.189453124998 53.92578124999993 613.189453124998 C 48.44759349289066 613.189453124998 44.000000000000114 608.7418596321074 44.000000000000114 603.2636718749982 Z " fill="rgb(230,80,80)"/><path d=" M 1153.0000000000002 613.189453125 C 1153.0000000000002 607.7112653678907 1157.4475934928907 603.2636718750002 1162.92578125 603.2636718750002 C 1168.4039690071093 603.2636718750002 1172.8515624999998 607.7112653678907 1172.8515624999998 613.189453125 C 1172.8515624999998 618.6676408821093 1168.4039690071093 623.1152343749998 1162.92578125 623.1152343749998 C 1157.4475934928907 623.1152343749998 1153.0000000000002 618.6676408821093 1153.0000000000002 613.189453125 Z " fill="rgb(230,80,80)"/><path d=" M 44.000000000000014 494.0800781249987 C 44.000000000000014 488.60189036788944 48.447593492890555 484.15429687499886 53.92578124999983 484.15429687499886 C 59.4039690071091 484.15429687499886 63.851562499999645 488.60189036788944 63.851562499999645 494.0800781249987 C 63.851562499999645 499.55826588210795 59.403969007109104 504.0058593749985 53.92578124999983 504.0058593749985 C 48.44759349289056 504.0058593749985 44.000000000000014 499.55826588210795 44.000000000000014 494.0800781249987 Z " fill="rgb(230,80,80)"/><path d=" M 1153 504.00585937500045 C 1153 498.5276716178912 1157.4475934928905 494.0800781250006 1162.9257812499998 494.0800781250006 C 1168.403969007109 494.0800781250006 1172.8515624999995 498.5276716178912 1172.8515624999995 504.00585937500045 C 1172.8515624999995 509.4840471321097 1168.403969007109 513.9316406250002 1162.9257812499998 513.9316406250002 C 1157.4475934928905 513.9316406250002 1153 509.4840471321097 1153 504.00585937500045 Z " fill="rgb(230,80,80)"/><path d=" M 44.000000000000114 368.35351562499835 C 44.000000000000114 362.8753278678891 48.447593492890654 358.4277343749985 53.92578124999993 358.4277343749985 C 59.4039690071092 358.4277343749985 63.851562499999744 362.8753278678891 63.851562499999744 368.35351562499835 C 63.851562499999744 373.8317033821076 59.403969007109204 378.2792968749982 53.92578124999993 378.2792968749982 C 48.44759349289066 378.2792968749982 44.000000000000114 373.8317033821076 44.000000000000114 368.35351562499835 Z " fill="rgb(230,80,80)"/><path d=" M 1153.0000000000002 378.2792968750001 C 1153.0000000000002 372.80110911789086 1157.4475934928907 368.3535156250003 1162.92578125 368.3535156250003 C 1168.4039690071093 368.3535156250003 1172.8515624999998 372.80110911789086 1172.8515624999998 378.2792968750001 C 1172.8515624999998 383.75748463210937 1168.4039690071093 388.20507812499994 1162.92578125 388.20507812499994 C 1157.4475934928907 388.20507812499994 1153.0000000000002 383.75748463210937 1153.0000000000002 378.2792968750001 Z " fill="rgb(230,80,80)"/><path d=" M 44.000000000000114 216.15820312499858 C 44.000000000000114 210.6800153678893 48.447593492890654 206.23242187499878 53.92578124999993 206.23242187499878 C 59.4039690071092 206.23242187499878 63.851562499999744 210.6800153678893 63.851562499999744 216.15820312499858 C 63.851562499999744 221.63639088210786 59.403969007109204 226.08398437499838 53.92578124999993 226.08398437499838 C 48.44759349289066 226.0839843749984 44.000000000000114 221.63639088210786 44.000000000000114 216.15820312499858 Z " fill="rgb(230,80,80)"/><path d=" M 1153.0000000000002 226.08398437500034 C 1153.0000000000002 220.60579661789106 1157.4475934928907 216.15820312500054 1162.92578125 216.15820312500054 C 1168.4039690071093 216.15820312500054 1172.8515624999998 220.60579661789106 1172.8515624999998 226.08398437500034 C 1172.8515624999998 231.56217213210962 1168.4039690071093 236.00976562500014 1162.92578125 236.00976562500014 C 1157.4475934928907 236.00976562500017 1153.0000000000002 231.56217213210962 1153.0000000000002 226.08398437500034 Z " fill="rgb(230,80,80)"/><path d=" M 44.000000000000114 68.92578124999858 C 44.000000000000114 63.447593492889304 48.447593492890654 58.999999999998764 53.92578124999993 58.999999999998764 C 59.4039690071092 58.999999999998764 63.851562499999744 63.447593492889304 63.851562499999744 68.92578124999858 C 63.851562499999744 74.40396900710785 59.403969007109204 78.8515624999984 53.92578124999993 78.8515624999984 C 48.44759349289066 78.8515624999984 44.000000000000114 74.40396900710786 44.000000000000114 68.92578124999858 Z " fill="rgb(230,80,80)"/><path d=" M 1153.0000000000005 78.85156250000158 C 1153.0000000000005 73.37337474289231 1157.447593492891 68.92578125000176 1162.9257812500002 68.92578125000176 C 1168.4039690071095 68.92578125000176 1172.8515625 73.3733747428923 1172.8515625 78.85156250000158 C 1172.8515625 84.32975025711085 1168.4039690071095 88.77734375000139 1162.9257812500002 88.77734375000139 C 1157.447593492891 88.77734375000139 1153.0000000000005 84.32975025711085 1153.0000000000005 78.85156250000158 Z " fill="rgb(230,80,80)"/><rect x="131.67773437499994" y="882.2597656249986" width="9.92578125" height="9.92578125" transform="matrix(1,0,0,1,0,0)" fill="rgb(50,141,238)"/><rect x="214.39257812499994" y="858.0253906249986" width="9.92578125" height="9.92578125" transform="matrix(1,0,0,1,0,0)" fill="rgb(50,141,238)"/><rect x="297.107421875" y="816.6679687499986" width="9.92578125" height="9.92578125" transform="matrix(1,0,0,1,0,0)" fill="rgb(50,141,238)"/><rect x="379.822265625" y="763.7304687499986" width="9.92578125" height="9.92578125" transform="matrix(1,0,0,1,0,0)" fill="rgb(50,141,238)"/><rect x="462.537109375" y="684.3242187499986" width="9.92578125" height="9.92578125" transform="matrix(1,0,0,1,0,0)" fill="rgb(50,141,238)"/><rect x="545.251953125" y="598.3007812499986" width="9.92578125" height="9.92578125" transform="matrix(1,0,0,1,0,0)" fill="rgb(50,141,238)"/><rect x="627.966796875" y="489.11718749999864" width="9.92578125" height="9.92578125" transform="matrix(1,0,0,1,0,0)" fill="rgb(50,141,238)"/><rect x="710.681640625" y="363.3906249999985" width="9.92578125" height="9.92578125" transform="matrix(1,0,0,1,0,0)" fill="rgb(50,141,238)"/><rect x="793.3964843750001" y="211.19531249999852" width="9.92578125" height="9.92578125" transform="matrix(1,0,0,1,0,0)" fill="rgb(50,141,238)"/><rect x="876.1113281250002" y="63.96289062499852" width="9.92578125" height="9.92578125" transform="matrix(1,0,0,1,0,0)" fill="rgb(50,141,238)"/></svg>