<?xml version="1.0" standalone="no"?><!-- Generator: Gravit.io --><svg xmlns="http://www.w3.org/2000/svg" xmlns:xlink="http://www.w3.org/1999/xlink" style="isolation:isolate" viewBox="0 0 1280 960" width="1280" height="960"><path d=" M 370.93195266272187 212.9053254437871 L 370.93195266272187 750.1834319526627 L 908.2100591715977 750.1834319526627" fill="none" vector-effect="non-scaling-stroke" stroke-width="5.372781065088757" stroke="rgb(17,17,17)" stroke-linejoin="miter" stroke-linecap="square" stroke-miterlimit="3"/><path d=" M 908.2100591715977 209.54733727810662 L 911.568047337278 209.54733727810662 L 911.568047337278 216.26331360946756 L 908.2100591715977 216.26331360946756 C 877.5852071005917 216.26331360946756 847.4976331360946 224.05384615384628 820.6337278106508 238.96331360946755 C 794.1727810650888 254.54437869822493 770.6668639053255 274.826627218935 751.459171597633 298.8698224852072 C 729.968047337278 325.59940828402375 710.7603550295858 354.2094674556214 694.3733727810651 384.2970414201185 C 676.508875739645 416.66804733727815 659.4502958579881 449.4420118343196 643.3319526627218 482.6189349112427 C 627.0792899408285 516.0644970414202 610.0207100591716 548.972781065089 592.0218934911243 581.4781065088758 C 575.3662721893492 612.1029585798818 555.8899408284025 641.115976331361 533.9958579881657 668.114201183432 C 514.1165680473373 692.9633136094675 489.9390532544379 713.9171597633137 462.40355029585805 729.9011834319527 C 434.4650887573964 745.4822485207102 402.9 753.6757396449706 370.93195266272187 753.5414201183432 L 367.5739644970414 753.5414201183432 L 367.5739644970414 746.8254437869823 L 370.93195266272187 746.8254437869823 C 401.8254437869823 746.9597633136096 432.18165680473373 739.0349112426037 459.1798816568047 724.1254437869824 C 485.7751479289941 708.5443786982249 509.4153846153846 688.1278106508876 528.7573964497042 663.9502958579882 C 550.3828402366864 637.2207100591717 569.5905325443787 608.4763313609468 586.1118343195267 578.2544378698226 C 604.110650887574 545.8834319526628 621.1692307692307 512.9751479289941 637.287573964497 479.6639053254439 C 653.5402366863905 446.3526627218936 670.5988165680474 413.4443786982249 688.4633136094674 381.07337278106513 C 705.1189349112425 350.5828402366865 724.4609467455622 321.7041420118344 746.2207100591716 294.7059171597634 C 765.9656804733728 269.99112426035515 790.1431952662722 249.17159763313617 817.4100591715977 233.18757396449718 C 845.0798816568048 217.60650887573973 876.3763313609467 209.54733727810662 908.2100591715977 209.54733727810662 Z " fill="rgb(54,99,189)"/><path d=" M 360.18639053254435 750.1834319526627 C 360.18639053254435 744.2527948146745 365.0013155247337 739.4378698224851 370.93195266272187 739.4378698224851 C 376.86258980071005 739.4378698224851 381.6775147928994 744.2527948146745 381.6775147928994 750.1834319526627 C 381.6775147928994 756.1140690906508 376.86258980071005 760.9289940828402 370.93195266272187 760.9289940828402 C 365.0013155247337 760.9289940828402 360.18639053254435 756.1140690906508 360.18639053254435 750.1834319526627 Z " fill="rgb(54,99,189)"/><path d=" M 900.8224852071005 209.54733727810662 C 900.8224852071005 203.61670014011847 905.6374101992899 198.8017751479291 911.568047337278 198.8017751479291 C 917.4986844752661 198.8017751479291 922.3136094674555 203.61670014011847 922.3136094674555 209.54733727810662 C 922.3136094674555 215.47797441609478 917.4986844752661 220.29289940828414 911.568047337278 220.29289940828414 C 905.6374101992899 220.29289940828414 900.8224852071005 215.47797441609478 900.8224852071005 209.54733727810662 Z " fill="rgb(54,99,189)"/><path d=" M 898.1360946745564 736.7514792899408 L 898.1360946745561 763.6153846153846 L 924.9999999999999 750.1834319526625 L 898.1360946745564 736.7514792899408 Z " fill="rgb(17,17,17)"/><path d=" M 357.5 214.2485207100592 L 384.36390532544385 214.2485207100592 L 370.93195266272187 187.38461538461547 L 357.5 214.2485207100592 Z " fill="rgb(17,17,17)"/></svg>