<?xml version="1.0" standalone="no"?><!-- Generator: Gravit.io --><svg xmlns="http://www.w3.org/2000/svg" xmlns:xlink="http://www.w3.org/1999/xlink" style="isolation:isolate" viewBox="0 -28 1280 1014.5" width="1280" height="1014.5"><path d=" M 640 53.915501338056174 L 270.99999999999994 266.9577506690281 L 640 479.9999999999999 L 1009 266.9577506690281 L 640 53.915501338056174 Z " fill="rgb(255,255,255)" vector-effect="non-scaling-stroke" stroke-width="6.589285714285715" stroke="rgb(0,0,0)" stroke-linejoin="miter" stroke-linecap="square" stroke-miterlimit="3"/><path d=" M 270.9999999999999 268.99999999999994 L 270.99999999999994 693.042249330972 L 640 906.0844986619438 L 1009 693.0422493309721 L 1009 268.9999999999999" fill="none" vector-effect="non-scaling-stroke" stroke-width="6.589285714285715" stroke="rgb(0,0,0)" stroke-linejoin="miter" stroke-linecap="square" stroke-miterlimit="3"/><line x1="640" y1="480.0000000000001" x2="639.9999999999998" y2="902.9999999999998" vector-effect="non-scaling-stroke" stroke-width="6.589285714285715" stroke="rgb(0,0,0)" stroke-linejoin="miter" stroke-linecap="square" stroke-miterlimit="3"/><path d=" M 653.560546875 247.259765625 Q 653.560546875 255.7265625 649.6787109375 260.1064453125 Q 645.796875 264.486328125 639.17578125 264.486328125 Q 632.49609375 264.486328125 628.599609375 260.1064453125 Q 624.703125 255.7265625 624.703125 247.259765625 L 624.703125 237.85546875 Q 624.703125 229.41796875 628.5849609375 225.0087890625 Q 632.466796875 220.599609375 639.1171875 220.599609375 Q 645.73828125 220.599609375 649.6494140625 225.0087890625 Q 653.560546875 229.41796875 653.560546875 237.85546875 L 653.560546875 247.259765625 Z  M 645.03515625 236.9765625 Q 645.03515625 231.908203125 643.51171875 229.5498046875 Q 641.98828125 227.19140625 639.1171875 227.19140625 Q 636.216796875 227.19140625 634.72265625 229.53515625 Q 633.228515625 231.87890625 633.228515625 236.9765625 L 633.228515625 248.080078125 Q 633.228515625 253.236328125 634.7373046875 255.580078125 Q 636.24609375 257.923828125 639.17578125 257.923828125 Q 642.046875 257.923828125 643.541015625 255.580078125 Q 645.03515625 253.236328125 645.03515625 248.080078125 L 645.03515625 236.9765625 Z " fill-rule="evenodd" fill="rgb(223,61,66)"/><path d=" M 824.6474609375 601.744140625 L 831.8544921875 600.865234375 L 831.8544921875 571.978515625 L 824.5595703125 571.978515625 L 824.5595703125 567.0859375 L 840.3798828125 564.21484375 L 840.3798828125 600.865234375 L 847.5869140625 601.744140625 L 847.5869140625 606.87109375 L 824.6474609375 606.87109375 L 824.6474609375 601.744140625 Z " fill="rgb(223,61,66)"/><path d=" M 454.556640625 606.87109375 L 454.556640625 601.275390625 L 468.35546875 586.48046875 Q 471.34375 583.052734375 472.603515625 580.6943359375 Q 473.86328125 578.3359375 473.86328125 576.314453125 Q 473.86328125 573.619140625 472.4130859375 571.9052734375 Q 470.962890625 570.19140625 468.296875 570.19140625 Q 465.337890625 570.19140625 463.7998046875 572.1982421875 Q 462.26171875 574.205078125 462.26171875 577.544921875 L 453.94140625 577.544921875 L 453.8828125 577.369140625 Q 453.736328125 571.59765625 457.6767578125 567.5986328125 Q 461.6171875 563.599609375 468.296875 563.599609375 Q 474.888671875 563.599609375 478.66796875 567.02734375 Q 482.447265625 570.455078125 482.447265625 576.16796875 Q 482.447265625 580.03515625 480.3232421875 583.31640625 Q 478.19921875 586.59765625 473.27734375 591.87109375 L 465.689453125 600.162109375 L 465.748046875 600.30859375 L 476.822265625 600.30859375 L 477.173828125 596.08984375 L 483.677734375 596.08984375 L 483.677734375 606.87109375 L 454.556640625 606.87109375 Z " fill="rgb(223,61,66)"/><path d=" M 653.560546875 428.259765625 Q 653.560546875 436.7265625 649.6787109375 441.1064453125 Q 645.796875 445.486328125 639.17578125 445.486328125 Q 632.49609375 445.486328125 628.599609375 441.1064453125 Q 624.703125 436.7265625 624.703125 428.259765625 L 624.703125 418.85546875 Q 624.703125 410.41796875 628.5849609375 406.0087890625 Q 632.466796875 401.599609375 639.1171875 401.599609375 Q 645.73828125 401.599609375 649.6494140625 406.0087890625 Q 653.560546875 410.41796875 653.560546875 418.85546875 L 653.560546875 428.259765625 Z  M 645.03515625 417.9765625 Q 645.03515625 412.908203125 643.51171875 410.5498046875 Q 641.98828125 408.19140625 639.1171875 408.19140625 Q 636.216796875 408.19140625 634.72265625 410.53515625 Q 633.228515625 412.87890625 633.228515625 417.9765625 L 633.228515625 429.080078125 Q 633.228515625 434.236328125 634.7373046875 436.580078125 Q 636.24609375 438.923828125 639.17578125 438.923828125 Q 642.046875 438.923828125 643.541015625 436.580078125 Q 645.03515625 434.236328125 645.03515625 429.080078125 L 645.03515625 417.9765625 Z " fill-rule="evenodd" fill="rgb(44,116,225)"/><path d=" M 1033.1474609375 271.95189129402803 L 1040.3544921875 271.07298504402803 L 1040.3544921875 242.18626629402803 L 1033.0595703125 242.18626629402803 L 1033.0595703125 237.29368816902803 L 1048.8798828125 234.42259441902803 L 1048.8798828125 271.07298504402803 L 1056.0869140625 271.95189129402803 L 1056.0869140625 277.07884441902803 L 1033.1474609375 277.07884441902803 L 1033.1474609375 271.95189129402803 Z " fill="rgb(44,116,225)"/><path d=" M 624.556640625 34.87109375 L 624.556640625 29.275390625 L 638.35546875 14.48046875 Q 641.34375 11.052734375 642.603515625 8.6943359375 Q 643.86328125 6.3359375 643.86328125 4.314453125 Q 643.86328125 1.619140625 642.4130859375 -0.0947265625 Q 640.962890625 -1.80859375 638.296875 -1.80859375 Q 635.337890625 -1.80859375 633.7998046875 0.1982421875 Q 632.26171875 2.205078125 632.26171875 5.544921875 L 623.94140625 5.544921875 L 623.8828125 5.369140625 Q 623.736328125 -0.40234375 627.6767578125 -4.4013671875 Q 631.6171875 -8.400390625 638.296875 -8.400390625 Q 644.888671875 -8.400390625 648.66796875 -4.97265625 Q 652.447265625 -1.544921875 652.447265625 4.16796875 Q 652.447265625 8.03515625 650.3232421875 11.31640625 Q 648.19921875 14.59765625 643.27734375 19.87109375 L 635.689453125 28.162109375 L 635.748046875 28.30859375 L 646.822265625 28.30859375 L 647.173828125 24.08984375 L 653.677734375 24.08984375 L 653.677734375 34.87109375 L 624.556640625 34.87109375 Z " fill="rgb(44,116,225)"/><path d=" M 228.37304687499994 238.91015625 L 233.17773437499994 238.91015625 Q 236.22460937499994 238.91015625 237.68945312499994 237.3134765625 Q 239.15429687499994 235.716796875 239.15429687499994 232.875 Q 239.15429687499994 230.296875 237.68945312499994 228.744140625 Q 236.22460937499994 227.19140625 233.44140624999994 227.19140625 Q 231.03906249999994 227.19140625 229.39843749999994 228.59765625 Q 227.75781249999994 230.00390625 227.75781249999994 232.2890625 L 219.46679687499994 232.2890625 L 219.40820312499994 232.11328125 Q 219.23242187499994 227.103515625 223.24609374999994 223.8515625 Q 227.25976562499994 220.599609375 233.20703124999994 220.599609375 Q 239.82812499999994 220.599609375 243.76855468749994 223.763671875 Q 247.70898437499994 226.927734375 247.70898437499994 232.787109375 Q 247.70898437499994 235.5703125 245.95117187499994 238.0751953125 Q 244.19335937499994 240.580078125 241.11718749999994 241.986328125 Q 244.66210937499994 243.24609375 246.52246093749994 245.853515625 Q 248.38281249999994 248.4609375 248.38281249999994 251.91796875 Q 248.38281249999994 257.77734375 244.12011718749994 261.1318359375 Q 239.85742187499994 264.486328125 233.20703124999994 264.486328125 Q 227.25976562499994 264.486328125 222.99707031249994 261.3369140625 Q 218.73437499999994 258.1875 218.88085937499994 252.4453125 L 218.93945312499994 252.26953125 L 227.23046874999994 252.26953125 Q 227.23046874999994 254.73046875 228.98828124999994 256.3271484375 Q 230.74609374999994 257.923828125 233.44140624999994 257.923828125 Q 236.40039062499994 257.923828125 238.11425781249994 256.283203125 Q 239.82812499999994 254.642578125 239.82812499999994 251.830078125 Q 239.82812499999994 248.4609375 238.14355468749994 246.8935546875 Q 236.45898437499994 245.326171875 233.17773437499994 245.326171875 L 228.37304687499994 245.326171875 L 228.37304687499994 238.91015625 Z " fill="rgb(44,116,225)"/><path d=" M 243.98828124999994 687.284436830972 L 248.82226562499994 687.284436830972 L 248.82226562499994 692.968030580972 L 243.98828124999994 692.968030580972 L 243.98828124999994 697.157483705972 L 248.52929687499994 698.036389955972 L 248.52929687499994 703.163343080972 L 230.89257812499994 703.163343080972 L 230.89257812499994 698.036389955972 L 235.46289062499994 697.157483705972 L 235.46289062499994 692.968030580972 L 218.06054687499994 692.968030580972 L 217.65039062499994 688.778577455972 L 235.37499999999994 660.507093080972 L 243.98828124999994 660.507093080972 L 243.98828124999994 687.284436830972 Z  M 225.64843749999994 687.284436830972 L 235.46289062499994 687.284436830972 L 235.46289062499994 671.903577455972 L 235.28710937499994 671.844983705972 L 234.58398437499994 673.075452455972 L 225.64843749999994 687.284436830972 Z " fill-rule="evenodd" fill="rgb(44,116,225)"/><path d=" M 642.9375 910.94140625 L 642.17578125 908.0703125 L 630.69140625 908.0703125 L 629.490234375 917.9140625 Q 630.69140625 917.03515625 632.361328125 916.4638671875 Q 634.03125 915.892578125 636.052734375 915.86328125 Q 642.205078125 915.775390625 645.57421875 919.583984375 Q 648.943359375 923.392578125 648.943359375 930.189453125 Q 648.943359375 936.341796875 645.2373046875 940.4140625 Q 641.53125 944.486328125 634.55859375 944.486328125 Q 628.69921875 944.486328125 624.509765625 941.2783203125 Q 620.3203125 938.0703125 620.466796875 932.4453125 L 620.525390625 932.298828125 L 628.728515625 931.888671875 Q 628.728515625 934.73046875 630.33984375 936.3271484375 Q 631.951171875 937.923828125 634.55859375 937.923828125 Q 637.546875 937.923828125 638.982421875 935.78515625 Q 640.41796875 933.646484375 640.41796875 930.248046875 Q 640.41796875 926.556640625 638.89453125 924.330078125 Q 637.37109375 922.103515625 634.353515625 922.103515625 Q 631.921875 922.103515625 630.6181640625 923.01171875 Q 629.314453125 923.919921875 628.7578125 925.47265625 L 621.19921875 924.974609375 L 623.66015625 901.21484375 L 648.2109375 901.21484375 L 648.2109375 910.94140625 L 642.9375 910.94140625 Z " fill="rgb(44,116,225)"/><path d=" M 1047.517578125 659.891858705972 Q 1049.919921875 659.891858705972 1051.9560546875 660.345960268472 Q 1053.9921875 660.800061830972 1056.04296875 661.678968080972 L 1054.548828125 667.919202455972 Q 1052.703125 667.274671205972 1051.150390625 666.937757143472 Q 1049.59765625 666.600843080972 1047.576171875 666.600843080972 Q 1043.767578125 666.600843080972 1041.4677734375 669.384046205972 Q 1039.16796875 672.167249330972 1039.138671875 677.587171205972 L 1039.2265625 677.733655580972 Q 1040.662109375 676.239514955972 1042.8740234375 675.389905580972 Q 1045.0859375 674.540296205972 1047.810546875 674.540296205972 Q 1053.5234375 674.540296205972 1056.775390625 678.597913393472 Q 1060.02734375 682.655530580972 1060.02734375 688.954358705972 Q 1060.02734375 695.399671205972 1056.013671875 699.589124330972 Q 1052 703.778577455972 1045.642578125 703.778577455972 Q 1038.904296875 703.778577455972 1034.65625 699.193616518472 Q 1030.408203125 694.608655580972 1030.408203125 686.493421205972 L 1030.408203125 678.993421205972 Q 1030.408203125 669.940686830972 1035.1982421875 664.916272768472 Q 1039.98828125 659.891858705972 1047.517578125 659.891858705972 Z  M 1045.5546875 681.014905580972 Q 1043.181640625 681.014905580972 1041.51171875 681.776624330972 Q 1039.841796875 682.538343080972 1038.93359375 683.856702455972 L 1038.93359375 686.698499330972 Q 1038.93359375 691.766858705972 1040.7646484375 694.491468080972 Q 1042.595703125 697.216077455972 1045.642578125 697.216077455972 Q 1048.279296875 697.216077455972 1049.8759765625 694.799085268472 Q 1051.47265625 692.382093080972 1051.47265625 688.954358705972 Q 1051.47265625 685.409436830972 1049.861328125 683.212171205972 Q 1048.25 681.014905580972 1045.5546875 681.014905580972 Z " fill-rule="evenodd" fill="rgb(44,116,225)"/></svg>