<?xml version="1.0" standalone="no"?><!-- Generator: Gravit.io --><svg xmlns="http://www.w3.org/2000/svg" xmlns:xlink="http://www.w3.org/1999/xlink" style="isolation:isolate" viewBox="198.5 38.5 883 883" width="883" height="883"><rect x="206" y="46" width="868" height="868" transform="matrix(1,0,0,1,0,0)" fill="none" vector-effect="non-scaling-stroke" stroke-width="5" stroke="rgb(0,0,0)" stroke-opacity="100" stroke-linejoin="miter" stroke-linecap="square" stroke-miterlimit="3"/><line x1="640" y1="46" x2="640" y2="914" vector-effect="non-scaling-stroke" stroke-width="5" stroke="rgb(0,0,0)" stroke-opacity="100" stroke-linejoin="miter" stroke-linecap="square" stroke-miterlimit="3"/><line x1="206" y1="480" x2="1074" y2="480" vector-effect="non-scaling-stroke" stroke-width="5" stroke="rgb(0,0,0)" stroke-opacity="100" stroke-linejoin="miter" stroke-linecap="square" stroke-miterlimit="3"/><path d=" M 1035 72.5 C 1035 65.60106225 1040.60106225 60 1047.5 60 C 1054.39893775 60 1060 65.60106225 1060 72.5 C 1060 79.39893775 1054.39893775 85 1047.5 85 C 1040.60106225 85 1035 79.39893775 1035 72.5 Z " fill="rgb(171,61,234)"/><path d=" M 1035 457.5 C 1035 450.60106225 1040.60106225 445 1047.5 445 C 1054.39893775 445 1060 450.60106225 1060 457.5 C 1060 464.39893775 1054.39893775 470 1047.5 470 C 1040.60106225 470 1035 464.39893775 1035 457.5 Z " fill="rgb(234,61,78)"/><path d=" M 650 457.5 C 650 450.60106225 655.60106225 445 662.5 445 C 669.39893775 445 675 450.60106225 675 457.5 C 675 464.39893775 669.39893775 470 662.5 470 C 655.60106225 470 650 464.39893775 650 457.5 Z " fill="rgb(77,128,204)"/><path d=" M 650 72.5 C 650 65.60106225 655.60106225 60 662.5 60 C 669.39893775 60 675 65.60106225 675 72.5 C 675 79.39893775 669.39893775 85 662.5 85 C 655.60106225 85 650 79.39893775 650 72.5 Z " fill="rgb(234,61,78)"/><path d=" M 1035 502.5 C 1035 495.60106225 1040.60106225 490 1047.5 490 C 1054.39893775 490 1060 495.60106225 1060 502.5 C 1060 509.39893775 1054.39893775 515 1047.5 515 C 1040.60106225 515 1035 509.39893775 1035 502.5 Z " fill="rgb(234,61,78)"/><path d=" M 1035 887.5 C 1035 880.60106225 1040.60106225 875 1047.5 875 C 1054.39893775 875 1060 880.60106225 1060 887.5 C 1060 894.39893775 1054.39893775 900 1047.5 900 C 1040.60106225 900 1035 894.39893775 1035 887.5 Z " fill="rgb(171,61,234)"/><path d=" M 650 887.5 C 650 880.60106225 655.60106225 875 662.5 875 C 669.39893775 875 675 880.60106225 675 887.5 C 675 894.39893775 669.39893775 900 662.5 900 C 655.60106225 900 650 894.39893775 650 887.5 Z " fill="rgb(234,61,78)"/><path d=" M 650 502.5 C 650 495.60106225 655.60106225 490 662.5 490 C 669.39893775 490 675 495.60106225 675 502.5 C 675 509.39893775 669.39893775 515 662.5 515 C 655.60106225 515 650 509.39893775 650 502.5 Z " fill="rgb(77,128,204)"/><path d=" M 600 502.5 C 600 495.60106225 605.60106225 490 612.5 490 C 619.39893775 490 625 495.60106225 625 502.5 C 625 509.39893775 619.39893775 515 612.5 515 C 605.60106225 515 600 509.39893775 600 502.5 Z " fill="rgb(77,128,204)"/><path d=" M 600 887.5 C 600 880.60106225 605.60106225 875 612.5 875 C 619.39893775 875 625 880.60106225 625 887.5 C 625 894.39893775 619.39893775 900 612.5 900 C 605.60106225 900 600 894.39893775 600 887.5 Z " fill="rgb(234,61,78)"/><path d=" M 215 887.5 C 215 880.60106225 220.60106224999998 875 227.5 875 C 234.39893775 875 240 880.60106225 240 887.5 C 240 894.39893775 234.39893775000002 900 227.5 900 C 220.60106225 900 215 894.39893775 215 887.5 Z " fill="rgb(171,61,234)"/><path d=" M 215 502.5 C 215 495.60106225 220.60106224999998 490 227.5 490 C 234.39893775 490 240 495.60106225 240 502.5 C 240 509.39893775 234.39893775000002 515 227.5 515 C 220.60106225 515 215 509.39893775 215 502.5 Z " fill="rgb(234,61,78)"/><path d=" M 600 72.5 C 600 65.60106225 605.60106225 60 612.5 60 C 619.39893775 60 625 65.60106225 625 72.5 C 625 79.39893775 619.39893775 85 612.5 85 C 605.60106225 85 600 79.39893775 600 72.5 Z " fill="rgb(234,61,78)"/><path d=" M 600 457.5 C 600 450.60106225 605.60106225 445 612.5 445 C 619.39893775 445 625 450.60106225 625 457.5 C 625 464.39893775 619.39893775 470 612.5 470 C 605.60106225 470 600 464.39893775 600 457.5 Z " fill="rgb(77,128,204)"/><path d=" M 215 457.5 C 215 450.60106225 220.60106224999998 445 227.5 445 C 234.39893775 445 240 450.60106225 240 457.5 C 240 464.39893775 234.39893775000002 470 227.5 470 C 220.60106225 470 215 464.39893775 215 457.5 Z " fill="rgb(234,61,78)"/><path d=" M 215 72.5 C 215 65.60106225 220.60106224999998 60 227.5 60 C 234.39893775 60 240 65.60106225 240 72.5 C 240 79.39893775 234.39893775000002 85 227.5 85 C 220.60106225 85 215 79.39893775 215 72.5 Z " fill="rgb(171,61,234)"/><path d=" M 865.6484375 262.0078125 Q 865.6484375 268.78125 862.54296875 272.28515625 Q 859.4375 275.7890625 854.140625 275.7890625 Q 848.796875 275.7890625 845.6796875 272.28515625 Q 842.5625 268.78125 842.5625 262.0078125 L 842.5625 254.484375 Q 842.5625 247.734375 845.66796875 244.20703125 Q 848.7734375 240.6796875 854.09375 240.6796875 Q 859.390625 240.6796875 862.51953125 244.20703125 Q 865.6484375 247.734375 865.6484375 254.484375 L 865.6484375 262.0078125 L 865.6484375 262.0078125 Z  M 858.828125 253.78125 Q 858.828125 249.7265625 857.609375 247.83984375 Q 856.390625 245.953125 854.09375 245.953125 Q 851.7734375 245.953125 850.578125 247.828125 Q 849.3828125 249.703125 849.3828125 253.78125 L 849.3828125 262.6640625 Q 849.3828125 266.7890625 850.58984375 268.6640625 Q 851.796875 270.5390625 854.140625 270.5390625 Q 856.4375 270.5390625 857.6328125 268.6640625 Q 858.828125 266.7890625 858.828125 262.6640625 L 858.828125 253.78125 L 858.828125 253.78125 Z " fill-rule="evenodd" fill="rgb(0,0,0)"/><path d=" M 407.4453125 705.296875 L 407.4453125 700.8203125 L 418.484375 688.984375 Q 420.875 686.2421875 421.8828125 684.35546875 Q 422.890625 682.46875 422.890625 680.8515625 Q 422.890625 678.6953125 421.73046875 677.32421875 Q 420.5703125 675.953125 418.4375 675.953125 Q 416.0703125 675.953125 414.83984375 677.55859375 Q 413.609375 679.1640625 413.609375 681.8359375 L 406.953125 681.8359375 L 406.90625 681.6953125 Q 406.7890625 677.078125 409.94140625 673.87890625 Q 413.09375 670.6796875 418.4375 670.6796875 Q 423.7109375 670.6796875 426.734375 673.421875 Q 429.7578125 676.1640625 429.7578125 680.734375 Q 429.7578125 683.828125 428.05859375 686.453125 Q 426.359375 689.078125 422.421875 693.296875 L 416.3515625 699.9296875 L 416.3984375 700.046875 L 425.2578125 700.046875 L 425.5390625 696.671875 L 430.7421875 696.671875 L 430.7421875 705.296875 L 407.4453125 705.296875 L 407.4453125 705.296875 Z " fill="rgb(0,0,0)"/><path d=" M 409.91796875 271.1953125 L 415.68359375 270.4921875 L 415.68359375 247.3828125 L 409.84765625 247.3828125 L 409.84765625 243.46875 L 422.50390625 241.171875 L 422.50390625 270.4921875 L 428.26953125 271.1953125 L 428.26953125 275.296875 L 409.91796875 275.296875 L 409.91796875 271.1953125 L 409.91796875 271.1953125 Z " fill="rgb(0,0,0)"/><path d=" M 849.8984375 685.328125 L 853.7421875 685.328125 Q 856.1796875 685.328125 857.3515625 684.05078125 Q 858.5234375 682.7734375 858.5234375 680.5 Q 858.5234375 678.4375 857.3515625 677.1953125 Q 856.1796875 675.953125 853.953125 675.953125 Q 852.03125 675.953125 850.71875 677.078125 Q 849.40625 678.203125 849.40625 680.03125 L 842.7734375 680.03125 L 842.7265625 679.890625 Q 842.5859375 675.8828125 845.796875 673.28125 Q 849.0078125 670.6796875 853.765625 670.6796875 Q 859.0625 670.6796875 862.21484375 673.2109375 Q 865.3671875 675.7421875 865.3671875 680.4296875 Q 865.3671875 682.65625 863.9609375 684.66015625 Q 862.5546875 686.6640625 860.09375 687.7890625 Q 862.9296875 688.796875 864.41796875 690.8828125 Q 865.90625 692.96875 865.90625 695.734375 Q 865.90625 700.421875 862.49609375 703.10546875 Q 859.0859375 705.7890625 853.765625 705.7890625 Q 849.0078125 705.7890625 845.59765625 703.26953125 Q 842.1875 700.75 842.3046875 696.15625 L 842.3515625 696.015625 L 848.984375 696.015625 Q 848.984375 697.984375 850.390625 699.26171875 Q 851.796875 700.5390625 853.953125 700.5390625 Q 856.3203125 700.5390625 857.69140625 699.2265625 Q 859.0625 697.9140625 859.0625 695.6640625 Q 859.0625 692.96875 857.71484375 691.71484375 Q 856.3671875 690.4609375 853.7421875 690.4609375 L 849.8984375 690.4609375 L 849.8984375 685.328125 L 849.8984375 685.328125 Z " fill="rgb(0,0,0)"/></svg>