<?xml version="1.0" standalone="no"?><!DOCTYPE svg PUBLIC "-//W3C//DTD SVG 1.1//EN" "http://www.w3.org/Graphics/SVG/1.1/DTD/svg11.dtd"><svg xmlns="http://www.w3.org/2000/svg" viewBox="0 0 650 400" version="1.1"><clipPath id="box"><rect x="0" y="0" width="650" height="400" style="fill:none;stroke:none;" /></clipPath><g clip-path="url(#box)"><rect x="0.00" y="0.00" width="650.00" height="400.00" style="fill:#FFFFFF;stroke:none;" /><path d="M0.00 395.00 L650.00 395.00 M0.00 362.00 L650.00 362.00 M0.00 330.00 L650.00 330.00 M0.00 297.00 L650.00 297.00 M0.00 265.00 L650.00 265.00 M0.00 232.00 L650.00 232.00 M0.00 200.00 L650.00 200.00 M0.00 167.00 L650.00 167.00 M0.00 135.00 L650.00 135.00 M0.00 102.00 L650.00 102.00 M0.00 70.00 L650.00 70.00 M0.00 37.00 L650.00 37.00 M0.00 5.00 L650.00 5.00 M0.00 0.00 L0.00 400.00 M32.00 0.00 L32.00 400.00 M65.00 0.00 L65.00 400.00 M97.00 0.00 L97.00 400.00 M130.00 0.00 L130.00 400.00 M162.00 0.00 L162.00 400.00 M195.00 0.00 L195.00 400.00 M227.00 0.00 L227.00 400.00 M260.00 0.00 L260.00 400.00 M292.00 0.00 L292.00 400.00 M325.00 0.00 L325.00 400.00 M357.00 0.00 L357.00 400.00 M390.00 0.00 L390.00 400.00 M422.00 0.00 L422.00 400.00 M454.00 0.00 L454.00 400.00 M487.00 0.00 L487.00 400.00 M520.00 0.00 L520.00 400.00 M552.00 0.00 L552.00 400.00 M585.00 0.00 L585.00 400.00 M617.00 0.00 L617.00 400.00 M650.00 0.00 L650.00 400.00 " style="fill:none;stroke:#D0D0D0;stroke-width:1;" /><path d="M325.00 0.00 L325.00 400.00 " style="fill:none;stroke:#000000;stroke-width:1;" /><path d="M0.00 200.00 L650.00 200.00 " style="fill:none;stroke:#000000;stroke-width:1;" /><text x="333.125" y="364.99999999999994" text-anchor="start" style="font:10px Droid Sans,Trebuchet MS,Arial,Helvetica,sans-serif;stroke:none;fill:#000000">-5</text><text x="333.125" y="332.5" text-anchor="start" style="font:10px Droid Sans,Trebuchet MS,Arial,Helvetica,sans-serif;stroke:none;fill:#000000">-4</text><text x="333.125" y="299.99999999999994" text-anchor="start" style="font:10px Droid Sans,Trebuchet MS,Arial,Helvetica,sans-serif;stroke:none;fill:#000000">-3</text><text x="333.125" y="267.49999999999994" text-anchor="start" style="font:10px Droid Sans,Trebuchet MS,Arial,Helvetica,sans-serif;stroke:none;fill:#000000">-2</text><text x="333.125" y="235.00000000000003" text-anchor="start" style="font:10px Droid Sans,Trebuchet MS,Arial,Helvetica,sans-serif;stroke:none;fill:#000000">-1</text><text x="333.125" y="202.5" text-anchor="start" style="font:10px Droid Sans,Trebuchet MS,Arial,Helvetica,sans-serif;stroke:none;fill:#000000">0</text><text x="333.125" y="170" text-anchor="start" style="font:10px Droid Sans,Trebuchet MS,Arial,Helvetica,sans-serif;stroke:none;fill:#000000">1</text><text x="333.125" y="137.5" text-anchor="start" style="font:10px Droid Sans,Trebuchet MS,Arial,Helvetica,sans-serif;stroke:none;fill:#000000">2</text><text x="333.125" y="105.00000000000001" text-anchor="start" style="font:10px Droid Sans,Trebuchet MS,Arial,Helvetica,sans-serif;stroke:none;fill:#000000">3</text><text x="333.125" y="72.5" text-anchor="start" style="font:10px Droid Sans,Trebuchet MS,Arial,Helvetica,sans-serif;stroke:none;fill:#000000">4</text><text x="333.125" y="40.000000000000014" text-anchor="start" style="font:10px Droid Sans,Trebuchet MS,Arial,Helvetica,sans-serif;stroke:none;fill:#000000">5</text><text x="32.5" y="216.125" text-anchor="middle" style="font:10px Droid Sans,Trebuchet MS,Arial,Helvetica,sans-serif;stroke:none;fill:#000000">-9</text><text x="65" y="216.125" text-anchor="middle" style="font:10px Droid Sans,Trebuchet MS,Arial,Helvetica,sans-serif;stroke:none;fill:#000000">-8</text><text x="97.5" y="216.125" text-anchor="middle" style="font:10px Droid Sans,Trebuchet MS,Arial,Helvetica,sans-serif;stroke:none;fill:#000000">-7</text><text x="130" y="216.125" text-anchor="middle" style="font:10px Droid Sans,Trebuchet MS,Arial,Helvetica,sans-serif;stroke:none;fill:#000000">-6</text><text x="162.5" y="216.125" text-anchor="middle" style="font:10px Droid Sans,Trebuchet MS,Arial,Helvetica,sans-serif;stroke:none;fill:#000000">-5</text><text x="195" y="216.125" text-anchor="middle" style="font:10px Droid Sans,Trebuchet MS,Arial,Helvetica,sans-serif;stroke:none;fill:#000000">-4</text><text x="227.49999999999997" y="216.125" text-anchor="middle" style="font:10px Droid Sans,Trebuchet MS,Arial,Helvetica,sans-serif;stroke:none;fill:#000000">-3</text><text x="260" y="216.125" text-anchor="middle" style="font:10px Droid Sans,Trebuchet MS,Arial,Helvetica,sans-serif;stroke:none;fill:#000000">-2</text><text x="292.5" y="216.125" text-anchor="middle" style="font:10px Droid Sans,Trebuchet MS,Arial,Helvetica,sans-serif;stroke:none;fill:#000000">-1</text><text x="325" y="216.125" text-anchor="middle" style="font:10px Droid Sans,Trebuchet MS,Arial,Helvetica,sans-serif;stroke:none;fill:#000000">0</text><text x="357.50000000000006" y="216.125" text-anchor="middle" style="font:10px Droid Sans,Trebuchet MS,Arial,Helvetica,sans-serif;stroke:none;fill:#000000">1</text><text x="390" y="216.125" text-anchor="middle" style="font:10px Droid Sans,Trebuchet MS,Arial,Helvetica,sans-serif;stroke:none;fill:#000000">2</text><text x="422.5" y="216.125" text-anchor="middle" style="font:10px Droid Sans,Trebuchet MS,Arial,Helvetica,sans-serif;stroke:none;fill:#000000">3</text><text x="454.99999999999994" y="216.125" text-anchor="middle" style="font:10px Droid Sans,Trebuchet MS,Arial,Helvetica,sans-serif;stroke:none;fill:#000000">4</text><text x="487.5" y="216.125" text-anchor="middle" style="font:10px Droid Sans,Trebuchet MS,Arial,Helvetica,sans-serif;stroke:none;fill:#000000">5</text><text x="520" y="216.125" text-anchor="middle" style="font:10px Droid Sans,Trebuchet MS,Arial,Helvetica,sans-serif;stroke:none;fill:#000000">6</text><text x="552.5" y="216.125" text-anchor="middle" style="font:10px Droid Sans,Trebuchet MS,Arial,Helvetica,sans-serif;stroke:none;fill:#000000">7</text><text x="585" y="216.125" text-anchor="middle" style="font:10px Droid Sans,Trebuchet MS,Arial,Helvetica,sans-serif;stroke:none;fill:#000000">8</text><text x="617.5" y="216.125" text-anchor="middle" style="font:10px Droid Sans,Trebuchet MS,Arial,Helvetica,sans-serif;stroke:none;fill:#000000">9</text><path d="M-10.00 200.00 L-0.25 232.75 L0.75 231.75 L1.75 230.75 L2.75 229.75 L3.75 228.75 L4.75 227.75 L5.75 226.75 L6.75 225.75 L7.75 224.75 L8.75 223.75 L9.75 222.75 L10.75 221.75 L11.75 220.75 L12.75 219.75 L13.75 218.75 L14.75 217.75 L15.75 216.75 L16.75 215.75 L17.75 214.75 L18.75 213.75 L19.75 212.75 L20.75 211.75 L21.75 210.75 L22.75 209.75 L23.75 208.75 L24.75 207.75 L25.75 206.75 L26.75 205.75 L27.75 204.75 L28.75 203.75 L29.75 202.75 L30.75 201.75 L31.75 200.75 L32.75 297.25 L32.76 297.24 L33.76 296.24 L34.76 295.24 L35.76 294.24 L36.76 293.24 L37.76 292.24 L38.76 291.24 L39.76 290.24 L40.76 289.24 L41.76 288.24 L42.76 287.24 L43.76 286.24 L44.76 285.24 L45.76 284.24 L46.76 283.24 L47.76 282.24 L48.76 281.24 L49.76 280.24 L50.76 279.24 L51.76 278.24 L52.76 277.24 L53.76 276.24 L54.76 275.24 L55.76 274.24 L56.76 273.24 L57.76 272.24 L58.76 271.24 L59.76 270.24 L60.76 269.24 L61.76 268.24 L62.76 267.24 L63.76 266.24 L64.76 265.24 L65.76 264.24 L66.76 263.24 L67.76 262.24 L68.76 261.24 L69.76 260.24 L70.76 259.24 L71.76 258.24 L72.76 257.24 L73.76 256.24 L74.76 255.24 L75.76 254.24 L76.76 253.24 L77.76 252.24 L78.76 251.24 L79.76 250.24 L80.76 249.24 L81.76 248.24 L82.76 247.24 L83.76 246.24 L84.76 245.24 L85.76 244.24 L86.76 243.24 L87.76 242.24 L88.76 241.24 L89.76 240.24 L90.76 239.24 L91.76 238.24 L92.76 237.24 L93.76 236.24 L94.76 235.24 L95.76 234.24 L96.76 233.24 L97.76 232.24 L98.76 231.24 L99.76 230.24 L100.76 229.24 L101.76 228.24 L102.76 227.24 L103.76 226.24 L104.76 225.24 L105.76 224.24 L106.76 223.24 L107.76 222.24 L108.76 221.24 L109.76 220.24 L110.76 219.24 L111.76 218.24 L112.76 217.24 L113.76 216.24 L114.76 215.24 L115.76 214.24 L116.76 213.24 L117.76 212.24 L118.76 211.24 L119.76 210.24 L120.76 209.24 L121.76 208.24 L122.76 207.24 L123.76 206.24 L124.76 205.24 L125.76 204.24 L126.76 203.24 L127.76 202.24 L128.76 201.24 L129.76 200.24 L130.76 296.74 L130.77 296.73 L131.77 295.73 L132.77 294.73 L133.77 293.73 L134.77 292.73 L135.77 291.73 L136.77 290.73 L137.77 289.73 L138.77 288.73 L139.77 287.73 L140.77 286.73 L141.77 285.73 L142.77 284.73 L143.77 283.73 L144.77 282.73 L145.77 281.73 L146.77 280.73 L147.77 279.73 L148.77 278.73 L149.77 277.73 L150.77 276.73 L151.77 275.73 L152.77 274.73 L153.77 273.73 L154.77 272.73 L155.77 271.73 L156.77 270.73 L157.77 269.73 L158.77 268.73 L159.77 267.73 L160.77 266.73 L161.77 265.73 L162.77 264.73 L163.77 263.73 L164.77 262.73 L165.77 261.73 L166.77 260.73 L167.77 259.73 L168.77 258.73 L169.77 257.73 L170.77 256.73 L171.77 255.73 L172.77 254.73 L173.77 253.73 L174.77 252.73 L175.77 251.73 L176.77 250.73 L177.77 249.73 L178.77 248.73 L179.77 247.73 L180.77 246.73 L181.77 245.73 L182.77 244.73 L183.77 243.73 L184.77 242.73 L185.77 241.73 L186.77 240.73 L187.77 239.73 L188.77 238.73 L189.77 237.73 L190.77 236.73 L191.77 235.73 L192.77 234.73 L193.77 233.73 L194.77 232.73 L195.77 231.73 L196.77 230.73 L197.77 229.73 L198.77 228.73 L199.77 227.73 L200.77 226.73 L201.77 225.73 L202.77 224.73 L203.77 223.73 L204.77 222.73 L205.77 221.73 L206.77 220.73 L207.77 219.73 L208.77 218.73 L209.77 217.73 L210.77 216.73 L211.77 215.73 L212.77 214.73 L213.77 213.73 L214.77 212.73 L215.77 211.73 L216.77 210.73 L217.77 209.73 L218.77 208.73 L219.77 207.73 L220.77 206.73 L221.77 205.73 L222.77 204.73 L223.77 203.73 L224.77 202.73 L225.77 201.73 L226.77 200.73 L227.77 297.23 L227.78 297.22 L228.78 296.22 L229.78 295.22 L230.78 294.22 L231.78 293.22 L232.78 292.22 L233.78 291.22 L234.78 290.22 L235.78 289.22 L236.78 288.22 L237.78 287.22 L238.78 286.22 L239.78 285.22 L240.78 284.22 L241.78 283.22 L242.78 282.22 L243.78 281.22 L244.78 280.22 L245.78 279.22 L246.78 278.22 L247.78 277.22 L248.78 276.22 L249.78 275.22 L250.78 274.22 L251.78 273.22 L252.78 272.22 L253.78 271.22 L254.78 270.22 L255.78 269.22 L256.78 268.22 L257.78 267.22 L258.78 266.22 L259.78 265.22 L260.78 264.22 L261.78 263.22 L262.78 262.22 L263.78 261.22 L264.78 260.22 L265.78 259.22 L266.78 258.22 L267.78 257.22 L268.78 256.22 L269.78 255.22 L270.78 254.22 L271.78 253.22 L272.78 252.22 L273.78 251.22 L274.78 250.22 L275.78 249.22 L276.78 248.22 L277.78 247.22 L278.78 246.22 L279.78 245.22 L280.78 244.22 L281.78 243.22 L282.78 242.22 L283.78 241.22 L284.78 240.22 L285.78 239.22 L286.78 238.22 L287.78 237.22 L288.78 236.22 L289.78 235.22 L290.78 234.22 L291.78 233.22 L292.78 232.22 L293.78 231.22 L294.78 230.22 L295.78 229.22 L296.78 228.22 L297.78 227.22 L298.78 226.22 L299.78 225.22 L300.78 224.22 L301.78 223.22 L302.78 222.22 L303.78 221.22 L304.78 220.22 L305.78 219.22 L306.78 218.22 L307.78 217.22 L308.78 216.22 L309.78 215.22 L310.78 214.22 L311.78 213.22 L312.78 212.22 L313.78 211.22 L314.78 210.22 L315.78 209.22 L316.78 208.22 L317.78 207.22 L318.78 206.22 L319.78 205.22 L320.78 204.22 L321.78 203.22 L322.78 202.22 L323.78 201.22 L324.78 200.22 L325.78 199.22 L326.78 198.22 L327.78 197.22 L328.78 196.22 L329.78 195.22 L330.78 194.22 L331.78 193.22 L332.78 192.22 L333.78 191.22 L334.78 190.22 L335.78 189.22 L336.78 188.22 L337.78 187.22 L338.78 186.22 L339.78 185.22 L340.78 184.22 L341.78 183.22 L342.78 182.22 L343.78 181.22 L344.78 180.22 L345.78 179.22 L346.78 178.22 L347.78 177.22 L348.78 176.22 L349.78 175.22 L350.78 174.22 L351.78 173.22 L352.78 172.22 L353.78 171.22 L354.78 170.22 L355.78 169.22 L356.78 168.22 L357.78 167.22 L358.78 166.22 L359.78 165.22 L360.78 164.22 L361.78 163.22 L362.78 162.22 L363.78 161.22 L364.78 160.22 L365.78 159.22 L366.78 158.22 L367.78 157.22 L368.78 156.22 L369.78 155.22 L370.78 154.22 L371.78 153.22 L372.78 152.22 L373.78 151.22 L374.78 150.22 L375.78 149.22 L376.78 148.22 L377.78 147.22 L378.78 146.22 L379.78 145.22 L380.78 144.22 L381.78 143.22 L382.78 142.22 L383.78 141.22 L384.78 140.22 L385.78 139.22 L386.78 138.22 L387.78 137.22 L388.78 136.22 L389.78 135.22 L390.78 134.22 L391.78 133.22 L392.78 132.22 L393.78 131.22 L394.78 130.22 L395.78 129.22 L396.78 128.22 L397.78 127.22 L398.78 126.22 L399.78 125.22 L400.78 124.22 L401.78 123.22 L402.78 122.22 L403.78 121.22 L404.78 120.22 L405.78 119.22 L406.78 118.22 L407.78 117.22 L408.78 116.22 L409.78 115.22 L410.78 114.22 L411.78 113.22 L412.78 112.22 L413.78 111.22 L414.78 110.22 L415.78 109.22 L416.78 108.22 L417.78 107.22 L418.78 106.22 L419.78 105.22 L420.78 104.22 L421.78 103.22 L422.78 199.72 L422.79 199.71 L423.79 198.71 L424.79 197.71 L425.79 196.71 L426.79 195.71 L427.79 194.71 L428.79 193.71 L429.79 192.71 L430.79 191.71 L431.79 190.71 L432.79 189.71 L433.79 188.71 L434.79 187.71 L435.79 186.71 L436.79 185.71 L437.79 184.71 L438.79 183.71 L439.79 182.71 L440.79 181.71 L441.79 180.71 L442.79 179.71 L443.79 178.71 L444.79 177.71 L445.79 176.71 L446.79 175.71 L447.79 174.71 L448.79 173.71 L449.79 172.71 L450.79 171.71 L451.79 170.71 L452.79 169.71 L453.79 168.71 L454.79 167.71 L455.79 166.71 L456.79 165.71 L457.79 164.71 L458.79 163.71 L459.79 162.71 L460.79 161.71 L461.79 160.71 L462.79 159.71 L463.79 158.71 L464.79 157.71 L465.79 156.71 L466.79 155.71 L467.79 154.71 L468.79 153.71 L469.79 152.71 L470.79 151.71 L471.79 150.71 L472.79 149.71 L473.79 148.71 L474.79 147.71 L475.79 146.71 L476.79 145.71 L477.79 144.71 L478.79 143.71 L479.79 142.71 L480.79 141.71 L481.79 140.71 L482.79 139.71 L483.79 138.71 L484.79 137.71 L485.79 136.71 L486.79 135.71 L487.79 134.71 L488.79 133.71 L489.79 132.71 L490.79 131.71 L491.79 130.71 L492.79 129.71 L493.79 128.71 L494.79 127.71 L495.79 126.71 L496.79 125.71 L497.79 124.71 L498.79 123.71 L499.79 122.71 L500.79 121.71 L501.79 120.71 L502.79 119.71 L503.79 118.71 L504.79 117.71 L505.79 116.71 L506.79 115.71 L507.79 114.71 L508.79 113.71 L509.79 112.71 L510.79 111.71 L511.79 110.71 L512.79 109.71 L513.79 108.71 L514.79 107.71 L515.79 106.71 L516.79 105.71 L517.79 104.71 L518.79 103.71 L519.79 102.71 L520.79 199.21 L520.80 199.20 L521.80 198.20 L522.80 197.20 L523.80 196.20 L524.80 195.20 L525.80 194.20 L526.80 193.20 L527.80 192.20 L528.80 191.20 L529.80 190.20 L530.80 189.20 L531.80 188.20 L532.80 187.20 L533.80 186.20 L534.80 185.20 L535.80 184.20 L536.80 183.20 L537.80 182.20 L538.80 181.20 L539.80 180.20 L540.80 179.20 L541.80 178.20 L542.80 177.20 L543.80 176.20 L544.80 175.20 L545.80 174.20 L546.80 173.20 L547.80 172.20 L548.80 171.20 L549.80 170.20 L550.80 169.20 L551.80 168.20 L552.80 167.20 L553.80 166.20 L554.80 165.20 L555.80 164.20 L556.80 163.20 L557.80 162.20 L558.80 161.20 L559.80 160.20 L560.80 159.20 L561.80 158.20 L562.80 157.20 L563.80 156.20 L564.80 155.20 L565.80 154.20 L566.80 153.20 L567.80 152.20 L568.80 151.20 L569.80 150.20 L570.80 149.20 L571.80 148.20 L572.80 147.20 L573.80 146.20 L574.80 145.20 L575.80 144.20 L576.80 143.20 L577.80 142.20 L578.80 141.20 L579.80 140.20 L580.80 139.20 L581.80 138.20 L582.80 137.20 L583.80 136.20 L584.80 135.20 L585.80 134.20 L586.80 133.20 L587.80 132.20 L588.80 131.20 L589.80 130.20 L590.80 129.20 L591.80 128.20 L592.80 127.20 L593.80 126.20 L594.80 125.20 L595.80 124.20 L596.80 123.20 L597.80 122.20 L598.80 121.20 L599.80 120.20 L600.80 119.20 L601.80 118.20 L602.80 117.20 L603.80 116.20 L604.80 115.20 L605.80 114.20 L606.80 113.20 L607.80 112.20 L608.80 111.20 L609.80 110.20 L610.80 109.20 L611.80 108.20 L612.80 107.20 L613.80 106.20 L614.80 105.20 L615.80 104.20 L616.80 103.20 L617.80 199.70 L617.81 199.69 L618.81 198.69 L619.81 197.69 L620.81 196.69 L621.81 195.69 L622.81 194.69 L623.81 193.69 L624.81 192.69 L625.81 191.69 L626.81 190.69 L627.81 189.69 L628.81 188.69 L629.81 187.69 L630.81 186.69 L631.81 185.69 L632.81 184.69 L633.81 183.69 L634.81 182.69 L635.81 181.69 L636.81 180.69 L637.81 179.69 L638.81 178.69 L639.81 177.69 L640.81 176.69 L641.81 175.69 L642.81 174.69 L643.81 173.69 L644.81 172.69 L645.81 171.69 L646.81 170.69 L647.81 169.69 L648.81 168.69 L649.81 167.69 " style="fill:none;stroke:#3498DB;stroke-width:1;" /></g></svg>