<?xml version="1.0" standalone="no"?><!DOCTYPE svg PUBLIC "-//W3C//DTD SVG 1.1//EN" "http://www.w3.org/Graphics/SVG/1.1/DTD/svg11.dtd"><svg xmlns="http://www.w3.org/2000/svg" viewBox="0 0 650 400" version="1.1"><clipPath id="box"><rect x="0" y="0" width="650" height="400" style="fill:none;stroke:none;" /></clipPath><g clip-path="url(#box)"><rect x="0.00" y="0.00" width="650.00" height="400.00" style="fill:#FFFFFF;stroke:none;" /><path d="M0.00 395.00 L650.00 395.00 M0.00 362.00 L650.00 362.00 M0.00 330.00 L650.00 330.00 M0.00 297.00 L650.00 297.00 M0.00 265.00 L650.00 265.00 M0.00 232.00 L650.00 232.00 M0.00 200.00 L650.00 200.00 M0.00 167.00 L650.00 167.00 M0.00 135.00 L650.00 135.00 M0.00 102.00 L650.00 102.00 M0.00 70.00 L650.00 70.00 M0.00 37.00 L650.00 37.00 M0.00 5.00 L650.00 5.00 M0.00 0.00 L0.00 400.00 M32.00 0.00 L32.00 400.00 M65.00 0.00 L65.00 400.00 M97.00 0.00 L97.00 400.00 M130.00 0.00 L130.00 400.00 M162.00 0.00 L162.00 400.00 M195.00 0.00 L195.00 400.00 M227.00 0.00 L227.00 400.00 M260.00 0.00 L260.00 400.00 M292.00 0.00 L292.00 400.00 M325.00 0.00 L325.00 400.00 M357.00 0.00 L357.00 400.00 M390.00 0.00 L390.00 400.00 M422.00 0.00 L422.00 400.00 M454.00 0.00 L454.00 400.00 M487.00 0.00 L487.00 400.00 M520.00 0.00 L520.00 400.00 M552.00 0.00 L552.00 400.00 M585.00 0.00 L585.00 400.00 M617.00 0.00 L617.00 400.00 M650.00 0.00 L650.00 400.00 " style="fill:none;stroke:#D0D0D0;stroke-width:1;" /><path d="M325.00 0.00 L325.00 400.00 " style="fill:none;stroke:#000000;stroke-width:1;" /><path d="M0.00 200.00 L650.00 200.00 " style="fill:none;stroke:#000000;stroke-width:1;" /><text x="333.125" y="364.99999999999994" text-anchor="start" style="font:10px Droid Sans,Trebuchet MS,Arial,Helvetica,sans-serif;stroke:none;fill:#000000">-5</text><text x="333.125" y="332.5" text-anchor="start" style="font:10px Droid Sans,Trebuchet MS,Arial,Helvetica,sans-serif;stroke:none;fill:#000000">-4</text><text x="333.125" y="299.99999999999994" text-anchor="start" style="font:10px Droid Sans,Trebuchet MS,Arial,Helvetica,sans-serif;stroke:none;fill:#000000">-3</text><text x="333.125" y="267.49999999999994" text-anchor="start" style="font:10px Droid Sans,Trebuchet MS,Arial,Helvetica,sans-serif;stroke:none;fill:#000000">-2</text><text x="333.125" y="235.00000000000003" text-anchor="start" style="font:10px Droid Sans,Trebuchet MS,Arial,Helvetica,sans-serif;stroke:none;fill:#000000">-1</text><text x="333.125" y="202.5" text-anchor="start" style="font:10px Droid Sans,Trebuchet MS,Arial,Helvetica,sans-serif;stroke:none;fill:#000000">0</text><text x="333.125" y="170" text-anchor="start" style="font:10px Droid Sans,Trebuchet MS,Arial,Helvetica,sans-serif;stroke:none;fill:#000000">1</text><text x="333.125" y="137.5" text-anchor="start" style="font:10px Droid Sans,Trebuchet MS,Arial,Helvetica,sans-serif;stroke:none;fill:#000000">2</text><text x="333.125" y="105.00000000000001" text-anchor="start" style="font:10px Droid Sans,Trebuchet MS,Arial,Helvetica,sans-serif;stroke:none;fill:#000000">3</text><text x="333.125" y="72.5" text-anchor="start" style="font:10px Droid Sans,Trebuchet MS,Arial,Helvetica,sans-serif;stroke:none;fill:#000000">4</text><text x="333.125" y="40.000000000000014" text-anchor="start" style="font:10px Droid Sans,Trebuchet MS,Arial,Helvetica,sans-serif;stroke:none;fill:#000000">5</text><text x="32.5" y="216.125" text-anchor="middle" style="font:10px Droid Sans,Trebuchet MS,Arial,Helvetica,sans-serif;stroke:none;fill:#000000">-9</text><text x="65" y="216.125" text-anchor="middle" style="font:10px Droid Sans,Trebuchet MS,Arial,Helvetica,sans-serif;stroke:none;fill:#000000">-8</text><text x="97.5" y="216.125" text-anchor="middle" style="font:10px Droid Sans,Trebuchet MS,Arial,Helvetica,sans-serif;stroke:none;fill:#000000">-7</text><text x="130" y="216.125" text-anchor="middle" style="font:10px Droid Sans,Trebuchet MS,Arial,Helvetica,sans-serif;stroke:none;fill:#000000">-6</text><text x="162.5" y="216.125" text-anchor="middle" style="font:10px Droid Sans,Trebuchet MS,Arial,Helvetica,sans-serif;stroke:none;fill:#000000">-5</text><text x="195" y="216.125" text-anchor="middle" style="font:10px Droid Sans,Trebuchet MS,Arial,Helvetica,sans-serif;stroke:none;fill:#000000">-4</text><text x="227.49999999999997" y="216.125" text-anchor="middle" style="font:10px Droid Sans,Trebuchet MS,Arial,Helvetica,sans-serif;stroke:none;fill:#000000">-3</text><text x="260" y="216.125" text-anchor="middle" style="font:10px Droid Sans,Trebuchet MS,Arial,Helvetica,sans-serif;stroke:none;fill:#000000">-2</text><text x="292.5" y="216.125" text-anchor="middle" style="font:10px Droid Sans,Trebuchet MS,Arial,Helvetica,sans-serif;stroke:none;fill:#000000">-1</text><text x="325" y="216.125" text-anchor="middle" style="font:10px Droid Sans,Trebuchet MS,Arial,Helvetica,sans-serif;stroke:none;fill:#000000">0</text><text x="357.50000000000006" y="216.125" text-anchor="middle" style="font:10px Droid Sans,Trebuchet MS,Arial,Helvetica,sans-serif;stroke:none;fill:#000000">1</text><text x="390" y="216.125" text-anchor="middle" style="font:10px Droid Sans,Trebuchet MS,Arial,Helvetica,sans-serif;stroke:none;fill:#000000">2</text><text x="422.5" y="216.125" text-anchor="middle" style="font:10px Droid Sans,Trebuchet MS,Arial,Helvetica,sans-serif;stroke:none;fill:#000000">3</text><text x="454.99999999999994" y="216.125" text-anchor="middle" style="font:10px Droid Sans,Trebuchet MS,Arial,Helvetica,sans-serif;stroke:none;fill:#000000">4</text><text x="487.5" y="216.125" text-anchor="middle" style="font:10px Droid Sans,Trebuchet MS,Arial,Helvetica,sans-serif;stroke:none;fill:#000000">5</text><text x="520" y="216.125" text-anchor="middle" style="font:10px Droid Sans,Trebuchet MS,Arial,Helvetica,sans-serif;stroke:none;fill:#000000">6</text><text x="552.5" y="216.125" text-anchor="middle" style="font:10px Droid Sans,Trebuchet MS,Arial,Helvetica,sans-serif;stroke:none;fill:#000000">7</text><text x="585" y="216.125" text-anchor="middle" style="font:10px Droid Sans,Trebuchet MS,Arial,Helvetica,sans-serif;stroke:none;fill:#000000">8</text><text x="617.5" y="216.125" text-anchor="middle" style="font:10px Droid Sans,Trebuchet MS,Arial,Helvetica,sans-serif;stroke:none;fill:#000000">9</text><path d="M-10.00 200.00 L-0.25 184.00 L0.75 183.00 L1.75 182.00 L2.75 181.00 L3.75 180.00 L4.75 179.00 L5.75 178.00 L6.75 177.00 L7.75 176.00 L8.75 175.00 L9.75 174.00 L10.75 173.00 L11.75 172.00 L12.75 171.00 L13.75 170.00 L14.75 169.00 L15.75 168.00 L16.75 167.00 L17.75 166.00 L18.75 165.00 L19.75 164.00 L20.75 163.00 L21.75 162.00 L22.75 161.00 L23.75 160.00 L24.75 159.00 L25.75 158.00 L26.75 157.00 L27.75 156.00 L28.75 155.00 L29.75 154.00 L30.75 153.00 L31.75 152.00 L32.75 151.50 L34.75 153.50 L35.75 154.50 L36.75 155.50 L37.75 156.50 L38.75 157.50 L39.75 158.50 L40.75 159.50 L41.75 160.50 L42.75 161.50 L43.75 162.50 L44.75 163.50 L45.75 164.50 L46.75 165.50 L47.75 166.50 L48.75 167.50 L49.75 168.50 L50.75 169.50 L51.75 170.50 L52.75 171.50 L53.75 172.50 L54.75 173.50 L55.75 174.50 L56.75 175.50 L57.75 176.50 L58.75 177.50 L59.75 178.50 L60.75 179.50 L61.75 180.50 L62.75 181.50 L63.75 182.50 L64.75 183.50 L65.75 184.50 L66.75 185.50 L67.75 186.50 L68.75 187.50 L69.75 188.50 L70.75 189.50 L71.75 190.50 L72.75 191.50 L73.75 192.50 L74.75 193.50 L75.75 194.50 L76.75 195.50 L77.75 196.50 L78.75 197.50 L79.75 198.50 L80.75 199.50 L81.75 199.50 L83.75 197.50 L84.75 196.50 L85.75 195.50 L86.75 194.50 L87.75 193.50 L88.75 192.50 L89.75 191.50 L90.75 190.50 L91.75 189.50 L92.75 188.50 L93.75 187.50 L94.75 186.50 L95.75 185.50 L96.75 184.50 L97.75 183.50 L98.75 182.50 L99.75 181.50 L100.75 180.50 L101.75 179.50 L102.75 178.50 L103.75 177.50 L104.75 176.50 L105.75 175.50 L106.75 174.50 L107.75 173.50 L108.75 172.50 L109.75 171.50 L110.75 170.50 L111.75 169.50 L112.75 168.50 L113.75 167.50 L114.75 166.50 L115.75 165.50 L116.75 164.50 L117.75 163.50 L118.75 162.50 L119.75 161.50 L120.75 160.50 L121.75 159.50 L122.75 158.50 L123.75 157.50 L124.75 156.50 L125.75 155.50 L126.75 154.50 L127.75 153.50 L128.75 152.50 L129.75 151.50 L130.75 152.00 L132.75 154.00 L133.75 155.00 L134.75 156.00 L135.75 157.00 L136.75 158.00 L137.75 159.00 L138.75 160.00 L139.75 161.00 L140.75 162.00 L141.75 163.00 L142.75 164.00 L143.75 165.00 L144.75 166.00 L145.75 167.00 L146.75 168.00 L147.75 169.00 L148.75 170.00 L149.75 171.00 L150.75 172.00 L151.75 173.00 L152.75 174.00 L153.75 175.00 L154.75 176.00 L155.75 177.00 L156.75 178.00 L157.75 179.00 L158.75 180.00 L159.75 181.00 L160.75 182.00 L161.75 183.00 L162.75 184.00 L163.75 185.00 L164.75 186.00 L165.75 187.00 L166.75 188.00 L167.75 189.00 L168.75 190.00 L169.75 191.00 L170.75 192.00 L171.75 193.00 L172.75 194.00 L173.75 195.00 L174.75 196.00 L175.75 197.00 L176.75 198.00 L177.75 199.00 L178.75 200.00 L179.75 199.00 L180.75 198.00 L181.75 197.00 L182.75 196.00 L183.75 195.00 L184.75 194.00 L185.75 193.00 L186.75 192.00 L187.75 191.00 L188.75 190.00 L189.75 189.00 L190.75 188.00 L191.75 187.00 L192.75 186.00 L193.75 185.00 L194.75 184.00 L195.75 183.00 L196.75 182.00 L197.75 181.00 L198.75 180.00 L199.75 179.00 L200.75 178.00 L201.75 177.00 L202.75 176.00 L203.75 175.00 L204.75 174.00 L205.75 173.00 L206.75 172.00 L207.75 171.00 L208.75 170.00 L209.75 169.00 L210.75 168.00 L211.75 167.00 L212.75 166.00 L213.75 165.00 L214.75 164.00 L215.75 163.00 L216.75 162.00 L217.75 161.00 L218.75 160.00 L219.75 159.00 L220.75 158.00 L221.75 157.00 L222.75 156.00 L223.75 155.00 L224.75 154.00 L225.75 153.00 L226.75 152.00 L227.75 151.50 L229.75 153.50 L230.75 154.50 L231.75 155.50 L232.75 156.50 L233.75 157.50 L234.75 158.50 L235.75 159.50 L236.75 160.50 L237.75 161.50 L238.75 162.50 L239.75 163.50 L240.75 164.50 L241.75 165.50 L242.75 166.50 L243.75 167.50 L244.75 168.50 L245.75 169.50 L246.75 170.50 L247.75 171.50 L248.75 172.50 L249.75 173.50 L250.75 174.50 L251.75 175.50 L252.75 176.50 L253.75 177.50 L254.75 178.50 L255.75 179.50 L256.75 180.50 L257.75 181.50 L258.75 182.50 L259.75 183.50 L260.75 184.50 L261.75 185.50 L262.75 186.50 L263.75 187.50 L264.75 188.50 L265.75 189.50 L266.75 190.50 L267.75 191.50 L268.75 192.50 L269.75 193.50 L270.75 194.50 L271.75 195.50 L272.75 196.50 L273.75 197.50 L274.75 198.50 L275.75 199.50 L276.75 199.50 L278.75 197.50 L279.75 196.50 L280.75 195.50 L281.75 194.50 L282.75 193.50 L283.75 192.50 L284.75 191.50 L285.75 190.50 L286.75 189.50 L287.75 188.50 L288.75 187.50 L289.75 186.50 L290.75 185.50 L291.75 184.50 L292.75 183.50 L293.75 182.50 L294.75 181.50 L295.75 180.50 L296.75 179.50 L297.75 178.50 L298.75 177.50 L299.75 176.50 L300.75 175.50 L301.75 174.50 L302.75 173.50 L303.75 172.50 L304.75 171.50 L305.75 170.50 L306.75 169.50 L307.75 168.50 L308.75 167.50 L309.75 166.50 L310.75 165.50 L311.75 164.50 L312.75 163.50 L313.75 162.50 L314.75 161.50 L315.75 160.50 L316.75 159.50 L317.75 158.50 L318.75 157.50 L319.75 156.50 L320.75 155.50 L321.75 154.50 L322.75 153.50 L323.75 152.50 L324.75 151.50 L325.75 152.00 L327.74 153.99 L328.74 154.99 L329.74 155.99 L330.74 156.99 L331.74 157.99 L332.74 158.99 L333.74 159.99 L334.74 160.99 L335.74 161.99 L336.74 162.99 L337.74 163.99 L338.74 164.99 L339.74 165.99 L340.74 166.99 L341.74 167.99 L342.74 168.99 L343.74 169.99 L344.74 170.99 L345.74 171.99 L346.74 172.99 L347.74 173.99 L348.74 174.99 L349.74 175.99 L350.74 176.99 L351.74 177.99 L352.74 178.99 L353.74 179.99 L354.74 180.99 L355.74 181.99 L356.74 182.99 L357.74 183.99 L358.74 184.99 L359.74 185.99 L360.74 186.99 L361.74 187.99 L362.74 188.99 L363.74 189.99 L364.74 190.99 L365.74 191.99 L366.74 192.99 L367.74 193.99 L368.74 194.99 L369.74 195.99 L370.74 196.99 L371.74 197.99 L372.74 198.99 L373.74 199.99 L374.74 199.01 L375.76 197.99 L376.76 196.99 L377.76 195.99 L378.76 194.99 L379.76 193.99 L380.76 192.99 L381.76 191.99 L382.76 190.99 L383.76 189.99 L384.76 188.99 L385.76 187.99 L386.76 186.99 L387.76 185.99 L388.76 184.99 L389.76 183.99 L390.76 182.99 L391.76 181.99 L392.76 180.99 L393.76 179.99 L394.76 178.99 L395.76 177.99 L396.76 176.99 L397.76 175.99 L398.76 174.99 L399.76 173.99 L400.76 172.99 L401.76 171.99 L402.76 170.99 L403.76 169.99 L404.76 168.99 L405.76 167.99 L406.76 166.99 L407.76 165.99 L408.76 164.99 L409.76 163.99 L410.76 162.99 L411.76 161.99 L412.76 160.99 L413.76 159.99 L414.76 158.99 L415.76 157.99 L416.76 156.99 L417.76 155.99 L418.76 154.99 L419.76 153.99 L420.76 152.99 L421.76 151.99 L422.76 151.51 L424.76 153.51 L425.76 154.51 L426.76 155.51 L427.76 156.51 L428.76 157.51 L429.76 158.51 L430.76 159.51 L431.76 160.51 L432.76 161.51 L433.76 162.51 L434.76 163.51 L435.76 164.51 L436.76 165.51 L437.76 166.51 L438.76 167.51 L439.76 168.51 L440.76 169.51 L441.76 170.51 L442.76 171.51 L443.76 172.51 L444.76 173.51 L445.76 174.51 L446.76 175.51 L447.76 176.51 L448.76 177.51 L449.76 178.51 L450.76 179.51 L451.76 180.51 L452.76 181.51 L453.76 182.51 L454.76 183.51 L455.76 184.51 L456.76 185.51 L457.76 186.51 L458.76 187.51 L459.76 188.51 L460.76 189.51 L461.76 190.51 L462.76 191.51 L463.76 192.51 L464.76 193.51 L465.76 194.51 L466.76 195.51 L467.76 196.51 L468.76 197.51 L469.76 198.51 L470.76 199.51 L471.76 199.49 L473.76 197.49 L474.76 196.49 L475.76 195.49 L476.76 194.49 L477.76 193.49 L478.76 192.49 L479.76 191.49 L480.76 190.49 L481.76 189.49 L482.76 188.49 L483.76 187.49 L484.76 186.49 L485.76 185.49 L486.76 184.49 L487.76 183.49 L488.76 182.49 L489.76 181.49 L490.76 180.49 L491.76 179.49 L492.76 178.49 L493.76 177.49 L494.76 176.49 L495.76 175.49 L496.76 174.49 L497.76 173.49 L498.76 172.49 L499.76 171.49 L500.76 170.49 L501.76 169.49 L502.76 168.49 L503.76 167.49 L504.76 166.49 L505.76 165.49 L506.76 164.49 L507.76 163.49 L508.76 162.49 L509.76 161.49 L510.76 160.49 L511.76 159.49 L512.76 158.49 L513.76 157.49 L514.76 156.49 L515.76 155.49 L516.76 154.49 L517.76 153.49 L518.76 152.49 L519.76 151.49 L520.76 152.01 L522.67 153.92 L523.67 154.92 L524.67 155.92 L525.67 156.92 L526.67 157.92 L527.67 158.92 L528.67 159.92 L529.67 160.92 L530.67 161.92 L531.67 162.92 L532.67 163.92 L533.67 164.92 L534.67 165.92 L535.67 166.92 L536.67 167.92 L537.67 168.92 L538.67 169.92 L539.67 170.92 L540.67 171.92 L541.67 172.92 L542.67 173.92 L543.67 174.92 L544.67 175.92 L545.67 176.92 L546.67 177.92 L547.67 178.92 L548.67 179.92 L549.67 180.92 L550.67 181.92 L551.67 182.92 L552.67 183.92 L553.67 184.92 L554.67 185.92 L555.67 186.92 L556.67 187.92 L557.67 188.92 L558.67 189.92 L559.67 190.92 L560.67 191.92 L561.67 192.92 L562.67 193.92 L563.67 194.92 L564.67 195.92 L565.67 196.92 L566.67 197.92 L567.67 198.92 L568.67 199.92 L569.67 199.08 L570.87 197.88 L571.87 196.88 L572.87 195.88 L573.87 194.88 L574.87 193.88 L575.87 192.88 L576.87 191.88 L577.87 190.88 L578.87 189.88 L579.87 188.88 L580.87 187.88 L581.87 186.88 L582.87 185.88 L583.87 184.88 L584.87 183.88 L585.87 182.88 L586.87 181.88 L587.87 180.88 L588.87 179.88 L589.87 178.88 L590.87 177.88 L591.87 176.88 L592.87 175.88 L593.87 174.88 L594.87 173.88 L595.87 172.88 L596.87 171.88 L597.87 170.88 L598.87 169.88 L599.87 168.88 L600.87 167.88 L601.87 166.88 L602.87 165.88 L603.87 164.88 L604.87 163.88 L605.87 162.88 L606.87 161.88 L607.87 160.88 L608.87 159.88 L609.87 158.88 L610.87 157.88 L611.87 156.88 L612.87 155.88 L613.87 154.88 L614.87 153.88 L615.87 152.88 L616.87 151.88 L617.87 151.62 L619.87 153.62 L620.87 154.62 L621.87 155.62 L622.87 156.62 L623.87 157.62 L624.87 158.62 L625.87 159.62 L626.87 160.62 L627.87 161.62 L628.87 162.62 L629.87 163.62 L630.87 164.62 L631.87 165.62 L632.87 166.62 L633.87 167.62 L634.87 168.62 L635.87 169.62 L636.87 170.62 L637.87 171.62 L638.87 172.62 L639.87 173.62 L640.87 174.62 L641.87 175.62 L642.87 176.62 L643.87 177.62 L644.87 178.62 L645.87 179.62 L646.87 180.62 L647.87 181.62 L648.87 182.62 L649.87 183.62 " style="fill:none;stroke:#3498DB;stroke-width:1;" /></g></svg>