<?xml version="1.0" standalone="no"?><!DOCTYPE svg PUBLIC "-//W3C//DTD SVG 1.1//EN" "http://www.w3.org/Graphics/SVG/1.1/DTD/svg11.dtd"><svg xmlns="http://www.w3.org/2000/svg" viewBox="0 0 650 400" version="1.1"><clipPath id="box"><rect x="0" y="0" width="650" height="400" style="fill:none;stroke:none;" /></clipPath><g clip-path="url(#box)"><rect x="0.00" y="0.00" width="650.00" height="400.00" style="fill:#FFFFFF;stroke:none;" /><path d="M0.00 395.00 L650.00 395.00 M0.00 362.00 L650.00 362.00 M0.00 330.00 L650.00 330.00 M0.00 297.00 L650.00 297.00 M0.00 265.00 L650.00 265.00 M0.00 232.00 L650.00 232.00 M0.00 200.00 L650.00 200.00 M0.00 167.00 L650.00 167.00 M0.00 135.00 L650.00 135.00 M0.00 102.00 L650.00 102.00 M0.00 70.00 L650.00 70.00 M0.00 37.00 L650.00 37.00 M0.00 5.00 L650.00 5.00 M0.00 0.00 L0.00 400.00 M32.00 0.00 L32.00 400.00 M65.00 0.00 L65.00 400.00 M97.00 0.00 L97.00 400.00 M130.00 0.00 L130.00 400.00 M162.00 0.00 L162.00 400.00 M195.00 0.00 L195.00 400.00 M227.00 0.00 L227.00 400.00 M260.00 0.00 L260.00 400.00 M292.00 0.00 L292.00 400.00 M325.00 0.00 L325.00 400.00 M357.00 0.00 L357.00 400.00 M390.00 0.00 L390.00 400.00 M422.00 0.00 L422.00 400.00 M454.00 0.00 L454.00 400.00 M487.00 0.00 L487.00 400.00 M520.00 0.00 L520.00 400.00 M552.00 0.00 L552.00 400.00 M585.00 0.00 L585.00 400.00 M617.00 0.00 L617.00 400.00 M650.00 0.00 L650.00 400.00 " style="fill:none;stroke:#D0D0D0;stroke-width:1;" /><path d="M325.00 0.00 L325.00 400.00 " style="fill:none;stroke:#000000;stroke-width:1;" /><path d="M0.00 200.00 L650.00 200.00 " style="fill:none;stroke:#000000;stroke-width:1;" /><text x="333.125" y="364.99999999999994" text-anchor="start" style="font:10px Droid Sans,Trebuchet MS,Arial,Helvetica,sans-serif;stroke:none;fill:#000000">-5</text><text x="333.125" y="332.5" text-anchor="start" style="font:10px Droid Sans,Trebuchet MS,Arial,Helvetica,sans-serif;stroke:none;fill:#000000">-4</text><text x="333.125" y="299.99999999999994" text-anchor="start" style="font:10px Droid Sans,Trebuchet MS,Arial,Helvetica,sans-serif;stroke:none;fill:#000000">-3</text><text x="333.125" y="267.49999999999994" text-anchor="start" style="font:10px Droid Sans,Trebuchet MS,Arial,Helvetica,sans-serif;stroke:none;fill:#000000">-2</text><text x="333.125" y="235.00000000000003" text-anchor="start" style="font:10px Droid Sans,Trebuchet MS,Arial,Helvetica,sans-serif;stroke:none;fill:#000000">-1</text><text x="333.125" y="202.5" text-anchor="start" style="font:10px Droid Sans,Trebuchet MS,Arial,Helvetica,sans-serif;stroke:none;fill:#000000">0</text><text x="333.125" y="170" text-anchor="start" style="font:10px Droid Sans,Trebuchet MS,Arial,Helvetica,sans-serif;stroke:none;fill:#000000">1</text><text x="333.125" y="137.5" text-anchor="start" style="font:10px Droid Sans,Trebuchet MS,Arial,Helvetica,sans-serif;stroke:none;fill:#000000">2</text><text x="333.125" y="105.00000000000001" text-anchor="start" style="font:10px Droid Sans,Trebuchet MS,Arial,Helvetica,sans-serif;stroke:none;fill:#000000">3</text><text x="333.125" y="72.5" text-anchor="start" style="font:10px Droid Sans,Trebuchet MS,Arial,Helvetica,sans-serif;stroke:none;fill:#000000">4</text><text x="333.125" y="40.000000000000014" text-anchor="start" style="font:10px Droid Sans,Trebuchet MS,Arial,Helvetica,sans-serif;stroke:none;fill:#000000">5</text><text x="32.5" y="216.125" text-anchor="middle" style="font:10px Droid Sans,Trebuchet MS,Arial,Helvetica,sans-serif;stroke:none;fill:#000000">-9</text><text x="65" y="216.125" text-anchor="middle" style="font:10px Droid Sans,Trebuchet MS,Arial,Helvetica,sans-serif;stroke:none;fill:#000000">-8</text><text x="97.5" y="216.125" text-anchor="middle" style="font:10px Droid Sans,Trebuchet MS,Arial,Helvetica,sans-serif;stroke:none;fill:#000000">-7</text><text x="130" y="216.125" text-anchor="middle" style="font:10px Droid Sans,Trebuchet MS,Arial,Helvetica,sans-serif;stroke:none;fill:#000000">-6</text><text x="162.5" y="216.125" text-anchor="middle" style="font:10px Droid Sans,Trebuchet MS,Arial,Helvetica,sans-serif;stroke:none;fill:#000000">-5</text><text x="195" y="216.125" text-anchor="middle" style="font:10px Droid Sans,Trebuchet MS,Arial,Helvetica,sans-serif;stroke:none;fill:#000000">-4</text><text x="227.49999999999997" y="216.125" text-anchor="middle" style="font:10px Droid Sans,Trebuchet MS,Arial,Helvetica,sans-serif;stroke:none;fill:#000000">-3</text><text x="260" y="216.125" text-anchor="middle" style="font:10px Droid Sans,Trebuchet MS,Arial,Helvetica,sans-serif;stroke:none;fill:#000000">-2</text><text x="292.5" y="216.125" text-anchor="middle" style="font:10px Droid Sans,Trebuchet MS,Arial,Helvetica,sans-serif;stroke:none;fill:#000000">-1</text><text x="325" y="216.125" text-anchor="middle" style="font:10px Droid Sans,Trebuchet MS,Arial,Helvetica,sans-serif;stroke:none;fill:#000000">0</text><text x="357.50000000000006" y="216.125" text-anchor="middle" style="font:10px Droid Sans,Trebuchet MS,Arial,Helvetica,sans-serif;stroke:none;fill:#000000">1</text><text x="390" y="216.125" text-anchor="middle" style="font:10px Droid Sans,Trebuchet MS,Arial,Helvetica,sans-serif;stroke:none;fill:#000000">2</text><text x="422.5" y="216.125" text-anchor="middle" style="font:10px Droid Sans,Trebuchet MS,Arial,Helvetica,sans-serif;stroke:none;fill:#000000">3</text><text x="454.99999999999994" y="216.125" text-anchor="middle" style="font:10px Droid Sans,Trebuchet MS,Arial,Helvetica,sans-serif;stroke:none;fill:#000000">4</text><text x="487.5" y="216.125" text-anchor="middle" style="font:10px Droid Sans,Trebuchet MS,Arial,Helvetica,sans-serif;stroke:none;fill:#000000">5</text><text x="520" y="216.125" text-anchor="middle" style="font:10px Droid Sans,Trebuchet MS,Arial,Helvetica,sans-serif;stroke:none;fill:#000000">6</text><text x="552.5" y="216.125" text-anchor="middle" style="font:10px Droid Sans,Trebuchet MS,Arial,Helvetica,sans-serif;stroke:none;fill:#000000">7</text><text x="585" y="216.125" text-anchor="middle" style="font:10px Droid Sans,Trebuchet MS,Arial,Helvetica,sans-serif;stroke:none;fill:#000000">8</text><text x="617.5" y="216.125" text-anchor="middle" style="font:10px Droid Sans,Trebuchet MS,Arial,Helvetica,sans-serif;stroke:none;fill:#000000">9</text><path d="M-10.00 200.00 L-0.25 167.75 L0.75 166.75 L1.75 165.75 L2.75 164.75 L3.75 163.75 L4.75 162.75 L5.75 161.75 L6.75 160.75 L7.75 159.75 L8.75 158.75 L9.75 157.75 L10.75 156.75 L11.75 155.75 L12.75 154.75 L13.75 153.75 L14.75 152.75 L15.75 151.75 L16.75 150.75 L17.75 149.75 L18.75 148.75 L19.75 147.75 L20.75 146.75 L21.75 145.75 L22.75 144.75 L23.75 143.75 L24.75 142.75 L25.75 141.75 L26.75 140.75 L27.75 139.75 L28.75 138.75 L29.75 137.75 L30.75 136.75 L31.75 135.75 L32.75 135.25 L34.75 137.25 L35.75 138.25 L36.75 139.25 L37.75 140.25 L38.75 141.25 L39.75 142.25 L40.75 143.25 L41.75 144.25 L42.75 145.25 L43.75 146.25 L44.75 147.25 L45.75 148.25 L46.75 149.25 L47.75 150.25 L48.75 151.25 L49.75 152.25 L50.75 153.25 L51.75 154.25 L52.75 155.25 L53.75 156.25 L54.75 157.25 L55.75 158.25 L56.75 159.25 L57.75 160.25 L58.75 161.25 L59.75 162.25 L60.75 163.25 L61.75 164.25 L62.75 165.25 L63.75 166.25 L64.75 167.25 L65.75 168.25 L66.75 169.25 L67.75 170.25 L68.75 171.25 L69.75 172.25 L70.75 173.25 L71.75 174.25 L72.75 175.25 L73.75 176.25 L74.75 177.25 L75.75 178.25 L76.75 179.25 L77.75 180.25 L78.75 181.25 L79.75 182.25 L80.75 183.25 L81.75 183.25 L83.75 181.25 L84.75 180.25 L85.75 179.25 L86.75 178.25 L87.75 177.25 L88.75 176.25 L89.75 175.25 L90.75 174.25 L91.75 173.25 L92.75 172.25 L93.75 171.25 L94.75 170.25 L95.75 169.25 L96.75 168.25 L97.75 167.25 L98.75 166.25 L99.75 165.25 L100.75 164.25 L101.75 163.25 L102.75 162.25 L103.75 161.25 L104.75 160.25 L105.75 159.25 L106.75 158.25 L107.75 157.25 L108.75 156.25 L109.75 155.25 L110.75 154.25 L111.75 153.25 L112.75 152.25 L113.75 151.25 L114.75 150.25 L115.75 149.25 L116.75 148.25 L117.75 147.25 L118.75 146.25 L119.75 145.25 L120.75 144.25 L121.75 143.25 L122.75 142.25 L123.75 141.25 L124.75 140.25 L125.75 139.25 L126.75 138.25 L127.75 137.25 L128.75 136.25 L129.75 135.25 L130.75 135.75 L132.75 137.75 L133.75 138.75 L134.75 139.75 L135.75 140.75 L136.75 141.75 L137.75 142.75 L138.75 143.75 L139.75 144.75 L140.75 145.75 L141.75 146.75 L142.75 147.75 L143.75 148.75 L144.75 149.75 L145.75 150.75 L146.75 151.75 L147.75 152.75 L148.75 153.75 L149.75 154.75 L150.75 155.75 L151.75 156.75 L152.75 157.75 L153.75 158.75 L154.75 159.75 L155.75 160.75 L156.75 161.75 L157.75 162.75 L158.75 163.75 L159.75 164.75 L160.75 165.75 L161.75 166.75 L162.75 167.75 L163.75 168.75 L164.75 169.75 L165.75 170.75 L166.75 171.75 L167.75 172.75 L168.75 173.75 L169.75 174.75 L170.75 175.75 L171.75 176.75 L172.75 177.75 L173.75 178.75 L174.75 179.75 L175.75 180.75 L176.75 181.75 L177.75 182.75 L178.75 183.75 L179.75 182.75 L180.75 181.75 L181.75 180.75 L182.75 179.75 L183.75 178.75 L184.75 177.75 L185.75 176.75 L186.75 175.75 L187.75 174.75 L188.75 173.75 L189.75 172.75 L190.75 171.75 L191.75 170.75 L192.75 169.75 L193.75 168.75 L194.75 167.75 L195.75 166.75 L196.75 165.75 L197.75 164.75 L198.75 163.75 L199.75 162.75 L200.75 161.75 L201.75 160.75 L202.75 159.75 L203.75 158.75 L204.75 157.75 L205.75 156.75 L206.75 155.75 L207.75 154.75 L208.75 153.75 L209.75 152.75 L210.75 151.75 L211.75 150.75 L212.75 149.75 L213.75 148.75 L214.75 147.75 L215.75 146.75 L216.75 145.75 L217.75 144.75 L218.75 143.75 L219.75 142.75 L220.75 141.75 L221.75 140.75 L222.75 139.75 L223.75 138.75 L224.75 137.75 L225.75 136.75 L226.75 135.75 L227.75 135.25 L229.75 137.25 L230.75 138.25 L231.75 139.25 L232.75 140.25 L233.75 141.25 L234.75 142.25 L235.75 143.25 L236.75 144.25 L237.75 145.25 L238.75 146.25 L239.75 147.25 L240.75 148.25 L241.75 149.25 L242.75 150.25 L243.75 151.25 L244.75 152.25 L245.75 153.25 L246.75 154.25 L247.75 155.25 L248.75 156.25 L249.75 157.25 L250.75 158.25 L251.75 159.25 L252.75 160.25 L253.75 161.25 L254.75 162.25 L255.75 163.25 L256.75 164.25 L257.75 165.25 L258.75 166.25 L259.75 167.25 L260.75 168.25 L261.75 169.25 L262.75 170.25 L263.75 171.25 L264.75 172.25 L265.75 173.25 L266.75 174.25 L267.75 175.25 L268.75 176.25 L269.75 177.25 L270.75 178.25 L271.75 179.25 L272.75 180.25 L273.75 181.25 L274.75 182.25 L275.75 183.25 L276.75 183.25 L278.75 181.25 L279.75 180.25 L280.75 179.25 L281.75 178.25 L282.75 177.25 L283.75 176.25 L284.75 175.25 L285.75 174.25 L286.75 173.25 L287.75 172.25 L288.75 171.25 L289.75 170.25 L290.75 169.25 L291.75 168.25 L292.75 167.25 L293.75 166.25 L294.75 165.25 L295.75 164.25 L296.75 163.25 L297.75 162.25 L298.75 161.25 L299.75 160.25 L300.75 159.25 L301.75 158.25 L302.75 157.25 L303.75 156.25 L304.75 155.25 L305.75 154.25 L306.75 153.25 L307.75 152.25 L308.75 151.25 L309.75 150.25 L310.75 149.25 L311.75 148.25 L312.75 147.25 L313.75 146.25 L314.75 145.25 L315.75 144.25 L316.75 143.25 L317.75 142.25 L318.75 141.25 L319.75 140.25 L320.75 139.25 L321.75 138.25 L322.75 137.25 L323.75 136.25 L324.75 135.25 L325.75 135.75 L327.74 137.74 L328.74 138.74 L329.74 139.74 L330.74 140.74 L331.74 141.74 L332.74 142.74 L333.74 143.74 L334.74 144.74 L335.74 145.74 L336.74 146.74 L337.74 147.74 L338.74 148.74 L339.74 149.74 L340.74 150.74 L341.74 151.74 L342.74 152.74 L343.74 153.74 L344.74 154.74 L345.74 155.74 L346.74 156.74 L347.74 157.74 L348.74 158.74 L349.74 159.74 L350.74 160.74 L351.74 161.74 L352.74 162.74 L353.74 163.74 L354.74 164.74 L355.74 165.74 L356.74 166.74 L357.74 167.74 L358.74 168.74 L359.74 169.74 L360.74 170.74 L361.74 171.74 L362.74 172.74 L363.74 173.74 L364.74 174.74 L365.74 175.74 L366.74 176.74 L367.74 177.74 L368.74 178.74 L369.74 179.74 L370.74 180.74 L371.74 181.74 L372.74 182.74 L373.74 183.74 L374.74 182.76 L375.76 181.74 L376.76 180.74 L377.76 179.74 L378.76 178.74 L379.76 177.74 L380.76 176.74 L381.76 175.74 L382.76 174.74 L383.76 173.74 L384.76 172.74 L385.76 171.74 L386.76 170.74 L387.76 169.74 L388.76 168.74 L389.76 167.74 L390.76 166.74 L391.76 165.74 L392.76 164.74 L393.76 163.74 L394.76 162.74 L395.76 161.74 L396.76 160.74 L397.76 159.74 L398.76 158.74 L399.76 157.74 L400.76 156.74 L401.76 155.74 L402.76 154.74 L403.76 153.74 L404.76 152.74 L405.76 151.74 L406.76 150.74 L407.76 149.74 L408.76 148.74 L409.76 147.74 L410.76 146.74 L411.76 145.74 L412.76 144.74 L413.76 143.74 L414.76 142.74 L415.76 141.74 L416.76 140.74 L417.76 139.74 L418.76 138.74 L419.76 137.74 L420.76 136.74 L421.76 135.74 L422.76 135.26 L424.76 137.26 L425.76 138.26 L426.76 139.26 L427.76 140.26 L428.76 141.26 L429.76 142.26 L430.76 143.26 L431.76 144.26 L432.76 145.26 L433.76 146.26 L434.76 147.26 L435.76 148.26 L436.76 149.26 L437.76 150.26 L438.76 151.26 L439.76 152.26 L440.76 153.26 L441.76 154.26 L442.76 155.26 L443.76 156.26 L444.76 157.26 L445.76 158.26 L446.76 159.26 L447.76 160.26 L448.76 161.26 L449.76 162.26 L450.76 163.26 L451.76 164.26 L452.76 165.26 L453.76 166.26 L454.76 167.26 L455.76 168.26 L456.76 169.26 L457.76 170.26 L458.76 171.26 L459.76 172.26 L460.76 173.26 L461.76 174.26 L462.76 175.26 L463.76 176.26 L464.76 177.26 L465.76 178.26 L466.76 179.26 L467.76 180.26 L468.76 181.26 L469.76 182.26 L470.76 183.26 L471.76 183.24 L473.76 181.24 L474.76 180.24 L475.76 179.24 L476.76 178.24 L477.76 177.24 L478.76 176.24 L479.76 175.24 L480.76 174.24 L481.76 173.24 L482.76 172.24 L483.76 171.24 L484.76 170.24 L485.76 169.24 L486.76 168.24 L487.76 167.24 L488.76 166.24 L489.76 165.24 L490.76 164.24 L491.76 163.24 L492.76 162.24 L493.76 161.24 L494.76 160.24 L495.76 159.24 L496.76 158.24 L497.76 157.24 L498.76 156.24 L499.76 155.24 L500.76 154.24 L501.76 153.24 L502.76 152.24 L503.76 151.24 L504.76 150.24 L505.76 149.24 L506.76 148.24 L507.76 147.24 L508.76 146.24 L509.76 145.24 L510.76 144.24 L511.76 143.24 L512.76 142.24 L513.76 141.24 L514.76 140.24 L515.76 139.24 L516.76 138.24 L517.76 137.24 L518.76 136.24 L519.76 135.24 L520.76 135.76 L522.67 137.67 L523.67 138.67 L524.67 139.67 L525.67 140.67 L526.67 141.67 L527.67 142.67 L528.67 143.67 L529.67 144.67 L530.67 145.67 L531.67 146.67 L532.67 147.67 L533.67 148.67 L534.67 149.67 L535.67 150.67 L536.67 151.67 L537.67 152.67 L538.67 153.67 L539.67 154.67 L540.67 155.67 L541.67 156.67 L542.67 157.67 L543.67 158.67 L544.67 159.67 L545.67 160.67 L546.67 161.67 L547.67 162.67 L548.67 163.67 L549.67 164.67 L550.67 165.67 L551.67 166.67 L552.67 167.67 L553.67 168.67 L554.67 169.67 L555.67 170.67 L556.67 171.67 L557.67 172.67 L558.67 173.67 L559.67 174.67 L560.67 175.67 L561.67 176.67 L562.67 177.67 L563.67 178.67 L564.67 179.67 L565.67 180.67 L566.67 181.67 L567.67 182.67 L568.67 183.67 L569.67 182.83 L570.87 181.63 L571.87 180.63 L572.87 179.63 L573.87 178.63 L574.87 177.63 L575.87 176.63 L576.87 175.63 L577.87 174.63 L578.87 173.63 L579.87 172.63 L580.87 171.63 L581.87 170.63 L582.87 169.63 L583.87 168.63 L584.87 167.63 L585.87 166.63 L586.87 165.63 L587.87 164.63 L588.87 163.63 L589.87 162.63 L590.87 161.63 L591.87 160.63 L592.87 159.63 L593.87 158.63 L594.87 157.63 L595.87 156.63 L596.87 155.63 L597.87 154.63 L598.87 153.63 L599.87 152.63 L600.87 151.63 L601.87 150.63 L602.87 149.63 L603.87 148.63 L604.87 147.63 L605.87 146.63 L606.87 145.63 L607.87 144.63 L608.87 143.63 L609.87 142.63 L610.87 141.63 L611.87 140.63 L612.87 139.63 L613.87 138.63 L614.87 137.63 L615.87 136.63 L616.87 135.63 L617.87 135.37 L619.87 137.37 L620.87 138.37 L621.87 139.37 L622.87 140.37 L623.87 141.37 L624.87 142.37 L625.87 143.37 L626.87 144.37 L627.87 145.37 L628.87 146.37 L629.87 147.37 L630.87 148.37 L631.87 149.37 L632.87 150.37 L633.87 151.37 L634.87 152.37 L635.87 153.37 L636.87 154.37 L637.87 155.37 L638.87 156.37 L639.87 157.37 L640.87 158.37 L641.87 159.37 L642.87 160.37 L643.87 161.37 L644.87 162.37 L645.87 163.37 L646.87 164.37 L647.87 165.37 L648.87 166.37 L649.87 167.37 " style="fill:none;stroke:#3498DB;stroke-width:1;" /></g></svg>