<?xml version="1.0" standalone="no"?><!DOCTYPE svg PUBLIC "-//W3C//DTD SVG 1.1//EN" "http://www.w3.org/Graphics/SVG/1.1/DTD/svg11.dtd"><svg xmlns="http://www.w3.org/2000/svg" viewBox="0 0 650 400" version="1.1"><clipPath id="box"><rect x="0" y="0" width="650" height="400" style="fill:none;stroke:none;" /></clipPath><g clip-path="url(#box)"><rect x="0.00" y="0.00" width="650.00" height="400.00" style="fill:#FFFFFF;stroke:none;" /><path d="M0.00 395.00 L650.00 395.00 M0.00 362.00 L650.00 362.00 M0.00 330.00 L650.00 330.00 M0.00 297.00 L650.00 297.00 M0.00 265.00 L650.00 265.00 M0.00 232.00 L650.00 232.00 M0.00 200.00 L650.00 200.00 M0.00 167.00 L650.00 167.00 M0.00 135.00 L650.00 135.00 M0.00 102.00 L650.00 102.00 M0.00 70.00 L650.00 70.00 M0.00 37.00 L650.00 37.00 M0.00 5.00 L650.00 5.00 M0.00 0.00 L0.00 400.00 M32.00 0.00 L32.00 400.00 M65.00 0.00 L65.00 400.00 M97.00 0.00 L97.00 400.00 M130.00 0.00 L130.00 400.00 M162.00 0.00 L162.00 400.00 M195.00 0.00 L195.00 400.00 M227.00 0.00 L227.00 400.00 M260.00 0.00 L260.00 400.00 M292.00 0.00 L292.00 400.00 M325.00 0.00 L325.00 400.00 M357.00 0.00 L357.00 400.00 M390.00 0.00 L390.00 400.00 M422.00 0.00 L422.00 400.00 M454.00 0.00 L454.00 400.00 M487.00 0.00 L487.00 400.00 M520.00 0.00 L520.00 400.00 M552.00 0.00 L552.00 400.00 M585.00 0.00 L585.00 400.00 M617.00 0.00 L617.00 400.00 M650.00 0.00 L650.00 400.00 " style="fill:none;stroke:#D0D0D0;stroke-width:1;" /><path d="M325.00 0.00 L325.00 400.00 " style="fill:none;stroke:#000000;stroke-width:1;" /><path d="M0.00 200.00 L650.00 200.00 " style="fill:none;stroke:#000000;stroke-width:1;" /><text x="333.125" y="364.99999999999994" text-anchor="start" style="font:10px Droid Sans,Trebuchet MS,Arial,Helvetica,sans-serif;stroke:none;fill:#000000">-5</text><text x="333.125" y="332.5" text-anchor="start" style="font:10px Droid Sans,Trebuchet MS,Arial,Helvetica,sans-serif;stroke:none;fill:#000000">-4</text><text x="333.125" y="299.99999999999994" text-anchor="start" style="font:10px Droid Sans,Trebuchet MS,Arial,Helvetica,sans-serif;stroke:none;fill:#000000">-3</text><text x="333.125" y="267.49999999999994" text-anchor="start" style="font:10px Droid Sans,Trebuchet MS,Arial,Helvetica,sans-serif;stroke:none;fill:#000000">-2</text><text x="333.125" y="235.00000000000003" text-anchor="start" style="font:10px Droid Sans,Trebuchet MS,Arial,Helvetica,sans-serif;stroke:none;fill:#000000">-1</text><text x="333.125" y="202.5" text-anchor="start" style="font:10px Droid Sans,Trebuchet MS,Arial,Helvetica,sans-serif;stroke:none;fill:#000000">0</text><text x="333.125" y="170" text-anchor="start" style="font:10px Droid Sans,Trebuchet MS,Arial,Helvetica,sans-serif;stroke:none;fill:#000000">1</text><text x="333.125" y="137.5" text-anchor="start" style="font:10px Droid Sans,Trebuchet MS,Arial,Helvetica,sans-serif;stroke:none;fill:#000000">2</text><text x="333.125" y="105.00000000000001" text-anchor="start" style="font:10px Droid Sans,Trebuchet MS,Arial,Helvetica,sans-serif;stroke:none;fill:#000000">3</text><text x="333.125" y="72.5" text-anchor="start" style="font:10px Droid Sans,Trebuchet MS,Arial,Helvetica,sans-serif;stroke:none;fill:#000000">4</text><text x="333.125" y="40.000000000000014" text-anchor="start" style="font:10px Droid Sans,Trebuchet MS,Arial,Helvetica,sans-serif;stroke:none;fill:#000000">5</text><text x="32.5" y="216.125" text-anchor="middle" style="font:10px Droid Sans,Trebuchet MS,Arial,Helvetica,sans-serif;stroke:none;fill:#000000">-9</text><text x="65" y="216.125" text-anchor="middle" style="font:10px Droid Sans,Trebuchet MS,Arial,Helvetica,sans-serif;stroke:none;fill:#000000">-8</text><text x="97.5" y="216.125" text-anchor="middle" style="font:10px Droid Sans,Trebuchet MS,Arial,Helvetica,sans-serif;stroke:none;fill:#000000">-7</text><text x="130" y="216.125" text-anchor="middle" style="font:10px Droid Sans,Trebuchet MS,Arial,Helvetica,sans-serif;stroke:none;fill:#000000">-6</text><text x="162.5" y="216.125" text-anchor="middle" style="font:10px Droid Sans,Trebuchet MS,Arial,Helvetica,sans-serif;stroke:none;fill:#000000">-5</text><text x="195" y="216.125" text-anchor="middle" style="font:10px Droid Sans,Trebuchet MS,Arial,Helvetica,sans-serif;stroke:none;fill:#000000">-4</text><text x="227.49999999999997" y="216.125" text-anchor="middle" style="font:10px Droid Sans,Trebuchet MS,Arial,Helvetica,sans-serif;stroke:none;fill:#000000">-3</text><text x="260" y="216.125" text-anchor="middle" style="font:10px Droid Sans,Trebuchet MS,Arial,Helvetica,sans-serif;stroke:none;fill:#000000">-2</text><text x="292.5" y="216.125" text-anchor="middle" style="font:10px Droid Sans,Trebuchet MS,Arial,Helvetica,sans-serif;stroke:none;fill:#000000">-1</text><text x="325" y="216.125" text-anchor="middle" style="font:10px Droid Sans,Trebuchet MS,Arial,Helvetica,sans-serif;stroke:none;fill:#000000">0</text><text x="357.50000000000006" y="216.125" text-anchor="middle" style="font:10px Droid Sans,Trebuchet MS,Arial,Helvetica,sans-serif;stroke:none;fill:#000000">1</text><text x="390" y="216.125" text-anchor="middle" style="font:10px Droid Sans,Trebuchet MS,Arial,Helvetica,sans-serif;stroke:none;fill:#000000">2</text><text x="422.5" y="216.125" text-anchor="middle" style="font:10px Droid Sans,Trebuchet MS,Arial,Helvetica,sans-serif;stroke:none;fill:#000000">3</text><text x="454.99999999999994" y="216.125" text-anchor="middle" style="font:10px Droid Sans,Trebuchet MS,Arial,Helvetica,sans-serif;stroke:none;fill:#000000">4</text><text x="487.5" y="216.125" text-anchor="middle" style="font:10px Droid Sans,Trebuchet MS,Arial,Helvetica,sans-serif;stroke:none;fill:#000000">5</text><text x="520" y="216.125" text-anchor="middle" style="font:10px Droid Sans,Trebuchet MS,Arial,Helvetica,sans-serif;stroke:none;fill:#000000">6</text><text x="552.5" y="216.125" text-anchor="middle" style="font:10px Droid Sans,Trebuchet MS,Arial,Helvetica,sans-serif;stroke:none;fill:#000000">7</text><text x="585" y="216.125" text-anchor="middle" style="font:10px Droid Sans,Trebuchet MS,Arial,Helvetica,sans-serif;stroke:none;fill:#000000">8</text><text x="617.5" y="216.125" text-anchor="middle" style="font:10px Droid Sans,Trebuchet MS,Arial,Helvetica,sans-serif;stroke:none;fill:#000000">9</text><path d="M-10.00 200.00 L-0.25 216.00 L0.75 217.00 L1.75 218.00 L2.75 219.00 L3.75 220.00 L4.75 221.00 L5.75 222.00 L6.75 223.00 L7.75 224.00 L8.75 225.00 L9.75 226.00 L10.75 227.00 L11.75 228.00 L12.75 229.00 L13.75 230.00 L14.75 231.00 L15.75 232.00 L16.75 233.00 L17.75 234.00 L18.75 235.00 L19.75 236.00 L20.75 237.00 L21.75 238.00 L22.75 239.00 L23.75 240.00 L24.75 241.00 L25.75 242.00 L26.75 243.00 L27.75 244.00 L28.75 245.00 L29.75 246.00 L30.75 247.00 L31.75 248.00 L32.75 151.50 L32.76 151.51 L33.76 152.51 L34.76 153.51 L35.76 154.51 L36.76 155.51 L37.76 156.51 L38.76 157.51 L39.76 158.51 L40.76 159.51 L41.76 160.51 L42.76 161.51 L43.76 162.51 L44.76 163.51 L45.76 164.51 L46.76 165.51 L47.76 166.51 L48.76 167.51 L49.76 168.51 L50.76 169.51 L51.76 170.51 L52.76 171.51 L53.76 172.51 L54.76 173.51 L55.76 174.51 L56.76 175.51 L57.76 176.51 L58.76 177.51 L59.76 178.51 L60.76 179.51 L61.76 180.51 L62.76 181.51 L63.76 182.51 L64.76 183.51 L65.76 184.51 L66.76 185.51 L67.76 186.51 L68.76 187.51 L69.76 188.51 L70.76 189.51 L71.76 190.51 L72.76 191.51 L73.76 192.51 L74.76 193.51 L75.76 194.51 L76.76 195.51 L77.76 196.51 L78.76 197.51 L79.76 198.51 L80.76 199.51 L81.76 200.51 L82.76 201.51 L83.76 202.51 L84.76 203.51 L85.76 204.51 L86.76 205.51 L87.76 206.51 L88.76 207.51 L89.76 208.51 L90.76 209.51 L91.76 210.51 L92.76 211.51 L93.76 212.51 L94.76 213.51 L95.76 214.51 L96.76 215.51 L97.76 216.51 L98.76 217.51 L99.76 218.51 L100.76 219.51 L101.76 220.51 L102.76 221.51 L103.76 222.51 L104.76 223.51 L105.76 224.51 L106.76 225.51 L107.76 226.51 L108.76 227.51 L109.76 228.51 L110.76 229.51 L111.76 230.51 L112.76 231.51 L113.76 232.51 L114.76 233.51 L115.76 234.51 L116.76 235.51 L117.76 236.51 L118.76 237.51 L119.76 238.51 L120.76 239.51 L121.76 240.51 L122.76 241.51 L123.76 242.51 L124.76 243.51 L125.76 244.51 L126.76 245.51 L127.76 246.51 L128.76 247.51 L129.76 248.51 L130.76 152.01 L130.77 152.02 L131.77 153.02 L132.77 154.02 L133.77 155.02 L134.77 156.02 L135.77 157.02 L136.77 158.02 L137.77 159.02 L138.77 160.02 L139.77 161.02 L140.77 162.02 L141.77 163.02 L142.77 164.02 L143.77 165.02 L144.77 166.02 L145.77 167.02 L146.77 168.02 L147.77 169.02 L148.77 170.02 L149.77 171.02 L150.77 172.02 L151.77 173.02 L152.77 174.02 L153.77 175.02 L154.77 176.02 L155.77 177.02 L156.77 178.02 L157.77 179.02 L158.77 180.02 L159.77 181.02 L160.77 182.02 L161.77 183.02 L162.77 184.02 L163.77 185.02 L164.77 186.02 L165.77 187.02 L166.77 188.02 L167.77 189.02 L168.77 190.02 L169.77 191.02 L170.77 192.02 L171.77 193.02 L172.77 194.02 L173.77 195.02 L174.77 196.02 L175.77 197.02 L176.77 198.02 L177.77 199.02 L178.77 200.02 L179.77 201.02 L180.77 202.02 L181.77 203.02 L182.77 204.02 L183.77 205.02 L184.77 206.02 L185.77 207.02 L186.77 208.02 L187.77 209.02 L188.77 210.02 L189.77 211.02 L190.77 212.02 L191.77 213.02 L192.77 214.02 L193.77 215.02 L194.77 216.02 L195.77 217.02 L196.77 218.02 L197.77 219.02 L198.77 220.02 L199.77 221.02 L200.77 222.02 L201.77 223.02 L202.77 224.02 L203.77 225.02 L204.77 226.02 L205.77 227.02 L206.77 228.02 L207.77 229.02 L208.77 230.02 L209.77 231.02 L210.77 232.02 L211.77 233.02 L212.77 234.02 L213.77 235.02 L214.77 236.02 L215.77 237.02 L216.77 238.02 L217.77 239.02 L218.77 240.02 L219.77 241.02 L220.77 242.02 L221.77 243.02 L222.77 244.02 L223.77 245.02 L224.77 246.02 L225.77 247.02 L226.77 248.02 L227.77 151.52 L227.78 151.53 L228.78 152.53 L229.78 153.53 L230.78 154.53 L231.78 155.53 L232.78 156.53 L233.78 157.53 L234.78 158.53 L235.78 159.53 L236.78 160.53 L237.78 161.53 L238.78 162.53 L239.78 163.53 L240.78 164.53 L241.78 165.53 L242.78 166.53 L243.78 167.53 L244.78 168.53 L245.78 169.53 L246.78 170.53 L247.78 171.53 L248.78 172.53 L249.78 173.53 L250.78 174.53 L251.78 175.53 L252.78 176.53 L253.78 177.53 L254.78 178.53 L255.78 179.53 L256.78 180.53 L257.78 181.53 L258.78 182.53 L259.78 183.53 L260.78 184.53 L261.78 185.53 L262.78 186.53 L263.78 187.53 L264.78 188.53 L265.78 189.53 L266.78 190.53 L267.78 191.53 L268.78 192.53 L269.78 193.53 L270.78 194.53 L271.78 195.53 L272.78 196.53 L273.78 197.53 L274.78 198.53 L275.78 199.53 L276.78 200.53 L277.78 201.53 L278.78 202.53 L279.78 203.53 L280.78 204.53 L281.78 205.53 L282.78 206.53 L283.78 207.53 L284.78 208.53 L285.78 209.53 L286.78 210.53 L287.78 211.53 L288.78 212.53 L289.78 213.53 L290.78 214.53 L291.78 215.53 L292.78 216.53 L293.78 217.53 L294.78 218.53 L295.78 219.53 L296.78 220.53 L297.78 221.53 L298.78 222.53 L299.78 223.53 L300.78 224.53 L301.78 225.53 L302.78 226.53 L303.78 227.53 L304.78 228.53 L305.78 229.53 L306.78 230.53 L307.78 231.53 L308.78 232.53 L309.78 233.53 L310.78 234.53 L311.78 235.53 L312.78 236.53 L313.78 237.53 L314.78 238.53 L315.78 239.53 L316.78 240.53 L317.78 241.53 L318.78 242.53 L319.78 243.53 L320.78 244.53 L321.78 245.53 L322.78 246.53 L323.78 247.53 L324.78 248.53 L325.78 247.97 L327.56 246.19 L328.56 245.19 L329.56 244.19 L330.56 243.19 L331.56 242.19 L332.56 241.19 L333.56 240.19 L334.56 239.19 L335.56 238.19 L336.56 237.19 L337.56 236.19 L338.56 235.19 L339.56 234.19 L340.56 233.19 L341.56 232.19 L342.56 231.19 L343.56 230.19 L344.56 229.19 L345.56 228.19 L346.56 227.19 L347.56 226.19 L348.56 225.19 L349.56 224.19 L350.56 223.19 L351.56 222.19 L352.56 221.19 L353.56 220.19 L354.56 219.19 L355.56 218.19 L356.56 217.19 L357.56 216.19 L358.56 215.19 L359.56 214.19 L360.56 213.19 L361.56 212.19 L362.56 211.19 L363.56 210.19 L364.56 209.19 L365.56 208.19 L366.56 207.19 L367.56 206.19 L368.56 205.19 L369.56 204.19 L370.56 203.19 L371.56 202.19 L372.56 201.19 L373.56 200.19 L374.56 199.19 L375.56 198.19 L376.56 197.19 L377.56 196.19 L378.56 195.19 L379.56 194.19 L380.56 193.19 L381.56 192.19 L382.56 191.19 L383.56 190.19 L384.56 189.19 L385.56 188.19 L386.56 187.19 L387.56 186.19 L388.56 185.19 L389.56 184.19 L390.56 183.19 L391.56 182.19 L392.56 181.19 L393.56 180.19 L394.56 179.19 L395.56 178.19 L396.56 177.19 L397.56 176.19 L398.56 175.19 L399.56 174.19 L400.56 173.19 L401.56 172.19 L402.56 171.19 L403.56 170.19 L404.56 169.19 L405.56 168.19 L406.56 167.19 L407.56 166.19 L408.56 165.19 L409.56 164.19 L410.56 163.19 L411.56 162.19 L412.56 161.19 L413.56 160.19 L414.56 159.19 L415.56 158.19 L416.56 157.19 L417.56 156.19 L418.56 155.19 L419.56 154.19 L420.56 153.19 L421.56 152.19 L422.56 248.69 L422.57 248.68 L423.57 247.68 L424.57 246.68 L425.57 245.68 L426.57 244.68 L427.57 243.68 L428.57 242.68 L429.57 241.68 L430.57 240.68 L431.57 239.68 L432.57 238.68 L433.57 237.68 L434.57 236.68 L435.57 235.68 L436.57 234.68 L437.57 233.68 L438.57 232.68 L439.57 231.68 L440.57 230.68 L441.57 229.68 L442.57 228.68 L443.57 227.68 L444.57 226.68 L445.57 225.68 L446.57 224.68 L447.57 223.68 L448.57 222.68 L449.57 221.68 L450.57 220.68 L451.57 219.68 L452.57 218.68 L453.57 217.68 L454.57 216.68 L455.57 215.68 L456.57 214.68 L457.57 213.68 L458.57 212.68 L459.57 211.68 L460.57 210.68 L461.57 209.68 L462.57 208.68 L463.57 207.68 L464.57 206.68 L465.57 205.68 L466.57 204.68 L467.57 203.68 L468.57 202.68 L469.57 201.68 L470.57 200.68 L471.57 199.68 L472.57 198.68 L473.57 197.68 L474.57 196.68 L475.57 195.68 L476.57 194.68 L477.57 193.68 L478.57 192.68 L479.57 191.68 L480.57 190.68 L481.57 189.68 L482.57 188.68 L483.57 187.68 L484.57 186.68 L485.57 185.68 L486.57 184.68 L487.57 183.68 L488.57 182.68 L489.57 181.68 L490.57 180.68 L491.57 179.68 L492.57 178.68 L493.57 177.68 L494.57 176.68 L495.57 175.68 L496.57 174.68 L497.57 173.68 L498.57 172.68 L499.57 171.68 L500.57 170.68 L501.57 169.68 L502.57 168.68 L503.57 167.68 L504.57 166.68 L505.57 165.68 L506.57 164.68 L507.57 163.68 L508.57 162.68 L509.57 161.68 L510.57 160.68 L511.57 159.68 L512.57 158.68 L513.57 157.68 L514.57 156.68 L515.57 155.68 L516.57 154.68 L517.57 153.68 L518.57 152.68 L519.57 151.68 L520.57 248.18 L520.58 248.17 L521.58 247.17 L522.58 246.17 L523.58 245.17 L524.58 244.17 L525.58 243.17 L526.58 242.17 L527.58 241.17 L528.58 240.17 L529.58 239.17 L530.58 238.17 L531.58 237.17 L532.58 236.17 L533.58 235.17 L534.58 234.17 L535.58 233.17 L536.58 232.17 L537.58 231.17 L538.58 230.17 L539.58 229.17 L540.58 228.17 L541.58 227.17 L542.58 226.17 L543.58 225.17 L544.58 224.17 L545.58 223.17 L546.58 222.17 L547.58 221.17 L548.58 220.17 L549.58 219.17 L550.58 218.17 L551.58 217.17 L552.58 216.17 L553.58 215.17 L554.58 214.17 L555.58 213.17 L556.58 212.17 L557.58 211.17 L558.58 210.17 L559.58 209.17 L560.58 208.17 L561.58 207.17 L562.58 206.17 L563.58 205.17 L564.58 204.17 L565.58 203.17 L566.58 202.17 L567.58 201.17 L568.58 200.17 L569.58 199.17 L570.58 198.17 L571.58 197.17 L572.58 196.17 L573.58 195.17 L574.58 194.17 L575.58 193.17 L576.58 192.17 L577.58 191.17 L578.58 190.17 L579.58 189.17 L580.58 188.17 L581.58 187.17 L582.58 186.17 L583.58 185.17 L584.58 184.17 L585.58 183.17 L586.58 182.17 L587.58 181.17 L588.58 180.17 L589.58 179.17 L590.58 178.17 L591.58 177.17 L592.58 176.17 L593.58 175.17 L594.58 174.17 L595.58 173.17 L596.58 172.17 L597.58 171.17 L598.58 170.17 L599.58 169.17 L600.58 168.17 L601.58 167.17 L602.58 166.17 L603.58 165.17 L604.58 164.17 L605.58 163.17 L606.58 162.17 L607.58 161.17 L608.58 160.17 L609.58 159.17 L610.58 158.17 L611.58 157.17 L612.58 156.17 L613.58 155.17 L614.58 154.17 L615.58 153.17 L616.58 152.17 L617.58 248.67 L617.59 248.66 L618.59 247.66 L619.59 246.66 L620.59 245.66 L621.59 244.66 L622.59 243.66 L623.59 242.66 L624.59 241.66 L625.59 240.66 L626.59 239.66 L627.59 238.66 L628.59 237.66 L629.59 236.66 L630.59 235.66 L631.59 234.66 L632.59 233.66 L633.59 232.66 L634.59 231.66 L635.59 230.66 L636.59 229.66 L637.59 228.66 L638.59 227.66 L639.59 226.66 L640.59 225.66 L641.59 224.66 L642.59 223.66 L643.59 222.66 L644.59 221.66 L645.59 220.66 L646.59 219.66 L647.59 218.66 L648.59 217.66 L649.59 216.66 " style="fill:none;stroke:#3498DB;stroke-width:1;" /></g></svg>