<?xml version="1.0" standalone="no"?><!DOCTYPE svg PUBLIC "-//W3C//DTD SVG 1.1//EN" "http://www.w3.org/Graphics/SVG/1.1/DTD/svg11.dtd"><svg xmlns="http://www.w3.org/2000/svg" viewBox="0 0 650 400" version="1.1"><clipPath id="box"><rect x="0" y="0" width="650" height="400" style="fill:none;stroke:none;" /></clipPath><g clip-path="url(#box)"><rect x="0.00" y="0.00" width="650.00" height="400.00" style="fill:#FFFFFF;stroke:none;" /><path d="M0.00 395.00 L650.00 395.00 M0.00 362.00 L650.00 362.00 M0.00 330.00 L650.00 330.00 M0.00 297.00 L650.00 297.00 M0.00 265.00 L650.00 265.00 M0.00 232.00 L650.00 232.00 M0.00 200.00 L650.00 200.00 M0.00 167.00 L650.00 167.00 M0.00 135.00 L650.00 135.00 M0.00 102.00 L650.00 102.00 M0.00 70.00 L650.00 70.00 M0.00 37.00 L650.00 37.00 M0.00 5.00 L650.00 5.00 M0.00 0.00 L0.00 400.00 M32.00 0.00 L32.00 400.00 M65.00 0.00 L65.00 400.00 M97.00 0.00 L97.00 400.00 M130.00 0.00 L130.00 400.00 M162.00 0.00 L162.00 400.00 M195.00 0.00 L195.00 400.00 M227.00 0.00 L227.00 400.00 M260.00 0.00 L260.00 400.00 M292.00 0.00 L292.00 400.00 M325.00 0.00 L325.00 400.00 M357.00 0.00 L357.00 400.00 M390.00 0.00 L390.00 400.00 M422.00 0.00 L422.00 400.00 M454.00 0.00 L454.00 400.00 M487.00 0.00 L487.00 400.00 M520.00 0.00 L520.00 400.00 M552.00 0.00 L552.00 400.00 M585.00 0.00 L585.00 400.00 M617.00 0.00 L617.00 400.00 M650.00 0.00 L650.00 400.00 " style="fill:none;stroke:#D0D0D0;stroke-width:1;" /><path d="M325.00 0.00 L325.00 400.00 " style="fill:none;stroke:#000000;stroke-width:1;" /><path d="M0.00 200.00 L650.00 200.00 " style="fill:none;stroke:#000000;stroke-width:1;" /><text x="333.125" y="364.99999999999994" text-anchor="start" style="font:10px Droid Sans,Trebuchet MS,Arial,Helvetica,sans-serif;stroke:none;fill:#000000">-5</text><text x="333.125" y="332.5" text-anchor="start" style="font:10px Droid Sans,Trebuchet MS,Arial,Helvetica,sans-serif;stroke:none;fill:#000000">-4</text><text x="333.125" y="299.99999999999994" text-anchor="start" style="font:10px Droid Sans,Trebuchet MS,Arial,Helvetica,sans-serif;stroke:none;fill:#000000">-3</text><text x="333.125" y="267.49999999999994" text-anchor="start" style="font:10px Droid Sans,Trebuchet MS,Arial,Helvetica,sans-serif;stroke:none;fill:#000000">-2</text><text x="333.125" y="235.00000000000003" text-anchor="start" style="font:10px Droid Sans,Trebuchet MS,Arial,Helvetica,sans-serif;stroke:none;fill:#000000">-1</text><text x="333.125" y="202.5" text-anchor="start" style="font:10px Droid Sans,Trebuchet MS,Arial,Helvetica,sans-serif;stroke:none;fill:#000000">0</text><text x="333.125" y="170" text-anchor="start" style="font:10px Droid Sans,Trebuchet MS,Arial,Helvetica,sans-serif;stroke:none;fill:#000000">1</text><text x="333.125" y="137.5" text-anchor="start" style="font:10px Droid Sans,Trebuchet MS,Arial,Helvetica,sans-serif;stroke:none;fill:#000000">2</text><text x="333.125" y="105.00000000000001" text-anchor="start" style="font:10px Droid Sans,Trebuchet MS,Arial,Helvetica,sans-serif;stroke:none;fill:#000000">3</text><text x="333.125" y="72.5" text-anchor="start" style="font:10px Droid Sans,Trebuchet MS,Arial,Helvetica,sans-serif;stroke:none;fill:#000000">4</text><text x="333.125" y="40.000000000000014" text-anchor="start" style="font:10px Droid Sans,Trebuchet MS,Arial,Helvetica,sans-serif;stroke:none;fill:#000000">5</text><text x="32.5" y="216.125" text-anchor="middle" style="font:10px Droid Sans,Trebuchet MS,Arial,Helvetica,sans-serif;stroke:none;fill:#000000">-9</text><text x="65" y="216.125" text-anchor="middle" style="font:10px Droid Sans,Trebuchet MS,Arial,Helvetica,sans-serif;stroke:none;fill:#000000">-8</text><text x="97.5" y="216.125" text-anchor="middle" style="font:10px Droid Sans,Trebuchet MS,Arial,Helvetica,sans-serif;stroke:none;fill:#000000">-7</text><text x="130" y="216.125" text-anchor="middle" style="font:10px Droid Sans,Trebuchet MS,Arial,Helvetica,sans-serif;stroke:none;fill:#000000">-6</text><text x="162.5" y="216.125" text-anchor="middle" style="font:10px Droid Sans,Trebuchet MS,Arial,Helvetica,sans-serif;stroke:none;fill:#000000">-5</text><text x="195" y="216.125" text-anchor="middle" style="font:10px Droid Sans,Trebuchet MS,Arial,Helvetica,sans-serif;stroke:none;fill:#000000">-4</text><text x="227.49999999999997" y="216.125" text-anchor="middle" style="font:10px Droid Sans,Trebuchet MS,Arial,Helvetica,sans-serif;stroke:none;fill:#000000">-3</text><text x="260" y="216.125" text-anchor="middle" style="font:10px Droid Sans,Trebuchet MS,Arial,Helvetica,sans-serif;stroke:none;fill:#000000">-2</text><text x="292.5" y="216.125" text-anchor="middle" style="font:10px Droid Sans,Trebuchet MS,Arial,Helvetica,sans-serif;stroke:none;fill:#000000">-1</text><text x="325" y="216.125" text-anchor="middle" style="font:10px Droid Sans,Trebuchet MS,Arial,Helvetica,sans-serif;stroke:none;fill:#000000">0</text><text x="357.50000000000006" y="216.125" text-anchor="middle" style="font:10px Droid Sans,Trebuchet MS,Arial,Helvetica,sans-serif;stroke:none;fill:#000000">1</text><text x="390" y="216.125" text-anchor="middle" style="font:10px Droid Sans,Trebuchet MS,Arial,Helvetica,sans-serif;stroke:none;fill:#000000">2</text><text x="422.5" y="216.125" text-anchor="middle" style="font:10px Droid Sans,Trebuchet MS,Arial,Helvetica,sans-serif;stroke:none;fill:#000000">3</text><text x="454.99999999999994" y="216.125" text-anchor="middle" style="font:10px Droid Sans,Trebuchet MS,Arial,Helvetica,sans-serif;stroke:none;fill:#000000">4</text><text x="487.5" y="216.125" text-anchor="middle" style="font:10px Droid Sans,Trebuchet MS,Arial,Helvetica,sans-serif;stroke:none;fill:#000000">5</text><text x="520" y="216.125" text-anchor="middle" style="font:10px Droid Sans,Trebuchet MS,Arial,Helvetica,sans-serif;stroke:none;fill:#000000">6</text><text x="552.5" y="216.125" text-anchor="middle" style="font:10px Droid Sans,Trebuchet MS,Arial,Helvetica,sans-serif;stroke:none;fill:#000000">7</text><text x="585" y="216.125" text-anchor="middle" style="font:10px Droid Sans,Trebuchet MS,Arial,Helvetica,sans-serif;stroke:none;fill:#000000">8</text><text x="617.5" y="216.125" text-anchor="middle" style="font:10px Droid Sans,Trebuchet MS,Arial,Helvetica,sans-serif;stroke:none;fill:#000000">9</text><path d="M-10.00 200.00 L-0.25 167.25 L0.75 168.25 L1.75 169.25 L2.75 170.25 L3.75 171.25 L4.75 172.25 L5.75 173.25 L6.75 174.25 L7.75 175.25 L8.75 176.25 L9.75 177.25 L10.75 178.25 L11.75 179.25 L12.75 180.25 L13.75 181.25 L14.75 182.25 L15.75 183.25 L16.75 184.25 L17.75 185.25 L18.75 186.25 L19.75 187.25 L20.75 188.25 L21.75 189.25 L22.75 190.25 L23.75 191.25 L24.75 192.25 L25.75 193.25 L26.75 194.25 L27.75 195.25 L28.75 196.25 L29.75 197.25 L30.75 198.25 L31.75 199.25 L32.75 102.75 L32.76 102.76 L33.76 103.76 L34.76 104.76 L35.76 105.76 L36.76 106.76 L37.76 107.76 L38.76 108.76 L39.76 109.76 L40.76 110.76 L41.76 111.76 L42.76 112.76 L43.76 113.76 L44.76 114.76 L45.76 115.76 L46.76 116.76 L47.76 117.76 L48.76 118.76 L49.76 119.76 L50.76 120.76 L51.76 121.76 L52.76 122.76 L53.76 123.76 L54.76 124.76 L55.76 125.76 L56.76 126.76 L57.76 127.76 L58.76 128.76 L59.76 129.76 L60.76 130.76 L61.76 131.76 L62.76 132.76 L63.76 133.76 L64.76 134.76 L65.76 135.76 L66.76 136.76 L67.76 137.76 L68.76 138.76 L69.76 139.76 L70.76 140.76 L71.76 141.76 L72.76 142.76 L73.76 143.76 L74.76 144.76 L75.76 145.76 L76.76 146.76 L77.76 147.76 L78.76 148.76 L79.76 149.76 L80.76 150.76 L81.76 151.76 L82.76 152.76 L83.76 153.76 L84.76 154.76 L85.76 155.76 L86.76 156.76 L87.76 157.76 L88.76 158.76 L89.76 159.76 L90.76 160.76 L91.76 161.76 L92.76 162.76 L93.76 163.76 L94.76 164.76 L95.76 165.76 L96.76 166.76 L97.76 167.76 L98.76 168.76 L99.76 169.76 L100.76 170.76 L101.76 171.76 L102.76 172.76 L103.76 173.76 L104.76 174.76 L105.76 175.76 L106.76 176.76 L107.76 177.76 L108.76 178.76 L109.76 179.76 L110.76 180.76 L111.76 181.76 L112.76 182.76 L113.76 183.76 L114.76 184.76 L115.76 185.76 L116.76 186.76 L117.76 187.76 L118.76 188.76 L119.76 189.76 L120.76 190.76 L121.76 191.76 L122.76 192.76 L123.76 193.76 L124.76 194.76 L125.76 195.76 L126.76 196.76 L127.76 197.76 L128.76 198.76 L129.76 199.76 L130.76 103.26 L130.77 103.27 L131.77 104.27 L132.77 105.27 L133.77 106.27 L134.77 107.27 L135.77 108.27 L136.77 109.27 L137.77 110.27 L138.77 111.27 L139.77 112.27 L140.77 113.27 L141.77 114.27 L142.77 115.27 L143.77 116.27 L144.77 117.27 L145.77 118.27 L146.77 119.27 L147.77 120.27 L148.77 121.27 L149.77 122.27 L150.77 123.27 L151.77 124.27 L152.77 125.27 L153.77 126.27 L154.77 127.27 L155.77 128.27 L156.77 129.27 L157.77 130.27 L158.77 131.27 L159.77 132.27 L160.77 133.27 L161.77 134.27 L162.77 135.27 L163.77 136.27 L164.77 137.27 L165.77 138.27 L166.77 139.27 L167.77 140.27 L168.77 141.27 L169.77 142.27 L170.77 143.27 L171.77 144.27 L172.77 145.27 L173.77 146.27 L174.77 147.27 L175.77 148.27 L176.77 149.27 L177.77 150.27 L178.77 151.27 L179.77 152.27 L180.77 153.27 L181.77 154.27 L182.77 155.27 L183.77 156.27 L184.77 157.27 L185.77 158.27 L186.77 159.27 L187.77 160.27 L188.77 161.27 L189.77 162.27 L190.77 163.27 L191.77 164.27 L192.77 165.27 L193.77 166.27 L194.77 167.27 L195.77 168.27 L196.77 169.27 L197.77 170.27 L198.77 171.27 L199.77 172.27 L200.77 173.27 L201.77 174.27 L202.77 175.27 L203.77 176.27 L204.77 177.27 L205.77 178.27 L206.77 179.27 L207.77 180.27 L208.77 181.27 L209.77 182.27 L210.77 183.27 L211.77 184.27 L212.77 185.27 L213.77 186.27 L214.77 187.27 L215.77 188.27 L216.77 189.27 L217.77 190.27 L218.77 191.27 L219.77 192.27 L220.77 193.27 L221.77 194.27 L222.77 195.27 L223.77 196.27 L224.77 197.27 L225.77 198.27 L226.77 199.27 L227.77 102.77 L227.78 102.78 L228.78 103.78 L229.78 104.78 L230.78 105.78 L231.78 106.78 L232.78 107.78 L233.78 108.78 L234.78 109.78 L235.78 110.78 L236.78 111.78 L237.78 112.78 L238.78 113.78 L239.78 114.78 L240.78 115.78 L241.78 116.78 L242.78 117.78 L243.78 118.78 L244.78 119.78 L245.78 120.78 L246.78 121.78 L247.78 122.78 L248.78 123.78 L249.78 124.78 L250.78 125.78 L251.78 126.78 L252.78 127.78 L253.78 128.78 L254.78 129.78 L255.78 130.78 L256.78 131.78 L257.78 132.78 L258.78 133.78 L259.78 134.78 L260.78 135.78 L261.78 136.78 L262.78 137.78 L263.78 138.78 L264.78 139.78 L265.78 140.78 L266.78 141.78 L267.78 142.78 L268.78 143.78 L269.78 144.78 L270.78 145.78 L271.78 146.78 L272.78 147.78 L273.78 148.78 L274.78 149.78 L275.78 150.78 L276.78 151.78 L277.78 152.78 L278.78 153.78 L279.78 154.78 L280.78 155.78 L281.78 156.78 L282.78 157.78 L283.78 158.78 L284.78 159.78 L285.78 160.78 L286.78 161.78 L287.78 162.78 L288.78 163.78 L289.78 164.78 L290.78 165.78 L291.78 166.78 L292.78 167.78 L293.78 168.78 L294.78 169.78 L295.78 170.78 L296.78 171.78 L297.78 172.78 L298.78 173.78 L299.78 174.78 L300.78 175.78 L301.78 176.78 L302.78 177.78 L303.78 178.78 L304.78 179.78 L305.78 180.78 L306.78 181.78 L307.78 182.78 L308.78 183.78 L309.78 184.78 L310.78 185.78 L311.78 186.78 L312.78 187.78 L313.78 188.78 L314.78 189.78 L315.78 190.78 L316.78 191.78 L317.78 192.78 L318.78 193.78 L319.78 194.78 L320.78 195.78 L321.78 196.78 L322.78 197.78 L323.78 198.78 L324.78 199.78 L325.78 199.22 L327.56 197.44 L328.56 196.44 L329.56 195.44 L330.56 194.44 L331.56 193.44 L332.56 192.44 L333.56 191.44 L334.56 190.44 L335.56 189.44 L336.56 188.44 L337.56 187.44 L338.56 186.44 L339.56 185.44 L340.56 184.44 L341.56 183.44 L342.56 182.44 L343.56 181.44 L344.56 180.44 L345.56 179.44 L346.56 178.44 L347.56 177.44 L348.56 176.44 L349.56 175.44 L350.56 174.44 L351.56 173.44 L352.56 172.44 L353.56 171.44 L354.56 170.44 L355.56 169.44 L356.56 168.44 L357.56 167.44 L358.56 166.44 L359.56 165.44 L360.56 164.44 L361.56 163.44 L362.56 162.44 L363.56 161.44 L364.56 160.44 L365.56 159.44 L366.56 158.44 L367.56 157.44 L368.56 156.44 L369.56 155.44 L370.56 154.44 L371.56 153.44 L372.56 152.44 L373.56 151.44 L374.56 150.44 L375.56 149.44 L376.56 148.44 L377.56 147.44 L378.56 146.44 L379.56 145.44 L380.56 144.44 L381.56 143.44 L382.56 142.44 L383.56 141.44 L384.56 140.44 L385.56 139.44 L386.56 138.44 L387.56 137.44 L388.56 136.44 L389.56 135.44 L390.56 134.44 L391.56 133.44 L392.56 132.44 L393.56 131.44 L394.56 130.44 L395.56 129.44 L396.56 128.44 L397.56 127.44 L398.56 126.44 L399.56 125.44 L400.56 124.44 L401.56 123.44 L402.56 122.44 L403.56 121.44 L404.56 120.44 L405.56 119.44 L406.56 118.44 L407.56 117.44 L408.56 116.44 L409.56 115.44 L410.56 114.44 L411.56 113.44 L412.56 112.44 L413.56 111.44 L414.56 110.44 L415.56 109.44 L416.56 108.44 L417.56 107.44 L418.56 106.44 L419.56 105.44 L420.56 104.44 L421.56 103.44 L422.56 199.94 L422.57 199.93 L423.57 198.93 L424.57 197.93 L425.57 196.93 L426.57 195.93 L427.57 194.93 L428.57 193.93 L429.57 192.93 L430.57 191.93 L431.57 190.93 L432.57 189.93 L433.57 188.93 L434.57 187.93 L435.57 186.93 L436.57 185.93 L437.57 184.93 L438.57 183.93 L439.57 182.93 L440.57 181.93 L441.57 180.93 L442.57 179.93 L443.57 178.93 L444.57 177.93 L445.57 176.93 L446.57 175.93 L447.57 174.93 L448.57 173.93 L449.57 172.93 L450.57 171.93 L451.57 170.93 L452.57 169.93 L453.57 168.93 L454.57 167.93 L455.57 166.93 L456.57 165.93 L457.57 164.93 L458.57 163.93 L459.57 162.93 L460.57 161.93 L461.57 160.93 L462.57 159.93 L463.57 158.93 L464.57 157.93 L465.57 156.93 L466.57 155.93 L467.57 154.93 L468.57 153.93 L469.57 152.93 L470.57 151.93 L471.57 150.93 L472.57 149.93 L473.57 148.93 L474.57 147.93 L475.57 146.93 L476.57 145.93 L477.57 144.93 L478.57 143.93 L479.57 142.93 L480.57 141.93 L481.57 140.93 L482.57 139.93 L483.57 138.93 L484.57 137.93 L485.57 136.93 L486.57 135.93 L487.57 134.93 L488.57 133.93 L489.57 132.93 L490.57 131.93 L491.57 130.93 L492.57 129.93 L493.57 128.93 L494.57 127.93 L495.57 126.93 L496.57 125.93 L497.57 124.93 L498.57 123.93 L499.57 122.93 L500.57 121.93 L501.57 120.93 L502.57 119.93 L503.57 118.93 L504.57 117.93 L505.57 116.93 L506.57 115.93 L507.57 114.93 L508.57 113.93 L509.57 112.93 L510.57 111.93 L511.57 110.93 L512.57 109.93 L513.57 108.93 L514.57 107.93 L515.57 106.93 L516.57 105.93 L517.57 104.93 L518.57 103.93 L519.57 102.93 L520.57 199.43 L520.58 199.42 L521.58 198.42 L522.58 197.42 L523.58 196.42 L524.58 195.42 L525.58 194.42 L526.58 193.42 L527.58 192.42 L528.58 191.42 L529.58 190.42 L530.58 189.42 L531.58 188.42 L532.58 187.42 L533.58 186.42 L534.58 185.42 L535.58 184.42 L536.58 183.42 L537.58 182.42 L538.58 181.42 L539.58 180.42 L540.58 179.42 L541.58 178.42 L542.58 177.42 L543.58 176.42 L544.58 175.42 L545.58 174.42 L546.58 173.42 L547.58 172.42 L548.58 171.42 L549.58 170.42 L550.58 169.42 L551.58 168.42 L552.58 167.42 L553.58 166.42 L554.58 165.42 L555.58 164.42 L556.58 163.42 L557.58 162.42 L558.58 161.42 L559.58 160.42 L560.58 159.42 L561.58 158.42 L562.58 157.42 L563.58 156.42 L564.58 155.42 L565.58 154.42 L566.58 153.42 L567.58 152.42 L568.58 151.42 L569.58 150.42 L570.58 149.42 L571.58 148.42 L572.58 147.42 L573.58 146.42 L574.58 145.42 L575.58 144.42 L576.58 143.42 L577.58 142.42 L578.58 141.42 L579.58 140.42 L580.58 139.42 L581.58 138.42 L582.58 137.42 L583.58 136.42 L584.58 135.42 L585.58 134.42 L586.58 133.42 L587.58 132.42 L588.58 131.42 L589.58 130.42 L590.58 129.42 L591.58 128.42 L592.58 127.42 L593.58 126.42 L594.58 125.42 L595.58 124.42 L596.58 123.42 L597.58 122.42 L598.58 121.42 L599.58 120.42 L600.58 119.42 L601.58 118.42 L602.58 117.42 L603.58 116.42 L604.58 115.42 L605.58 114.42 L606.58 113.42 L607.58 112.42 L608.58 111.42 L609.58 110.42 L610.58 109.42 L611.58 108.42 L612.58 107.42 L613.58 106.42 L614.58 105.42 L615.58 104.42 L616.58 103.42 L617.58 199.92 L617.59 199.91 L618.59 198.91 L619.59 197.91 L620.59 196.91 L621.59 195.91 L622.59 194.91 L623.59 193.91 L624.59 192.91 L625.59 191.91 L626.59 190.91 L627.59 189.91 L628.59 188.91 L629.59 187.91 L630.59 186.91 L631.59 185.91 L632.59 184.91 L633.59 183.91 L634.59 182.91 L635.59 181.91 L636.59 180.91 L637.59 179.91 L638.59 178.91 L639.59 177.91 L640.59 176.91 L641.59 175.91 L642.59 174.91 L643.59 173.91 L644.59 172.91 L645.59 171.91 L646.59 170.91 L647.59 169.91 L648.59 168.91 L649.59 167.91 " style="fill:none;stroke:#3498DB;stroke-width:1;" /></g></svg>